<?xml version="1.0" encoding="utf-8"?>
<?xml-stylesheet href="http://plr2-dev/themes/vrsz/images/geoposlib/geopos_symb.css" type="text/css"?>
<!DOCTYPE svg PUBLIC "-//W3C//DTD SVG 1.1//EN" "http://www.w3.org/Graphics/SVG/1.1/DTD/svg11.dtd">
<svg enable-background="new 0 0 6.633 18.773" height="18.773px" id="Ebene_1" version="1.1" viewBox="0 0 6.633 18.773" width="6.633px" x="0px" xml:space="preserve" xmlns="http://www.w3.org/2000/svg" xmlns:xlink="http://www.w3.org/1999/xlink" y="0px">
<style type="text/css">@import url(&quot;/themes/vrsz/images/geoposlib/geopos_symb.css&quot;);</style> 
<g>
	<polygon class="static_symb_np_stroke" points="6.529,7.895 6.458,7.895 6.458,13.241 3.403,10.68 3.403,0.326 6.485,3.399 6.633,3.265    3.372,-0.001 3.331,-0.001 0.07,3.265 0.175,3.374 3.265,0.326 3.265,10.564 0,7.828 0,13.333 0.07,13.333 0.07,7.978    3.265,10.654 3.265,18.775 3.403,18.775 3.403,10.772 6.529,13.388  "></polygon>
	<polygon class="static_symb_np_fill" points="6.529,7.895 6.458,7.895 6.458,13.241 3.403,10.68 3.403,0.326 6.485,3.399 6.633,3.265    3.372,-0.001 3.331,-0.001 0.07,3.265 0.175,3.374 3.265,0.326 3.265,10.564 0,7.828 0,13.333 0.07,13.333 0.07,7.978    3.265,10.654 3.265,18.775 3.403,18.775 3.403,10.772 6.529,13.388  "></polygon>
</g>
</svg>
