<?xml version="1.0" encoding="utf-8"?>
<?xml-stylesheet href="http://plr2-dev/themes/vrsz/images/geoposlib/geopos_symb.css" type="text/css"?>
<!DOCTYPE svg PUBLIC "-//W3C//DTD SVG 1.1//EN" "http://www.w3.org/Graphics/SVG/1.1/DTD/svg11.dtd">
<svg enable-background="new 0 0 21.82 2.43" height="2.43px" id="Ebene_1" version="1.1" viewBox="0 0 21.82 2.43" width="21.82px" x="0px" xml:space="preserve" xmlns="http://www.w3.org/2000/svg" xmlns:xlink="http://www.w3.org/1999/xlink" y="0px">
<style type="text/css">@import url(&quot;/themes/vrsz/images/geoposlib/geopos_symb.css&quot;);</style> 
<g>
	<path class="static_symb_ms_stroke" d="M20.349,2.429l-0.094-0.006l-0.125-0.043l-0.145-0.174l-0.031-0.211v-0.18l0.031-0.215l0.145-0.18l0.135-0.049l0.094,0.004   L20.5,1.431l0.135,0.187l0.033,0.197v0.184l-0.035,0.213l-0.141,0.176L20.349,2.429z M20.273,2.361h0.064l0.119-0.033l0.119-0.148   l0.029-0.193v-0.17l-0.029-0.184l-0.111-0.146l-0.127-0.051h-0.064l-0.098,0.043L20.049,1.63l-0.027,0.192v0.174l0.027,0.184   l0.129,0.156L20.273,2.361z M19.658,2.429H19.06V2.287l0.045-0.086l0.303-0.311l0.195-0.148l0.021-0.058v-0.07l-0.029-0.074   l-0.076-0.078l-0.102-0.03h-0.08l-0.107,0.03l-0.078,0.065l-0.018,0.091l-0.066-0.022l0.035-0.099l0.104-0.095l0.129-0.03h0.096   l0.127,0.035l0.098,0.101l0.041,0.1l-0.006,0.101l-0.043,0.082l-0.189,0.145L19.16,2.244l-0.027,0.063v0.059h0.531v0.061h-0.008   v0.004H19.658z M21.812,2.398H21.75V1.81l-0.023-0.045L21.699,1.74L21.64,1.717h-0.111L21.492,1.73l-0.061,0.055l-0.027,0.053   v0.561h-0.059V1.834l-0.027-0.061l-0.049-0.045L21.23,1.717h-0.098L21.09,1.73l-0.061,0.059l-0.031,0.047v0.563h-0.061V1.681h0.061   v0.045l0.063-0.055l0.059-0.019h0.123l0.057,0.021L21.328,1.7l0.045,0.042l0.004,0.02l0.01-0.012l0.082-0.076l0.055-0.021   l0.135,0.004l0.072,0.037l0.047,0.038l0.016,0.029l0.018,0.045v0.596h0.01L21.812,2.398L21.812,2.398z M10.66,2.386h-0.092   l-0.127-0.043l-0.148-0.176l-0.029-0.207V1.775l0.029-0.212l0.148-0.18l0.134-0.048l0.091,0.001l0.146,0.058l0.135,0.186   l0.031,0.194l0.002,0.186l-0.035,0.213l-0.143,0.176L10.66,2.386z M10.582,2.324h0.07l0.11-0.035l0.124-0.154l0.031-0.18V1.777   l-0.031-0.186l-0.113-0.146l-0.121-0.051h-0.065l-0.104,0.041L10.359,1.59l-0.032,0.191v0.178l0.032,0.184l0.125,0.15L10.582,2.324   z M0.393,2.386H0.302L0.174,2.344L0.032,2.168l-0.033-0.207V1.777l0.035-0.213l0.144-0.181l0.135-0.05l0.092,0.002l0.139,0.056   l0.005,0.008l0.133,0.18l0.034,0.193v0.188L0.677,2.168L0.536,2.345L0.393,2.386z M0.315,2.324h0.069l0.11-0.035l0.124-0.154   L0.65,1.945V1.777L0.618,1.591L0.501,1.439l-0.12-0.046H0.321L0.214,1.434L0.092,1.587L0.06,1.781v0.178l0.033,0.176l0.124,0.154   L0.315,2.324z M10,2.355H9.94V1.362H10V2.355z M20.338,1.015h-20V0h0.063v0.955h19.867V0h0.068L20.338,1.015L20.338,1.015z    M10.402,0.92h-0.065V0.001h0.063v0.918L10.402,0.92L10.402,0.92z"></path>
	<path class="static_symb_ms_fill" d="M20.349,2.429l-0.094-0.006l-0.125-0.043l-0.145-0.174l-0.031-0.211v-0.18l0.031-0.215l0.145-0.18l0.135-0.049l0.094,0.004   L20.5,1.431l0.135,0.187l0.033,0.197v0.184l-0.035,0.213l-0.141,0.176L20.349,2.429z M20.273,2.361h0.064l0.119-0.033l0.119-0.148   l0.029-0.193v-0.17l-0.029-0.184l-0.111-0.146l-0.127-0.051h-0.064l-0.098,0.043L20.049,1.63l-0.027,0.192v0.174l0.027,0.184   l0.129,0.156L20.273,2.361z M19.658,2.429H19.06V2.287l0.045-0.086l0.303-0.311l0.195-0.148l0.021-0.058v-0.07l-0.029-0.074   l-0.076-0.078l-0.102-0.03h-0.08l-0.107,0.03l-0.078,0.065l-0.018,0.091l-0.066-0.022l0.035-0.099l0.104-0.095l0.129-0.03h0.096   l0.127,0.035l0.098,0.101l0.041,0.1l-0.006,0.101l-0.043,0.082l-0.189,0.145L19.16,2.244l-0.027,0.063v0.059h0.531v0.061h-0.008   v0.004H19.658z M21.812,2.398H21.75V1.81l-0.023-0.045L21.699,1.74L21.64,1.717h-0.111L21.492,1.73l-0.061,0.055l-0.027,0.053   v0.561h-0.059V1.834l-0.027-0.061l-0.049-0.045L21.23,1.717h-0.098L21.09,1.73l-0.061,0.059l-0.031,0.047v0.563h-0.061V1.681h0.061   v0.045l0.063-0.055l0.059-0.019h0.123l0.057,0.021L21.328,1.7l0.045,0.042l0.004,0.02l0.01-0.012l0.082-0.076l0.055-0.021   l0.135,0.004l0.072,0.037l0.047,0.038l0.016,0.029l0.018,0.045v0.596h0.01L21.812,2.398L21.812,2.398z M10.66,2.386h-0.092   l-0.127-0.043l-0.148-0.176l-0.029-0.207V1.775l0.029-0.212l0.148-0.18l0.134-0.048l0.091,0.001l0.146,0.058l0.135,0.186   l0.031,0.194l0.002,0.186l-0.035,0.213l-0.143,0.176L10.66,2.386z M10.582,2.324h0.07l0.11-0.035l0.124-0.154l0.031-0.18V1.777   l-0.031-0.186l-0.113-0.146l-0.121-0.051h-0.065l-0.104,0.041L10.359,1.59l-0.032,0.191v0.178l0.032,0.184l0.125,0.15L10.582,2.324   z M0.393,2.386H0.302L0.174,2.344L0.032,2.168l-0.033-0.207V1.777l0.035-0.213l0.144-0.181l0.135-0.05l0.092,0.002l0.139,0.056   l0.005,0.008l0.133,0.18l0.034,0.193v0.188L0.677,2.168L0.536,2.345L0.393,2.386z M0.315,2.324h0.069l0.11-0.035l0.124-0.154   L0.65,1.945V1.777L0.618,1.591L0.501,1.439l-0.12-0.046H0.321L0.214,1.434L0.092,1.587L0.06,1.781v0.178l0.033,0.176l0.124,0.154   L0.315,2.324z M10,2.355H9.94V1.362H10V2.355z M20.338,1.015h-20V0h0.063v0.955h19.867V0h0.072v1.015H20.338z M10.402,0.92h-0.065   V0.001h0.063v0.918L10.402,0.92L10.402,0.92z"></path>
</g>
</svg>
