<?xml version="1.0" standalone="no"?><!DOCTYPE svg PUBLIC "-//W3C//DTD SVG 1.1//EN" "http://www.w3.org/Graphics/SVG/1.1/DTD/svg11.dtd">
<?xml-stylesheet href="http://plr2-dev/themes/vrsz/images/geoposlib/geopos_symb.css" type="text/css"?>
<svg baseProfile="full" contentScriptType="text/ecmascript" contentStyleType="text/css" enable-background="new 0 0 140.279 24.76" height="24.76px" id="Ebene_1" preserveAspectRatio="xMidYMid meet" version="1.1" viewBox="0 0 140.279 24.76" width="140.279px" x="0px" xml:space="preserve" xmlns="http://www.w3.org/2000/svg" xmlns:xlink="http://www.w3.org/1999/xlink" y="0px" zoomAndPan="magnify"> 
  <style type="text/css">@import url(&quot;/themes/vrsz/images/geoposlib/geopos_symb.css&quot;);</style> 
  <g>  
  <g id="background">  
  <rect fill="#FFFFFF" height="24.732" stroke="#010202" stroke-miterlimit="10" stroke-width="0.1998" width="140.138" x="0.072" y="0.014"></rect>  
  <line fill="none" stroke="#010202" stroke-miterlimit="10" stroke-width="0.1998" x1="0.072" x2="140.209" y1="17.371" y2="17.371"></line>  
		<path d="M16.517,8.627l-0.209-0.807c-0.081-0.311,0.025-0.615,0.292-0.638    c0.211-0.021,0.382,0.204,0.382,0.401c0,0.398-0.229,0.719-0.319,0.849C16.64,8.465,16.584,8.536,16.517,8.627z M16.46,12.139    c0.007,0.031,0.007,0.064,0.007,0.076c0,0.136-0.101,0.24-0.257,0.24c-0.153,0-0.236-0.138-0.236-0.24    c0-0.136,0.104-0.256,0.249-0.253h0.015l-0.136-0.214l-0.042-0.065l-0.393-0.618l-0.083-0.127l-0.258-0.402    c0,0-0.046-0.075-0.066-0.142v-0.004c-0.005-0.009-0.007-0.019-0.008-0.029c0-0.008-0.004-0.014-0.005-0.017    c-0.004-0.02-0.004-0.039-0.004-0.059c0-0.188,0.15-0.337,0.335-0.337c0.062,0,0.119,0.016,0.173,0.045l-0.043-0.094l-0.979-2.125    l0.488-0.365L16.46,12.139z M14.148,11.964l-0.043,0.059l-0.14,0.2c0,0-0.105,0.139-0.15,0.177    c-0.045,0.043-0.104,0.067-0.167,0.067c-0.136,0-0.246-0.11-0.246-0.245c0-0.137,0.112-0.245,0.246-0.245    c0.089,0,0.158,0.032,0.2,0.084l0.017,0.026l0.081-0.231l0.009-0.027c0.217-0.617,0.747-2.123,0.772-2.186    c0.029-0.077,0.099-0.206,0.256-0.237c0.1-0.021,0.154-0.002,0.181,0.013l0.163,0.348c-0.239,0-0.434,0.197-0.434,0.492    c0,0.125,0.07,0.271,0.166,0.423L14.148,11.964z M14.26,7.745l-0.25,0.187l-0.407,0.302c-0.042,0.029-0.094,0.047-0.156,0.047    c-0.019,0-0.042,0-0.06-0.007c-0.115-0.033-0.216-0.15-0.218-0.252c-0.004-0.141,0.084-0.278,0.268-0.276l0.002,0.001    c0.074,0.001,0.14,0.031,0.191,0.076l0.25-0.186l0.108-0.077l1.054-0.779l-0.078-0.336l-0.548,0.414    c-0.063-0.268-0.055-0.629,0.135-0.992c0.076-0.139,0.281-0.455,0.655-0.646c0.07-0.035,0.136-0.063,0.195-0.084    c0.113,0.003,0.231,0.008,0.331,0.005c0.289-0.007,0.396-0.184,0.423-0.298c0.019-0.073,0.046-0.244,0.057-0.474    c0.001-0.077,0.003-0.181,0.001-0.285c0.386,0.121,0.736,0.519,0.771,0.958c0.041,0.54-0.253,0.866-0.468,1.026L14.26,7.745z     M7.767,6.453l0.097,0.973C7.809,7.429,7.757,7.441,7.709,7.458L7.24,7.104l1.006-2.161l0.092,1.109h2.226h0.2h2.223l0.095-1.109    l1.007,2.161l-0.468,0.355c-0.047-0.018-0.102-0.029-0.154-0.031l0.095-0.975H7.767L7.767,6.453z M13.096,7.5    c-0.155,0.108-0.258,0.285-0.258,0.488c0,0.167,0.069,0.321,0.183,0.429l-0.019,0.261l-0.046,0.586l-0.099,1.175    c-0.012,0.178-0.046,0.352-0.099,0.516L8.415,6.78h4.744L13.096,7.5z M8.706,11.271c-0.037-0.088-0.073-0.186-0.104-0.292h3.661    l0.305,0.292H8.706z M12.162,11.895H9.113c-0.086-0.085-0.165-0.183-0.238-0.293h3.542C12.349,11.691,12.27,11.791,12.162,11.895z     M10.683,12.552c-0.372,0-0.77-0.079-1.181-0.329h2.307C11.523,12.418,11.055,12.552,10.683,12.552z M8.468,10.359h3.15    l0.303,0.29H8.521C8.498,10.556,8.483,10.458,8.468,10.359z M8.393,9.737h2.58l0.304,0.29H8.422    C8.411,9.933,8.402,9.834,8.393,9.737z M8.346,9.116h1.983l0.3,0.292h-2.26C8.361,9.312,8.354,9.213,8.346,9.116z M8.302,8.494    h1.378l0.303,0.293H8.323C8.317,8.689,8.309,8.587,8.302,8.494z M8.493,7.872h0.544l0.304,0.292H8.484    c0.015-0.051,0.027-0.104,0.027-0.163C8.51,7.958,8.503,7.915,8.493,7.872z M8.233,7.519c-0.04-0.267-0.063-0.534-0.063-0.534    l0.524,0.559H8.264C8.253,7.536,8.245,7.525,8.233,7.519z M7.946,8.275C7.926,8.28,7.904,8.282,7.885,8.282    c-0.063,0-0.115-0.018-0.158-0.047L7.321,7.932L7.07,7.745L4.812,6.07C4.596,5.91,4.303,5.583,4.344,5.044    C4.38,4.605,4.732,4.208,5.114,4.087c0,0.104,0,0.207,0.004,0.285c0.009,0.23,0.039,0.402,0.057,0.474    c0.027,0.113,0.133,0.29,0.422,0.297c0.101,0.001,0.22-0.001,0.333-0.007c0.058,0.021,0.125,0.05,0.195,0.084    c0.375,0.193,0.577,0.506,0.655,0.647C6.968,6.229,6.975,6.592,6.914,6.86L6.367,6.447l-0.08,0.335l1.058,0.779L7.45,7.64    l0.25,0.185c0.049-0.046,0.117-0.075,0.19-0.077l0.002-0.001c0.186-0.002,0.274,0.134,0.271,0.274    C8.162,8.125,8.059,8.241,7.946,8.275z M5.623,9.9l-0.04,0.093C5.632,9.964,5.69,9.948,5.751,9.948    c0.188,0,0.338,0.15,0.338,0.337c0,0.02,0,0.039-0.004,0.059c-0.002,0.003-0.004,0.011-0.004,0.018    c-0.001,0.01-0.003,0.02-0.007,0.028v0.005c-0.023,0.067-0.069,0.141-0.069,0.141l-0.257,0.403l-0.081,0.127l-0.395,0.618    L5.229,11.75L5.09,11.964h0.014c0.146-0.002,0.251,0.115,0.251,0.252c0,0.103-0.085,0.239-0.236,0.239    c-0.155,0-0.255-0.103-0.255-0.239c0-0.014-0.001-0.047,0.006-0.077l1.243-4.732l0.49,0.365L5.623,9.9z M6.347,9.405    c0.158,0.031,0.228,0.159,0.258,0.236c0.024,0.063,0.555,1.57,0.771,2.186l0.008,0.028l0.081,0.229l0.017-0.025    c0.044-0.054,0.111-0.084,0.202-0.084c0.134,0,0.244,0.11,0.244,0.244c0,0.136-0.11,0.246-0.244,0.246    c-0.063,0-0.125-0.025-0.172-0.068c-0.043-0.038-0.149-0.177-0.149-0.177l-0.14-0.199l-0.041-0.057l-0.91-1.283    c0.094-0.15,0.165-0.299,0.165-0.423c0-0.295-0.196-0.492-0.434-0.492l0.162-0.349C6.193,9.401,6.247,9.384,6.347,9.405z     M7.616,4.928C7.54,4.886,7.493,4.805,7.493,4.713c0-0.128,0.12-0.253,0.247-0.253c0.136,0,0.249,0.112,0.249,0.253    c0,0.044-0.01,0.084-0.029,0.122L7.225,6.433c-0.007-0.043-0.016-0.105-0.03-0.2C7.177,6.138,7.146,6.032,7.103,5.925L7.616,4.928    z M8.717,4.005l0.019,0.402h0.23L8.948,4.005h0.237l0.027,0.624H8.519L8.478,4.005H8.717z M9.238,5.179H8.554L8.533,4.856h0.689    L9.238,5.179z M9.626,4.005L9.64,4.407h0.229L9.855,4.005h0.225l0.013,0.624H9.446L9.423,4.005H9.626z M10.102,5.179H9.461    L9.45,4.856h0.644L10.102,5.179z M10.542,4.005l0.001,0.402h0.247V4.005h0.212l-0.004,0.624h-0.291h-0.081h-0.291l-0.009-0.624    H10.542z M11.235,4.856h0.646L11.87,5.179h-0.643L11.235,4.856z M11.253,4.005h0.224l-0.015,0.402h0.229l0.013-0.402h0.203    l-0.018,0.624h-0.648L11.253,4.005z M10.336,4.856h0.289h0.082h0.289l-0.005,0.323h-0.286h-0.079h-0.285L10.336,4.856z     M10.625,5.406h0.081h2.056l-0.024,0.4h-1.971h-0.2H8.594l-0.026-0.4H10.625z M12.109,4.856h0.688l-0.019,0.323h-0.685    L12.109,4.856z M12.148,4.005h0.234l-0.018,0.402h0.232l0.018-0.402h0.238l-0.042,0.623h-0.693L12.148,4.005z M13.59,4.461    c0.132,0,0.247,0.125,0.247,0.254c0,0.09-0.045,0.171-0.121,0.216l0.512,0.996c-0.044,0.106-0.075,0.213-0.093,0.308    c-0.016,0.094-0.023,0.155-0.03,0.199l-0.734-1.599c-0.018-0.036-0.029-0.076-0.029-0.121C13.342,4.574,13.453,4.461,13.59,4.461z     M5.022,7.821l-0.21,0.807C4.746,8.536,4.691,8.465,4.667,8.431c-0.088-0.129-0.316-0.45-0.316-0.849    c0-0.197,0.169-0.42,0.381-0.401C4.998,7.205,5.103,7.51,5.022,7.821z M16.891,9.63c-0.031,0.001-0.063,0.007-0.093,0.017    l-0.164-0.584l0.082-0.105c0.248-0.32,0.394-0.505,0.504-0.717c0.171-0.325,0.148-0.647,0.092-0.852    c-0.123-0.458-0.484-0.564-0.698-0.553c-0.322,0.015-0.52,0.193-0.602,0.399c-0.088,0.22-0.074,0.447-0.033,0.612l0.283,1.125    c-0.086,0.113-0.163,0.232-0.213,0.296l-0.537-2.083l1.194-0.881c0.688-0.503,0.682-1.313,0.458-1.75    c-0.212-0.419-0.516-0.632-0.777-0.726c-0.077-0.031-0.13-0.046-0.178-0.058c-0.002-0.038-0.004-0.06-0.004-0.073    c-0.005-0.054-0.069-0.077-0.124-0.09c-0.121-0.027-0.158,0.023-0.158,0.043l-0.003,0.073c-0.291-0.032-0.914-0.028-0.914-0.028    l0.002,0.17v0.429l0.245,0.028c0.023,0,0.056,0.025,0.056,0.068c-0.001,0.046-0.037,0.075-0.07,0.081    c-0.031,0.012-0.044,0.014-0.056,0.013h-0.002l-0.766-0.085l0.094,0.29c0.299,0.034,0.533,0.055,0.703,0.063    c0.009,0,0.018,0,0.025,0c0.197,0,0.36-0.161,0.36-0.362c0-0.192-0.152-0.348-0.344-0.359V3.962    c0.103,0.001,0.229,0.005,0.366,0.019c0.014,0.051,0.04,0.116,0.097,0.17c0.061,0.064,0.121,0.113,0.179,0.147l-0.005,0.09    c0,0,0.008,0.148-0.005,0.271C15.87,4.784,15.8,4.876,15.531,4.885c-0.258,0.008-0.571-0.042-0.571-0.042l0.016,0.188    c-0.101,0.058-0.206,0.143-0.336,0.259c-0.087,0.079-0.172,0.188-0.247,0.311l-0.323-0.619c0.067-0.092,0.108-0.204,0.108-0.327    c0-0.306-0.282-0.555-0.577-0.555c-0.198,0-0.365,0.089-0.465,0.225l0.048-0.583h-2.475h-0.091H8.149l0.046,0.583    c-0.1-0.135-0.268-0.224-0.466-0.224c-0.293,0-0.576,0.25-0.576,0.556c0,0.121,0.042,0.233,0.108,0.327l-0.321,0.62    c-0.076-0.123-0.16-0.233-0.249-0.312c-0.133-0.116-0.234-0.2-0.336-0.259l0.017-0.189c0,0-0.315,0.049-0.57,0.042    C5.531,4.876,5.46,4.784,5.444,4.659C5.433,4.537,5.441,4.388,5.441,4.388l-0.004-0.09c0.056-0.034,0.12-0.082,0.18-0.146    c0.055-0.057,0.083-0.12,0.094-0.171c0.138-0.014,0.262-0.018,0.367-0.02v0.069C5.887,4.043,5.734,4.2,5.734,4.391    c0,0.201,0.162,0.361,0.359,0.361c0.009,0,0.017,0,0.025,0c0.168-0.01,0.405-0.029,0.702-0.063L6.913,4.4L6.151,4.484H6.149    c-0.013,0-0.028-0.001-0.057-0.012C6.058,4.465,6.021,4.437,6.021,4.391c0-0.043,0.032-0.069,0.057-0.07l0.249-0.029V3.866    l0.002-0.17c0,0-0.625-0.003-0.917,0.028L5.406,3.651c0-0.019-0.034-0.07-0.156-0.043c-0.055,0.013-0.12,0.037-0.123,0.089    C5.126,3.71,5.126,3.733,5.124,3.771c-0.048,0.012-0.1,0.025-0.179,0.058C4.683,3.922,4.383,4.135,4.168,4.553    C3.944,4.989,3.938,5.8,4.623,6.302l1.193,0.881L5.282,9.267C5.229,9.204,5.156,9.083,5.07,8.971l0.282-1.125    C5.39,7.682,5.406,7.455,5.318,7.235C5.235,7.028,5.041,6.849,4.717,6.835C4.504,6.824,4.142,6.931,4.019,7.389    C3.964,7.594,3.94,7.916,4.11,8.241c0.111,0.213,0.256,0.397,0.504,0.718l0.081,0.104l-0.16,0.583    C4.506,9.637,4.472,9.631,4.44,9.63C4.238,9.625,4.098,9.782,4.098,9.955c0,0.189,0.151,0.342,0.34,0.342    c0.122,0,0.227-0.064,0.287-0.159c0.054-0.076,0.1-0.276,0.156-0.47L4.955,9.41l0.223,0.285c-0.136,0.516-0.641,2.401-0.648,2.431    c-0.086,0.368,0.244,0.681,0.583,0.681c0.303-0.005,0.596-0.249,0.583-0.587c-0.003-0.164-0.069-0.282-0.17-0.356l0.555-0.879    l1.044,1.48c0.084,0.116,0.147,0.169,0.158,0.178c0.104,0.108,0.251,0.173,0.414,0.173c0.29,0,0.59-0.262,0.59-0.584    s-0.254-0.596-0.59-0.536c-0.006,0.004-0.015,0.004-0.025,0.006l-0.74-2.115C6.87,9.426,6.792,9.303,6.717,9.232    C6.608,9.131,6.452,9.131,6.39,9.134c-0.025,0.002-0.063,0.01-0.1,0.018l0.555-1.199l0.694,0.525    C7.64,8.56,7.768,8.606,7.906,8.606c0.024,0,0.048,0,0.072-0.003l0.192,1.967c0.061,0.663,0.381,1.24,0.854,1.65v0.005H9.03    c0.44,0.375,1.01,0.608,1.636,0.608c1.304,0,2.376-0.987,2.494-2.261l0.192-1.966c0.025,0.004,0.046,0.004,0.072,0.004    c0.141,0,0.269-0.046,0.371-0.13l0.692-0.525l0.556,1.199c-0.036-0.01-0.075-0.017-0.104-0.019    c-0.061-0.002-0.216-0.002-0.325,0.099C14.54,9.304,14.459,9.428,14.4,9.589l-0.742,2.115c-0.008-0.004-0.014-0.004-0.024-0.008    c-0.337-0.059-0.589,0.213-0.589,0.536c0,0.324,0.3,0.583,0.589,0.583c0.165,0,0.311-0.065,0.414-0.173    c0.011-0.01,0.075-0.061,0.158-0.177l1.046-1.481l0.554,0.881c-0.101,0.075-0.165,0.193-0.17,0.355    c-0.012,0.34,0.28,0.583,0.584,0.589c0.341,0,0.67-0.316,0.583-0.683c-0.005-0.028-0.511-1.917-0.646-2.431l0.222-0.285    l0.075,0.258c0.055,0.194,0.104,0.394,0.156,0.47c0.06,0.094,0.165,0.159,0.286,0.159c0.19,0,0.343-0.152,0.343-0.342    C17.232,9.782,17.093,9.624,16.891,9.63z" fill="#231F20" id="path2524"></path>
  <text font-family="'Arial'" font-weight="bold" font-size="1.75" transform="matrix(1 0 0 1 19 8.2178)">Stadt Zürich</text>  
  <text font-family="'Arial'" font-size="1.75" transform="matrix(1 0 0 1 19 10.5)">Dienstabteilung Verkehr</text>  </g>  
  <g id="textbox">  
  <text font-family="'Arial'" font-size="3.9959" id="PLAN" text-anchor="start" x="4" y="22.3291">Ampelplan M  1:1000</text>  
  <text font-family="'Arial'" font-size="2.7172" id="STATUS" text-anchor="end" x="137" y="14.7">Knotenmappe  22.1  12.12.14 14:34:12</text>  
  <text font-family="'Arial'" font-size="2.7172" id="DRUCKDATUM" text-anchor="end" x="137" y="22.3291">Druckdatum:  22.01.2015 10:45:36  (MA)</text>  
  <text font-family="'Arial'" font-size="2.7172" id="BEARBEITUNG" text-anchor="end" x="137" y="10.9">Bearbeitungsdatum  22.1  12.12.14 14:34:12</text>
  <text font-family="'Arial'" font-size="3.9959" font-weight="bold" id="KNOTEN" text-anchor="end" x="137" y="7">365  Künstlergasse/Neumarkt/Seilergraben</text>  </g> </g> </svg>
