<?xml version="1.0" standalone="no"?><!DOCTYPE svg PUBLIC "-//W3C//DTD SVG 1.1//EN" "http://www.w3.org/Graphics/SVG/1.1/DTD/svg11.dtd">
<?xml-stylesheet href="http://plr2-dev/themes/vrsz/images/geoposlib/geopos_symb.css" type="text/css"?>
<svg baseProfile="full" contentScriptType="text/ecmascript" contentStyleType="text/css" enable-background="new 0 0 99.2 17.51" height="17.51px" id="Ebene_1" preserveAspectRatio="xMidYMid meet" version="1.1" viewBox="0 0 99.2 17.51" width="99.2px" x="0px" xml:space="preserve" xmlns="http://www.w3.org/2000/svg" xmlns:xlink="http://www.w3.org/1999/xlink" y="0px" zoomAndPan="magnify"> 
  <style type="text/css">@import url(&quot;/themes/vrsz/images/geoposlib/geopos_symb.css&quot;);</style> 
  <g>  
  <g id="background">  
  <rect fill="#FFFFFF" height="17.488" stroke="#010202" stroke-miterlimit="10" stroke-width="0.1413" width="99.083" x="0.059" y="0.011"></rect>  
  <line fill="none" stroke="#010202" stroke-miterlimit="10" stroke-width="0.1413" x1="0.059" x2="99.142" y1="12.285" y2="12.285"></line>  
		<path d="M11.686,6.102l-0.148-0.57c-0.059-0.22,0.018-0.435,0.207-0.451    c0.149-0.014,0.271,0.145,0.271,0.284c0,0.283-0.163,0.509-0.225,0.6C11.773,5.986,11.733,6.037,11.686,6.102z M11.646,8.585    c0.005,0.021,0.005,0.045,0.005,0.054c0,0.097-0.072,0.17-0.182,0.17c-0.109,0-0.167-0.097-0.167-0.17    c0-0.096,0.075-0.179,0.176-0.177h0.009l-0.096-0.151l-0.029-0.045l-0.277-0.439l-0.059-0.09l-0.183-0.286    c0,0-0.031-0.052-0.046-0.1V7.348c-0.005-0.006-0.006-0.014-0.006-0.02s-0.002-0.01-0.003-0.014    c-0.003-0.015-0.003-0.027-0.003-0.042c0-0.132,0.106-0.238,0.237-0.238c0.044,0,0.083,0.011,0.122,0.033L11.114,7L10.42,5.497    l0.347-0.258L11.646,8.585z M10.012,8.461l-0.03,0.042l-0.1,0.141c0,0-0.075,0.098-0.106,0.125    c-0.033,0.029-0.075,0.046-0.12,0.046c-0.094,0-0.173-0.077-0.173-0.173s0.079-0.172,0.173-0.172c0.063,0,0.113,0.022,0.142,0.059    l0.013,0.018l0.058-0.165l0.005-0.019c0.153-0.435,0.528-1.501,0.545-1.545c0.021-0.055,0.072-0.146,0.183-0.167    c0.07-0.016,0.109-0.002,0.128,0.009l0.114,0.246c-0.168,0-0.306,0.139-0.306,0.348c0,0.089,0.048,0.191,0.116,0.299L10.012,8.461    z M10.09,5.479L9.912,5.61L9.624,5.825c-0.027,0.02-0.066,0.033-0.11,0.033c-0.014,0-0.03,0-0.042-0.004    C9.391,5.83,9.32,5.748,9.317,5.675c-0.002-0.101,0.061-0.197,0.19-0.196L9.509,5.48c0.052,0.001,0.1,0.021,0.135,0.054    l0.178-0.13l0.075-0.056l0.745-0.551l-0.056-0.238l-0.388,0.293c-0.043-0.19-0.038-0.445,0.096-0.702    c0.055-0.099,0.199-0.32,0.463-0.457c0.049-0.024,0.096-0.045,0.138-0.059c0.08,0.002,0.165,0.005,0.234,0.003    c0.205-0.004,0.281-0.131,0.3-0.21c0.014-0.051,0.032-0.172,0.04-0.334c0.001-0.056,0.003-0.13,0.001-0.203    c0.272,0.086,0.521,0.367,0.545,0.677c0.028,0.382-0.18,0.613-0.331,0.726L10.09,5.479z M5.499,4.564l0.069,0.688    C5.529,5.255,5.492,5.263,5.459,5.275l-0.332-0.25l0.712-1.528l0.066,0.783h1.573h0.141h1.572l0.066-0.783l0.713,1.529L9.64,5.275    C9.604,5.263,9.567,5.255,9.53,5.253l0.068-0.688H5.499z M9.267,5.304c-0.11,0.077-0.183,0.202-0.183,0.345    c0,0.118,0.049,0.227,0.13,0.302L9.198,6.137L9.167,6.552l-0.069,0.83c-0.008,0.126-0.034,0.249-0.07,0.364l-3.07-2.951h3.354    L9.267,5.304z M6.163,7.972C6.136,7.909,6.112,7.84,6.088,7.763h2.589l0.216,0.208L6.163,7.972L6.163,7.972z M8.607,8.412H6.45    c-0.061-0.06-0.116-0.129-0.167-0.207h2.505C8.74,8.268,8.683,8.337,8.607,8.412z M7.562,8.877c-0.262,0-0.544-0.054-0.834-0.233    h1.63C8.156,8.783,7.824,8.877,7.562,8.877z M5.995,7.326h2.227l0.215,0.206H6.032C6.017,7.466,6.005,7.397,5.995,7.326z     M5.942,6.886h1.825L7.98,7.092H5.963C5.955,7.025,5.949,6.955,5.942,6.886z M5.909,6.446h1.401l0.212,0.207H5.924    C5.92,6.586,5.915,6.516,5.909,6.446z M5.877,6.007h0.975l0.215,0.207H5.893C5.889,6.144,5.882,6.075,5.877,6.007z M6.012,5.569    h0.385l0.215,0.206H6.005c0.012-0.037,0.021-0.074,0.021-0.114C6.026,5.628,6.02,5.598,6.012,5.569z M5.829,5.318    C5.802,5.13,5.785,4.939,5.785,4.939l0.37,0.396H5.851C5.842,5.33,5.836,5.322,5.829,5.318z M5.625,5.853    C5.61,5.856,5.595,5.857,5.582,5.857c-0.045,0-0.081-0.013-0.111-0.033L5.183,5.609l-0.175-0.13L3.41,4.293    C3.259,4.181,3.049,3.951,3.08,3.568c0.024-0.31,0.274-0.591,0.544-0.677c0,0.074,0,0.147,0.003,0.202    c0.005,0.163,0.027,0.283,0.04,0.334c0.018,0.079,0.094,0.206,0.299,0.21c0.07,0,0.154-0.001,0.235-0.004    c0.041,0.015,0.088,0.035,0.137,0.06C4.602,3.829,4.745,4.051,4.8,4.151c0.134,0.256,0.139,0.512,0.095,0.702L4.509,4.558    L4.454,4.796l0.747,0.552l0.076,0.057l0.177,0.129C5.487,5.5,5.535,5.481,5.587,5.479h0.001c0.131-0.001,0.193,0.093,0.191,0.194    C5.779,5.747,5.705,5.829,5.625,5.853z M3.983,7L3.956,7.067c0.034-0.02,0.076-0.031,0.119-0.031c0.131,0,0.239,0.105,0.239,0.238    c0,0.015,0,0.027-0.002,0.042C4.309,7.318,4.308,7.322,4.307,7.329c-0.001,0.007-0.002,0.014-0.004,0.02v0.003    c-0.017,0.049-0.049,0.1-0.049,0.1L4.072,7.735l-0.058,0.09L3.736,8.264L3.706,8.31L3.608,8.461h0.01    c0.104-0.002,0.176,0.081,0.176,0.177c0,0.074-0.059,0.17-0.167,0.17c-0.109,0-0.181-0.074-0.181-0.17    c0-0.008,0-0.033,0.004-0.054l0.879-3.346l0.346,0.258L3.983,7z M4.496,6.653c0.11,0.021,0.16,0.112,0.183,0.167    C4.695,6.863,5.07,7.93,5.223,8.365l0.006,0.018l0.058,0.164l0.01-0.018C5.329,8.491,5.377,8.47,5.44,8.47    c0.095,0,0.172,0.077,0.172,0.173c0,0.095-0.077,0.172-0.172,0.172c-0.044,0-0.087-0.018-0.122-0.046    c-0.03-0.027-0.105-0.125-0.105-0.125l-0.1-0.143l-0.029-0.04L4.443,7.554c0.066-0.107,0.118-0.211,0.118-0.299    c0-0.209-0.139-0.348-0.307-0.348l0.112-0.246C4.387,6.65,4.426,6.636,4.496,6.653z M5.392,3.487    C5.34,3.457,5.305,3.4,5.305,3.334c0-0.09,0.083-0.179,0.175-0.179c0.096,0,0.176,0.081,0.176,0.179    c0,0.03-0.007,0.06-0.021,0.085L5.116,4.55C5.111,4.52,5.104,4.477,5.095,4.409C5.083,4.342,5.06,4.266,5.03,4.192L5.392,3.487z     M6.172,2.834l0.013,0.283h0.163L6.334,2.834H6.5l0.021,0.441H6.03L6.002,2.834H6.172z M6.538,3.664H6.057L6.042,3.436h0.486    L6.538,3.664z M6.813,2.834l0.011,0.283h0.162L6.977,2.834h0.158l0.008,0.441H6.685L6.669,2.834H6.813z M7.15,3.664H6.698    L6.688,3.436h0.457L7.15,3.664z M7.462,2.834v0.283h0.173V2.834h0.151L7.784,3.275H7.579H7.52H7.315L7.309,2.834H7.462z     M7.951,3.436h0.456L8.4,3.664H7.947L7.951,3.436z M7.964,2.834h0.158l-0.01,0.283h0.162l0.008-0.284h0.144L8.414,3.275H7.955    L7.964,2.834z M7.317,3.436h0.205h0.057h0.205L7.779,3.664h-0.2H7.52H7.318L7.317,3.436z M7.52,3.825h0.059h1.454L9.014,4.107    H7.619h-0.14H6.083L6.065,3.825H7.52z M8.569,3.436h0.487L9.042,3.664H8.558L8.569,3.436z M8.596,2.834h0.167L8.75,3.117h0.164    l0.014-0.284h0.168l-0.03,0.442h-0.49L8.596,2.834z M9.616,3.157c0.092,0,0.175,0.087,0.175,0.178    c0,0.064-0.033,0.121-0.087,0.152l0.362,0.705c-0.03,0.075-0.054,0.15-0.065,0.218C9.991,4.478,9.984,4.52,9.98,4.55L9.461,3.42    c-0.013-0.025-0.02-0.053-0.02-0.085C9.441,3.236,9.52,3.157,9.616,3.157z M3.557,5.531L3.41,6.102    C3.363,6.037,3.323,5.986,3.307,5.963c-0.062-0.092-0.224-0.318-0.224-0.6c0-0.138,0.121-0.297,0.271-0.284    C3.542,5.097,3.615,5.313,3.557,5.531z M11.95,6.81c-0.023,0.001-0.044,0.004-0.066,0.012L11.769,6.41l0.058-0.075    c0.175-0.227,0.278-0.357,0.356-0.508c0.12-0.229,0.104-0.458,0.064-0.6c-0.087-0.325-0.343-0.401-0.493-0.393    c-0.23,0.011-0.368,0.137-0.426,0.283c-0.063,0.155-0.052,0.316-0.023,0.433l0.201,0.795c-0.061,0.08-0.114,0.166-0.151,0.208    l-0.377-1.472l0.844-0.623c0.486-0.356,0.481-0.929,0.322-1.238c-0.15-0.296-0.364-0.446-0.549-0.513    c-0.056-0.021-0.092-0.033-0.126-0.041c0-0.024-0.002-0.043-0.002-0.052c-0.004-0.039-0.048-0.053-0.087-0.063    c-0.085-0.019-0.111,0.017-0.111,0.031l-0.002,0.051c-0.206-0.022-0.646-0.02-0.646-0.02v0.122v0.301l0.174,0.02    c0.018,0,0.041,0.019,0.041,0.049c-0.001,0.033-0.026,0.052-0.049,0.057c-0.022,0.007-0.032,0.01-0.04,0.009h-0.002l-0.54-0.06    l0.064,0.206c0.211,0.022,0.376,0.039,0.496,0.044c0.004,0,0.012,0,0.018,0c0.139,0,0.254-0.113,0.254-0.255    c0-0.135-0.106-0.246-0.242-0.254v-0.05c0.074,0.001,0.163,0.005,0.259,0.014c0.01,0.037,0.028,0.082,0.068,0.121    c0.042,0.045,0.086,0.079,0.126,0.105l-0.004,0.063c0,0,0.005,0.105-0.004,0.191c-0.01,0.089-0.06,0.154-0.25,0.161    c-0.184,0.006-0.404-0.029-0.404-0.029l0.011,0.133c-0.072,0.041-0.146,0.102-0.238,0.185c-0.061,0.055-0.123,0.132-0.175,0.218    L9.955,3.527c0.048-0.065,0.077-0.145,0.077-0.231c0-0.217-0.199-0.392-0.408-0.392c-0.14,0-0.258,0.063-0.33,0.159l0.035-0.412    H7.581H7.517H5.769l0.034,0.412c-0.071-0.097-0.19-0.158-0.329-0.158c-0.208,0-0.407,0.176-0.407,0.393    c0,0.085,0.028,0.166,0.076,0.23L4.916,3.964C4.861,3.878,4.802,3.799,4.739,3.745C4.646,3.663,4.574,3.603,4.5,3.56l0.013-0.133    c0,0-0.223,0.035-0.404,0.028C3.918,3.449,3.868,3.384,3.857,3.295C3.848,3.208,3.854,3.103,3.854,3.103L3.851,3.042    c0.04-0.024,0.085-0.058,0.128-0.103c0.038-0.041,0.059-0.084,0.066-0.121c0.099-0.009,0.187-0.012,0.261-0.014v0.048    C4.171,2.86,4.062,2.972,4.062,3.107c0,0.142,0.115,0.255,0.255,0.255c0.005,0,0.013,0,0.018,0    C4.456,3.356,4.62,3.341,4.831,3.318l0.066-0.205l-0.54,0.06H4.355c-0.008,0-0.019-0.002-0.04-0.009    C4.292,3.16,4.266,3.14,4.266,3.106c0-0.03,0.021-0.048,0.04-0.049l0.175-0.02V2.736l0.001-0.122c0,0-0.441-0.002-0.649,0.02    L3.831,2.583c0-0.013-0.024-0.049-0.112-0.031C3.682,2.562,3.635,2.577,3.632,2.616C3.63,2.625,3.63,2.642,3.63,2.667    C3.595,2.676,3.558,2.686,3.503,2.709C3.318,2.776,3.104,2.926,2.954,3.221C2.796,3.53,2.791,4.103,3.275,4.458L4.12,5.08    L3.743,6.553c-0.038-0.045-0.089-0.13-0.15-0.208l0.199-0.795c0.028-0.116,0.04-0.277-0.023-0.432    C3.709,4.971,3.572,4.845,3.342,4.834c-0.15-0.008-0.406,0.067-0.493,0.393C2.811,5.371,2.792,5.6,2.914,5.829    C2.991,5.979,3.095,6.11,3.27,6.336l0.058,0.075L3.214,6.822C3.194,6.814,3.169,6.811,3.147,6.81    C3.004,6.807,2.906,6.919,2.906,7.04c0,0.135,0.107,0.241,0.241,0.241c0.086,0,0.161-0.045,0.203-0.111    C3.387,7.116,3.42,6.975,3.46,6.838l0.052-0.184L3.67,6.857C3.572,7.22,3.215,8.552,3.21,8.575    C3.15,8.833,3.382,9.057,3.623,9.057c0.214-0.004,0.42-0.176,0.412-0.416C4.032,8.526,3.986,8.442,3.914,8.388l0.392-0.621    l0.738,1.046C5.104,8.895,5.148,8.932,5.157,8.94c0.075,0.075,0.178,0.122,0.292,0.122c0.206,0,0.418-0.186,0.418-0.412    s-0.18-0.421-0.419-0.379C5.443,8.272,5.438,8.272,5.43,8.274L4.907,6.78c-0.042-0.114-0.099-0.201-0.151-0.25    C4.68,6.458,4.57,6.458,4.526,6.461c-0.019,0-0.046,0.007-0.071,0.012l0.391-0.847l0.491,0.371    c0.072,0.058,0.162,0.092,0.261,0.092c0.017,0,0.035,0,0.05-0.003l0.135,1.392c0.044,0.467,0.27,0.876,0.604,1.166v0.001h0.005    C6.704,8.91,7.106,9.076,7.549,9.076c0.921,0,1.68-0.698,1.764-1.599l0.136-1.391c0.018,0.002,0.034,0.002,0.05,0.002    c0.1,0,0.19-0.033,0.262-0.091l0.488-0.372l0.395,0.848C10.618,6.467,10.59,6.46,10.57,6.46c-0.044,0-0.153-0.002-0.229,0.07    c-0.053,0.049-0.111,0.135-0.152,0.251L9.663,8.276c-0.005-0.003-0.01-0.003-0.017-0.005c-0.238-0.042-0.417,0.15-0.417,0.379    S9.44,9.062,9.646,9.062c0.115,0,0.219-0.045,0.294-0.122c0.007-0.008,0.053-0.045,0.111-0.127l0.739-1.048l0.392,0.623    c-0.072,0.054-0.116,0.137-0.121,0.253c-0.008,0.24,0.198,0.412,0.412,0.417c0.241,0,0.474-0.224,0.412-0.484    c-0.004-0.021-0.361-1.354-0.458-1.72l0.157-0.2l0.051,0.184c0.04,0.137,0.075,0.278,0.111,0.332    C11.79,7.236,11.863,7.28,11.95,7.28c0.134,0,0.241-0.106,0.241-0.241C12.192,6.919,12.093,6.807,11.95,6.81z" fill="#231F20" id="path2524"></path>
  <text font-family="'Arial'" font-weight="bold" font-size="1.25" transform="matrix(1 0 0 1 13.5 5.8125)">Stadt Zürich</text>  
  <text font-family="'Arial'" font-size="1.25" transform="matrix(1 0 0 1 13.5 7.5)">Dienstabteilung Verkehr</text>  </g>  
  <g id="textbox">  
  <text font-family="'Arial'" font-size="2.8253" id="PLAN" text-anchor="start" x="2.8" y="15.8">Ampelplan M  1:500</text>  
  <text font-family="'Arial'" font-size="1.9212" id="STATUS" text-anchor="end" x="96.8" y="10.5">Knotenmappe  22.1  12.12.14 14:34:12</text>  
  <text font-family="'Arial'" font-size="1.9212" id="DRUCKDATUM" text-anchor="end" x="96.8" y="15.8">Druckdatum:  22.01.2015 10:45:36  (MA)</text>  
  <text font-family="'Arial'" font-size="1.9212" id="BEARBEITUNG" text-anchor="end" x="96.8" y="7.7">Bearbeitungsdatum  22.1  12.12.14 14:34:12</text>
  <text font-family="'Arial'" font-size="2.8253" font-weight="bold" id="KNOTEN" text-anchor="end" x="96.8" y="4.9">365  Künstlergasse/Neumarkt/Seilergraben</text>  </g> </g> </svg>
