<?xml version="1.0" standalone="no"?><!DOCTYPE svg PUBLIC "-//W3C//DTD SVG 1.1//EN" "http://www.w3.org/Graphics/SVG/1.1/DTD/svg11.dtd">
<?xml-stylesheet href="http://plr2-dev/themes/vrsz/images/geoposlib/geopos_symb.css" type="text/css"?>
<svg baseProfile="full" contentScriptType="text/ecmascript" contentStyleType="text/css" enable-background="new 0 0 39.68 7" height="7px" id="Ebene_1" preserveAspectRatio="xMidYMid meet" version="1.1" viewBox="0 0 39.68 7" width="39.68px" x="0px" xml:space="preserve" xmlns="http://www.w3.org/2000/svg" xmlns:xlink="http://www.w3.org/1999/xlink" y="0px" zoomAndPan="magnify"> 
  <style type="text/css">@import url(&quot;/themes/vrsz/images/geoposlib/geopos_symb.css&quot;);</style> 
  <g>  
  <g id="background">  
  <rect fill="#FFFFFF" height="7" stroke="#010202" stroke-miterlimit="10" stroke-width="0.0565" width="39.661" x="0.009"></rect>  
  <line fill="none" stroke="#010202" stroke-miterlimit="10" stroke-width="0.0565" x1="0.009" x2="39.67" y1="4.912" y2="4.912"></line>  
		<path d="M4.664,2.438L4.603,2.209c-0.022-0.087,0.008-0.174,0.084-0.18    c0.059-0.005,0.108,0.058,0.108,0.114c0,0.112-0.066,0.203-0.09,0.24C4.698,2.391,4.683,2.412,4.664,2.438z M4.648,3.432    c0,0.009,0,0.018,0,0.021c0,0.039-0.029,0.068-0.074,0.068c-0.042,0-0.067-0.039-0.067-0.068c0-0.038,0.03-0.071,0.07-0.071h0.004    L4.546,3.321L4.534,3.303L4.422,3.128L4.398,3.091L4.326,2.978c0,0-0.014-0.021-0.019-0.041V2.937    C4.306,2.934,4.305,2.932,4.305,2.929c0-0.002-0.002-0.003-0.002-0.004C4.302,2.917,4.302,2.913,4.302,2.907    c0-0.053,0.044-0.095,0.095-0.095c0.018,0,0.033,0.003,0.049,0.012L4.434,2.798L4.156,2.196l0.138-0.103L4.648,3.432z     M3.993,3.382L3.981,3.399L3.942,3.455c0,0-0.03,0.04-0.042,0.051c-0.014,0.011-0.031,0.02-0.048,0.02    c-0.038,0-0.069-0.031-0.069-0.07s0.031-0.069,0.069-0.069c0.025,0,0.046,0.01,0.057,0.024l0.003,0.007l0.024-0.065l0.001-0.008    C3.999,3.17,4.15,2.743,4.156,2.726c0.01-0.021,0.028-0.059,0.074-0.067c0.028-0.007,0.044-0.001,0.05,0.003L4.327,2.76    c-0.067,0-0.123,0.056-0.123,0.139c0,0.035,0.019,0.076,0.046,0.121L3.993,3.382z M4.025,2.188L3.954,2.241L3.839,2.328    C3.827,2.334,3.811,2.34,3.795,2.34c-0.005,0-0.012,0-0.017-0.002C3.744,2.329,3.717,2.296,3.717,2.267    c-0.002-0.04,0.022-0.079,0.075-0.078h0.001C3.813,2.189,3.831,2.198,3.846,2.21l0.07-0.053l0.031-0.021l0.298-0.221L4.223,1.821    L4.069,1.938C4.052,1.862,4.054,1.759,4.108,1.657c0.021-0.04,0.078-0.128,0.186-0.183c0.02-0.009,0.038-0.017,0.056-0.023    c0.031,0,0.064,0.002,0.093,0c0.081-0.001,0.112-0.052,0.12-0.084c0.004-0.021,0.013-0.069,0.016-0.134c0-0.021,0-0.051,0-0.08    C4.688,1.187,4.786,1.3,4.798,1.424c0.011,0.153-0.073,0.245-0.134,0.291L4.025,2.188z M2.187,1.823l0.027,0.275    C2.198,2.099,2.184,2.103,2.17,2.107l-0.132-0.1l0.285-0.612l0.025,0.314h0.63h0.057h0.628l0.027-0.314l0.285,0.612l-0.132,0.1    C3.83,2.103,3.816,2.099,3.8,2.098l0.027-0.275H2.187z M3.695,2.119C3.651,2.15,3.621,2.2,3.621,2.257    c0,0.046,0.021,0.091,0.053,0.12L3.668,2.451L3.654,2.617L3.628,2.95C3.623,3,3.614,3.05,3.599,3.096L2.371,1.915h1.341    L3.695,2.119z M2.451,3.186C2.443,3.161,2.432,3.135,2.423,3.104H3.46l0.086,0.083L2.451,3.186L2.451,3.186z M3.431,3.363H2.567    C2.543,3.338,2.522,3.311,2.501,3.279h1.003C3.484,3.306,3.462,3.333,3.431,3.363z M3.012,3.549c-0.105,0-0.218-0.021-0.334-0.094    h0.654C3.251,3.512,3.119,3.549,3.012,3.549z M2.385,2.929h0.892L3.364,3.01H2.402C2.394,2.984,2.389,2.957,2.385,2.929z     M2.365,2.751h0.73l0.086,0.083H2.372C2.37,2.807,2.367,2.78,2.365,2.751z M2.351,2.576h0.561l0.086,0.083H2.357    C2.356,2.631,2.353,2.604,2.351,2.576z M2.338,2.4h0.39l0.086,0.083h-0.47C2.343,2.456,2.341,2.426,2.338,2.4z M2.391,2.225h0.157    l0.084,0.083H2.388c0.006-0.015,0.01-0.03,0.01-0.047C2.398,2.249,2.395,2.236,2.391,2.225z M2.319,2.125    C2.308,2.048,2.301,1.973,2.301,1.973l0.148,0.158H2.328C2.325,2.128,2.323,2.126,2.319,2.125z M2.237,2.337    C2.232,2.34,2.226,2.34,2.22,2.34c-0.019,0-0.033-0.005-0.046-0.013L2.06,2.241L1.991,2.188L1.352,1.715    C1.29,1.669,1.207,1.577,1.218,1.424c0.012-0.125,0.11-0.237,0.22-0.271c0,0.03,0,0.059,0.001,0.081    c0.001,0.064,0.01,0.112,0.014,0.133C1.46,1.398,1.49,1.449,1.573,1.452c0.028,0,0.062,0,0.094-0.002    c0.018,0.005,0.035,0.014,0.055,0.023c0.106,0.055,0.164,0.144,0.185,0.184c0.055,0.104,0.056,0.206,0.04,0.281L1.791,1.821    L1.769,1.915l0.3,0.222l0.031,0.022l0.07,0.052C2.183,2.198,2.202,2.19,2.222,2.188h0c0.052,0,0.077,0.038,0.075,0.078    C2.299,2.296,2.269,2.329,2.237,2.337z M1.58,2.798L1.569,2.824c0.014-0.008,0.03-0.013,0.047-0.013    c0.051,0,0.094,0.042,0.094,0.094c0,0.006,0,0.011,0,0.017c0,0.003,0,0.004-0.001,0.006c0,0.002,0,0.005-0.001,0.008v0.001    c-0.008,0.02-0.02,0.041-0.02,0.041L1.616,3.091L1.592,3.128L1.481,3.303L1.47,3.321L1.429,3.382h0.003    c0.043,0,0.072,0.032,0.072,0.071c0,0.03-0.024,0.068-0.067,0.068c-0.045,0-0.073-0.029-0.073-0.068c0-0.002,0-0.013,0-0.021    l0.354-1.339l0.138,0.103L1.58,2.798z M1.785,2.658c0.046,0.009,0.063,0.046,0.074,0.067C1.865,2.743,2.015,3.17,2.076,3.343    l0.001,0.008l0.024,0.065l0.005-0.007c0.011-0.015,0.032-0.024,0.057-0.024c0.038,0,0.069,0.031,0.069,0.07    c0,0.038-0.032,0.07-0.069,0.07c-0.019,0-0.034-0.008-0.048-0.02C2.104,3.495,2.073,3.455,2.073,3.455l-0.04-0.057L2.022,3.382    L1.764,3.02C1.79,2.977,1.81,2.935,1.81,2.899c0-0.083-0.056-0.139-0.122-0.139l0.046-0.099C1.741,2.658,1.757,2.651,1.785,2.658z     M2.144,1.392C2.123,1.379,2.11,1.356,2.11,1.331c0-0.036,0.034-0.071,0.07-0.071c0.04,0,0.072,0.031,0.072,0.071    c0,0.012-0.003,0.023-0.01,0.034L2.033,1.817C2.031,1.805,2.029,1.788,2.025,1.761C2.022,1.733,2.011,1.704,1.999,1.673    L2.144,1.392z M2.457,1.13l0.004,0.113h0.065L2.522,1.13h0.067l0.007,0.176H2.401L2.387,1.13H2.457z M2.603,1.462H2.41    L2.404,1.371h0.194L2.603,1.462z M2.714,1.13l0.003,0.113h0.065L2.779,1.13h0.063l0.005,0.176H2.662L2.656,1.13H2.714z     M2.849,1.462H2.667L2.662,1.371h0.185L2.849,1.462z M2.972,1.13v0.113h0.07V1.13h0.061L3.101,1.307H3.018H2.996H2.914L2.911,1.13    H2.972z M3.168,1.371H3.35L3.347,1.462h-0.18L3.168,1.371z M3.173,1.13h0.065L3.232,1.244h0.066L3.302,1.13h0.057L3.353,1.307    H3.17L3.173,1.13z M2.914,1.371h0.083h0.021H3.1L3.099,1.462H3.018H2.996H2.915L2.914,1.371z M2.996,1.526h0.021h0.583    L3.594,1.639H3.036H2.98H2.42L2.414,1.526H2.996z M3.417,1.371h0.194L3.606,1.462H3.411L3.417,1.371z M3.427,1.13h0.067    L3.489,1.244h0.065l0.005-0.114h0.068L3.615,1.307H3.419L3.427,1.13z M3.835,1.259c0.037,0,0.07,0.035,0.07,0.072    c0,0.026-0.016,0.048-0.035,0.061l0.145,0.282c-0.013,0.03-0.021,0.06-0.026,0.087C3.985,1.788,3.982,1.805,3.981,1.817    L3.774,1.364c-0.006-0.01-0.009-0.021-0.009-0.034C3.765,1.291,3.797,1.259,3.835,1.259z M1.41,2.209L1.351,2.438    c-0.02-0.026-0.035-0.047-0.042-0.056c-0.024-0.037-0.089-0.127-0.089-0.24c0-0.056,0.049-0.118,0.109-0.113    C1.402,2.036,1.433,2.122,1.41,2.209z M4.77,2.722c-0.011,0-0.02,0.002-0.027,0.004L4.697,2.561L4.72,2.532    c0.069-0.091,0.112-0.143,0.143-0.204c0.048-0.092,0.041-0.184,0.026-0.24c-0.035-0.13-0.137-0.161-0.198-0.157    c-0.092,0.004-0.147,0.054-0.17,0.113C4.497,2.106,4.5,2.17,4.512,2.217l0.08,0.318C4.566,2.566,4.546,2.6,4.531,2.618L4.38,2.029    L4.718,1.78C4.912,1.638,4.91,1.408,4.846,1.285C4.786,1.167,4.7,1.106,4.626,1.08C4.603,1.071,4.59,1.067,4.576,1.063    c0-0.01-0.001-0.017-0.001-0.021C4.573,1.027,4.556,1.021,4.54,1.017C4.506,1.01,4.496,1.024,4.496,1.029L4.494,1.05    c-0.083-0.01-0.259-0.009-0.259-0.009V1.09v0.122l0.07,0.008c0.006,0,0.016,0.007,0.016,0.019c0,0.013-0.011,0.021-0.02,0.023    C4.293,1.265,4.289,1.265,4.286,1.265H4.285L4.069,1.241l0.027,0.082c0.084,0.009,0.15,0.017,0.198,0.018c0.002,0,0.005,0,0.007,0    c0.057,0,0.102-0.045,0.102-0.103c0-0.054-0.043-0.098-0.097-0.102v-0.02C4.335,1.118,4.37,1.118,4.41,1.123    c0.003,0.015,0.011,0.033,0.027,0.048c0.016,0.018,0.034,0.032,0.049,0.042v0.025c0,0,0.001,0.041,0,0.076    C4.481,1.35,4.461,1.376,4.385,1.379C4.311,1.381,4.222,1.368,4.222,1.368l0.005,0.053C4.199,1.437,4.169,1.462,4.132,1.494    c-0.024,0.022-0.048,0.053-0.07,0.088L3.97,1.407C3.99,1.379,4.001,1.348,4.001,1.315c0-0.086-0.079-0.157-0.163-0.157    c-0.056,0-0.104,0.025-0.133,0.064l0.015-0.166H3.019H2.995h-0.7l0.014,0.166C2.28,1.184,2.233,1.157,2.177,1.157    c-0.083,0-0.164,0.071-0.164,0.157c0,0.034,0.011,0.065,0.031,0.092L1.953,1.582C1.931,1.548,1.907,1.516,1.882,1.494    C1.846,1.462,1.816,1.437,1.787,1.421l0.006-0.053c0,0-0.09,0.014-0.162,0.011C1.556,1.376,1.535,1.351,1.531,1.315    C1.526,1.28,1.529,1.238,1.529,1.238l0-0.025c0.015-0.01,0.033-0.024,0.05-0.042c0.016-0.016,0.023-0.034,0.027-0.047    C1.645,1.12,1.68,1.118,1.709,1.117v0.019C1.656,1.139,1.612,1.185,1.612,1.238c0,0.057,0.045,0.103,0.103,0.103    c0.001,0,0.004,0,0.007,0C1.77,1.339,1.836,1.333,1.921,1.323l0.027-0.082L1.73,1.265H1.728c-0.003,0-0.007-0.001-0.016-0.004    c-0.01,0-0.02-0.009-0.02-0.021c0-0.013,0.009-0.019,0.016-0.019l0.07-0.009V1.091V1.042c0,0-0.177-0.001-0.259,0.009L1.518,1.029    c0-0.004-0.009-0.019-0.043-0.012C1.459,1.021,1.441,1.027,1.44,1.043c0,0.002,0,0.01-0.001,0.021    C1.424,1.067,1.41,1.071,1.388,1.08c-0.074,0.026-0.16,0.086-0.22,0.204C1.104,1.409,1.102,1.637,1.297,1.779l0.338,0.25    L1.484,2.619c-0.015-0.018-0.036-0.052-0.06-0.083l0.079-0.318c0.012-0.047,0.015-0.111-0.01-0.173    c-0.022-0.06-0.078-0.108-0.169-0.113C1.263,1.927,1.161,1.958,1.126,2.088c-0.015,0.058-0.022,0.149,0.026,0.24    c0.031,0.06,0.074,0.113,0.143,0.204l0.023,0.029L1.273,2.726C1.264,2.724,1.255,2.722,1.246,2.722    C1.188,2.72,1.149,2.765,1.149,2.813c0,0.054,0.042,0.096,0.097,0.096c0.034,0,0.064-0.017,0.081-0.045    C1.343,2.843,1.356,2.787,1.37,2.731l0.021-0.074l0.062,0.08c-0.038,0.148-0.18,0.681-0.182,0.69    C1.247,3.532,1.339,3.622,1.436,3.622C1.521,3.62,1.603,3.55,1.601,3.454c0-0.046-0.019-0.079-0.047-0.101l0.158-0.249    l0.295,0.419C2.03,3.556,2.048,3.57,2.051,3.574c0.029,0.031,0.07,0.05,0.117,0.05c0.083,0,0.166-0.075,0.166-0.166    c0-0.092-0.072-0.168-0.166-0.151c-0.002,0-0.005,0-0.008,0.001L1.95,2.709C1.933,2.664,1.91,2.63,1.89,2.609    C1.859,2.58,1.814,2.58,1.798,2.581c-0.009,0-0.019,0.002-0.029,0.005l0.156-0.34L2.12,2.395c0.03,0.024,0.067,0.037,0.106,0.037    c0.007,0,0.013,0,0.021-0.001l0.053,0.557c0.019,0.188,0.109,0.351,0.243,0.466v0.001h0.001C2.67,3.562,2.829,3.627,3.009,3.627    c0.368,0,0.672-0.279,0.705-0.64l0.054-0.557c0.008,0.001,0.016,0.001,0.02,0.001c0.04,0,0.075-0.013,0.104-0.037l0.197-0.148    l0.158,0.341c-0.01-0.002-0.02-0.005-0.029-0.005c-0.016,0-0.061-0.001-0.092,0.028c-0.022,0.019-0.043,0.054-0.061,0.1    L3.853,3.308c0-0.001-0.003-0.001-0.006-0.001C3.752,3.289,3.68,3.366,3.68,3.457c0,0.093,0.084,0.165,0.167,0.165    c0.045,0,0.089-0.018,0.118-0.049C3.968,3.57,3.986,3.557,4.009,3.523l0.296-0.419l0.155,0.249    C4.433,3.375,4.416,3.408,4.414,3.454C4.411,3.55,4.492,3.62,4.578,3.622c0.097,0,0.191-0.09,0.166-0.194    C4.742,3.419,4.599,2.884,4.56,2.74l0.062-0.081l0.021,0.074c0.016,0.055,0.029,0.112,0.045,0.133    C4.706,2.895,4.736,2.912,4.77,2.912c0.052,0,0.096-0.042,0.096-0.096C4.866,2.765,4.826,2.72,4.77,2.722z" fill="#231F20" id="path2524"></path>
  <text font-family="'Arial'" font-weight="bold" font-size="0.5" transform="matrix(1 0 0 1 5.4 2.3213)">Stadt Zürich</text>  
  <text font-family="'Arial'" font-size="0.5" transform="matrix(1 0 0 1 5.4 3)">Dienstabteilung Verkehr</text>  </g>  
  <g id="textbox">  
  <text font-family="'Arial'" font-size="1.1309" id="PLAN" text-anchor="start" x="1.1" y="6.3">Ampelplan M  1:200</text>  
  <text font-family="'Arial'" font-size="0.769" id="STATUS" text-anchor="end" x="38.75" y="4.2">Knotenmappe  22.1  12.12.14 14:34:12</text>  
  <text font-family="'Arial'" font-size="0.769" id="DRUCKDATUM" text-anchor="end" x="38.75" y="6.3">Druckdatum:  22.01.2015 10:45:36  (MA)</text>  
  <text font-family="'Arial'" font-size="0.769" id="BEARBEITUNG" text-anchor="end" x="38.75" y="3.1">Bearbeitungsdatum  22.1  12.12.14 14:34:12</text>
  <text font-family="'Arial'" font-size="1.1309" font-weight="bold" id="KNOTEN" text-anchor="end" x="38.75" y="1.95">365  Künstlergasse/Neumarkt/Seilergraben</text>  </g> </g> </svg>
