<?xml version="1.0" standalone="no"?><!DOCTYPE svg PUBLIC "-//W3C//DTD SVG 1.1//EN" "http://www.w3.org/Graphics/SVG/1.1/DTD/svg11.dtd">
<?xml-stylesheet href="http://plr2-dev/themes/vrsz/images/geoposlib/geopos_symb.css" type="text/css"?>
<svg baseProfile="full" contentScriptType="text/ecmascript" contentStyleType="text/css" enable-background="new 0 0 198.39 35.02" height="35.02px" id="Ebene_1" preserveAspectRatio="xMidYMid meet" version="1.1" viewBox="0 0 198.39 35.02" width="198.39px" x="0px" xml:space="preserve" xmlns="http://www.w3.org/2000/svg" xmlns:xlink="http://www.w3.org/1999/xlink" y="0px" zoomAndPan="magnify">  
  <style type="text/css">@import url(&quot;/themes/vrsz/images/geoposlib/geopos_symb.css&quot;);</style>  
  <g>  
  <g id="background">  
  <rect fill="#FFFFFF" height="34.943" stroke="#010202" stroke-miterlimit="10" stroke-width="0.2823" width="197.983" x="0.203" y="0.038"></rect>  
  <line fill="none" stroke="#010202" stroke-miterlimit="10" stroke-width="0.2823" x1="0.203" x2="198.187" y1="24.563" y2="24.563"></line>  
		<path d="M23.438,12.206l-0.295-1.138c-0.116-0.438,0.035-0.868,0.413-0.901    c0.298-0.03,0.54,0.288,0.54,0.566c0,0.563-0.323,1.017-0.45,1.199C23.613,11.975,23.533,12.079,23.438,12.206z M23.357,17.168    c0.009,0.043,0.009,0.09,0.009,0.107c0,0.196-0.143,0.34-0.364,0.34c-0.217,0-0.335-0.196-0.335-0.34    c0-0.192,0.147-0.357,0.354-0.354h0.019l-0.192-0.303l-0.06-0.092l-0.554-0.874l-0.114-0.181l-0.366-0.57    c0,0-0.062-0.103-0.094-0.198v-0.006c-0.008-0.013-0.011-0.027-0.012-0.041c0-0.012-0.004-0.02-0.005-0.025    c-0.005-0.029-0.008-0.053-0.008-0.083c0-0.264,0.211-0.475,0.474-0.475c0.087,0,0.168,0.022,0.244,0.066l-0.059-0.134    l-1.384-3.005l0.69-0.515L23.357,17.168z M20.092,16.922l-0.059,0.082l-0.199,0.284c0,0-0.149,0.195-0.212,0.249    c-0.066,0.06-0.149,0.095-0.238,0.095c-0.191,0-0.346-0.156-0.346-0.346c0-0.192,0.158-0.345,0.346-0.345    c0.127,0,0.224,0.045,0.284,0.119l0.024,0.039l0.114-0.331l0.012-0.038c0.306-0.869,1.056-3,1.092-3.086    c0.041-0.111,0.141-0.292,0.364-0.337c0.141-0.03,0.218-0.004,0.256,0.018l0.228,0.493c-0.336,0-0.611,0.278-0.611,0.694    c0,0.176,0.098,0.381,0.233,0.598L20.092,16.922z M20.249,10.963l-0.354,0.263l-0.577,0.426c-0.057,0.041-0.132,0.067-0.219,0.067    c-0.028,0-0.059-0.002-0.084-0.01c-0.163-0.047-0.303-0.213-0.308-0.357c-0.007-0.199,0.119-0.392,0.378-0.39l0.004,0.001    c0.104,0.003,0.198,0.042,0.271,0.107l0.354-0.261l0.153-0.111l1.487-1.102l-0.111-0.473L20.47,9.709    c-0.086-0.379-0.076-0.89,0.191-1.403c0.111-0.196,0.397-0.642,0.928-0.912c0.098-0.049,0.19-0.089,0.273-0.119    c0.162,0.004,0.328,0.012,0.467,0.006c0.41-0.01,0.56-0.26,0.598-0.42c0.028-0.102,0.066-0.345,0.08-0.669    c0.003-0.11,0.006-0.255,0.003-0.403c0.545,0.171,1.04,0.733,1.091,1.354c0.057,0.763-0.358,1.224-0.661,1.45L20.249,10.963z     M11.075,9.136l0.137,1.375c-0.076,0.005-0.151,0.021-0.219,0.045l-0.663-0.5l1.423-3.054l0.132,1.566h3.144h0.281h3.142    l0.132-1.566l1.423,3.054l-0.659,0.5c-0.069-0.023-0.144-0.04-0.22-0.044l0.135-1.376L11.075,9.136L11.075,9.136z M18.606,10.615    c-0.222,0.152-0.366,0.403-0.366,0.689c0,0.236,0.098,0.453,0.257,0.603l-0.031,0.371l-0.065,0.828l-0.14,1.658    c-0.015,0.254-0.065,0.499-0.138,0.731l-6.135-5.897h6.701L18.606,10.615z M12.401,15.944c-0.051-0.125-0.1-0.262-0.146-0.415    h5.173l0.431,0.415H12.401z M17.284,16.824h-4.308c-0.123-0.12-0.232-0.256-0.336-0.415h5.005    C17.55,16.535,17.436,16.675,17.284,16.824z M15.196,17.752c-0.524,0-1.087-0.11-1.666-0.464h3.258    C16.384,17.563,15.721,17.752,15.196,17.752z M12.067,14.654h4.448l0.43,0.41h-4.802C12.109,14.933,12.089,14.793,12.067,14.654z     M11.961,13.775h3.646l0.426,0.411h-4.03C11.987,14.051,11.972,13.914,11.961,13.775z M11.895,12.898h2.801l0.425,0.412h-3.196    C11.915,13.174,11.906,13.035,11.895,12.898z M11.831,12.019h1.948l0.43,0.414h-2.347C11.852,12.295,11.842,12.152,11.831,12.019z     M12.102,11.142h0.767l0.429,0.411h-1.21c0.024-0.073,0.04-0.145,0.04-0.229C12.127,11.261,12.115,11.2,12.102,11.142z     M11.734,10.642c-0.056-0.378-0.089-0.757-0.089-0.757l0.74,0.791h-0.607C11.761,10.665,11.75,10.65,11.734,10.642z     M11.327,11.709c-0.028,0.008-0.057,0.01-0.085,0.01c-0.09,0-0.163-0.026-0.22-0.067l-0.576-0.426l-0.354-0.263L6.903,8.595    c-0.302-0.225-0.72-0.687-0.661-1.45C6.291,6.525,6.79,5.962,7.329,5.792c0,0.147,0,0.293,0.006,0.403    c0.013,0.325,0.054,0.566,0.08,0.669c0.037,0.16,0.188,0.412,0.596,0.42c0.14,0.002,0.309-0.002,0.47-0.007    c0.081,0.029,0.176,0.069,0.274,0.117C9.285,7.667,9.571,8.11,9.679,8.308c0.268,0.512,0.279,1.024,0.191,1.402L9.098,9.125    L8.985,9.598l1.492,1.101l0.151,0.114l0.354,0.261c0.07-0.067,0.164-0.104,0.268-0.11l0.004-0.001    c0.262-0.002,0.387,0.189,0.379,0.388C11.633,11.496,11.488,11.662,11.327,11.709z M8.046,14.004L7.99,14.137    c0.07-0.041,0.153-0.063,0.239-0.063c0.264,0,0.476,0.211,0.476,0.475c0,0.03,0,0.055-0.005,0.083    c-0.002,0.006-0.004,0.013-0.007,0.025c-0.001,0.014-0.004,0.027-0.011,0.041v0.006c-0.03,0.095-0.096,0.197-0.096,0.197    l-0.365,0.571l-0.113,0.181l-0.556,0.873l-0.059,0.093l-0.196,0.303h0.02c0.205-0.003,0.353,0.163,0.353,0.354    c0,0.145-0.119,0.34-0.334,0.34c-0.218,0-0.359-0.144-0.359-0.34c0-0.018-0.002-0.066,0.007-0.107l1.756-6.687l0.691,0.514    L8.046,14.004z M9.071,13.306c0.223,0.045,0.321,0.225,0.365,0.335c0.034,0.088,0.782,2.217,1.087,3.087l0.014,0.038l0.114,0.327    l0.022-0.037c0.063-0.075,0.16-0.12,0.287-0.12c0.189,0,0.344,0.156,0.344,0.345c0,0.193-0.155,0.348-0.344,0.348    c-0.089,0-0.175-0.039-0.242-0.098c-0.062-0.053-0.21-0.248-0.21-0.248l-0.2-0.284l-0.058-0.08l-1.283-1.814    c0.132-0.214,0.232-0.422,0.232-0.598c0-0.417-0.277-0.694-0.612-0.694l0.228-0.494C8.853,13.303,8.93,13.276,9.071,13.306z     M10.862,6.983c-0.105-0.061-0.173-0.174-0.173-0.305c0-0.181,0.169-0.357,0.349-0.357c0.192,0,0.351,0.162,0.351,0.357    c0,0.062-0.015,0.12-0.041,0.17l-1.038,2.259c-0.007-0.061-0.022-0.148-0.042-0.284c-0.023-0.132-0.068-0.284-0.129-0.432    L10.862,6.983z M12.42,5.677l0.026,0.567h0.324l-0.025-0.567h0.335l0.04,0.882H12.14l-0.059-0.882H12.42z M13.153,7.337h-0.965    l-0.029-0.458h0.972L13.153,7.337z M13.7,5.677l0.02,0.567h0.322l-0.018-0.567h0.315l0.019,0.882h-0.916l-0.031-0.882H13.7z     M14.375,7.337h-0.906l-0.016-0.458h0.911L14.375,7.337z M14.996,5.677l0.001,0.567h0.349V5.677h0.301L15.64,6.558h-0.412h-0.115    h-0.411L14.69,5.677H14.996z M15.976,6.879h0.912l-0.015,0.458h-0.907L15.976,6.879z M16.001,5.677h0.316l-0.021,0.567h0.324    l0.017-0.567h0.288l-0.028,0.882h-0.915L16.001,5.677z M14.706,6.879h0.408h0.115h0.41l-0.008,0.458H15.23h-0.115h-0.403    L14.706,6.879z M15.115,7.658h0.115h2.905l-0.036,0.564h-2.786h-0.281h-2.79l-0.033-0.564H15.115z M17.21,6.879h0.973    l-0.028,0.458h-0.966L17.21,6.879z M17.263,5.677h0.333L17.57,6.243h0.328l0.027-0.567h0.335l-0.06,0.882h-0.977L17.263,5.677z     M19.302,6.323c0.185,0,0.349,0.175,0.349,0.358c0,0.128-0.067,0.243-0.173,0.305l0.725,1.407    c-0.062,0.15-0.106,0.301-0.132,0.435c-0.022,0.134-0.034,0.22-0.042,0.281l-1.035-2.26c-0.026-0.05-0.042-0.106-0.042-0.17    C18.952,6.482,19.109,6.323,19.302,6.323z M7.198,11.068l-0.295,1.138c-0.094-0.127-0.172-0.23-0.205-0.276    c-0.125-0.184-0.449-0.636-0.449-1.199c0-0.279,0.24-0.594,0.541-0.568C7.163,10.199,7.313,10.63,7.198,11.068z M23.967,13.622    c-0.046,0.002-0.091,0.011-0.134,0.023l-0.229-0.823l0.115-0.149c0.35-0.453,0.556-0.712,0.713-1.013    c0.243-0.46,0.208-0.916,0.13-1.201c-0.172-0.649-0.684-0.799-0.986-0.783c-0.457,0.02-0.734,0.272-0.849,0.563    c-0.127,0.312-0.105,0.633-0.047,0.864l0.399,1.588c-0.122,0.159-0.229,0.329-0.302,0.418l-0.756-2.941l1.688-1.245    c0.971-0.712,0.963-1.857,0.644-2.473c-0.3-0.592-0.728-0.891-1.097-1.026c-0.111-0.043-0.182-0.066-0.252-0.082    c-0.002-0.049-0.004-0.084-0.007-0.101c-0.008-0.079-0.097-0.109-0.175-0.127C22.652,5.074,22.6,5.147,22.6,5.173l-0.005,0.105    c-0.412-0.045-1.291-0.041-1.291-0.041l0.001,0.243v0.603l0.347,0.041c0.034,0,0.079,0.038,0.079,0.097    c-0.002,0.065-0.051,0.104-0.1,0.114c-0.045,0.016-0.063,0.02-0.08,0.017h-0.004l-1.079-0.12l0.133,0.41    c0.42,0.046,0.752,0.078,0.992,0.091c0.011,0,0.024,0,0.038,0c0.279,0,0.507-0.229,0.507-0.511c0-0.272-0.214-0.493-0.484-0.509    V5.616c0.146,0.003,0.325,0.009,0.519,0.025c0.019,0.073,0.057,0.164,0.135,0.242c0.085,0.091,0.172,0.16,0.251,0.209L22.553,6.22    c0,0,0.011,0.209-0.008,0.38c-0.019,0.179-0.12,0.309-0.498,0.322c-0.366,0.012-0.809-0.058-0.809-0.058l0.024,0.267    c-0.142,0.083-0.292,0.203-0.477,0.368c-0.124,0.111-0.244,0.265-0.349,0.438L19.98,7.062c0.095-0.13,0.153-0.289,0.153-0.462    c0-0.432-0.398-0.784-0.814-0.784c-0.281,0-0.515,0.125-0.657,0.318L18.73,5.31h-3.494h-0.129h-3.491l0.066,0.823    c-0.142-0.193-0.378-0.317-0.658-0.317c-0.416,0-0.814,0.352-0.814,0.784c0,0.17,0.058,0.331,0.155,0.462L9.908,7.936    C9.801,7.763,9.682,7.609,9.557,7.498C9.371,7.333,9.225,7.213,9.08,7.13l0.025-0.267c0,0-0.445,0.071-0.806,0.059    C7.918,6.908,7.816,6.779,7.795,6.6C7.778,6.429,7.79,6.22,7.79,6.22L7.782,6.093c0.081-0.048,0.17-0.117,0.256-0.207    c0.076-0.081,0.116-0.169,0.133-0.244c0.196-0.018,0.37-0.023,0.519-0.028v0.097C8.419,5.73,8.204,5.95,8.204,6.222    c0,0.282,0.229,0.511,0.509,0.511c0.011,0,0.024,0,0.034,0c0.243-0.014,0.571-0.044,0.992-0.09l0.132-0.41l-1.077,0.12H8.789    C8.771,6.355,8.75,6.351,8.709,6.336C8.662,6.326,8.611,6.287,8.611,6.223c0-0.061,0.045-0.099,0.079-0.1l0.35-0.041V5.482    l0.001-0.241c0,0-0.881-0.005-1.295,0.04L7.741,5.177c0-0.027-0.047-0.098-0.222-0.06C7.444,5.134,7.353,5.166,7.347,5.243    C7.345,5.26,7.345,5.295,7.342,5.344C7.273,5.361,7.2,5.382,7.089,5.428C6.719,5.561,6.292,5.86,5.99,6.451    C5.675,7.068,5.665,8.213,6.634,8.922l1.687,1.245L7.568,13.11c-0.076-0.09-0.18-0.259-0.303-0.418l0.396-1.589    c0.058-0.231,0.079-0.553-0.045-0.862C7.5,9.948,7.225,9.696,6.766,9.676C6.465,9.66,5.955,9.81,5.781,10.46    c-0.076,0.287-0.112,0.745,0.13,1.202c0.155,0.301,0.363,0.561,0.711,1.015l0.115,0.147L6.51,13.646    c-0.041-0.013-0.089-0.021-0.134-0.024c-0.286-0.007-0.482,0.216-0.482,0.461c0,0.268,0.214,0.481,0.48,0.481    c0.171,0,0.321-0.09,0.406-0.225c0.075-0.106,0.142-0.39,0.22-0.664l0.104-0.366l0.314,0.404    c-0.191,0.729-0.904,3.393-0.916,3.436c-0.122,0.52,0.344,0.963,0.823,0.963c0.43-0.007,0.843-0.354,0.826-0.831    c-0.006-0.23-0.098-0.397-0.24-0.505l0.783-1.244l1.476,2.09c0.118,0.164,0.209,0.238,0.223,0.251    c0.149,0.154,0.356,0.244,0.586,0.244c0.411,0,0.833-0.369,0.833-0.824c0-0.456-0.359-0.842-0.835-0.756    c-0.011,0.004-0.021,0.004-0.034,0.008l-1.046-2.985c-0.086-0.226-0.2-0.4-0.304-0.499c-0.153-0.143-0.374-0.143-0.461-0.138    c-0.038,0.002-0.091,0.015-0.14,0.024l0.781-1.695l0.981,0.742c0.143,0.114,0.323,0.182,0.52,0.182c0.037,0,0.069,0,0.101-0.007    l0.271,2.781c0.088,0.935,0.541,1.752,1.208,2.329v0.007h0.008c0.621,0.529,1.426,0.858,2.312,0.858    c1.843,0,3.356-1.395,3.525-3.195l0.271-2.777c0.035,0.006,0.066,0.006,0.1,0.006c0.2,0,0.38-0.067,0.523-0.183l0.979-0.74    l0.787,1.693c-0.05-0.011-0.105-0.023-0.146-0.025c-0.087-0.002-0.305-0.003-0.459,0.141c-0.106,0.098-0.221,0.271-0.303,0.5    l-1.047,2.987c-0.012-0.005-0.021-0.005-0.035-0.01c-0.475-0.084-0.833,0.3-0.833,0.757c0,0.458,0.423,0.824,0.833,0.824    c0.229,0,0.437-0.091,0.586-0.244c0.014-0.015,0.104-0.09,0.222-0.253l1.477-2.091l0.782,1.245    c-0.142,0.106-0.231,0.274-0.242,0.502c-0.016,0.479,0.395,0.826,0.826,0.833c0.479,0,0.945-0.443,0.822-0.968    c-0.009-0.041-0.723-2.705-0.916-3.434l0.314-0.403l0.104,0.366c0.079,0.274,0.149,0.557,0.221,0.664    c0.086,0.135,0.235,0.224,0.406,0.224c0.268,0,0.482-0.213,0.482-0.481C24.448,13.838,24.252,13.615,23.967,13.622z" fill="#231F20" id="path2524"></path>
  <text font-family="'Arial'" font-weight="bold" font-size="2.5" x="27" y="11.6299">Stadt Zürich</text>  
  <text font-family="'Arial'" font-size="2.5" x="27" y="15">Dienstabteilung Verkehr</text>  </g>  
  <g id="textbox">  
  <text font-family="'Arial'" font-size="5.6453" id="PLAN" text-anchor="start" x="5.5" y="31.5">Ampelplan M  1:1000</text>  
  <text font-family="'Arial'" font-size="3.8388" id="STATUS" text-anchor="end" x="194" y="21.1">Version:  22.1  12.12.14 14:34:12</text>  
  <text font-family="'Arial'" font-size="3.8388" id="DRUCKDATUM" text-anchor="end" x="194" y="31.5">Druckdatum:  22.01.2015 10:45:36  (MA)</text>  
  <text font-family="'Arial'" font-size="3.8388" id="BEARBEITUNG" text-anchor="end" x="194" y="15.5">Bearbeitungsdatum  22.1  12.12.14 14:34:12</text>
  <text font-family="'Arial'" font-size="5.6453" font-weight="bold" id="KNOTEN" text-anchor="end" x="194" y="9.7">365  Künstlergasse/Neumarkt/Seilergraben</text>  </g> </g>  </svg>
