<?xml version="1.0" standalone="no"?><!DOCTYPE svg PUBLIC "-//W3C//DTD SVG 1.1//EN" "http://www.w3.org/Graphics/SVG/1.1/DTD/svg11.dtd">
<?xml-stylesheet href="http://plr2-dev/themes/vrsz/images/geoposlib/geopos_symb.css" type="text/css"?>
<svg baseProfile="full" contentScriptType="text/ecmascript" contentStyleType="text/css" enable-background="new 0 0 70.141 12.379" height="12.379px" id="Ebene_1" preserveAspectRatio="xMidYMid meet" version="1.1" viewBox="0 0 70.141 12.379" width="70.141px" x="0px" xml:space="preserve" xmlns="http://www.w3.org/2000/svg" xmlns:xlink="http://www.w3.org/1999/xlink" y="0px" zoomAndPan="magnify"> 
  <style type="text/css">@import url(&quot;/themes/vrsz/images/geoposlib/geopos_symb.css&quot;);</style> 
  <g>  
  <g id="background">  
  <rect fill="#FFFFFF" height="12.379" stroke="#000000" stroke-miterlimit="10" stroke-width="0.1" width="70.141" x="0"></rect>  
  <line fill="none" stroke="#000000" stroke-miterlimit="10" stroke-width="0.1" x1="0" x2="70.14" y1="8.688" y2="8.688"></line>  
		<path d="M8.231,4.311L8.126,3.908C8.086,3.752,8.139,3.6,8.272,3.589    c0.106-0.01,0.192,0.101,0.192,0.2c0,0.2-0.114,0.36-0.159,0.425C8.293,4.23,8.265,4.266,8.231,4.311z M8.202,6.07    c0.003,0.015,0.003,0.033,0.003,0.038c0,0.07-0.05,0.122-0.129,0.122c-0.076,0-0.118-0.069-0.118-0.122    c0-0.067,0.051-0.127,0.125-0.125h0.007L8.023,5.874L8.001,5.842l-0.197-0.31L7.763,5.469L7.634,5.267c0,0-0.022-0.037-0.033-0.07    V5.194C7.598,5.189,7.597,5.184,7.596,5.18c0-0.004-0.001-0.006-0.002-0.009c-0.002-0.01-0.002-0.019-0.002-0.03    c0-0.093,0.075-0.168,0.169-0.168c0.03,0,0.059,0.007,0.086,0.022L7.824,4.948l-0.49-1.065L7.58,3.702L8.202,6.07z M7.045,5.981    l-0.021,0.03L6.953,6.11c0,0-0.053,0.07-0.075,0.089C6.856,6.221,6.827,6.234,6.795,6.234c-0.068,0-0.122-0.055-0.122-0.123    c0-0.069,0.055-0.123,0.122-0.123c0.045,0,0.078,0.015,0.1,0.042l0.009,0.013l0.042-0.117L6.95,5.914    C7.058,5.606,7.324,4.851,7.337,4.82c0.015-0.039,0.05-0.103,0.129-0.119C7.514,4.69,7.541,4.7,7.554,4.708l0.081,0.173    c-0.119,0-0.217,0.099-0.217,0.246c0,0.063,0.035,0.135,0.083,0.211L7.045,5.981z M7.101,3.87L6.976,3.964L6.772,4.115    c-0.02,0.014-0.047,0.023-0.078,0.023c-0.01,0-0.019,0-0.031-0.003C6.606,4.118,6.556,4.06,6.555,4.009    C6.552,3.938,6.596,3.869,6.689,3.87L6.69,3.871C6.727,3.872,6.761,3.886,6.785,3.91l0.126-0.092l0.054-0.039l0.526-0.391    L7.453,3.22L7.179,3.426C7.149,3.292,7.152,3.111,7.248,2.93c0.038-0.07,0.141-0.228,0.328-0.324    c0.035-0.017,0.066-0.032,0.096-0.042C7.73,2.567,7.788,2.569,7.84,2.567c0.143-0.003,0.197-0.092,0.211-0.148    c0.01-0.036,0.022-0.122,0.028-0.237C8.08,2.143,8.08,2.091,8.08,2.039c0.191,0.061,0.368,0.259,0.385,0.479    c0.021,0.271-0.126,0.434-0.233,0.514L7.101,3.87z M3.851,3.223L3.899,3.71C3.872,3.712,3.845,3.718,3.823,3.727L3.587,3.549    l0.504-1.082l0.046,0.555h1.114h0.101h1.112l0.047-0.555l0.504,1.082L6.781,3.727c-0.022-0.009-0.05-0.015-0.076-0.016    l0.047-0.488H3.851z M6.519,3.748c-0.078,0.054-0.13,0.143-0.13,0.244c0,0.083,0.034,0.161,0.091,0.214L6.47,4.336L6.447,4.63    L6.398,5.217C6.392,5.307,6.375,5.394,6.349,5.476L4.175,3.387h2.374L6.519,3.748z M4.32,5.635    C4.302,5.59,4.284,5.542,4.268,5.488h1.833l0.153,0.147H4.32z M6.052,5.947H4.525c-0.044-0.043-0.083-0.092-0.12-0.148h1.773    C6.144,5.845,6.104,5.894,6.052,5.947z M5.31,6.276c-0.186,0-0.385-0.039-0.59-0.166h1.155C5.731,6.209,5.496,6.276,5.31,6.276z     M4.201,5.178h1.576L5.93,5.324H4.228C4.218,5.278,4.21,5.228,4.201,5.178z M4.165,4.868h1.291l0.151,0.146H4.179    C4.174,4.964,4.169,4.916,4.165,4.868z M4.141,4.556h0.992l0.151,0.147H4.153C4.149,4.654,4.144,4.604,4.141,4.556z M4.119,4.244    h0.69l0.152,0.147H4.131C4.127,4.343,4.123,4.292,4.119,4.244z M4.215,3.934h0.272L4.638,4.08H4.21    c0.008-0.026,0.014-0.052,0.014-0.082C4.223,3.976,4.22,3.955,4.215,3.934z M4.085,3.756c-0.02-0.134-0.032-0.268-0.032-0.268    l0.263,0.281H4.1C4.095,3.766,4.091,3.76,4.085,3.756z M3.941,4.135C3.93,4.138,3.92,4.138,3.911,4.138    c-0.032,0-0.058-0.009-0.079-0.023L3.629,3.964L3.503,3.87l-1.13-0.838c-0.107-0.08-0.255-0.244-0.234-0.514    C2.156,2.298,2.332,2.1,2.523,2.039c0,0.052,0,0.104,0.002,0.143c0.004,0.115,0.019,0.201,0.028,0.237    c0.014,0.057,0.066,0.145,0.211,0.148c0.051,0.001,0.11,0,0.167-0.002c0.03,0.009,0.062,0.024,0.097,0.041    C3.217,2.702,3.317,2.859,3.356,2.93c0.096,0.182,0.099,0.364,0.068,0.498L3.151,3.22l-0.04,0.167L3.64,3.778l0.053,0.04    l0.126,0.093c0.023-0.024,0.058-0.038,0.095-0.04L3.914,3.87C4.007,3.869,4.052,3.938,4.05,4.008    C4.049,4.06,3.997,4.119,3.941,4.135z M2.779,4.948L2.758,4.995c0.024-0.014,0.055-0.022,0.083-0.022    c0.094,0,0.169,0.075,0.169,0.168c0,0.01,0,0.019-0.001,0.03c0,0.002,0,0.004-0.002,0.009C3.006,5.184,3.006,5.189,3.004,5.194    v0.002C2.992,5.23,2.969,5.267,2.969,5.267L2.84,5.469L2.8,5.532l-0.197,0.31L2.582,5.874L2.512,5.981H2.52    c0.074-0.002,0.125,0.058,0.125,0.125c0,0.052-0.043,0.12-0.118,0.12c-0.076,0-0.127-0.052-0.127-0.12    c0-0.005,0-0.022,0.003-0.038L3.024,3.7l0.246,0.182L2.779,4.948z M3.141,4.701C3.219,4.717,3.254,4.78,3.27,4.819    C3.282,4.85,3.547,5.605,3.655,5.914l0.003,0.013L3.7,6.042l0.008-0.013C3.73,6.003,3.765,5.987,3.809,5.987    c0.068,0,0.122,0.055,0.122,0.123S3.877,6.234,3.809,6.234c-0.032,0-0.062-0.015-0.085-0.035C3.703,6.18,3.651,6.11,3.651,6.11    L3.579,6.01L3.558,5.981L3.104,5.339c0.047-0.076,0.083-0.149,0.083-0.211c0-0.147-0.098-0.246-0.218-0.246L3.05,4.707    C3.063,4.699,3.091,4.69,3.141,4.701z M3.775,2.46C3.737,2.439,3.714,2.398,3.714,2.353c0-0.064,0.059-0.127,0.123-0.127    c0.069,0,0.124,0.057,0.124,0.127c0,0.021-0.005,0.042-0.014,0.06l-0.366,0.8c-0.003-0.022-0.009-0.052-0.016-0.1    C3.555,3.066,3.54,3.013,3.52,2.959L3.775,2.46z M4.327,1.998L4.337,2.2h0.115l-0.01-0.202h0.118L4.575,2.31H4.227l-0.02-0.312    H4.327z M4.588,2.586H4.246L4.235,2.424H4.58L4.588,2.586z M4.781,1.998L4.789,2.2h0.114L4.896,1.998h0.112L5.014,2.31H4.691    L4.68,1.998H4.781z M5.021,2.586H4.7L4.695,2.424h0.322L5.021,2.586z M5.24,1.998L5.24,2.2h0.124V1.998h0.106L5.468,2.31H5.323    H5.282H5.136L5.132,1.998H5.24z M5.587,2.424h0.322L5.904,2.586H5.583L5.587,2.424z M5.596,1.998h0.112L5.701,2.2h0.114    l0.006-0.202h0.103L5.914,2.31H5.59L5.596,1.998z M5.137,2.424h0.145h0.042h0.144L5.465,2.586H5.323H5.282H5.139L5.137,2.424z     M5.282,2.699h0.042h1.028L6.34,2.9H5.352H5.252H4.264L4.252,2.699H5.282z M6.024,2.424h0.345l-0.01,0.162H6.016L6.024,2.424z     M6.044,1.998h0.118L6.152,2.2h0.116l0.011-0.202h0.118L6.377,2.31H6.029L6.044,1.998z M6.765,2.227    c0.066,0,0.124,0.062,0.124,0.127c0,0.044-0.023,0.085-0.061,0.107L7.084,2.96C7.063,3.013,7.046,3.066,7.039,3.113    c-0.007,0.047-0.012,0.078-0.015,0.1l-0.367-0.8c-0.009-0.018-0.014-0.038-0.014-0.06C6.642,2.284,6.697,2.227,6.765,2.227z     M2.478,3.908L2.373,4.311C2.339,4.266,2.311,4.23,2.301,4.213C2.256,4.148,2.141,3.988,2.141,3.788    c0-0.099,0.084-0.21,0.191-0.202C2.465,3.6,2.518,3.752,2.478,3.908z M8.418,4.813c-0.017,0-0.033,0.003-0.047,0.008L8.29,4.529    l0.041-0.053c0.123-0.161,0.197-0.253,0.251-0.359c0.086-0.163,0.075-0.324,0.046-0.426c-0.061-0.229-0.243-0.283-0.35-0.277    c-0.161,0.007-0.259,0.096-0.301,0.2C7.933,3.725,7.941,3.838,7.963,3.92l0.141,0.563C8.061,4.539,8.022,4.6,7.997,4.631    L7.729,3.589l0.598-0.441C8.67,2.896,8.667,2.491,8.554,2.272C8.448,2.062,8.297,1.957,8.165,1.91    C8.126,1.894,8.1,1.887,8.076,1.88C8.075,1.862,8.075,1.851,8.074,1.844C8.072,1.817,8.04,1.805,8.011,1.799    c-0.06-0.014-0.078,0.012-0.078,0.021L7.932,1.857C7.786,1.84,7.474,1.842,7.474,1.842l0.001,0.086v0.213l0.124,0.014    c0.013,0,0.027,0.013,0.027,0.035c-0.001,0.023-0.018,0.038-0.035,0.04C7.576,2.236,7.57,2.239,7.563,2.237H7.561L7.179,2.195    L7.226,2.34c0.148,0.017,0.266,0.027,0.352,0.032c0.003,0,0.008,0,0.012,0c0.101,0,0.18-0.081,0.18-0.181    c0-0.096-0.075-0.174-0.171-0.18V1.977c0.052,0,0.114,0.003,0.184,0.009c0.006,0.026,0.019,0.058,0.046,0.086    C7.86,2.103,7.89,2.128,7.919,2.145L7.918,2.19c0,0,0.003,0.075-0.003,0.135C7.907,2.388,7.872,2.434,7.738,2.438    c-0.13,0.005-0.287-0.02-0.287-0.02L7.46,2.512c-0.051,0.031-0.104,0.073-0.169,0.13C7.248,2.681,7.205,2.736,7.168,2.797    l-0.163-0.31C7.04,2.442,7.06,2.386,7.06,2.324c0-0.153-0.141-0.278-0.288-0.278c-0.099,0-0.182,0.045-0.233,0.112l0.024-0.29    H5.326H5.278H4.042L4.066,2.16C4.015,2.092,3.932,2.047,3.832,2.047c-0.147,0-0.288,0.125-0.288,0.278    c0,0.06,0.02,0.117,0.055,0.164L3.438,2.798C3.4,2.737,3.357,2.681,3.314,2.643c-0.066-0.059-0.117-0.101-0.169-0.13l0.009-0.094    c0,0-0.158,0.025-0.285,0.021C2.732,2.435,2.695,2.388,2.689,2.325C2.683,2.264,2.687,2.19,2.687,2.19L2.685,2.145    c0.028-0.017,0.06-0.041,0.091-0.072c0.026-0.029,0.041-0.06,0.045-0.086c0.07-0.006,0.132-0.009,0.184-0.01v0.034    C2.909,2.017,2.834,2.095,2.834,2.191c0,0.1,0.08,0.181,0.18,0.181c0.003,0,0.008,0,0.011,0C3.112,2.367,3.229,2.357,3.378,2.34    l0.045-0.145l-0.38,0.042H3.041C3.034,2.239,3.028,2.236,3.013,2.231c-0.018-0.002-0.035-0.017-0.035-0.04    c0-0.021,0.015-0.034,0.027-0.035L3.13,2.142V1.929V1.842c0,0-0.313-0.001-0.459,0.015L2.67,1.821c0-0.01-0.017-0.035-0.077-0.021    C2.564,1.805,2.532,1.817,2.53,1.844C2.529,1.851,2.529,1.862,2.529,1.88c-0.024,0.006-0.051,0.014-0.09,0.029    C2.307,1.957,2.156,2.062,2.05,2.271c-0.112,0.22-0.115,0.625,0.227,0.876l0.598,0.441L2.607,4.631    C2.58,4.6,2.544,4.539,2.501,4.483L2.641,3.92c0.02-0.083,0.028-0.196-0.016-0.306c-0.043-0.104-0.139-0.193-0.301-0.2    C2.217,3.409,2.037,3.462,1.974,3.692C1.947,3.793,1.935,3.956,2.02,4.119c0.056,0.106,0.13,0.198,0.253,0.359L2.314,4.53    L2.234,4.82C2.219,4.817,2.202,4.813,2.186,4.813C2.085,4.81,2.015,4.889,2.015,4.975c0,0.095,0.076,0.17,0.17,0.17    c0.062,0,0.113-0.031,0.144-0.079c0.026-0.038,0.05-0.137,0.078-0.234l0.038-0.13l0.111,0.143C2.486,5.103,2.234,6.046,2.23,6.063    C2.187,6.246,2.352,6.405,2.522,6.405C2.673,6.402,2.82,6.279,2.814,6.109C2.812,6.028,2.781,5.969,2.729,5.93l0.279-0.44    l0.523,0.74c0.042,0.06,0.073,0.084,0.078,0.09c0.052,0.054,0.126,0.086,0.207,0.086c0.146,0,0.295-0.131,0.295-0.291    c0-0.162-0.127-0.299-0.296-0.268C3.811,5.848,3.807,5.848,3.802,5.849l-0.37-1.057c-0.03-0.081-0.07-0.143-0.108-0.178    c-0.054-0.05-0.132-0.05-0.163-0.048c-0.013,0-0.032,0.004-0.05,0.008l0.278-0.6l0.347,0.263c0.05,0.041,0.114,0.065,0.185,0.065    c0.013,0,0.025,0,0.036-0.002l0.097,0.986c0.031,0.33,0.191,0.619,0.427,0.824V6.11h0.002C4.705,6.298,4.99,6.415,5.303,6.415    c0.653,0,1.19-0.494,1.249-1.132l0.095-0.985C6.659,4.3,6.67,4.3,6.682,4.3c0.071,0,0.135-0.023,0.186-0.065l0.347-0.261    l0.278,0.599C7.475,4.57,7.455,4.566,7.441,4.565c-0.031,0-0.108-0.001-0.162,0.049C7.242,4.649,7.2,4.711,7.172,4.793L6.8,5.85    C6.796,5.848,6.793,5.848,6.788,5.848C6.619,5.817,6.493,5.954,6.493,6.115c0,0.163,0.15,0.291,0.295,0.291    c0.081,0,0.155-0.033,0.207-0.086C7,6.314,7.032,6.29,7.073,6.23l0.523-0.741L7.875,5.93C7.823,5.969,7.792,6.028,7.788,6.108    C7.783,6.279,7.929,6.401,8.081,6.404c0.169,0,0.335-0.158,0.291-0.343C8.369,6.045,8.116,5.101,8.049,4.844l0.111-0.141    l0.038,0.13c0.028,0.097,0.054,0.197,0.078,0.234c0.031,0.048,0.083,0.08,0.144,0.08c0.094,0,0.17-0.076,0.17-0.17    C8.589,4.889,8.519,4.81,8.418,4.813z" fill="#231F20" id="path2524"></path>
  <text font-family="'Arial'" font-weight="bold" font-size="0.875" transform="matrix(1 0 0 1 9.5 4.1064)">Stadt Zürich</text>  
  <text font-family="'Arial'" font-size="0.875" transform="matrix(1 0 0 1 9.5 5.25)">Dienstabteilung Verkehr</text>  </g>  
  <g id="textbox">  
  <text font-family="'Arial'" font-size="2" id="PLAN" text-anchor="start" x="2" y="11.15">Ampelplan M  1:500</text>  
  <text font-family="'Arial'" font-size="1.36" id="STATUS" text-anchor="end" x="68.4" y="7.4">Knotenmappe  22.1  12.12.14 14:34:12</text>  
  <text font-family="'Arial'" font-size="1.36" id="DRUCKDATUM" text-anchor="end" x="68.4" y="11.15">Druckdatum:  22.01.2015 10:45:36  (MA)</text>  
  <text font-family="'Arial'" font-size="1.36" id="BEARBEITUNG" text-anchor="end" x="68.4" y="5.5">Bearbeitungsdatum  22.1  12.12.14 14:34:12</text>
  <text font-family="'Arial'" font-size="2"  font-weight="bold" id="KNOTEN" text-anchor="end" x="68.4" y="3.5">365  Künstlergasse/Neumarkt/Seilergraben</text>  </g> </g> </svg>
