<?xml version="1.0" standalone="no"?><!DOCTYPE svg PUBLIC "-//W3C//DTD SVG 1.1//EN" "http://www.w3.org/Graphics/SVG/1.1/DTD/svg11.dtd">
<?xml-stylesheet href="http://plr2-dev/themes/vrsz/images/geoposlib/geopos_symb.css" type="text/css"?>
<svg baseProfile="full" contentScriptType="text/ecmascript" contentStyleType="text/css" enable-background="new 0 0 28.061 4.95" height="4.95px" id="Ebene_1" preserveAspectRatio="xMidYMid meet" version="1.1" viewBox="0 0 28.061 4.95" width="28.061px" x="0px" xml:space="preserve" xmlns="http://www.w3.org/2000/svg" xmlns:xlink="http://www.w3.org/1999/xlink" y="0px" zoomAndPan="magnify"> 
  <style type="text/css">@import url(&quot;/themes/vrsz/images/geoposlib/geopos_symb.css&quot;);</style> 
  <g>  
  <g id="background">  
  <rect fill="#FFFFFF" height="4.95" stroke="#010202" stroke-miterlimit="10" stroke-width="0.04" width="28.049" x="0.006"></rect>  
  <line fill="none" stroke="#010202" stroke-miterlimit="10" stroke-width="0.04" x1="0.006" x2="28.054" y1="3.475" y2="3.475"></line>  
		<path d="M3.298,1.724L3.255,1.563C3.239,1.5,3.261,1.439,3.313,1.434    c0.044-0.003,0.077,0.042,0.077,0.08c0,0.08-0.046,0.144-0.063,0.17C3.323,1.69,3.31,1.705,3.298,1.724z M3.285,2.427    c0.002,0.006,0.002,0.013,0.002,0.014c0,0.028-0.021,0.049-0.052,0.049c-0.03,0-0.047-0.028-0.047-0.049    c0-0.027,0.021-0.05,0.049-0.05H3.24L3.214,2.348L3.205,2.335L3.126,2.211L3.111,2.187L3.06,2.106c0,0-0.01-0.015-0.015-0.029l0,0    C3.044,2.076,3.044,2.073,3.043,2.071c0-0.001,0-0.002,0-0.004C3.041,2.063,3.041,2.06,3.041,2.056    c0-0.038,0.03-0.068,0.067-0.068c0.013,0,0.024,0.004,0.035,0.009L3.135,1.979L2.939,1.553L3.038,1.48L3.285,2.427z M2.823,2.393    L2.815,2.403l-0.028,0.04c0,0-0.02,0.027-0.03,0.035c-0.01,0.009-0.02,0.015-0.034,0.015c-0.026,0-0.048-0.022-0.048-0.049    c0-0.028,0.021-0.05,0.048-0.05c0.018,0,0.032,0.006,0.041,0.018l0.003,0.004L2.782,2.37l0.001-0.005    c0.044-0.124,0.15-0.425,0.156-0.438c0.008-0.015,0.02-0.041,0.053-0.047C3.01,1.875,3.023,1.878,3.028,1.882l0.032,0.07    c-0.046,0-0.087,0.039-0.087,0.097c0,0.025,0.016,0.054,0.034,0.085L2.823,2.393z M2.846,1.548l-0.05,0.038l-0.083,0.06    C2.706,1.651,2.695,1.655,2.682,1.655c-0.005,0-0.009,0-0.013-0.001c-0.022-0.007-0.043-0.03-0.044-0.05    c0-0.028,0.02-0.056,0.056-0.056l0,0c0.016,0,0.027,0.006,0.039,0.015l0.05-0.038L2.791,1.51l0.212-0.156L2.987,1.288L2.878,1.37    C2.865,1.316,2.865,1.245,2.905,1.172c0.015-0.028,0.056-0.091,0.131-0.13C3.049,1.035,3.063,1.03,3.073,1.025    c0.023,0.001,0.046,0.001,0.068,0.001C3.198,1.025,3.219,0.99,3.225,0.967c0.004-0.016,0.01-0.049,0.011-0.096    c0.001-0.015,0.001-0.036,0.001-0.057c0.077,0.024,0.148,0.104,0.155,0.192C3.4,1.115,3.341,1.18,3.298,1.212L2.846,1.548z     M1.545,1.289l0.021,0.195c-0.013,0-0.021,0.003-0.031,0.007L1.441,1.42l0.202-0.433L1.66,1.209h0.446h0.04h0.445l0.02-0.223    L2.812,1.42L2.715,1.49C2.708,1.486,2.698,1.483,2.686,1.483l0.019-0.195H1.545z M2.613,1.498C2.582,1.521,2.56,1.556,2.56,1.596    c0,0.033,0.015,0.064,0.037,0.085L2.593,1.734L2.585,1.851L2.564,2.085C2.561,2.122,2.554,2.157,2.546,2.189l-0.87-0.835h0.949    L2.613,1.498z M1.733,2.253C1.726,2.235,1.719,2.215,1.714,2.194h0.731l0.062,0.059H1.733z M2.426,2.377H1.814    C1.799,2.36,1.782,2.341,1.768,2.319h0.708C2.464,2.337,2.447,2.356,2.426,2.377z M2.13,2.51c-0.075,0-0.154-0.016-0.235-0.065    h0.461C2.298,2.483,2.203,2.51,2.13,2.51z M1.687,2.071h0.63l0.061,0.058H1.697C1.692,2.11,1.689,2.09,1.687,2.071z M1.672,1.945    h0.516l0.061,0.058h-0.57C1.676,1.985,1.674,1.965,1.672,1.945z M1.661,1.822h0.397l0.061,0.059H1.666    C1.664,1.861,1.663,1.841,1.661,1.822z M1.654,1.697h0.276l0.06,0.058H1.658C1.656,1.737,1.655,1.716,1.654,1.697z M1.691,1.573    h0.108L1.86,1.631H1.689C1.693,1.621,1.695,1.61,1.695,1.599C1.695,1.59,1.693,1.582,1.691,1.573z M1.64,1.502    C1.632,1.448,1.627,1.395,1.627,1.395l0.105,0.113H1.646C1.644,1.506,1.642,1.503,1.64,1.502z M1.582,1.653    C1.577,1.655,1.573,1.655,1.57,1.655c-0.013,0-0.023-0.004-0.032-0.01L1.456,1.585L1.407,1.548L0.955,1.212    C0.911,1.18,0.853,1.115,0.862,1.007c0.007-0.088,0.077-0.167,0.154-0.192c0,0.021,0,0.042,0.001,0.057    c0.001,0.047,0.007,0.081,0.01,0.096C1.033,0.99,1.054,1.025,1.112,1.026c0.019,0,0.044,0,0.066-0.001    c0.013,0.004,0.025,0.01,0.041,0.017c0.075,0.038,0.115,0.101,0.131,0.13C1.386,1.245,1.388,1.316,1.376,1.37L1.267,1.288    L1.25,1.355l0.212,0.156l0.021,0.016l0.049,0.037c0.011-0.01,0.026-0.016,0.039-0.016h0c0.038,0,0.055,0.026,0.054,0.055    C1.624,1.623,1.604,1.646,1.582,1.653z M1.117,1.978l-0.008,0.02C1.12,1.992,1.131,1.988,1.144,1.988    c0.038,0,0.067,0.031,0.067,0.068c0,0.004,0,0.008,0,0.013c-0.001,0-0.001,0.001-0.002,0.002c0,0.002,0,0.003-0.001,0.006l0,0    C1.202,2.09,1.194,2.106,1.194,2.106L1.143,2.187L1.124,2.212L1.048,2.336L1.038,2.348L1.011,2.392h0.002    c0.029,0,0.049,0.022,0.049,0.051c0,0.02-0.016,0.048-0.046,0.048s-0.05-0.021-0.05-0.048c0-0.002,0-0.009,0.001-0.016L1.216,1.48    l0.099,0.073L1.117,1.978z M1.262,1.88c0.031,0.006,0.044,0.032,0.052,0.048c0.004,0.013,0.11,0.314,0.154,0.437L1.469,2.37    l0.017,0.046L1.49,2.411C1.499,2.4,1.511,2.394,1.531,2.394c0.028,0,0.049,0.021,0.049,0.05c0,0.027-0.021,0.049-0.049,0.049    c-0.013,0-0.024-0.005-0.035-0.015c-0.009-0.007-0.03-0.035-0.03-0.035L1.437,2.402l-0.008-0.01L1.246,2.135    c0.02-0.03,0.034-0.06,0.034-0.085c0-0.059-0.04-0.098-0.086-0.098l0.033-0.07C1.232,1.878,1.241,1.875,1.262,1.88z M1.515,0.984    C1.5,0.975,1.491,0.959,1.491,0.941c0-0.026,0.023-0.05,0.049-0.05c0.027,0,0.048,0.022,0.048,0.05    c0,0.009-0.001,0.018-0.005,0.024L1.438,1.285c-0.002-0.009-0.004-0.021-0.007-0.04c-0.002-0.019-0.01-0.04-0.019-0.062    L1.515,0.984z M1.737,0.799l0.003,0.08h0.046l-0.004-0.08h0.046l0.006,0.124H1.697L1.689,0.799H1.737z M1.84,1.034H1.702L1.7,0.97    h0.137L1.84,1.034z M1.918,0.799l0.003,0.08h0.045l-0.002-0.08H2.01l0.002,0.124h-0.13L1.878,0.799H1.918z M2.014,1.034H1.885    L1.882,0.97h0.13L2.014,1.034z M2.102,0.799v0.08h0.05v-0.08h0.044L2.193,0.924H2.135H2.117H2.06L2.058,0.799H2.102z M2.241,0.97    H2.37L2.367,1.034H2.239L2.241,0.97z M2.245,0.799H2.29l-0.004,0.08h0.045l0.003-0.08h0.041L2.371,0.924h-0.13L2.245,0.799z     M2.06,0.97h0.057h0.016H2.19v0.064H2.134H2.118H2.061L2.06,0.97z M2.118,1.08h0.016h0.411L2.541,1.16H2.146h-0.04H1.711    L1.707,1.08H2.118z M2.414,0.97h0.137L2.548,1.034H2.412L2.414,0.97z M2.423,0.799H2.47l-0.003,0.08h0.045l0.004-0.08h0.047    L2.556,0.924H2.417L2.423,0.799z M2.711,0.891c0.026,0,0.049,0.024,0.049,0.05c0,0.018-0.01,0.035-0.025,0.043l0.104,0.199    C2.83,1.205,2.824,1.226,2.821,1.245c-0.002,0.019-0.004,0.03-0.006,0.04L2.669,0.965C2.664,0.958,2.661,0.95,2.661,0.94    C2.661,0.912,2.684,0.891,2.711,0.891z M0.997,1.563L0.955,1.724C0.941,1.705,0.931,1.69,0.927,1.684    C0.908,1.659,0.863,1.595,0.863,1.515c0-0.04,0.035-0.084,0.076-0.081C0.992,1.439,1.012,1.5,0.997,1.563z M3.372,1.925    c-0.006,0-0.013,0.001-0.019,0.002L3.322,1.812l0.015-0.021c0.048-0.064,0.078-0.102,0.101-0.144    c0.035-0.064,0.03-0.129,0.018-0.169C3.432,1.385,3.359,1.363,3.317,1.365c-0.065,0.003-0.104,0.04-0.121,0.08    C3.179,1.489,3.182,1.534,3.19,1.568l0.057,0.225C3.229,1.814,3.214,1.839,3.203,1.852L3.096,1.435l0.239-0.177    c0.137-0.1,0.136-0.263,0.091-0.35C3.384,0.824,3.323,0.783,3.271,0.764C3.256,0.758,3.246,0.755,3.235,0.752    c0-0.007,0-0.012,0-0.016C3.233,0.726,3.219,0.722,3.21,0.719C3.185,0.714,3.178,0.724,3.178,0.728v0.015    C3.119,0.735,2.995,0.736,2.995,0.736v0.034v0.086l0.048,0.007c0.005,0,0.012,0.005,0.012,0.014S3.048,0.893,3.041,0.893    C3.036,0.895,3.032,0.895,3.031,0.895H3.03L2.878,0.878l0.018,0.059c0.06,0.007,0.106,0.012,0.141,0.013c0.001,0,0.002,0,0.005,0    c0.04,0,0.072-0.032,0.072-0.072c0-0.039-0.03-0.07-0.068-0.072V0.791c0.02,0,0.046,0.001,0.074,0.004    c0.003,0.01,0.007,0.022,0.019,0.034c0.012,0.013,0.024,0.023,0.037,0.03v0.018c0,0,0,0.03-0.001,0.054    C3.17,0.955,3.156,0.973,3.102,0.975C3.048,0.977,2.986,0.967,2.986,0.967L2.99,1.005C2.969,1.016,2.948,1.034,2.921,1.056    C2.905,1.072,2.886,1.094,2.872,1.119L2.807,0.995c0.014-0.018,0.022-0.04,0.022-0.065c0-0.061-0.057-0.111-0.116-0.111    c-0.04,0-0.074,0.018-0.092,0.045l0.011-0.117H2.135h-0.02H1.623l0.009,0.116c-0.02-0.026-0.054-0.044-0.094-0.044    c-0.058,0-0.115,0.049-0.115,0.11c0,0.024,0.008,0.047,0.022,0.066L1.38,1.118C1.364,1.095,1.349,1.072,1.331,1.056    C1.304,1.034,1.284,1.016,1.264,1.005l0.003-0.038c0,0-0.063,0.009-0.113,0.008C1.1,0.973,1.086,0.955,1.082,0.93    c-0.002-0.025,0-0.055,0-0.055L1.081,0.857c0.011-0.006,0.024-0.017,0.036-0.03c0.009-0.01,0.015-0.023,0.017-0.033    C1.162,0.792,1.188,0.791,1.209,0.79v0.014C1.17,0.806,1.139,0.837,1.139,0.877s0.032,0.072,0.073,0.072c0.001,0,0.003,0,0.005,0    c0.033-0.003,0.08-0.006,0.14-0.014l0.019-0.059L1.223,0.895l0,0c-0.002,0-0.006,0-0.012-0.002    C1.203,0.892,1.197,0.885,1.197,0.877c0-0.009,0.005-0.014,0.011-0.015l0.051-0.006V0.771V0.736c0,0-0.125,0-0.184,0.007V0.729    c0-0.003-0.007-0.015-0.032-0.009C1.031,0.722,1.019,0.727,1.018,0.738c0,0.002,0,0.007,0,0.015    c-0.01,0.002-0.019,0.005-0.036,0.012C0.929,0.783,0.869,0.825,0.826,0.91C0.781,0.996,0.78,1.158,0.915,1.258l0.24,0.176    L1.049,1.852c-0.01-0.013-0.025-0.038-0.042-0.059l0.055-0.225c0.01-0.033,0.012-0.078-0.005-0.123    C1.04,1.404,1,1.368,0.935,1.365c-0.043-0.001-0.114,0.02-0.14,0.112C0.785,1.517,0.78,1.582,0.814,1.646    C0.835,1.688,0.865,1.726,0.915,1.79l0.016,0.022L0.899,1.928C0.894,1.926,0.886,1.925,0.881,1.925    c-0.04-0.001-0.068,0.031-0.068,0.064c0,0.038,0.03,0.068,0.068,0.068c0.024,0,0.046-0.013,0.057-0.032    c0.01-0.015,0.021-0.055,0.031-0.094l0.016-0.051L1.03,1.938C1.001,2.04,0.9,2.418,0.898,2.424    C0.882,2.498,0.946,2.561,1.015,2.561c0.061-0.001,0.119-0.05,0.117-0.118C1.131,2.41,1.117,2.386,1.097,2.371l0.111-0.177    l0.21,0.296c0.015,0.023,0.029,0.033,0.032,0.036c0.02,0.021,0.05,0.034,0.083,0.034c0.058,0,0.118-0.052,0.118-0.116    S1.6,2.325,1.531,2.338c0,0-0.003,0-0.004,0.001L1.379,1.916C1.365,1.884,1.35,1.858,1.335,1.845    c-0.021-0.02-0.052-0.02-0.065-0.019c-0.004,0-0.013,0.001-0.02,0.003l0.11-0.24L1.5,1.694C1.522,1.711,1.545,1.72,1.574,1.72    c0.005,0,0.01,0,0.015,0L1.63,2.115c0.011,0.132,0.076,0.248,0.169,0.33v0H1.8C1.888,2.52,2.001,2.566,2.128,2.566    c0.26,0,0.475-0.198,0.498-0.452l0.039-0.394c0.004,0,0.011,0,0.016,0c0.027,0,0.053-0.009,0.075-0.026l0.137-0.104l0.109,0.238    c-0.006-0.001-0.015-0.002-0.02-0.002C2.968,1.826,2.937,1.826,2.917,1.846c-0.016,0.013-0.032,0.039-0.043,0.07L2.726,2.339    C2.724,2.338,2.723,2.338,2.72,2.338C2.653,2.325,2.603,2.381,2.603,2.445c0,0.065,0.06,0.116,0.118,0.116    c0.032,0,0.062-0.013,0.082-0.034c0.002-0.001,0.016-0.013,0.032-0.036l0.209-0.296l0.111,0.177    C3.135,2.386,3.122,2.41,3.121,2.442C3.118,2.51,3.177,2.559,3.238,2.56c0.068,0,0.135-0.063,0.117-0.137    C3.353,2.418,3.251,2.04,3.224,1.938l0.045-0.057l0.016,0.051C3.296,1.97,3.306,2.011,3.315,2.026    c0.013,0.019,0.032,0.031,0.057,0.031c0.039,0,0.069-0.031,0.069-0.068C3.441,1.956,3.413,1.924,3.372,1.925z" fill="#231F20" id="path2524"></path>
  <text font-family="'Arial'" font-weight="bold" font-size="0.35" transform="matrix(1 0 0 1 3.8 1.6416)">Stadt Zürich</text>  
  <text font-family="'Arial'" font-size="0.35" transform="matrix(1 0 0 1 3.8 2.1)">Dienstabteilung Verkehr</text>  </g>  
  <g id="textbox">  
  <text font-family="'Arial'" font-size="0.7997" id="PLAN" text-anchor="start" x="0.75" y="4.4448">Ampelplan M  1:200</text>  
  <text font-family="'Arial'" font-size="0.5438" id="STATUS" text-anchor="end" x="27.4" y="2.95">Knotenmappe  22.1  12.12.14 14:34:12</text>  
  <text font-family="'Arial'" font-size="0.5438" id="DRUCKDATUM" text-anchor="end" x="27.4" y="4.4448">Druckdatum:  22.01.2015 10:45:36  (MA)</text>  
  <text font-family="'Arial'" font-size="0.5438" id="BEARBEITUNG" text-anchor="end" x="27.4" y="2.2">Bearbeitungsdatum  22.1  12.12.14 14:34:12</text>
  <text font-family="'Arial'" font-size="0.7997" font-weight="bold" id="KNOTEN" text-anchor="end" x="27.4" y="1.4">365  Künstlergasse/Neumarkt/Seilergraben</text>  </g> </g> </svg>
