<?xml version="1.0" standalone="no"?><!DOCTYPE svg PUBLIC "-//W3C//DTD SVG 1.1//EN" "http://www.w3.org/Graphics/SVG/1.1/DTD/svg11.dtd">
<?xml-stylesheet href="http://plr2-dev/themes/vrsz/images/geoposlib/geopos_symb.css" type="text/css"?>
<svg baseProfile="full" contentScriptType="text/ecmascript" contentStyleType="text/css" enable-background="new 0 0 2.343 3.521" height="3.521px" id="Ebene_1" preserveAspectRatio="xMidYMid meet" version="1.1" viewBox="0 0 2.343 3.521" width="2.343px" x="0px" xml:space="preserve" xmlns="http://www.w3.org/2000/svg" xmlns:xlink="http://www.w3.org/1999/xlink" y="0px" zoomAndPan="magnify">           
    <style type="text/css">@import url(&quot;/themes/vrsz/images/geoposlib/geopos_symb.css&quot;);</style>            
    <g>                    
        <g>                             
            <rect class="static_symb_det_fill_default" height="1.854" id="det_167_fill" width="2.021" x="0.154" y="0.031"></rect>                             
            <rect class="static_symb_det_stroke" height="1.854" width="2.021" x="0.154" y="0.031"></rect>  </g>                    
        <g>                             
            <path class="static_symb_det_static_stroke" d="M1.296,1.875c0.011,0.014,0.006,0.033-0.008,0.043C1.283,1.923,1.277,1.925,1.271,1.925                  c-0.012,0-0.02-0.004-0.025-0.012l-1.09-1.558C0.146,0.342,0.15,0.322,0.164,0.312C0.178,0.302,0.197,0.304,0.207,0.32                  L1.296,1.875z                  M2.147,0.709c0.007,0.01,0.017,0.013,0.026,0.013c0.006,0,0.012-0.003,0.018-0.006                  c0.016-0.01,0.018-0.03,0.008-0.044L1.737,0.012C1.727,0,1.707-0.004,1.693,0.005C1.677,0.015,1.675,0.035,1.685,0.05L2.147,0.709                  z                  M0.893,0.012C0.882,0,0.863-0.003,0.848,0.006c-0.013,0.01-0.017,0.03-0.007,0.044L2.14,1.904                  c0.007,0.009,0.017,0.013,0.025,0.013c0.008,0,0.012-0.001,0.019-0.006c0.014-0.011,0.017-0.03,0.01-0.044L0.893,0.012z                  M0.203,1.463C0.194,1.449,0.174,1.446,0.16,1.456c-0.014,0.01-0.017,0.029-0.008,0.043l0.284,0.406                  c0.006,0.01,0.015,0.013,0.025,0.013c0.007,0,0.012-0.001,0.018-0.005c0.014-0.011,0.019-0.031,0.009-0.044L0.203,1.463z"></path>                             
            <path class="static_symb_det_static_fill" d="M1.296,1.875c0.011,0.014,0.006,0.033-0.008,0.043C1.283,1.923,1.277,1.925,1.271,1.925                  c-0.012,0-0.02-0.004-0.025-0.012l-1.09-1.558C0.146,0.342,0.15,0.322,0.164,0.312C0.178,0.302,0.197,0.304,0.207,0.32                  L1.296,1.875z                  M2.147,0.709c0.007,0.01,0.017,0.013,0.026,0.013c0.006,0,0.012-0.003,0.018-0.006                  c0.016-0.01,0.018-0.03,0.008-0.044L1.737,0.012C1.727,0,1.707-0.004,1.693,0.005C1.677,0.015,1.675,0.035,1.685,0.05L2.147,0.709                  z                  M0.893,0.012C0.882,0,0.863-0.003,0.848,0.006c-0.013,0.01-0.017,0.03-0.007,0.044L2.14,1.904                  c0.007,0.009,0.017,0.013,0.025,0.013c0.008,0,0.012-0.001,0.019-0.006c0.014-0.011,0.017-0.03,0.01-0.044L0.893,0.012z                  M0.203,1.463C0.194,1.449,0.174,1.446,0.16,1.456c-0.014,0.01-0.017,0.029-0.008,0.043l0.284,0.406                  c0.006,0.01,0.015,0.013,0.025,0.013c0.007,0,0.012-0.001,0.018-0.005c0.014-0.011,0.019-0.031,0.009-0.044L0.203,1.463z"></path>  </g>                    
        <g>                             
            <text class="static_symb_det_txtbox_txt_stroke" id="textfeld" text-anchor="middle" x="1.2" y="3.45">x</text>             
            <text class="static_symb_det_txtbox_txt" id="textfeld" text-anchor="middle" x="1.2" y="3.45">x</text>  </g> </g>  
    <circle cx="1.2" cy="0.95" fill="#FF0000" id="symbolcenter" r="0.2" visibility="hidden"></circle> </svg>
