<?xml version="1.0" standalone="no"?><!DOCTYPE svg PUBLIC "-//W3C//DTD SVG 1.1//EN" "http://www.w3.org/Graphics/SVG/1.1/DTD/svg11.dtd">
<?xml-stylesheet href="http://plr2-dev/themes/vrsz/images/geoposlib/geopos_symb.css" type="text/css"?>
<svg baseProfile="full" contentScriptType="text/ecmascript" contentStyleType="text/css" enable-background="new 0 0 4.975 1.779" height="1.779px" id="Ebene_1" preserveAspectRatio="xMidYMid meet" version="1.1" viewBox="0 0 4.975 1.779" width="4.975px" x="0px" xml:space="preserve" xmlns="http://www.w3.org/2000/svg" xmlns:xlink="http://www.w3.org/1999/xlink" y="0px" zoomAndPan="magnify">      
    <style type="text/css">@import url(&quot;/themes/vrsz/images/geoposlib/geopos_symb.css&quot;);</style>       
    <g>           
        <g>                
            <path class="static_symb_det_static_stroke" d="M0.522,1.43c-0.011,0-0.022-0.008-0.028-0.02L0.063,0.502v0.895c0,0.02-0.014,0.031-0.031,0.031                  C0.013,1.428,0,1.415,0,1.397V0.362c0-0.013,0.011-0.026,0.024-0.029C0.038,0.328,0.053,0.335,0.059,0.35L0.49,1.259V0.362                  c0-0.017,0.014-0.03,0.03-0.03c0.018,0,0.031,0.014,0.031,0.03v1.036c0,0.014-0.01,0.027-0.023,0.031                  C0.528,1.43,0.526,1.43,0.522,1.43z                  M1.7,1.43H1.201c-0.012,0-0.021-0.008-0.026-0.014C1.169,1.405,1.168,1.393,1.173,1.384                  l0.495-0.988H1.257C1.241,0.393,1.226,0.38,1.226,0.362c0-0.017,0.016-0.03,0.031-0.03H1.72c0.01,0,0.021,0.005,0.026,0.014                  c0.005,0.011,0.006,0.021,0.001,0.031L1.253,1.365h0.448c0.017,0,0.031,0.015,0.031,0.032C1.73,1.417,1.716,1.43,1.7,1.43z                  M0.668,1.43c-0.017,0-0.031-0.014-0.031-0.031V0.362c0-0.017,0.015-0.03,0.031-0.03h0.486c0.017,0,0.03,0.014,0.03,0.03                  c0,0.018-0.013,0.032-0.029,0.032H0.7v0.419h0.308c0.019,0,0.032,0.014,0.032,0.03c0,0.016-0.014,0.033-0.032,0.033H0.701v0.521                  C0.701,1.417,0.686,1.43,0.668,1.43z"></path>                
            <path class="static_symb_det_static_fill" d="M0.522,1.43c-0.011,0-0.022-0.008-0.028-0.02L0.063,0.502v0.895c0,0.02-0.014,0.031-0.031,0.031                  C0.013,1.428,0,1.415,0,1.397V0.362c0-0.013,0.011-0.026,0.024-0.029C0.038,0.328,0.053,0.335,0.059,0.35L0.49,1.259V0.362                  c0-0.017,0.014-0.03,0.03-0.03c0.018,0,0.031,0.014,0.031,0.03v1.036c0,0.014-0.01,0.027-0.023,0.031                  C0.528,1.43,0.526,1.43,0.522,1.43z                  M1.7,1.43H1.201c-0.012,0-0.021-0.008-0.026-0.014C1.169,1.405,1.168,1.393,1.173,1.384                  l0.495-0.988H1.257C1.241,0.393,1.226,0.38,1.226,0.362c0-0.017,0.016-0.03,0.031-0.03H1.72c0.01,0,0.021,0.005,0.026,0.014                  c0.005,0.011,0.006,0.021,0.001,0.031L1.253,1.365h0.448c0.017,0,0.031,0.015,0.031,0.032C1.73,1.417,1.716,1.43,1.7,1.43z                  M0.668,1.43c-0.017,0-0.031-0.014-0.031-0.031V0.362c0-0.017,0.015-0.03,0.031-0.03h0.486c0.017,0,0.03,0.014,0.03,0.03                  c0,0.018-0.013,0.032-0.029,0.032H0.7v0.419h0.308c0.019,0,0.032,0.014,0.032,0.03c0,0.016-0.014,0.033-0.032,0.033H0.701v0.521                  C0.701,1.417,0.686,1.43,0.668,1.43z"></path>  </g>           
        <g>                
            <path class="static_symb_det_static_stroke" d="M4.864,1.778L4.803,1.76l0.1-0.297H4.745V1.233h0.229v0.231H4.966L4.864,1.778z                  M4.809,1.399h0.104 V1.294H4.809V1.399z"></path>                
            <path class="static_symb_det_static_fill" d="M4.864,1.778L4.803,1.76l0.1-0.297H4.745V1.233h0.229v0.231H4.966L4.864,1.778z                  M4.809,1.399h0.104 V1.294H4.809V1.399z"></path>  </g>           
        <g>                
            <text class="static_symb_det_txtbox_txt_stroke" id="textfeld" text-anchor="start" x="2.3" y="1.4">x</text>
            <text class="static_symb_det_txtbox_txt" id="textfeld" text-anchor="start" x="2.3" y="1.4">x</text>  </g> </g>
<circle cx="0.9" cy="0.9" fill="#FF0000" id="symbolcenter" r="0.2" visibility="hidden"></circle>
 </svg>
