<?xml version="1.0" standalone="no"?><!DOCTYPE svg PUBLIC "-//W3C//DTD SVG 1.1//EN" "http://www.w3.org/Graphics/SVG/1.1/DTD/svg11.dtd">
<?xml-stylesheet href="http://plr2-dev/themes/vrsz/images/geoposlib/geopos_symb.css" type="text/css"?>
<svg baseProfile="full" contentScriptType="text/ecmascript" contentStyleType="text/css" enable-background="new 0 0 2.188 3.382" height="3.382px" id="Ebene_1" preserveAspectRatio="xMidYMid meet" version="1.1" viewBox="0 0 2.188 3.382" width="2.188px" x="0px" xml:space="preserve" xmlns="http://www.w3.org/2000/svg" xmlns:xlink="http://www.w3.org/1999/xlink" y="0px" zoomAndPan="magnify">     
    <style type="text/css">@import url(&quot;/themes/vrsz/images/geoposlib/geopos_symb.css&quot;);</style>     
    <g>     
        <g>     
            <rect class="static_symb_det_fill_default" height="1.736" id="det_183_fill" width="1.995" x="0.09" y="1.572"></rect>     
            <rect class="static_symb_det_stroke" height="1.736" width="1.995" x="0.09" y="1.572"></rect>  </g>     
        <g>     
            <path class="static_symb_det_static_stroke" d="M2.108,3.333c0.01,0.015,0.006,0.032-0.01,0.044C2.092,3.382,2.086,3.382,2.08,3.382                  c-0.01,0-0.018-0.008-0.023-0.016L0.805,1.582C0.794,1.568,0.798,1.548,0.813,1.54c0.014-0.011,0.033-0.008,0.043,0.009                  L2.108,3.333z                  M0.105,1.679c-0.01-0.013-0.03-0.017-0.043-0.008c-0.016,0.01-0.019,0.029-0.009,0.045l1.129,1.608                  c0.007,0.01,0.016,0.015,0.025,0.015c0.007,0,0.013-0.004,0.019-0.008C1.24,3.321,1.243,3.302,1.234,3.289L0.105,1.679z                  M0.115,2.978C0.104,2.964,0.085,2.961,0.072,2.97C0.058,2.982,0.054,3,0.065,3.015l0.218,0.313                  c0.006,0.011,0.016,0.013,0.025,0.013c0.007,0,0.013-0.002,0.018-0.008C0.34,3.323,0.344,3.304,0.334,3.291L0.115,2.978z                  M2.055,2.072C2.063,2.083,2.071,2.085,2.08,2.085c0.006,0,0.012-0.002,0.018-0.006c0.016-0.012,0.018-0.031,0.01-0.044                  l-0.34-0.481C1.756,1.539,1.739,1.536,1.725,1.545c-0.016,0.011-0.018,0.03-0.01,0.044L2.055,2.072z"></path>     
            <path class="static_symb_det_static_fill" d="M2.108,3.333c0.01,0.015,0.006,0.032-0.01,0.044C2.092,3.382,2.086,3.382,2.08,3.382                  c-0.01,0-0.018-0.008-0.023-0.016L0.805,1.582C0.794,1.568,0.798,1.548,0.813,1.54c0.014-0.011,0.033-0.008,0.043,0.009                  L2.108,3.333z                  M0.105,1.679c-0.01-0.013-0.03-0.017-0.043-0.008c-0.016,0.01-0.019,0.029-0.009,0.045l1.129,1.608                  c0.007,0.01,0.016,0.015,0.025,0.015c0.007,0,0.013-0.004,0.019-0.008C1.24,3.321,1.243,3.302,1.234,3.289L0.105,1.679z                  M0.115,2.978C0.104,2.964,0.085,2.961,0.072,2.97C0.058,2.982,0.054,3,0.065,3.015l0.218,0.313                  c0.006,0.011,0.016,0.013,0.025,0.013c0.007,0,0.013-0.002,0.018-0.008C0.34,3.323,0.344,3.304,0.334,3.291L0.115,2.978z                  M2.055,2.072C2.063,2.083,2.071,2.085,2.08,2.085c0.006,0,0.012-0.002,0.018-0.006c0.016-0.012,0.018-0.031,0.01-0.044                  l-0.34-0.481C1.756,1.539,1.739,1.536,1.725,1.545c-0.016,0.011-0.018,0.03-0.01,0.044L2.055,2.072z"></path>  </g>     
        <g>     
            <text class="static_symb_det_txtbox_txt_stroke" id="textfeld" text-anchor="middle" x="1.1" y="1">x</text>   
            <text class="static_symb_det_txtbox_txt" id="textfeld" text-anchor="middle" x="1.1" y="1">x</text>  </g> </g>     
    <circle cx="1.15" cy="2.5" fill="#FF0000" id="symbolcenter" r="0.2" visibility="hidden"></circle> </svg>
