<?xml version="1.0" standalone="no"?><!DOCTYPE svg PUBLIC "-//W3C//DTD SVG 1.1//EN" "http://www.w3.org/Graphics/SVG/1.1/DTD/svg11.dtd">
<?xml-stylesheet href="http://plr2-dev/themes/vrsz/images/geoposlib/geopos_symb.css" type="text/css"?>
<svg baseProfile="full" contentScriptType="text/ecmascript" contentStyleType="text/css" enable-background="new 0 0 4.652 1.811" height="1.811px" id="Ebene_1" preserveAspectRatio="xMidYMid meet" version="1.1" viewBox="0 0 4.652 1.811" width="4.652px" x="0px" xml:space="preserve" xmlns="http://www.w3.org/2000/svg" xmlns:xlink="http://www.w3.org/1999/xlink" y="0px" zoomAndPan="magnify">     
    <style type="text/css">@import url(&quot;/themes/vrsz/images/geoposlib/geopos_symb.css&quot;);</style>     
    <g>     
        <g>     
            <rect class="static_symb_det_fill_default" height="1.733" id="det_184_fill" width="2.006" x="0.019" y="0.032"></rect>     
            <rect class="static_symb_det_stroke" height="1.733" width="2.006" x="0.019" y="0.032"></rect>  </g>     
        <g>     
            <path class="static_symb_det_static_stroke" d="M2.039,1.386C2.034,1.389,2.028,1.392,2.022,1.392c-0.012,0-0.021-0.007-0.025-0.013L1.066,0.051                  C1.055,0.035,1.059,0.016,1.073,0.007c0.016-0.011,0.034-0.008,0.044,0.007l0.931,1.328C2.057,1.357,2.053,1.377,2.039,1.386z                  M0.274,0.013C0.263,0.001,0.244-0.004,0.23,0.008C0.215,0.015,0.212,0.034,0.222,0.051l1.216,1.731                  c0.006,0.011,0.014,0.015,0.024,0.015c0.006,0,0.011-0.002,0.019-0.007c0.013-0.01,0.018-0.03,0.008-0.045L0.274,0.013z                  M0.056,0.989c-0.01-0.015-0.028-0.018-0.043-0.008C0,0.991-0.005,1.011,0.005,1.025l0.531,0.756                  c0.007,0.012,0.015,0.016,0.025,0.016c0.006,0,0.011-0.002,0.018-0.008c0.014-0.01,0.017-0.028,0.008-0.043L0.056,0.989z"></path>     
            <path class="static_symb_det_static_fill" d="M2.039,1.386C2.034,1.389,2.028,1.392,2.022,1.392c-0.012,0-0.021-0.007-0.025-0.013L1.066,0.051                  C1.055,0.035,1.059,0.016,1.073,0.007c0.016-0.011,0.034-0.008,0.044,0.007l0.931,1.328C2.057,1.357,2.053,1.377,2.039,1.386z                  M0.274,0.013C0.263,0.001,0.244-0.004,0.23,0.008C0.215,0.015,0.212,0.034,0.222,0.051l1.216,1.731                  c0.006,0.011,0.014,0.015,0.024,0.015c0.006,0,0.011-0.002,0.019-0.007c0.013-0.01,0.018-0.03,0.008-0.045L0.274,0.013z                  M0.056,0.989c-0.01-0.015-0.028-0.018-0.043-0.008C0,0.991-0.005,1.011,0.005,1.025l0.531,0.756                  c0.007,0.012,0.015,0.016,0.025,0.016c0.006,0,0.011-0.002,0.018-0.008c0.014-0.01,0.017-0.028,0.008-0.043L0.056,0.989z"></path>  </g>     
        <g>     
            <text class="static_symb_det_txtbox_txt_stroke" id="textfeld" text-anchor="start" x="2.65" y="1.4">x</text>   
            <text class="static_symb_det_txtbox_txt" id="textfeld" text-anchor="start" x="2.65" y="1.4">x</text>  </g> </g>     
    <circle cx="1.1" cy="0.9" fill="#FF0000" id="symbolcenter" r="0.2" visibility="hidden"></circle> </svg>
