<?xml version="1.0" standalone="no"?><!DOCTYPE svg PUBLIC "-//W3C//DTD SVG 1.1//EN" "http://www.w3.org/Graphics/SVG/1.1/DTD/svg11.dtd">
<?xml-stylesheet href="http://plr2-dev/themes/vrsz/images/geoposlib/geopos_symb.css" type="text/css"?>
<svg baseProfile="full" contentScriptType="text/ecmascript" contentStyleType="text/css" enable-background="new 0 0 1.707 4.631" height="4.631px" id="Ebene_1" preserveAspectRatio="xMidYMid meet" version="1.1" viewBox="0 0 1.707 4.631" width="1.707px" x="0px" xml:space="preserve" xmlns="http://www.w3.org/2000/svg" xmlns:xlink="http://www.w3.org/1999/xlink" y="0px" zoomAndPan="magnify">           
    <style type="text/css">@import url(&quot;/themes/vrsz/images/geoposlib/geopos_symb.css&quot;);</style>            
    <g>                    
        <g>                             
            <rect class="static_symb_det_fill_default" height="2.972" id="det_189_fill" width="0.929" x="0.415" y="0.04"></rect>                             
            <rect class="static_symb_det_stroke" height="2.972" width="0.929" x="0.415" y="0.04"></rect>  </g>                    
        <g>                             
            <path class="static_symb_det_static_stroke" d="M1.141,0.05c-0.01-0.015-0.006-0.034,0.008-0.044c0.014-0.011,0.033-0.007,0.043,0.008                  l0.178,0.251C1.38,0.28,1.375,0.3,1.361,0.309C1.354,0.312,1.349,0.314,1.344,0.314c-0.012,0-0.02-0.005-0.027-0.013L1.141,0.05z                  M0.443,0.146c-0.011-0.014-0.03-0.018-0.044-0.008C0.385,0.149,0.381,0.169,0.39,0.183l0.927,1.322                  c0.006,0.009,0.016,0.013,0.027,0.013c0.006,0,0.012-0.002,0.018-0.006c0.014-0.011,0.018-0.03,0.008-0.043L0.443,0.146z                  M0.449,2.589C0.438,2.576,0.42,2.574,0.406,2.582c-0.015,0.01-0.019,0.029-0.01,0.043L0.681,3.03                  c0.006,0.01,0.016,0.014,0.026,0.014c0.006,0,0.012-0.002,0.019-0.008c0.014-0.01,0.018-0.028,0.008-0.043L0.449,2.589z                  M0.452,1.447c-0.011-0.015-0.03-0.018-0.044-0.01C0.394,1.449,0.391,1.468,0.4,1.481l0.916,1.31                  C1.324,2.8,1.332,2.804,1.344,2.804c0.007,0,0.012-0.002,0.018-0.006c0.014-0.01,0.018-0.03,0.01-0.045L0.452,1.447z"></path>                             
            <path class="static_symb_det_static_fill" d="M1.141,0.05c-0.01-0.015-0.006-0.034,0.008-0.044c0.014-0.011,0.033-0.007,0.043,0.008l0.178,0.251                  C1.38,0.28,1.375,0.3,1.361,0.309C1.354,0.312,1.349,0.314,1.344,0.314c-0.012,0-0.02-0.005-0.027-0.013L1.141,0.05z                  M0.443,0.146                  c-0.011-0.014-0.03-0.018-0.044-0.008C0.385,0.149,0.381,0.169,0.39,0.183l0.927,1.322c0.006,0.009,0.016,0.013,0.027,0.013                  c0.006,0,0.012-0.002,0.018-0.006c0.014-0.011,0.018-0.03,0.008-0.043L0.443,0.146z                  M0.449,2.589                  C0.438,2.576,0.42,2.574,0.406,2.582c-0.015,0.01-0.019,0.029-0.01,0.043L0.681,3.03c0.006,0.01,0.016,0.014,0.026,0.014                  c0.006,0,0.012-0.002,0.019-0.008c0.014-0.01,0.018-0.028,0.008-0.043L0.449,2.589z                  M0.452,1.447                  c-0.011-0.015-0.03-0.018-0.044-0.01C0.394,1.449,0.391,1.468,0.4,1.481l0.916,1.31C1.324,2.8,1.332,2.804,1.344,2.804                  c0.007,0,0.012-0.002,0.018-0.006c0.014-0.01,0.018-0.03,0.01-0.045L0.452,1.447z"></path>  </g>                    
        <g>                             
            <text class="static_symb_det_txtbox_txt_stroke" id="textfeld" text-anchor="middle" x="0.85" y="4.65">x</text>             
            <text class="static_symb_det_txtbox_txt" id="textfeld" text-anchor="middle" x="0.85" y="4.65">x</text>  </g> </g>  
    <circle cx="0.9" cy="1.5" fill="#FF0000" id="symbolcenter" r="0.2" visibility="hidden"></circle> </svg>
