<?xml version="1.0" standalone="no"?><!DOCTYPE svg PUBLIC "-//W3C//DTD SVG 1.1//EN" "http://www.w3.org/Graphics/SVG/1.1/DTD/svg11.dtd">
<?xml-stylesheet href="http://plr2-dev/themes/vrsz/images/geoposlib/geopos_symb.css" type="text/css"?>
<svg baseProfile="full" contentScriptType="text/ecmascript" contentStyleType="text/css" enable-background="new 0 0 1.708 4.641" height="4.641px" id="Ebene_1" preserveAspectRatio="xMidYMid meet" version="1.1" viewBox="0 0 1.708 4.641" width="1.708px" x="0px" xml:space="preserve" xmlns="http://www.w3.org/2000/svg" xmlns:xlink="http://www.w3.org/1999/xlink" y="0px" zoomAndPan="magnify">           
    <style type="text/css">@import url(&quot;/themes/vrsz/images/geoposlib/geopos_symb.css&quot;);</style>            
    <g>                    
        <g>                             
            <rect class="static_symb_det_fill_default" height="2.973" id="det_190_fill" width="0.929" x="0.395" y="1.639"></rect>                             
            <rect class="static_symb_det_stroke" height="2.973" width="0.929" x="0.395" y="1.639"></rect>  </g>                    
        <g>                             
            <path class="static_symb_det_static_stroke" d="M1.123,1.648C1.112,1.634,1.116,1.615,1.129,1.605s0.033-0.008,0.045,0.009L1.35,1.865                  c0.011,0.014,0.007,0.032-0.008,0.043C1.338,1.911,1.331,1.913,1.324,1.913c-0.011,0-0.019-0.005-0.024-0.013L1.123,1.648z                  M0.424,1.745C0.413,1.732,0.394,1.729,0.38,1.739C0.365,1.747,0.362,1.767,0.372,1.782l0.928,1.321                  c0.004,0.011,0.014,0.015,0.024,0.015c0.007,0,0.013-0.002,0.019-0.005C1.357,3.102,1.36,3.083,1.35,3.07L0.424,1.745z                  M0.43,4.188C0.42,4.173,0.401,4.171,0.387,4.181C0.373,4.191,0.37,4.208,0.379,4.223l0.282,0.406                  c0.006,0.01,0.016,0.012,0.025,0.012c0.007,0,0.012-0.002,0.019-0.004C0.72,4.624,0.723,4.606,0.714,4.592L0.43,4.188z                  M0.433,3.043c-0.01-0.013-0.03-0.016-0.044-0.008C0.374,3.048,0.371,3.065,0.381,3.079L1.297,4.39                  C1.303,4.4,1.313,4.403,1.323,4.403c0.007,0,0.014-0.003,0.018-0.007c0.016-0.01,0.019-0.028,0.008-0.043L0.433,3.043z"></path>                             
            <path class="static_symb_det_static_fill" d="M1.123,1.648C1.112,1.634,1.116,1.615,1.129,1.605s0.033-0.008,0.045,0.009L1.35,1.865                  c0.011,0.014,0.007,0.032-0.008,0.043C1.338,1.911,1.331,1.913,1.324,1.913c-0.011,0-0.019-0.005-0.024-0.013L1.123,1.648z                  M0.424,1.745C0.413,1.732,0.394,1.729,0.38,1.739C0.365,1.747,0.362,1.767,0.372,1.782l0.928,1.321                  c0.004,0.011,0.014,0.015,0.024,0.015c0.007,0,0.013-0.002,0.019-0.005C1.357,3.102,1.36,3.083,1.35,3.07L0.424,1.745z                  M0.43,4.188C0.42,4.173,0.401,4.171,0.387,4.181C0.373,4.191,0.37,4.208,0.379,4.223l0.282,0.406                  c0.006,0.01,0.016,0.012,0.025,0.012c0.007,0,0.012-0.002,0.019-0.004C0.72,4.624,0.723,4.606,0.714,4.592L0.43,4.188z                  M0.433,3.043c-0.01-0.013-0.03-0.016-0.044-0.008C0.374,3.048,0.371,3.065,0.381,3.079L1.297,4.39                  C1.303,4.4,1.313,4.403,1.323,4.403c0.007,0,0.014-0.003,0.018-0.007c0.016-0.01,0.019-0.028,0.008-0.043L0.433,3.043z"></path>  </g>                    
        <g>                             
            <text class="static_symb_det_txtbox_txt_stroke" id="textfeld" text-anchor="middle" x="0.85" y="1.05">x</text>             
            <text class="static_symb_det_txtbox_txt" id="textfeld" text-anchor="middle" x="0.85" y="1.05">x</text>  </g> </g>  
    <circle cx="0.88" cy="3.12" fill="#FF0000" id="symbolcenter" r="0.2" visibility="hidden"></circle> </svg>
