<?xml version="1.0" standalone="no"?><!DOCTYPE svg PUBLIC "-//W3C//DTD SVG 1.1//EN" "http://www.w3.org/Graphics/SVG/1.1/DTD/svg11.dtd">
<?xml-stylesheet href="http://plr2-dev/themes/vrsz/images/geoposlib/geopos_symb.css" type="text/css"?>
<svg baseProfile="full" contentScriptType="text/ecmascript" contentStyleType="text/css" enable-background="new 0 0 3.085 3.043" height="3.043px" id="Ebene_1" preserveAspectRatio="xMidYMid meet" version="1.1" viewBox="0 0 3.085 3.043" width="3.085px" x="0px" xml:space="preserve" xmlns="http://www.w3.org/2000/svg" xmlns:xlink="http://www.w3.org/1999/xlink" y="0px" zoomAndPan="magnify">     
    <style type="text/css">@import url(&quot;/themes/vrsz/images/geoposlib/geopos_symb.css&quot;);</style>     
    <g>     
        <g>     
            <rect class="static_symb_det_fill_default" height="2.975" id="det_191_fill" width="0.928" x="0.03" y="0.04"></rect>     
            <rect class="static_symb_det_stroke" height="2.975" width="0.928" x="0.03" y="0.04"></rect>  </g>     
        <g>     
            <path class="static_symb_det_static_stroke" d="M0.757,0.049c-0.01-0.013-0.008-0.032,0.006-0.044c0.015-0.009,0.033-0.006,0.044,0.01                  l0.177,0.251C0.995,0.28,0.991,0.298,0.977,0.31C0.971,0.313,0.964,0.314,0.958,0.314c-0.01,0-0.021-0.005-0.025-0.012                  L0.757,0.049z                  M0.958,1.521c0.006,0,0.013-0.001,0.019-0.005c0.013-0.012,0.017-0.03,0.008-0.044L0.058,0.146                  c-0.011-0.015-0.03-0.018-0.044-0.008c-0.015,0.01-0.017,0.029-0.008,0.044l0.927,1.323C0.938,1.516,0.948,1.521,0.958,1.521z                  M0.066,1.446c-0.01-0.015-0.029-0.018-0.044-0.008C0.01,1.448,0.006,1.468,0.016,1.481l0.917,1.312                  c0.006,0.01,0.016,0.014,0.025,0.014c0.006,0,0.013-0.002,0.019-0.008c0.015-0.01,0.017-0.03,0.008-0.045L0.066,1.446z                  M0.063,2.588c-0.01-0.012-0.03-0.017-0.043-0.006C0.005,2.593,0.002,2.61,0.013,2.625L0.295,3.03                  c0.006,0.011,0.017,0.013,0.027,0.013c0.006,0,0.012-0.002,0.018-0.006c0.014-0.01,0.017-0.027,0.008-0.043L0.063,2.588z"></path>     
            <path class="static_symb_det_static_fill" d="M0.757,0.049c-0.01-0.013-0.008-0.032,0.006-0.044c0.015-0.009,0.033-0.006,0.044,0.01l0.177,0.251                  C0.995,0.28,0.991,0.298,0.977,0.31C0.971,0.313,0.964,0.314,0.958,0.314c-0.01,0-0.021-0.005-0.025-0.012L0.757,0.049z                  M0.958,1.521c0.006,0,0.013-0.001,0.019-0.005c0.013-0.012,0.017-0.03,0.008-0.044L0.058,0.146                  c-0.011-0.015-0.03-0.018-0.044-0.008c-0.015,0.01-0.017,0.029-0.008,0.044l0.927,1.323C0.938,1.516,0.948,1.521,0.958,1.521z                  M0.066,1.446c-0.01-0.015-0.029-0.018-0.044-0.008C0.01,1.448,0.006,1.468,0.016,1.481l0.917,1.312                  c0.006,0.01,0.016,0.014,0.025,0.014c0.006,0,0.013-0.002,0.019-0.008c0.015-0.01,0.017-0.03,0.008-0.045L0.066,1.446z                  M0.063,2.588c-0.01-0.012-0.03-0.017-0.043-0.006C0.005,2.593,0.002,2.61,0.013,2.625L0.295,3.03                  c0.006,0.011,0.017,0.013,0.027,0.013c0.006,0,0.012-0.002,0.018-0.006c0.014-0.01,0.017-0.027,0.008-0.043L0.063,2.588z"></path>  </g>     
        <g>     
            <text class="static_symb_det_txtbox_txt_stroke" id="textfeld" text-anchor="start" x="1.55" y="2.1">x</text>   
            <text class="static_symb_det_txtbox_txt" id="textfeld" text-anchor="start" x="1.55" y="2.1">x</text>  </g> </g>  
    <circle cx="0.5" cy="1.5" fill="#FF0000" id="symbolcenter" r="0.2" visibility="hidden"></circle> </svg>
