<?xml version="1.0" standalone="no"?><!DOCTYPE svg PUBLIC "-//W3C//DTD SVG 1.1//EN" "http://www.w3.org/Graphics/SVG/1.1/DTD/svg11.dtd">
<?xml-stylesheet href="http://plr2-dev/themes/vrsz/images/geoposlib/geopos_symb.css" type="text/css"?>
<svg baseProfile="full" contentScriptType="text/ecmascript" contentStyleType="text/css" enable-background="new 0 0 2.215 3.59" height="3.59px" id="Ebene_1" preserveAspectRatio="xMidYMid meet" version="1.1" viewBox="0 0 2.215 3.59" width="2.215px" x="0px" xml:space="preserve" xmlns="http://www.w3.org/2000/svg" xmlns:xlink="http://www.w3.org/1999/xlink" y="0px" zoomAndPan="magnify">           
    <style type="text/css">@import url(&quot;/themes/vrsz/images/geoposlib/geopos_symb.css&quot;);</style>            
    <g>                    
        <g>                             
            <rect class="static_symb_det_fill_default" height="1.475" id="det_192_fill" width="1.477" x="0.35"></rect>                             
            <rect class="static_symb_det_stroke" height="1.475" width="1.477" x="0.35"></rect>  </g>                    
        <g transform="translate(0.2 0)">                             
            <path class="static_symb_det_static_stroke" d="M1.103,1.008c0-0.121-0.099-0.219-0.22-0.219S0.664,0.887,0.664,1.008s0.099,0.22,0.22,0.22                  C1.004,1.228,1.103,1.129,1.103,1.008L1.103,1.008z                  M1.168,0.795c-0.012,0-0.021-0.006-0.029-0.016                  c-0.071-0.14-0.242-0.193-0.381-0.121C0.722,0.679,0.69,0.706,0.662,0.739c-0.01,0.013-0.028,0.015-0.043,0.004                  C0.606,0.732,0.604,0.713,0.613,0.7c0.031-0.039,0.069-0.072,0.114-0.096c0.169-0.09,0.378-0.023,0.466,0.146                  c0.01,0.015,0.004,0.033-0.011,0.043C1.178,0.795,1.172,0.795,1.168,0.795z                  M1.58,0.858c-0.016,0-0.027-0.011-0.03-0.023                  C1.519,0.659,1.42,0.509,1.274,0.408C1.128,0.307,0.951,0.271,0.779,0.302C0.537,0.347,0.343,0.52,0.269,0.754                  C0.264,0.77,0.246,0.78,0.23,0.774C0.213,0.769,0.203,0.752,0.209,0.737c0.08-0.257,0.295-0.445,0.558-0.494                  c0.19-0.034,0.384,0.006,0.542,0.114c0.159,0.109,0.267,0.274,0.3,0.466c0.006,0.016-0.008,0.031-0.023,0.035                  C1.584,0.858,1.582,0.858,1.58,0.858z"></path>                             
            <path class="static_symb_det_static_fill" d="M1.103,1.008c0-0.121-0.099-0.219-0.22-0.219S0.664,0.887,0.664,1.008s0.099,0.22,0.22,0.22                  C1.004,1.228,1.103,1.129,1.103,1.008L1.103,1.008z                  M1.168,0.795c-0.012,0-0.021-0.006-0.029-0.016                  c-0.071-0.14-0.242-0.193-0.381-0.121C0.722,0.679,0.69,0.706,0.662,0.739c-0.01,0.013-0.028,0.015-0.043,0.004                  C0.606,0.732,0.604,0.713,0.613,0.7c0.031-0.039,0.069-0.072,0.114-0.096c0.169-0.09,0.378-0.023,0.466,0.146                  c0.01,0.015,0.004,0.033-0.011,0.043C1.178,0.795,1.172,0.795,1.168,0.795z                  M1.58,0.858c-0.016,0-0.027-0.011-0.03-0.023                  C1.519,0.659,1.42,0.509,1.274,0.408C1.128,0.307,0.951,0.271,0.779,0.302C0.537,0.347,0.343,0.52,0.269,0.754                  C0.264,0.77,0.246,0.78,0.23,0.774C0.213,0.769,0.203,0.752,0.209,0.737c0.08-0.257,0.295-0.445,0.558-0.494                  c0.19-0.034,0.384,0.006,0.542,0.114c0.159,0.109,0.267,0.274,0.3,0.466c0.006,0.016-0.008,0.031-0.023,0.035                  C1.584,0.858,1.582,0.858,1.58,0.858z"></path>  </g>                    
        <g>                             
            <text class="static_symb_det_txtbox_txt_stroke" id="textfeld" text-anchor="middle" x="1.15" y="3.1">x</text>             
            <text class="static_symb_det_txtbox_txt" id="textfeld" text-anchor="middle" x="1.15" y="3.1">x</text>  </g> </g>  
    <circle cx="1.1" cy="0.7" fill="#FF0000" id="symbolcenter" r="0.2" visibility="hidden"></circle> </svg>
