<?xml version="1.0" standalone="no"?><!DOCTYPE svg PUBLIC "-//W3C//DTD SVG 1.1//EN" "http://www.w3.org/Graphics/SVG/1.1/DTD/svg11.dtd">
<?xml-stylesheet href="http://plr2-dev/themes/vrsz/images/geoposlib/geopos_symb.css" type="text/css"?>
<svg baseProfile="full" contentScriptType="text/ecmascript" contentStyleType="text/css" enable-background="new 0 0 2.5 3.467" height="3.467px" id="Ebene_1" preserveAspectRatio="xMidYMid meet" version="1.1" viewBox="0 0 2.5 3.467" width="2.5px" x="0px" xml:space="preserve" xmlns="http://www.w3.org/2000/svg" xmlns:xlink="http://www.w3.org/1999/xlink" y="0px" zoomAndPan="magnify">           
    <style type="text/css">@import url(&quot;/themes/vrsz/images/geoposlib/geopos_symb.css&quot;);</style>            
    <g>                    
        <g>                             
            <rect class="static_symb_det_fill_default" height="1.479" id="det_193_fill" width="1.477" x="0.511"></rect>                             
            <rect class="static_symb_det_stroke" height="1.479" width="1.477" x="0.511"></rect>  </g>                    
        <g>                             
            <path class="static_symb_det_static_stroke" d="M1.469,1.009c0-0.121-0.099-0.22-0.22-0.22s-0.219,0.099-0.219,0.22c0,0.12,0.098,0.22,0.219,0.22                  C1.373,1.229,1.469,1.132,1.469,1.009L1.469,1.009z                  M1.513,0.798c-0.01,0-0.021-0.007-0.027-0.019                  C1.414,0.642,1.242,0.588,1.104,0.66C1.068,0.679,1.035,0.705,1.009,0.738C1,0.752,0.98,0.757,0.966,0.746                  C0.953,0.734,0.951,0.716,0.96,0.701C0.992,0.66,1.029,0.627,1.074,0.604c0.17-0.088,0.379-0.021,0.467,0.146                  c0.008,0.017,0.002,0.035-0.014,0.041C1.523,0.795,1.518,0.798,1.513,0.798z                  M1.919,0.858c-0.016,0-0.026-0.011-0.03-0.024                  c-0.065-0.358-0.412-0.599-0.771-0.53c-0.242,0.045-0.437,0.217-0.511,0.45C0.603,0.771,0.585,0.779,0.569,0.774                  s-0.024-0.022-0.021-0.04c0.08-0.255,0.295-0.444,0.559-0.493C1.501,0.169,1.878,0.43,1.953,0.82                  c0.004,0.02-0.009,0.034-0.025,0.037C1.923,0.858,1.921,0.858,1.919,0.858z"></path>                             
            <path class="static_symb_det_static_fill" d="M1.469,1.009c0-0.121-0.099-0.22-0.22-0.22s-0.219,0.099-0.219,0.22c0,0.12,0.098,0.22,0.219,0.22                  C1.373,1.229,1.469,1.132,1.469,1.009L1.469,1.009z                  M1.513,0.798c-0.01,0-0.021-0.007-0.027-0.019                  C1.414,0.642,1.242,0.588,1.104,0.66C1.068,0.679,1.035,0.705,1.009,0.738C1,0.752,0.98,0.757,0.966,0.746                  C0.953,0.734,0.951,0.716,0.96,0.701C0.992,0.66,1.029,0.627,1.074,0.604c0.17-0.088,0.379-0.021,0.467,0.146                  c0.008,0.017,0.002,0.035-0.014,0.041C1.523,0.795,1.518,0.798,1.513,0.798z                  M1.919,0.858c-0.016,0-0.026-0.011-0.03-0.024                  c-0.065-0.358-0.412-0.599-0.771-0.53c-0.242,0.045-0.437,0.217-0.511,0.45C0.603,0.771,0.585,0.779,0.569,0.774                  s-0.024-0.022-0.021-0.04c0.08-0.255,0.295-0.444,0.559-0.493C1.501,0.169,1.878,0.43,1.953,0.82                  c0.004,0.02-0.009,0.034-0.025,0.037C1.923,0.858,1.921,0.858,1.919,0.858z"></path>  </g>                    
        <g>                             
            <text class="static_symb_det_txtbox_txt_stroke" id="textfeld" text-anchor="middle" transform="matrix(-1 0 0 -1 1.25 2.1)">x</text>             
            <text class="static_symb_det_txtbox_txt" id="textfeld" text-anchor="middle" transform="matrix(-1 0 0 -1 1.25 2.1)">x</text>  </g> </g>  
    <circle cx="1.25" cy="0.65" fill="#FF0000" id="symbolcenter" r="0.2" visibility="hidden"></circle> </svg>
