<?xml version="1.0" standalone="no"?><!DOCTYPE svg PUBLIC "-//W3C//DTD SVG 1.1//EN" "http://www.w3.org/Graphics/SVG/1.1/DTD/svg11.dtd">
<?xml-stylesheet href="http://plr2-dev/themes/vrsz/images/geoposlib/geopos_symb.css" type="text/css"?>
<svg baseProfile="full" contentScriptType="text/ecmascript" contentStyleType="text/css" enable-background="new 0 0 6.512 2.211" height="2.211px" id="Ebene_1" preserveAspectRatio="xMidYMid meet" version="1.1" viewBox="0 0 6.512 2.211" width="6.512px" x="0px" xml:space="preserve" xmlns="http://www.w3.org/2000/svg" xmlns:xlink="http://www.w3.org/1999/xlink" y="0px" zoomAndPan="magnify">           
    <style type="text/css">@import url(&quot;/themes/vrsz/images/geoposlib/geopos_symb.css&quot;);</style>            
    <g>                    
        <g>                             
            <rect class="static_symb_det_fill_default" height="1.792" id="det_198_fill" width="1.91" x="0" y="0.151"></rect>                             
            <rect class="static_symb_det_stroke" height="1.792" width="1.91" x="0" y="0.151"></rect>  </g>                    
        <g>                             
            <path d="M0.319,1.457c0,0-0.001,0-0.002,0c-0.014,0-0.026-0.012-0.029-0.025L0.168,0.734                  C0.165,0.716,0.177,0.701,0.194,0.698S0.226,0.707,0.23,0.724l0.096,0.559L0.477,0.73c0.005-0.012,0.017-0.021,0.031-0.021l0,0                  c0.013,0,0.024,0.01,0.028,0.021l0.172,0.552L0.79,0.728C0.794,0.71,0.808,0.699,0.826,0.702c0.02,0.003,0.03,0.019,0.027,0.034                  L0.751,1.425C0.749,1.441,0.739,1.452,0.724,1.454c-0.015,0-0.028-0.009-0.032-0.022L0.51,0.851L0.349,1.435                  C0.345,1.449,0.332,1.457,0.319,1.457z                  M1.516,1.445h-0.28c-0.011,0-0.018-0.006-0.024-0.012l-0.05-0.059                  c-0.005-0.004-0.008-0.012-0.008-0.02V1.269c0-0.017,0.014-0.031,0.031-0.031c0.017,0,0.032,0.014,0.032,0.031v0.074l0.03,0.037                  h0.257l0.028-0.027V1.132L1.499,1.107H1.192c-0.011,0-0.022-0.006-0.028-0.018L1.131,1.025C1.129,1.021,1.128,1.017,1.128,1.011                  V0.769c0-0.006,0.005-0.013,0.009-0.018l0.027-0.042c0.007-0.009,0.018-0.013,0.026-0.013h0.337c0.009,0,0.017,0.004,0.023,0.011                  l0.046,0.052c0.004,0.004,0.008,0.012,0.008,0.02v0.084c0,0.017-0.013,0.031-0.031,0.031c-0.018,0-0.032-0.015-0.032-0.031V0.791                  L1.513,0.759H1.205L1.191,0.781v0.224l0.021,0.041h0.301c0.007,0,0.014,0.002,0.02,0.007l0.05,0.041                  c0.01,0.006,0.014,0.016,0.014,0.024V1.37c0,0.008-0.004,0.017-0.013,0.022L1.536,1.437C1.532,1.441,1.525,1.445,1.516,1.445z"></path>                             
            <path class="static_symb_det_static_fill" d="M0.319,1.457c0,0-0.001,0-0.002,0c-0.014,0-0.026-0.012-0.029-0.025L0.168,0.734                  C0.165,0.716,0.177,0.701,0.194,0.698S0.226,0.707,0.23,0.724l0.096,0.559L0.477,0.73c0.005-0.012,0.017-0.021,0.031-0.021l0,0                  c0.013,0,0.024,0.01,0.028,0.021l0.172,0.552L0.79,0.728C0.794,0.71,0.808,0.699,0.826,0.702c0.02,0.003,0.03,0.019,0.027,0.034                  L0.751,1.425C0.749,1.441,0.739,1.452,0.724,1.454c-0.015,0-0.028-0.009-0.032-0.022L0.51,0.851L0.349,1.435                  C0.345,1.449,0.332,1.457,0.319,1.457z                  M1.516,1.445h-0.28c-0.011,0-0.018-0.006-0.024-0.012l-0.05-0.059                  c-0.005-0.004-0.008-0.012-0.008-0.02V1.269c0-0.017,0.014-0.031,0.031-0.031c0.017,0,0.032,0.014,0.032,0.031v0.074l0.03,0.037                  h0.257l0.028-0.027V1.132L1.499,1.107H1.192c-0.011,0-0.022-0.006-0.028-0.018L1.131,1.025C1.129,1.021,1.128,1.017,1.128,1.011                  V0.769c0-0.006,0.005-0.013,0.009-0.018l0.027-0.042c0.007-0.009,0.018-0.013,0.026-0.013h0.337c0.009,0,0.017,0.004,0.023,0.011                  l0.046,0.052c0.004,0.004,0.008,0.012,0.008,0.02v0.084c0,0.017-0.013,0.031-0.031,0.031c-0.018,0-0.032-0.015-0.032-0.031V0.791                  L1.513,0.759H1.205L1.191,0.781v0.224l0.021,0.041h0.301c0.007,0,0.014,0.002,0.02,0.007l0.05,0.041                  c0.01,0.006,0.014,0.016,0.014,0.024V1.37c0,0.008-0.004,0.017-0.013,0.022L1.536,1.437C1.532,1.441,1.525,1.445,1.516,1.445z"></path>  </g>                    
        <g>                             
            <text class="static_symb_det_txtbox_txt_stroke" id="textfeld" text-anchor="start" x="2.5" y="1.6">x</text>             
            <text class="static_symb_det_txtbox_txt" id="textfeld" text-anchor="start" x="2.5" y="1.6">x</text>  </g> </g>  
    <circle cx="0.95" cy="1.05" fill="#FF0000" id="symbolcenter" r="0.2" visibility="hidden"></circle> </svg>
