<?xml version="1.0" standalone="no"?><!DOCTYPE svg PUBLIC "-//W3C//DTD SVG 1.1//EN" "http://www.w3.org/Graphics/SVG/1.1/DTD/svg11.dtd">
<?xml-stylesheet href="http://plr2-dev/themes/vrsz/images/geoposlib/geopos_symb.css" type="text/css"?>
<svg baseProfile="full" contentScriptType="text/ecmascript" contentStyleType="text/css" enable-background="new 0 0 2.447 4.136" height="4.136px" id="Ebene_1" preserveAspectRatio="xMidYMid meet" version="1.1" viewBox="0 0 2.447 4.136" width="2.447px" x="0px" xml:space="preserve" xmlns="http://www.w3.org/2000/svg" xmlns:xlink="http://www.w3.org/1999/xlink" y="0px" zoomAndPan="magnify">           
    <style type="text/css">@import url(&quot;/themes/vrsz/images/geoposlib/geopos_symb.css&quot;);</style>            
    <g>                    
        <g>                             
            <rect class="static_symb_det_fill_default" height="1.792" id="det_199_fill" width="1.91" x="0.393" y="0"></rect>                             
            <rect class="static_symb_det_stroke" height="1.792" width="1.91" x="0.393" y="0"></rect>  </g>                    
        <g>                             
            <path d="M0.712,1.306L0.712,1.306c-0.017,0-0.028-0.01-0.031-0.024l-0.12-0.7                  C0.557,0.566,0.57,0.548,0.587,0.546C0.602,0.542,0.62,0.554,0.623,0.572l0.095,0.561L0.869,0.58                  C0.874,0.566,0.886,0.558,0.9,0.556c0.013,0,0.025,0.01,0.029,0.022L1.102,1.13l0.083-0.555C1.189,0.558,1.203,0.546,1.22,0.55                  c0.018,0.002,0.03,0.02,0.025,0.034l-0.103,0.69C1.142,1.289,1.131,1.3,1.116,1.302C1.102,1.304,1.088,1.293,1.084,1.28L0.9,0.7                  L0.74,1.284C0.737,1.296,0.725,1.306,0.712,1.306z                  M1.909,1.292h-0.28c-0.011,0-0.019-0.004-0.022-0.01L1.553,1.224                  C1.548,1.218,1.546,1.21,1.546,1.204V1.119c0-0.02,0.014-0.031,0.031-0.031c0.019,0,0.032,0.014,0.032,0.031v0.072L1.641,1.23                  h0.255l0.026-0.025V0.982L1.89,0.956H1.584c-0.013,0-0.023-0.007-0.029-0.019l-0.03-0.063C1.521,0.87,1.52,0.866,1.52,0.861V0.619                  c0-0.007,0.003-0.014,0.006-0.02l0.031-0.043c0.007-0.008,0.015-0.012,0.025-0.012h0.335c0.01,0,0.017,0.004,0.022,0.012                  l0.047,0.049C1.993,0.613,1.996,0.62,1.996,0.627v0.085c0,0.018-0.012,0.031-0.03,0.031c-0.018,0-0.031-0.016-0.031-0.031V0.64                  L1.905,0.607H1.598L1.583,0.628v0.225l0.02,0.041h0.301c0.006,0,0.012,0.002,0.021,0.006l0.051,0.041                  C1.983,0.95,1.985,0.958,1.985,0.966v0.252c0,0.008-0.003,0.016-0.011,0.022L1.929,1.285C1.924,1.289,1.916,1.292,1.909,1.292z"></path>                             
            <path class="static_symb_det_static_fill" d="M0.712,1.306L0.712,1.306c-0.017,0-0.028-0.01-0.031-0.024l-0.12-0.7                  C0.557,0.566,0.57,0.548,0.587,0.546C0.602,0.542,0.62,0.554,0.623,0.572l0.095,0.561L0.869,0.58                  C0.874,0.566,0.886,0.558,0.9,0.556c0.013,0,0.025,0.01,0.029,0.022L1.102,1.13l0.083-0.555C1.189,0.558,1.203,0.546,1.22,0.55                  c0.018,0.002,0.03,0.02,0.025,0.034l-0.103,0.69C1.142,1.289,1.131,1.3,1.116,1.302C1.102,1.304,1.088,1.293,1.084,1.28L0.9,0.7                  L0.74,1.284C0.737,1.296,0.725,1.306,0.712,1.306z                  M1.909,1.292h-0.28c-0.011,0-0.019-0.004-0.022-0.01L1.553,1.224                  C1.548,1.218,1.546,1.21,1.546,1.204V1.119c0-0.02,0.014-0.031,0.031-0.031c0.019,0,0.032,0.014,0.032,0.031v0.072L1.641,1.23                  h0.255l0.026-0.025V0.982L1.89,0.956H1.584c-0.013,0-0.023-0.007-0.029-0.019l-0.03-0.063C1.521,0.87,1.52,0.866,1.52,0.861V0.619                  c0-0.007,0.003-0.014,0.006-0.02l0.031-0.043c0.007-0.008,0.015-0.012,0.025-0.012h0.335c0.01,0,0.017,0.004,0.022,0.012                  l0.047,0.049C1.993,0.613,1.996,0.62,1.996,0.627v0.085c0,0.018-0.012,0.031-0.03,0.031c-0.018,0-0.031-0.016-0.031-0.031V0.64                  L1.905,0.607H1.598L1.583,0.628v0.225l0.02,0.041h0.301c0.006,0,0.012,0.002,0.021,0.006l0.051,0.041                  C1.983,0.95,1.985,0.958,1.985,0.966v0.252c0,0.008-0.003,0.016-0.011,0.022L1.929,1.285C1.924,1.289,1.916,1.292,1.909,1.292z"></path>  </g>                    
        <g>                             
            <text class="static_symb_det_txtbox_txt_stroke" id="textfeld" text-anchor="middle" x="1.35" y="3.5">x</text>             
            <text class="static_symb_det_txtbox_txt" id="textfeld" text-anchor="middle" x="1.35" y="3.5">x</text>  </g> </g>  
    <circle cx="1.4" cy="0.9" fill="#FF0000" id="symbolcenter" r="0.2" visibility="hidden"></circle> </svg>
