<?xml version="1.0" encoding="utf-8"?>
<!DOCTYPE svg PUBLIC "-//W3C//DTD SVG 1.1//EN" "http://www.w3.org/Graphics/SVG/1.1/DTD/svg11.dtd">
<?xml-stylesheet href="http://plr2-dev/themes/vrsz/images/geoposlib/geopos_symb.css" type="text/css"?>
<svg baseProfile="full" contentScriptType="text/ecmascript" contentStyleType="text/css" enable-background="new 0 0 2.447 3.891" height="3.891px" id="Ebene_1" preserveAspectRatio="xMidYMid meet" version="1.1" viewBox="0 0 2.447 3.891" width="2.447px" x="0px" xml:space="preserve" xmlns="http://www.w3.org/2000/svg" xmlns:xlink="http://www.w3.org/1999/xlink" y="0px" zoomAndPan="magnify"> 
    <style type="text/css">@import url(&quot;/themes/vrsz/images/geoposlib/geopos_symb.css&quot;);</style>  
    <g>  
        <g>   
            <rect class="static_symb_traf_fill_default" height="1.477" id="traf_200_fill" width="1.479" x="0.401" y="0"></rect>   
            <rect class="static_symb_traf_stroke" height="1.477" width="1.479" x="0.401" y="0"></rect>  </g>  
        <g>   
            <path class="static_symb_traf_stroke" d="M1.451,0.908c0,0.171-0.139,0.31-0.31,0.31s-0.311-0.141-0.311-0.31c0-0.172,0.139-0.31,0.31-0.31                  S1.451,0.736,1.451,0.908z                  M1.433,0.272C1.316,0.196,1.174,0.17,1.036,0.2C0.83,0.243,0.671,0.404,0.63,0.612                  C0.624,0.646,0.647,0.679,0.681,0.685c0.003,0.001,0.008,0.002,0.012,0.002c0.03,0,0.057-0.021,0.063-0.051                  c0.029-0.158,0.15-0.282,0.31-0.315C1.17,0.299,1.277,0.319,1.366,0.378c0.09,0.058,0.15,0.147,0.173,0.252                  c0.007,0.033,0.038,0.057,0.071,0.05c0.032-0.008,0.057-0.041,0.048-0.075C1.63,0.468,1.55,0.35,1.433,0.272z"></path>   
            <path class="static_symb_traf_static_fill" d="M1.451,0.908c0,0.171-0.139,0.31-0.31,0.31s-0.311-0.141-0.311-0.31c0-0.172,0.139-0.31,0.31-0.31                  S1.451,0.736,1.451,0.908z                  M1.433,0.272C1.316,0.196,1.174,0.17,1.036,0.2C0.83,0.243,0.671,0.404,0.63,0.612                  C0.624,0.646,0.647,0.679,0.681,0.685c0.003,0.001,0.008,0.002,0.012,0.002c0.03,0,0.057-0.021,0.063-0.051                  c0.029-0.158,0.15-0.282,0.31-0.315C1.17,0.299,1.277,0.319,1.366,0.378c0.09,0.058,0.15,0.147,0.173,0.252                  c0.007,0.033,0.038,0.057,0.071,0.05c0.032-0.008,0.057-0.041,0.048-0.075C1.63,0.468,1.55,0.35,1.433,0.272z"></path>  </g>  
        <g>   
            <text class="static_symb_det_txtbox_txt_stroke" id="textfeld" text-anchor="middle" x="1.2" y="3.2">x</text>
            <text class="static_symb_traf_txtbox_txt" id="textfeld" text-anchor="middle" x="1.2" y="3.2">x</text>  </g> </g> 
<circle visibility="hidden" id="symbolcenter" r="0.2" cx="1.16" cy="0.7" fill="#FF0000"></circle>
</svg>
