<?xml version="1.0" standalone="no"?><!DOCTYPE svg PUBLIC "-//W3C//DTD SVG 1.1//EN" "http://www.w3.org/Graphics/SVG/1.1/DTD/svg11.dtd">
<?xml-stylesheet href="http://plr2-dev/themes/vrsz/images/geoposlib/geopos_symb.css" type="text/css"?>
<svg baseProfile="full" contentScriptType="text/ecmascript" contentStyleType="text/css" enable-background="new 0 0 2.447 3.75" height="3.75px" id="Ebene_1" preserveAspectRatio="xMidYMid meet" version="1.1" viewBox="0 0 2.447 3.75" width="2.447px" x="0px" xml:space="preserve" xmlns="http://www.w3.org/2000/svg" xmlns:xlink="http://www.w3.org/1999/xlink" y="0px" zoomAndPan="magnify">      
    <style type="text/css">@import url(&quot;/themes/vrsz/images/geoposlib/geopos_symb.css&quot;);</style>       
    <g>           
        <g>                
            <rect class="static_symb_traf_fill_default" height="1.476" id="traf_201_fill" width="1.475" x="0.584" y="2.275"></rect>                
            <rect class="static_symb_traf_stroke" height="1.476" width="1.475" x="0.584" y="2.275"></rect>  </g>           
        <g>                
            <path class="static_symb_traf_stroke" d="M1.634,3.181c0,0.172-0.137,0.312-0.31,0.312c-0.172,0-0.309-0.14-0.309-0.312                  c0-0.171,0.137-0.31,0.309-0.31S1.634,3.01,1.634,3.181z                  M1.22,2.474C1.014,2.517,0.854,2.679,0.813,2.885                  C0.805,2.92,0.829,2.954,0.863,2.959c0.004,0,0.009,0,0.013,0c0.028,0,0.055-0.02,0.062-0.051c0.03-0.156,0.152-0.281,0.311-0.314                  c0.215-0.045,0.426,0.094,0.472,0.311C1.727,2.938,1.76,2.959,1.792,2.956c0.033-0.012,0.055-0.043,0.049-0.076                  C1.782,2.597,1.504,2.415,1.22,2.474z"></path>                
            <path class="static_symb_traf_static_fill" d="M1.634,3.181c0,0.172-0.137,0.312-0.31,0.312c-0.172,0-0.309-0.14-0.309-0.312                  c0-0.171,0.137-0.31,0.309-0.31S1.634,3.01,1.634,3.181z                  M1.22,2.474C1.014,2.517,0.854,2.679,0.813,2.885                  C0.805,2.92,0.829,2.954,0.863,2.959c0.004,0,0.009,0,0.013,0c0.028,0,0.055-0.02,0.062-0.051c0.03-0.156,0.152-0.281,0.311-0.314                  c0.215-0.045,0.426,0.094,0.472,0.311C1.727,2.938,1.76,2.959,1.792,2.956c0.033-0.012,0.055-0.043,0.049-0.076                  C1.782,2.597,1.504,2.415,1.22,2.474z"></path>  </g>           
        <g>                
            <text class="static_symb_det_txtbox_txt_stroke" id="textfeld" text-anchor="middle" x="1.3" y="1.7">x</text>             
            <text class="static_symb_traf_txtbox_txt" id="textfeld" text-anchor="middle" x="1.3" y="1.7">x</text>  </g> </g>  
    <circle cx="1.32" cy="3" fill="#FF0000" id="symbolcenter" r="0.2" visibility="hidden"></circle> </svg>
