<?xml version="1.0" standalone="no"?><!DOCTYPE svg PUBLIC "-//W3C//DTD SVG 1.1//EN" "http://www.w3.org/Graphics/SVG/1.1/DTD/svg11.dtd">
<?xml-stylesheet href="http://plr2-dev/themes/vrsz/images/geoposlib/geopos_symb.css" type="text/css"?>
<svg baseProfile="full" contentScriptType="text/ecmascript" contentStyleType="text/css" enable-background="new 0 0 4.061 2.195" height="2.195px" id="Ebene_1" preserveAspectRatio="xMidYMid meet" version="1.1" viewBox="0 0 4.061 2.195" width="4.061px" x="0px" xml:space="preserve" xmlns="http://www.w3.org/2000/svg" xmlns:xlink="http://www.w3.org/1999/xlink" y="0px" zoomAndPan="magnify">      
    <style type="text/css">@import url(&quot;/themes/vrsz/images/geoposlib/geopos_symb.css&quot;);</style>       
    <g>           
        <g>                
            <rect class="static_symb_traf_fill_default" height="1.479" id="traf_202_fill" width="1.477" x="0" y="0.388"></rect>                
            <rect class="static_symb_traf_stroke" height="1.479" width="1.477" x="0" y="0.388"></rect>  </g>           
        <g>                
            <path class="static_symb_traf_stroke" d="M1.051,1.296c0,0.171-0.138,0.31-0.309,0.31s-0.311-0.14-0.311-0.31c0-0.172,0.139-0.31,0.311-0.31                  C0.912,0.986,1.051,1.125,1.051,1.296z                  M1.032,0.662C0.914,0.585,0.776,0.558,0.637,0.588C0.43,0.631,0.27,0.793,0.23,1.001                  C0.224,1.035,0.247,1.068,0.281,1.074c0.004,0.001,0.008,0.001,0.011,0.001c0.03,0,0.056-0.021,0.062-0.05                  c0.031-0.158,0.153-0.282,0.312-0.316c0.104-0.021,0.211-0.001,0.301,0.059C1.054,0.825,1.116,0.914,1.137,1.02                  c0.007,0.031,0.04,0.055,0.072,0.049c0.033-0.008,0.056-0.041,0.049-0.074C1.23,0.856,1.15,0.738,1.032,0.662z"></path>                
            <path class="static_symb_traf_static_fill" d="M1.051,1.296c0,0.171-0.138,0.31-0.309,0.31s-0.311-0.14-0.311-0.31c0-0.172,0.139-0.31,0.311-0.31                  C0.912,0.986,1.051,1.125,1.051,1.296z                  M1.032,0.662C0.914,0.585,0.776,0.558,0.637,0.588C0.43,0.631,0.27,0.793,0.23,1.001                  C0.224,1.035,0.247,1.068,0.281,1.074c0.004,0.001,0.008,0.001,0.011,0.001c0.03,0,0.056-0.021,0.062-0.05                  c0.031-0.158,0.153-0.282,0.312-0.316c0.104-0.021,0.211-0.001,0.301,0.059C1.054,0.825,1.116,0.914,1.137,1.02                  c0.007,0.031,0.04,0.055,0.072,0.049c0.033-0.008,0.056-0.041,0.049-0.074C1.23,0.856,1.15,0.738,1.032,0.662z"></path>  </g>           
        <g>                
            <text class="static_symb_det_txtbox_txt_stroke" id="textfeld" text-anchor="start" x="2.1" y="1.6">x</text>             
            <text class="static_symb_traf_txtbox_txt" id="textfeld" text-anchor="start" x="2.1" y="1.6">x</text>  </g> </g>  
    <circle cx="0.75" cy="1.1" fill="#FF0000" id="symbolcenter" r="0.2" visibility="hidden"></circle> </svg>
