<?xml version="1.0" standalone="no"?><!DOCTYPE svg PUBLIC "-//W3C//DTD SVG 1.1//EN" "http://www.w3.org/Graphics/SVG/1.1/DTD/svg11.dtd">
<?xml-stylesheet href="http://plr2-dev/themes/vrsz/images/geoposlib/geopos_symb.css" type="text/css"?>
<svg baseProfile="full" contentScriptType="text/ecmascript" contentStyleType="text/css" enable-background="new 0 0 4.016 2.195" height="2.195px" id="Ebene_1" preserveAspectRatio="xMidYMid meet" version="1.1" viewBox="0 0 4.016 2.195" width="4.016px" x="0px" xml:space="preserve" xmlns="http://www.w3.org/2000/svg" xmlns:xlink="http://www.w3.org/1999/xlink" y="0px" zoomAndPan="magnify">      
    <style type="text/css">@import url(&quot;/themes/vrsz/images/geoposlib/geopos_symb.css&quot;);</style>       
    <g>           
        <g>                
            <rect class="static_symb_traf_fill_default" height="1.477" id="traf_203_fill" width="1.477" x="2.539" y="0.593"></rect>                
            <rect class="static_symb_traf_stroke" height="1.477" width="1.477" x="2.539" y="0.593"></rect>  </g>           
        <g>                
            <path class="static_symb_traf_stroke" d="M3.59,1.5c0,0.171-0.139,0.31-0.309,0.31c-0.172,0-0.311-0.139-0.311-0.31                  c0-0.171,0.137-0.311,0.311-0.311C3.451,1.191,3.59,1.328,3.59,1.5z                  M3.178,0.792C2.971,0.835,2.809,0.996,2.77,1.204                  C2.764,1.239,2.785,1.271,2.821,1.278c0.004,0,0.008,0.001,0.01,0.001c0.031,0,0.057-0.021,0.063-0.052                  c0.031-0.158,0.152-0.281,0.311-0.314c0.215-0.044,0.428,0.095,0.473,0.31c0.008,0.034,0.039,0.058,0.072,0.05                  s0.057-0.04,0.049-0.073C3.739,0.914,3.459,0.732,3.178,0.792z"></path>                
            <path class="static_symb_traf_static_fill" d="M3.59,1.5c0,0.171-0.139,0.31-0.309,0.31c-0.172,0-0.311-0.139-0.311-0.31                  c0-0.171,0.137-0.311,0.311-0.311C3.451,1.191,3.59,1.328,3.59,1.5z                  M3.178,0.792C2.971,0.835,2.809,0.996,2.77,1.204                  C2.764,1.239,2.785,1.271,2.821,1.278c0.004,0,0.008,0.001,0.01,0.001c0.031,0,0.057-0.021,0.063-0.052                  c0.031-0.158,0.152-0.281,0.311-0.314c0.215-0.044,0.428,0.095,0.473,0.31c0.008,0.034,0.039,0.058,0.072,0.05                  s0.057-0.04,0.049-0.073C3.739,0.914,3.459,0.732,3.178,0.792z"></path>  </g>           
        <g>                
            <text class="static_symb_det_txtbox_txt_stroke" id="textfeld" text-anchor="end" x="1.9" y="1.9">x</text>             
            <text class="static_symb_traf_txtbox_txt" id="textfeld" text-anchor="end" x="1.9" y="1.9">x</text>  </g> </g>  
    <circle cx="3.28" cy="1.3" fill="#FF0000" id="symbolcenter" r="0.2" visibility="hidden"></circle> </svg>
