<?xml version="1.0" standalone="no"?><!DOCTYPE svg PUBLIC "-//W3C//DTD SVG 1.1//EN" "http://www.w3.org/Graphics/SVG/1.1/DTD/svg11.dtd">
<?xml-stylesheet href="http://plr2-dev/themes/vrsz/images/geoposlib/geopos_symb.css" type="text/css"?>
<svg baseProfile="full" contentScriptType="text/ecmascript" contentStyleType="text/css" enable-background="new 0 0 4.652 1.811" height="1.811px" id="Ebene_1" preserveAspectRatio="xMidYMid meet" version="1.1" viewBox="0 0 4.652 1.811" width="4.652px" x="0px" xml:space="preserve" xmlns="http://www.w3.org/2000/svg" xmlns:xlink="http://www.w3.org/1999/xlink" y="0px" zoomAndPan="magnify">     
    <style type="text/css">@import url(&quot;/themes/vrsz/images/geoposlib/geopos_symb.css&quot;);</style>    
    <g>     
        <g>     
            <rect class="static_symb_det_fill_default" height="1.732" id="det_184_fill" width="2.006" x="2.619" y="0.032"></rect>     
            <rect class="static_symb_det_stroke" height="1.732" width="2.006" x="2.619" y="0.032"></rect>  </g>     
        <g>     
            <path class="static_symb_det_static_stroke" d="M4.638,1.386C4.634,1.389,4.628,1.392,4.622,1.392c-0.013,0-0.021-0.007-0.025-0.013L3.666,0.051                  C3.655,0.035,3.659,0.016,3.673,0.007c0.016-0.011,0.034-0.008,0.044,0.007l0.931,1.328C4.657,1.357,4.653,1.377,4.638,1.386z                  M2.874,0.013C2.863,0.001,2.844-0.004,2.83,0.008C2.814,0.015,2.811,0.034,2.822,0.051l1.216,1.731                  c0.006,0.011,0.014,0.015,0.023,0.015c0.006,0,0.012-0.002,0.02-0.007C4.094,1.78,4.098,1.76,4.089,1.745L2.874,0.013z                  M2.656,0.989C2.645,0.974,2.628,0.971,2.613,0.981c-0.014,0.011-0.019,0.03-0.009,0.044l0.531,0.756                  C3.142,1.793,3.15,1.797,3.161,1.797c0.006,0,0.011-0.002,0.018-0.008c0.014-0.011,0.018-0.028,0.008-0.043L2.656,0.989z"></path>     
            <path class="static_symb_det_static_fill" d="M4.638,1.386C4.634,1.389,4.628,1.392,4.622,1.392c-0.013,0-0.021-0.007-0.025-0.013L3.666,0.051                  C3.655,0.035,3.659,0.016,3.673,0.007c0.016-0.011,0.034-0.008,0.044,0.007l0.931,1.328C4.657,1.357,4.653,1.377,4.638,1.386z                  M2.874,0.013C2.863,0.001,2.844-0.004,2.83,0.008C2.814,0.015,2.811,0.034,2.822,0.051l1.216,1.731                  c0.006,0.011,0.014,0.015,0.023,0.015c0.006,0,0.012-0.002,0.02-0.007C4.094,1.78,4.098,1.76,4.089,1.745L2.874,0.013z                  M2.656,0.989C2.645,0.974,2.628,0.971,2.613,0.981c-0.014,0.011-0.019,0.03-0.009,0.044l0.531,0.756                  C3.142,1.793,3.15,1.797,3.161,1.797c0.006,0,0.011-0.002,0.018-0.008c0.014-0.011,0.018-0.028,0.008-0.043L2.656,0.989z"></path>  </g>     
        <g>     
            <text class="static_symb_det_txtbox_txt_stroke" id="textfeld" text-anchor="end" x="2" y="1.4">x</text>   
            <text class="static_symb_det_txtbox_txt" id="textfeld" text-anchor="end" x="2" y="1.4">x</text>  </g> </g>    
    <circle cx="3.7" cy="0.9" fill="#FF0000" id="symbolcenter" r="0.2" visibility="hidden"></circle> </svg>
