<?xml version="1.0" standalone="no"?><!DOCTYPE svg PUBLIC "-//W3C//DTD SVG 1.1//EN" "http://www.w3.org/Graphics/SVG/1.1/DTD/svg11.dtd">
<?xml-stylesheet href="http://plr2-dev/themes/vrsz/images/geoposlib/geopos_symb.css" type="text/css"?>
<svg baseProfile="full" contentScriptType="text/ecmascript" contentStyleType="text/css" enable-background="new 0 0 1.988 2.787" height="2.787px" id="Ebene_1" preserveAspectRatio="xMidYMid meet" version="1.1" viewBox="0 0 1.988 2.787" width="1.988px" x="0px" xml:space="preserve" xmlns="http://www.w3.org/2000/svg" xmlns:xlink="http://www.w3.org/1999/xlink" y="0px" zoomAndPan="magnify">      
    <style type="text/css">@import url(&quot;/themes/vrsz/images/geoposlib/geopos_symb.css&quot;);</style>       
    <g>           
        <g>                
            <rect class="static_symb_sign_fill_active" height="1.233" id="sign_310_fill" width="1.188" x="0.444" y="1.554"></rect>                
            <rect class="static_symb_sign_stroke" height="1.233" width="1.188" x="0.444" y="1.554"></rect>  </g>           
        <g>                
            <path class="static_symb_sign_static_stroke" d="M1.264,1.946c-0.128,0-0.229,0.099-0.236,0.226L0.623,2.025V2.39l0.409-0.169                  c0.019,0.115,0.113,0.203,0.232,0.203c0.134,0,0.24-0.108,0.24-0.238C1.505,2.054,1.396,1.946,1.264,1.946z"></path>                
            <path class="static_symb_sign_static_fill" d="M1.264,1.946c-0.128,0-0.229,0.099-0.236,0.226L0.623,2.025V2.39l0.409-0.169                  c0.019,0.115,0.113,0.203,0.232,0.203c0.134,0,0.24-0.108,0.24-0.238C1.505,2.054,1.396,1.946,1.264,1.946z"></path>  </g>           
        <g>                
            <text class="static_symb_det_txtbox_txt_stroke" id="textfeld" text-anchor="middle" x="1" y="0.95">x</text>             
            <text class="static_symb_sign_txtbox_txt" id="textfeld" text-anchor="middle" x="1" y="0.95">x</text>  </g> </g>  
    <circle cx="1.1" cy="2.2" fill="#FF0000" id="symbolcenter" r="0.2" visibility="hidden"></circle> </svg>
