<?xml version="1.0" standalone="no"?><!DOCTYPE svg PUBLIC "-//W3C//DTD SVG 1.1//EN" "http://www.w3.org/Graphics/SVG/1.1/DTD/svg11.dtd">
<?xml-stylesheet href="http://plr2-dev/themes/vrsz/images/geoposlib/geopos_symb.css" type="text/css"?>
<svg baseProfile="full" contentScriptType="text/ecmascript" contentStyleType="text/css" enable-background="new 0 0 2.471 2.479" height="2.479px" id="Ebene_1" preserveAspectRatio="xMidYMid meet" version="1.1" viewBox="0 0 2.471 2.479" width="2.471px" x="0px" xml:space="preserve" xmlns="http://www.w3.org/2000/svg" xmlns:xlink="http://www.w3.org/1999/xlink" y="0px" zoomAndPan="magnify">      
    <style type="text/css">@import url(&quot;/themes/vrsz/images/geoposlib/geopos_symb.css&quot;);</style>       
    <g>           
        <g>                
            <rect class="static_symb_sign_static_fill" height="2.479" id="sign_311_fill" width="1.045" x="1.427" y="0"></rect>                
            <rect class="static_symb_sign_stroke" height="2.479" width="1.045" x="1.427" y="0"></rect>  </g>           
        <g>                
            <path class="static_symb_sign_static_stroke" d="M2.259,1.24c0,0.171-0.141,0.311-0.313,0.311S1.637,1.41,1.637,1.24c0-0.172,0.139-0.311,0.311-0.311                  C2.118,0.929,2.259,1.068,2.259,1.24z                  M1.947,0.77c0.172,0,0.313-0.139,0.313-0.311S2.118,0.148,1.948,0.148                  c-0.172,0-0.311,0.14-0.311,0.311C1.639,0.631,1.777,0.77,1.947,0.77z                  M1.948,1.721c-0.172,0-0.311,0.139-0.311,0.313                  c0,0.172,0.139,0.311,0.309,0.311c0.172,0,0.313-0.141,0.313-0.311C2.259,1.859,2.118,1.721,1.948,1.721z"></path>                
            <path class="static_symb_sign_fill_active" d="M2.259,1.24c0,0.171-0.141,0.311-0.313,0.311S1.637,1.41,1.637,1.24c0-0.172,0.139-0.311,0.311-0.311                  C2.118,0.929,2.259,1.068,2.259,1.24z                  M1.947,0.77c0.172,0,0.313-0.139,0.313-0.311S2.118,0.148,1.948,0.148                  c-0.172,0-0.311,0.14-0.311,0.311C1.639,0.631,1.777,0.77,1.947,0.77z                  M1.948,1.721c-0.172,0-0.311,0.139-0.311,0.313                  c0,0.172,0.139,0.311,0.309,0.311c0.172,0,0.313-0.141,0.313-0.311C2.259,1.859,2.118,1.721,1.948,1.721z"></path>  </g>           
        <g>                
            <text class="static_symb_det_txtbox_txt_stroke" id="textfeld" text-anchor="middle" transform="matrix(-3.828569e-016 -1 1 -3.828569e-016 0.9 1.23)">x</text>             
            <text class="static_symb_sign_txtbox_txt" id="textfeld" text-anchor="middle" transform="matrix(-3.828569e-016 -1 1 -3.828569e-016 0.9 1.23)">x</text>  </g> </g>  
    <circle cx="1.95" cy="1.25" fill="#FF0000" id="symbolcenter" r="0.2" visibility="hidden"></circle> </svg>
