<?xml version="1.0" encoding="utf-8"?>
<!DOCTYPE svg PUBLIC "-//W3C//DTD SVG 1.1//EN" "http://www.w3.org/Graphics/SVG/1.1/DTD/svg11.dtd">
<?xml-stylesheet href="http://plr2-dev/themes/vrsz/images/geoposlib/geopos_symb.css" type="text/css"?>
<svg baseProfile="full" contentScriptType="text/ecmascript" contentStyleType="text/css" enable-background="new 0 0 1.343 6.086" height="6.086px" id="Ebene_1" preserveAspectRatio="xMidYMid meet" version="1.1" viewBox="0 0 1.343 6.086" width="1.343px" x="0px" xml:space="preserve" xmlns="http://www.w3.org/2000/svg" xmlns:xlink="http://www.w3.org/1999/xlink" y="0px" zoomAndPan="magnify"> 
    <style type="text/css">@import url(&quot;/themes/vrsz/images/geoposlib/geopos_symb.css&quot;);</style>  
    <g>  
        <g>   
            <rect class="static_symb_sign_fill_active" height="2.75" id="sign_312_fill" width="1.151" x="0.192"></rect>   
            <rect class="static_symb_sign_stroke" height="2.75" width="1.151" x="0.192"></rect>  </g>  
        <g>   
            <path class="static_symb_sign_static_stroke" d="M0.447,0.607c0-0.179,0.146-0.326,0.324-0.326c0.183,0,0.328,0.146,0.328,0.326                  c0,0.181-0.146,0.327-0.327,0.327C0.594,0.934,0.447,0.788,0.447,0.607z                  M0.767,1.702c0.181,0,0.325-0.146,0.325-0.326                  S0.946,1.047,0.767,1.047c-0.181,0-0.327,0.147-0.327,0.328C0.44,1.555,0.584,1.702,0.767,1.702z                  M0.774,1.833                  c-0.181,0-0.325,0.146-0.325,0.326s0.146,0.328,0.325,0.328c0.182,0,0.327-0.146,0.327-0.326C1.101,1.98,0.954,1.833,0.774,1.833z"></path>   
            <path class="static_symb_sign_static_fill" d="M0.447,0.607c0-0.179,0.146-0.326,0.324-0.326c0.183,0,0.328,0.146,0.328,0.326                  c0,0.181-0.146,0.327-0.327,0.327C0.594,0.934,0.447,0.788,0.447,0.607z                  M0.767,1.702c0.181,0,0.325-0.146,0.325-0.326                  S0.946,1.047,0.767,1.047c-0.181,0-0.327,0.147-0.327,0.328C0.44,1.555,0.584,1.702,0.767,1.702z                  M0.774,1.833                  c-0.181,0-0.325,0.146-0.325,0.326s0.146,0.328,0.325,0.328c0.182,0,0.327-0.146,0.327-0.326C1.101,1.98,0.954,1.833,0.774,1.833z"></path>  </g>  
        <g>   
            <text class="static_symb_det_txtbox_txt_stroke" id="textfeld" text-anchor="end" transform="matrix(-3.828569e-016 -1 1 -3.828569e-016 1.3 3.3)">x</text>
            <text class="static_symb_sign_txtbox_txt" id="textfeld" text-anchor="end" transform="matrix(-3.828569e-016 -1 1 -3.828569e-016 1.3 3.3)">x</text>  </g> </g> 
<circle visibility="hidden" id="symbolcenter" r="0.2" cx="0.75" cy="1.35" fill="#FF0000"></circle>
</svg>
