<?xml version="1.0" standalone="no"?><!DOCTYPE svg PUBLIC "-//W3C//DTD SVG 1.1//EN" "http://www.w3.org/Graphics/SVG/1.1/DTD/svg11.dtd">
<?xml-stylesheet href="http://plr2-dev/themes/vrsz/images/geoposlib/geopos_symb.css" type="text/css"?>
<svg baseProfile="full" contentScriptType="text/ecmascript" contentStyleType="text/css" enable-background="new 0 0 2.71 3.607" height="3.607px" id="Ebene_1" preserveAspectRatio="xMidYMid meet" version="1.1" viewBox="0 0 2.71 3.607" width="2.71px" x="0px" xml:space="preserve" xmlns="http://www.w3.org/2000/svg" xmlns:xlink="http://www.w3.org/1999/xlink" y="0px" zoomAndPan="magnify">      
    <style type="text/css">@import url(&quot;/themes/vrsz/images/geoposlib/geopos_symb.css&quot;);</style>       
    <g>           
        <g>                
            <polygon class="static_symb_sign_static_fill" id="sign_315_fill" points="0.636,1.617 2.212,1.617                  1.417,3.024"></polygon>                
            <polygon class="static_symb_sign_stroke" points="0.636,1.617 2.212,1.617 1.417,3.024"></polygon>  </g>           
        <g>                
            <path class="static_symb_sign_static_fill" d="M1.429,2.807L1.429,2.807c0.018,0,0.031-0.01,0.041-0.025l0.526-1.015                  c0.009-0.014,0.007-0.031-0.002-0.046C1.988,1.708,1.972,1.698,1.956,1.698H0.878c-0.016,0-0.031,0.011-0.039,0.022                  C0.831,1.736,0.83,1.754,0.837,1.767l0.551,1.017C1.396,2.8,1.411,2.807,1.429,2.807z                  M1.88,1.792L1.427,2.663L0.957,1.792H1.88z                  M1.49,2.899h0.003v0.707H1.345V2.899h0.004l0.068,0.125L1.49,2.899z"></path>                
            <path class="static_symb_sign_static_stroke" d="M1.429,2.807L1.429,2.807c0.018,0,0.031-0.01,0.041-0.025l0.526-1.015                  c0.009-0.014,0.007-0.031-0.002-0.046C1.988,1.708,1.972,1.698,1.956,1.698H0.878c-0.016,0-0.031,0.011-0.039,0.022                  C0.831,1.736,0.83,1.754,0.837,1.767l0.551,1.017C1.396,2.8,1.411,2.807,1.429,2.807z                  M1.88,1.792L1.427,2.663L0.957,1.792H1.88z                  M1.49,2.899h0.003v0.707H1.345V2.899h0.004l0.068,0.125L1.49,2.899z"></path>  </g>           
        <g>                
            <text class="static_symb_det_txtbox_txt_stroke" id="textfeld" text-anchor="middle" x="1.4" y="1.1">x</text>             
            <text class="static_symb_sign_txtbox_txt" id="textfeld" text-anchor="middle" x="1.4" y="1.1">x</text>  </g> </g>  
    <circle cx="1.43" cy="2.4" fill="#FF0000" id="symbolcenter" r="0.2" visibility="hidden"></circle> </svg>
