<?xml version="1.0" encoding="utf-8"?>
<!DOCTYPE svg PUBLIC "-//W3C//DTD SVG 1.1//EN" "http://www.w3.org/Graphics/SVG/1.1/DTD/svg11.dtd">
<?xml-stylesheet href="http://plr2-dev/themes/vrsz/images/geoposlib/geopos_symb.css" type="text/css"?>
<svg baseProfile="full" contentScriptType="text/ecmascript" contentStyleType="text/css" enable-background="new 0 0 2.54 3.779" height="3.779px" id="Ebene_1" preserveAspectRatio="xMidYMid meet" version="1.1" viewBox="0 0 2.54 3.779" width="2.54px" x="0px" xml:space="preserve" xmlns="http://www.w3.org/2000/svg" xmlns:xlink="http://www.w3.org/1999/xlink" y="0px" zoomAndPan="magnify"> 
    <style type="text/css">@import url(&quot;/themes/vrsz/images/geoposlib/geopos_symb.css&quot;);</style>  
    <g>  
        <g>   
            <path class="static_symb_sign_fill_active" d="M1.659,1.897l-0.25-1.105c0.142-0.065,0.24-0.208,0.24-0.375C1.649,0.187,1.461,0,1.231,0                  C1.002,0,0.815,0.188,0.815,0.416c0,0.155,0.09,0.292,0.218,0.362l-0.29,1.118H1.659z" id="sign_316_fill"></path>   
            <path class="static_symb_sign_stroke" d="M1.659,1.897l-0.25-1.105c0.142-0.065,0.24-0.208,0.24-0.375C1.649,0.187,1.461,0,1.231,0                  C1.002,0,0.815,0.188,0.815,0.416c0,0.155,0.09,0.292,0.218,0.362l-0.29,1.118H1.659z"></path>  </g>  
        <g>   
            <text class="static_symb_det_txtbox_txt_stroke" id="textfeld" text-anchor="middle" x="1.275" y="3.5">x</text>
            <text class="static_symb_sign_txtbox_txt" id="textfeld" text-anchor="middle" x="1.275" y="3.5">x</text>  </g> </g> 
<circle visibility="hidden" id="symbolcenter" r="0.2" cx="1.22" cy="1" fill="#FF0000"></circle>
</svg>
