<?xml version="1.0" encoding="utf-8"?>
<!DOCTYPE svg PUBLIC "-//W3C//DTD SVG 1.1//EN" "http://www.w3.org/Graphics/SVG/1.1/DTD/svg11.dtd">
<?xml-stylesheet href="http://plr2-dev/themes/vrsz/images/geoposlib/geopos_symb.css" type="text/css"?>
<svg baseProfile="full" contentScriptType="text/ecmascript" contentStyleType="text/css" enable-background="new 0 0 2.371 3.121" height="3.121px" id="Ebene_1" preserveAspectRatio="xMidYMid meet" version="1.1" viewBox="0 0 2.371 3.121" width="2.371px" x="0px" xml:space="preserve" xmlns="http://www.w3.org/2000/svg" xmlns:xlink="http://www.w3.org/1999/xlink" y="0px" zoomAndPan="magnify"> 
  <style type="text/css">@import url(&quot;/themes/vrsz/images/geoposlib/geopos_symb.css&quot;);</style>  
  <g>  
  <g>  
  <rect class="static_symb_sign_static_fill" height="1.589" id="sign_317_fill" width="1.576" x="0.372" y="0"></rect>  
  <rect class="static_symb_sign_static_stroke" height="1.589" width="1.576" x="0.372" y="0"></rect>  </g>  
  <g>  
  <path class="static_symb_sign_stroke" d="M1.077,0.651h0.164v0.72H1.077V0.651z  M1.157,0.433c0.055,0,0.102-0.045,0.102-0.102  c0-0.056-0.045-0.101-0.102-0.101S1.056,0.276,1.056,0.332C1.058,0.389,1.103,0.433,1.157,0.433z"></path>  
  <path class="static_symb_sign_fill_active" d="M1.077,0.651h0.164v0.72H1.077V0.651z  M1.157,0.433c0.055,0,0.102-0.045,0.102-0.102  c0-0.056-0.045-0.101-0.102-0.101S1.056,0.276,1.056,0.332C1.058,0.389,1.103,0.433,1.157,0.433z"></path>  </g>  
  <g>  
  <text class="static_symb_det_txtbox_txt_stroke" id="textfeld" text-anchor="middle" x="1.2" y="3.2">x</text>
  <text class="static_symb_sign_txtbox_txt" id="textfeld" text-anchor="middle" x="1.2" y="3.2">x</text>  </g> </g> 
<circle visibility="hidden" id="symbolcenter" r="0.2" cx="1.15" cy="0.8" fill="#FF0000"></circle>
</svg>
