<?xml version="1.0" standalone="no"?><!DOCTYPE svg PUBLIC "-//W3C//DTD SVG 1.1//EN" "http://www.w3.org/Graphics/SVG/1.1/DTD/svg11.dtd">
<?xml-stylesheet href="http://plr2-dev/themes/vrsz/images/geoposlib/geopos_symb.css" type="text/css"?>
<svg baseProfile="full" contentScriptType="text/ecmascript" contentStyleType="text/css" enable-background="new 0 0 1.286 4.182" height="4.182px" id="Ebene_1" preserveAspectRatio="xMidYMid meet" version="1.1" viewBox="0 0 1.286 4.182" width="1.286px" x="0px" xml:space="preserve" xmlns="http://www.w3.org/2000/svg" xmlns:xlink="http://www.w3.org/1999/xlink" y="0px" zoomAndPan="magnify">      
    <style type="text/css">@import url(&quot;/themes/vrsz/images/geoposlib/geopos_symb.css&quot;);</style>       
    <g>           
        <g>                
            <rect class="static_symb_sign_static_fill" height="1.31" id="sign_319_fill" width="1.222" x="0.001" y="0"></rect>                
            <rect class="static_symb_sign_stroke" height="1.31" width="1.222" x="0.001" y="0"></rect>  </g>           
        <g>                
            <path class="static_symb_sign_static_stroke" d="M0.312,0.476c0-0.055-0.045-0.099-0.1-0.099c-0.054,0-0.098,0.044-0.098,0.099                  s0.044,0.098,0.098,0.098C0.268,0.574,0.312,0.53,0.312,0.476L0.312,0.476z                  M1.08,0.476c0-0.055-0.044-0.099-0.099-0.099                  c-0.054,0-0.099,0.044-0.099,0.099s0.044,0.098,0.099,0.098C1.037,0.574,1.08,0.53,1.08,0.476L1.08,0.476z                  M0.714,0.471                  c0-0.055-0.044-0.1-0.099-0.1s-0.098,0.046-0.098,0.1c0,0.053,0.045,0.099,0.098,0.099C0.671,0.57,0.714,0.526,0.714,0.471                  L0.714,0.471z                  M0.714,0.85c0-0.055-0.044-0.099-0.099-0.099S0.518,0.796,0.518,0.85c0,0.054,0.045,0.098,0.098,0.098                  C0.671,0.948,0.714,0.904,0.714,0.85L0.714,0.85z"></path>                
            <path class="static_symb_sign_fill_active" d="M0.312,0.476c0-0.055-0.045-0.099-0.1-0.099c-0.054,0-0.098,0.044-0.098,0.099s0.044,0.098,0.098,0.098                  C0.268,0.574,0.312,0.53,0.312,0.476L0.312,0.476z                  M1.08,0.476c0-0.055-0.044-0.099-0.099-0.099c-0.054,0-0.099,0.044-0.099,0.099                  s0.044,0.098,0.099,0.098C1.037,0.574,1.08,0.53,1.08,0.476L1.08,0.476z                  M0.714,0.471c0-0.055-0.044-0.1-0.099-0.1                  s-0.098,0.046-0.098,0.1c0,0.053,0.045,0.099,0.098,0.099C0.671,0.57,0.714,0.526,0.714,0.471L0.714,0.471z                  M0.714,0.85                  c0-0.055-0.044-0.099-0.099-0.099S0.518,0.796,0.518,0.85c0,0.054,0.045,0.098,0.098,0.098C0.671,0.948,0.714,0.904,0.714,0.85                  L0.714,0.85z"></path>  </g>           
        <g>                
            <text class="static_symb_det_txtbox_txt_stroke" id="textfeld" text-anchor="end" transform="matrix(6.123234e-017 -1 1 6.123234e-017 1.15 1.9)">x</text>             
            <text class="static_symb_sign_txtbox_txt" id="textfeld" text-anchor="end" transform="matrix(6.123234e-017 -1 1 6.123234e-017 1.15 1.9)">x</text>  </g> </g>  
    <circle cx="0.62" cy="0.65" fill="#FF0000" id="symbolcenter" r="0.2" visibility="hidden"></circle> </svg>
