<?xml version="1.0" standalone="no"?><!DOCTYPE svg PUBLIC "-//W3C//DTD SVG 1.1//EN" "http://www.w3.org/Graphics/SVG/1.1/DTD/svg11.dtd">
<?xml-stylesheet href="http://plr2-dev/themes/vrsz/images/geoposlib/geopos_symb.css" type="text/css"?>
<svg baseProfile="full" contentScriptType="text/ecmascript" contentStyleType="text/css" enable-background="new 0 0 1.227 5.59" height="5.59px" id="Ebene_1" preserveAspectRatio="xMidYMid meet" version="1.1" viewBox="0 0 1.227 5.59" width="1.227px" x="0px" xml:space="preserve" xmlns="http://www.w3.org/2000/svg" xmlns:xlink="http://www.w3.org/1999/xlink" y="0px" zoomAndPan="magnify">      
    <style type="text/css">@import url(&quot;/themes/vrsz/images/geoposlib/geopos_symb.css&quot;);</style>       
    <g>           
        <g>                
            <rect class="static_symb_sign_fill_active" height="2.747" id="sign_320_fill" width="1.165" x="0.049" y="2.843"></rect>                
            <rect class="static_symb_sign_stroke" height="2.747" width="1.165" x="0.049" y="2.843"></rect>  </g>           
        <g>                
            <path class="static_symb_sign_static_stroke" d="M0.96,4.988c0,0.182-0.146,0.325-0.326,0.325c-0.182,0-0.327-0.146-0.327-0.325                  c0-0.181,0.146-0.326,0.327-0.326C0.812,4.662,0.96,4.81,0.96,4.988z                  M0.639,3.896c-0.179,0-0.326,0.146-0.326,0.326                  S0.46,4.547,0.639,4.547c0.181,0,0.327-0.146,0.327-0.325C0.968,4.041,0.822,3.896,0.639,3.896z                  M0.633,3.763                  c0.18,0,0.325-0.146,0.325-0.324c0-0.18-0.146-0.327-0.325-0.327c-0.182,0-0.326,0.146-0.326,0.325                  C0.305,3.617,0.45,3.763,0.633,3.763z"></path>                
            <path class="static_symb_sign_static_fill" d="M0.96,4.988c0,0.182-0.146,0.325-0.326,0.325c-0.182,0-0.327-0.146-0.327-0.325                  c0-0.181,0.146-0.326,0.327-0.326C0.812,4.662,0.96,4.81,0.96,4.988z                  M0.639,3.896c-0.179,0-0.326,0.146-0.326,0.326                  S0.46,4.547,0.639,4.547c0.181,0,0.327-0.146,0.327-0.325C0.968,4.041,0.822,3.896,0.639,3.896z                  M0.633,3.763                  c0.18,0,0.325-0.146,0.325-0.324c0-0.18-0.146-0.327-0.325-0.327c-0.182,0-0.326,0.146-0.326,0.325                  C0.305,3.617,0.45,3.763,0.633,3.763z"></path>  </g>           
        <g>                
            <text class="static_symb_det_txtbox_txt_stroke" id="textfeld" text-anchor="start" transform="matrix(-3.828569e-016 -1 1 -3.828569e-016 1.15 2.3)">x</text>             
            <text class="static_symb_sign_txtbox_txt" id="textfeld" text-anchor="start" transform="matrix(-3.828569e-016 -1 1 -3.828569e-016 1.15 2.3)">x</text>  </g> </g>  
    <circle cx="0.65" cy="4.2" fill="#FF0000" id="symbolcenter" r="0.2" visibility="hidden"></circle> </svg>
