<?xml version="1.0" encoding="utf-8"?>
<!DOCTYPE svg PUBLIC "-//W3C//DTD SVG 1.1//EN" "http://www.w3.org/Graphics/SVG/1.1/DTD/svg11.dtd">
<?xml-stylesheet href="http://plr2-dev/themes/vrsz/images/geoposlib/geopos_symb.css" type="text/css"?>
<svg baseProfile="full" contentScriptType="text/ecmascript" contentStyleType="text/css" enable-background="new 0 0 2.516 2.748" height="2.748px" id="Ebene_1" preserveAspectRatio="xMidYMid meet" version="1.1" viewBox="0 0 2.516 2.748" width="2.516px" x="0px" xml:space="preserve" xmlns="http://www.w3.org/2000/svg" xmlns:xlink="http://www.w3.org/1999/xlink" y="0px" zoomAndPan="magnify"> 
    <style type="text/css">@import url(&quot;/themes/vrsz/images/geoposlib/geopos_symb.css&quot;);</style>  
    <g>  
        <g>   
            <rect class="static_symb_sign_fill_active" height="2.748" id="sign_321_fill" width="1.157" x="0"></rect>   
            <rect class="static_symb_sign_stroke" height="2.748" width="1.157" x="0"></rect>  </g>  
        <g>   
            <path class="static_symb_sign_static_stroke" d="M0.263,0.596c0-0.18,0.146-0.326,0.326-0.326c0.18,0,0.325,0.146,0.325,0.326                  c0,0.182-0.146,0.328-0.324,0.328C0.409,0.924,0.263,0.778,0.263,0.596z                  M0.581,1.691c0.182,0,0.326-0.146,0.326-0.326                  S0.762,1.038,0.581,1.038c-0.18,0-0.325,0.146-0.325,0.326C0.256,1.544,0.402,1.691,0.581,1.691z                  M0.589,1.823                  c-0.182,0-0.326,0.146-0.326,0.325c0,0.181,0.146,0.326,0.326,0.326C0.77,2.473,0.914,2.329,0.914,2.149                  C0.915,1.971,0.769,1.823,0.589,1.823z"></path>   
            <path class="static_symb_sign_static_fill" d="M0.263,0.596c0-0.18,0.146-0.326,0.326-0.326c0.18,0,0.325,0.146,0.325,0.326                  c0,0.182-0.146,0.328-0.324,0.328C0.409,0.924,0.263,0.778,0.263,0.596z                  M0.581,1.691c0.182,0,0.326-0.146,0.326-0.326                  S0.762,1.038,0.581,1.038c-0.18,0-0.325,0.146-0.325,0.326C0.256,1.544,0.402,1.691,0.581,1.691z                  M0.589,1.823                  c-0.182,0-0.326,0.146-0.326,0.325c0,0.181,0.146,0.326,0.326,0.326C0.77,2.473,0.914,2.329,0.914,2.149                  C0.915,1.971,0.769,1.823,0.589,1.823z"></path>  </g>  
        <g>   
            <text class="static_symb_det_txtbox_txt_stroke" id="textfeld" text-anchor="middle" transform="matrix(-3.828569e-016 -1 1 -3.828569e-016 2.7 1.4)">x</text>
            <text class="static_symb_sign_txtbox_txt" id="textfeld" text-anchor="middle" transform="matrix(-3.828569e-016 -1 1 -3.828569e-016 2.7 1.4)">x</text>  </g> </g> 
<circle visibility="hidden" id="symbolcenter" r="0.2" cx="0.58" cy="1.35" fill="#FF0000"></circle>
</svg>
