<?xml version="1.0" standalone="no"?><!DOCTYPE svg PUBLIC "-//W3C//DTD SVG 1.1//EN" "http://www.w3.org/Graphics/SVG/1.1/DTD/svg11.dtd">
<?xml-stylesheet href="http://plr2-dev/themes/vrsz/images/geoposlib/geopos_symb.css" type="text/css"?>
<svg baseProfile="full" contentScriptType="text/ecmascript" contentStyleType="text/css" enable-background="new 0 0 2.551 2.764" height="2.764px" id="Ebene_1" preserveAspectRatio="xMidYMid meet" version="1.1" viewBox="0 0 2.551 2.764" width="2.551px" x="0px" xml:space="preserve" xmlns="http://www.w3.org/2000/svg" xmlns:xlink="http://www.w3.org/1999/xlink" y="0px" zoomAndPan="magnify">      
    <style type="text/css">@import url(&quot;/themes/vrsz/images/geoposlib/geopos_symb.css&quot;);</style>       
    <g>           
        <g>                
            <rect class="static_symb_sign_fill_active" height="2.748" id="sign_322_fill" width="1.148" x="1.403" y="0.001"></rect>                
            <rect class="static_symb_sign_stroke" height="2.748" width="1.148" x="1.403" y="0.001"></rect>  </g>           
        <g>                
            <path class="static_symb_sign_static_stroke" d="M1.667,0.595c0-0.18,0.146-0.326,0.326-0.326S2.32,0.415,2.32,0.595c0,0.182-0.146,0.327-0.327,0.327                  C1.813,0.922,1.667,0.775,1.667,0.595z                  M1.986,1.689c0.18,0,0.325-0.146,0.325-0.326S2.165,1.036,1.986,1.036                  c-0.181,0-0.325,0.146-0.325,0.326C1.659,1.544,1.805,1.689,1.986,1.689z                  M1.994,1.821c-0.183,0-0.327,0.146-0.327,0.326                  s0.146,0.326,0.327,0.326S2.32,2.326,2.32,2.147C2.32,1.968,2.174,1.821,1.994,1.821z"></path>                
            <path class="static_symb_sign_static_fill" d="M1.667,0.595c0-0.18,0.146-0.326,0.326-0.326S2.32,0.415,2.32,0.595c0,0.182-0.146,0.327-0.327,0.327                  C1.813,0.922,1.667,0.775,1.667,0.595z                  M1.986,1.689c0.18,0,0.325-0.146,0.325-0.326S2.165,1.036,1.986,1.036                  c-0.181,0-0.325,0.146-0.325,0.326C1.659,1.544,1.805,1.689,1.986,1.689z                  M1.994,1.821c-0.183,0-0.327,0.146-0.327,0.326                  s0.146,0.326,0.327,0.326S2.32,2.326,2.32,2.147C2.32,1.968,2.174,1.821,1.994,1.821z"></path>  </g>           
        <g>                
            <text class="static_symb_det_txtbox_txt_stroke" id="textfeld" text-anchor="middle" transform="matrix(-3.828569e-016 -1 1 -3.828569e-016 0.8 1.4)">x</text>             
            <text class="static_symb_sign_txtbox_txt" id="textfeld" text-anchor="middle" transform="matrix(-3.828569e-016 -1 1 -3.828569e-016 0.8 1.4)">x</text>  </g> </g>  
    <circle cx="2" cy="1.35" fill="#FF0000" id="symbolcenter" r="0.2" visibility="hidden"></circle> </svg>
