<?xml version="1.0" encoding="utf-8"?>
<!DOCTYPE svg PUBLIC "-//W3C//DTD SVG 1.1//EN" "http://www.w3.org/Graphics/SVG/1.1/DTD/svg11.dtd">
<?xml-stylesheet href="http://plr2-dev/themes/vrsz/images/geoposlib/geopos_symb.css" type="text/css"?>
<svg baseProfile="full" contentScriptType="text/ecmascript" contentStyleType="text/css" enable-background="new 0 0 12.171176 2.0610001" height="2.0610001px" id="Ebene_1" preserveAspectRatio="xMidYMid meet" version="1.1" viewBox="0 0 12.171176 2.0610001" width="12.171176px" x="0px" xml:space="preserve" xmlns="http://www.w3.org/2000/svg" xmlns:xlink="http://www.w3.org/1999/xlink" y="0px">
    <style type="text/css">@import url(&quot;/themes/vrsz/images/geoposlib/geopos_symb.css&quot;);</style>
    <g>   
	    <g>   
	        <text class="static_symb_det_txtbox_txt_stroke" id="textfeld" text-anchor="start" x="10.4" y="1.75">x</text>
	        <text class="static_symb_sign_txtbox_txt" id="textfeld" text-anchor="start" x="10.4" y="1.75">x</text>
		</g>  
		 <g> 
			<path d="M0.8534812,1.6382096L0.7685202,1.5688736C0.780239,1.543483,0.7885398,1.519069,0.7934226,1.4946549  c0.0043945-0.0234375,0.0068359-0.0449219,0.0068359-0.0625V0.9839127c0-0.0419922-0.0083008-0.0830078-0.0244141-0.1220703  C0.7592429,0.8237565,0.7362937,0.7905533,0.7074851,0.762233C0.6786765,0.7329361,0.6444968,0.7099869,0.6044577,0.6933854  S0.5214499,0.6689713,0.4755515,0.6689713c-0.046875,0-0.0898438,0.0078125-0.1293945,0.0244141  S0.2724265,0.7329361,0.2436179,0.762233C0.2148093,0.7905533,0.1923483,0.8237565,0.1757468,0.8618424  C0.1591452,0.9009049,0.1508444,0.9419205,0.1508444,0.9839127v0.4482422c0,0.0429688,0.0083008,0.0839844,0.0249023,0.1220703  S0.2148093,1.6255143,0.2436179,1.652858c0.0288086,0.0292969,0.0629883,0.0507813,0.102539,0.0683594  c0.0395508,0.015625,0.0825195,0.0244141,0.1293945,0.0244141c0.0854492,0,0.1591797-0.0283203,0.2207032-0.0849609  L0.792446,1.7358658c0.0073242,0.0068359,0.015625,0.0097656,0.0239258,0.0097656c0.0429688,0,0.0639648-0.0205078,0.0639648-0.0625  c0-0.0068359-0.0029297-0.015625-0.0087891-0.0244141C0.8656882,1.6509049,0.8598288,1.6430924,0.8534812,1.6382096z   M0.6835593,1.4321549c0,0.0195313-0.0024414,0.0371094-0.0078125,0.0556641L0.5907859,1.4223893  C0.5854148,1.418483,0.5785788,1.4165299,0.570278,1.4165299c-0.0141602,0-0.027832,0.0048828-0.0410156,0.015625  C0.5160788,1.4438736,0.5092429,1.4594986,0.5092429,1.480983c0,0.0136719,0.0048828,0.0234375,0.0146484,0.03125  L0.608364,1.5854752C0.589321,1.6040299,0.5688132,1.6157486,0.5478171,1.6206315  C0.5263327,1.6255143,0.502407,1.6294205,0.4755515,1.6294205c-0.0224609,0-0.0424805-0.0019531-0.0605469-0.0058594  C0.3969382,1.6206315,0.3754538,1.6098893,0.3510397,1.590358c-0.027832-0.0234375-0.0488281-0.0488281-0.0625-0.078125  C0.2743796,1.4848893,0.2675436,1.4594986,0.2675436,1.4360611V0.9770768c0-0.0214844,0.0068359-0.0478516,0.0209961-0.0771484  c0.0136719-0.0292969,0.034668-0.0546875,0.0625-0.0761719c0.0253906-0.0205078,0.046875-0.0322266,0.0644531-0.0341797  s0.0375977-0.0039063,0.0600586-0.0039063s0.0410157,0.0019531,0.0551758,0.0039063  c0.0146484,0.0019531,0.027832,0.0078125,0.0400391,0.0136719s0.0239258,0.0146484,0.034668,0.0253906  c0.0102539,0.0097656,0.0229492,0.0214844,0.0366211,0.0371094C0.6527976,0.8774674,0.6620749,0.8950455,0.670864,0.9175065  c0.0083008,0.0224609,0.0126953,0.0429688,0.0126953,0.0595703V1.4321549z M1.670864,1.0219986  c0.0092773,0.0117188,0.0141602,0.0224609,0.0141602,0.03125V1.675319c0,0.0117188-0.0043945,0.0253906-0.0136719,0.0419922  c-0.0087891,0.015625-0.0263672,0.0234375-0.0517578,0.0234375H1.3315085c-0.0136719,0-0.0292969-0.0039063-0.0463867-0.0097656  C1.268032,1.7231705,1.2519187,1.715358,1.2362937,1.7055924S1.2074851,1.6860611,1.1962546,1.6762955  S1.1791648,1.6587174,1.1776999,1.652858c-0.0039063-0.015625-0.0112305-0.03125-0.0214844-0.0507813  C1.1459616,1.5835221,1.1410788,1.5620377,1.1410788,1.5376236v-0.484375c0-0.0087891,0.0048828-0.0195313,0.0146484-0.03125  c0.0092773-0.0117188,0.0244141-0.0175781,0.0444336-0.0175781c0.0205078,0,0.0351563,0.0058594,0.0439453,0.0175781  c0.0092773,0.0117188,0.0136719,0.0224609,0.0136719,0.03125v0.4794922c0,0.0097656,0.0029297,0.0205078,0.0083008,0.03125  s0.0117188,0.0205078,0.0200195,0.0302734c0.0078125,0.0078125,0.0161133,0.015625,0.0253906,0.0214844  s0.0170898,0.0078125,0.0249023,0.0078125h0.2319336V1.0532486c0-0.0087891,0.0043945-0.0195313,0.0136719-0.03125  c0.0087891-0.0117188,0.0234375-0.0175781,0.0439453-0.0175781C1.6459616,1.0044205,1.6610984,1.0102799,1.670864,1.0219986z   M2.0927389,0.6889908c0.012207,0.0097656,0.0180664,0.0244141,0.0180664,0.0439453  c0,0.015625-0.0053711,0.0292969-0.0166016,0.0410156S2.0693014,0.7915299,2.0531881,0.7915299  S2.0234029,0.7856705,2.0116842,0.7739518c-0.0117186-0.0117188-0.017578-0.0253906-0.017578-0.0410156  c0-0.0195313,0.0063475-0.0341797,0.0185546-0.0439453c0.012207-0.0102539,0.0253906-0.015625,0.0400391-0.015625  C2.06686,0.6733658,2.0800436,0.6787369,2.0927389,0.6889908z M2.0971334,1.0112565  c0.0092773,0.0117188,0.0136719,0.0224609,0.0136719,0.0302734v0.6513672c0,0.0087891-0.0043945,0.0185547-0.0136719,0.0302734  C2.0883443,1.7348893,2.0736959,1.7407486,2.0531881,1.7407486c-0.0200195,0-0.0351563-0.0058594-0.0444336-0.0175781  C1.998989,1.7114518,1.9941062,1.7016861,1.9941062,1.6928971V1.0415299c0-0.0078125,0.0048828-0.0185547,0.0146483-0.0302734  c0.0092773-0.0117188,0.0244141-0.0175781,0.0444336-0.0175781C2.0736959,0.9936783,2.0883443,0.9995377,2.0971334,1.0112565z   M2.7973287,1.0141861c0.0117188,0.0078125,0.0175781,0.0234375,0.0175781,0.0429688  c0,0.0205078-0.0058594,0.0351563-0.0175781,0.0449219S2.7753561,1.1167252,2.7670553,1.1167252H2.6020162v0.5761719  c0,0.0087891-0.0048828,0.0185547-0.0141602,0.0302734C2.5780904,1.7348893,2.563442,1.7407486,2.5429342,1.7407486  c-0.0200195,0-0.0351563-0.0058594-0.0439453-0.0175781C2.4897115,1.7114518,2.485317,1.7016861,2.485317,1.6928971V1.1167252  H2.426235c-0.0087891,0-0.0185547-0.0048828-0.0302734-0.0146484S2.3783834,1.0776627,2.3783834,1.0571549  c0-0.0195313,0.0058594-0.0351563,0.0175781-0.0429688C2.4076803,1.0044205,2.4174459,1.0005143,2.426235,1.0005143h0.059082  V0.7217057c0-0.0087891,0.0043945-0.019043,0.0136719-0.0307617c0.0087891-0.0117188,0.0239258-0.0175781,0.0439453-0.0175781  c0.0205078,0,0.0351563,0.0058594,0.0449219,0.0175781c0.0092773,0.0117188,0.0141602,0.0219727,0.0141602,0.0307617v0.2788086  h0.1650391C2.7753561,1.0005143,2.78561,1.0044205,2.7973287,1.0141861z M3.4296529,1.0141861  c0.0117188,0.0078125,0.0175781,0.0234375,0.0175781,0.0429688c0,0.0205078-0.0058594,0.0351563-0.0175781,0.0449219  s-0.0224609,0.0146484-0.03125,0.0146484H3.2343404v0.5761719c0,0.0087891-0.0058594,0.0185547-0.0146484,0.0302734  C3.2099264,1.7348893,3.1952779,1.7407486,3.1747701,1.7407486c-0.0200195,0-0.0351563-0.0058594-0.0439453-0.0175781  C3.1215475,1.7114518,3.1171529,1.7016861,3.1171529,1.6928971V1.1167252h-0.059082  c-0.0087891,0-0.0185547-0.0048828-0.0302734-0.0146484S3.0102193,1.0776627,3.0102193,1.0571549  c0-0.0195313,0.0058594-0.0351563,0.0175781-0.0429688c0.0117188-0.0097656,0.0214844-0.0136719,0.0302734-0.0136719h0.059082  V0.7217057c0-0.0087891,0.0043945-0.019043,0.0136719-0.0307617c0.0087891-0.0117188,0.0239258-0.0175781,0.0439453-0.0175781  c0.0205078,0,0.0351563,0.0058594,0.0449219,0.0175781c0.0087891,0.0117188,0.0146484,0.0219727,0.0146484,0.0307617v0.2788086  h0.1640625C3.407192,1.0005143,3.4179342,1.0044205,3.4296529,1.0141861z M3.7890279,1.0112565  C3.797817,1.0229752,3.8026998,1.0337174,3.8026998,1.0415299v0.6513672c0,0.0087891-0.0048828,0.0185547-0.0136719,0.0302734  C3.7792623,1.7348893,3.7646139,1.7407486,3.7450826,1.7407486c-0.0205078,0-0.0351563-0.0058594-0.0449219-0.0175781  S3.6855123,1.7016861,3.6855123,1.6928971V1.0415299c0-0.0078125,0.0048828-0.0185547,0.0146484-0.0302734  s0.0244141-0.0175781,0.0449219-0.0175781C3.7646139,0.9936783,3.7792623,0.9995377,3.7890279,1.0112565z M3.7841451,0.6889908  c0.0117188,0.0097656,0.0185547,0.0244141,0.0185547,0.0439453c0,0.015625-0.0058594,0.0292969-0.0175781,0.0410156  C3.7743795,0.7856705,3.7607076,0.7915299,3.7450826,0.7915299c-0.0166016,0-0.0302734-0.0058594-0.0419922-0.0175781  S3.6855123,0.7485611,3.6855123,0.7329361c0-0.0195313,0.0058594-0.0341797,0.0185547-0.0439453  c0.0117188-0.0102539,0.0253906-0.015625,0.0400391-0.015625S3.7714498,0.6787369,3.7841451,0.6889908z M4.5527,1.0786393  C4.5273094,1.0532486,4.4989891,1.034694,4.465786,1.0200455C4.4325829,1.0063736,4.3984032,1.0005143,4.3622704,1.0005143  c-0.0371094,0-0.0712891,0.0058594-0.1044922,0.0195313C4.224575,1.034694,4.1962547,1.0532486,4.1718407,1.0786393  C4.14645,1.1030533,4.1269188,1.1333268,4.1122704,1.168483S4.0898094,1.2427018,4.0898094,1.284694v0.2529297  c0,0.0244141,0.0048828,0.0458984,0.015625,0.0644531C4.1152,1.621608,4.122036,1.637233,4.1269188,1.652858  c0.0009766,0.0058594,0.0068359,0.0136719,0.0185547,0.0234375c0.0107422,0.0097656,0.0244141,0.0195313,0.0400391,0.0292969  C4.200161,1.715358,4.2167625,1.7231705,4.2343407,1.730983c0.0166016,0.0058594,0.0322266,0.0097656,0.0458984,0.0097656h0.3056641  c0.0087891,0,0.0185547-0.0048828,0.0302734-0.0136719c0.0117188-0.0097656,0.0175781-0.0253906,0.0175781-0.0449219  c0-0.0214844-0.0058594-0.0351563-0.0175781-0.0449219C4.6044579,1.628444,4.5946922,1.6235611,4.5859032,1.6235611H4.2929344  c-0.0107422,0-0.0214844-0.0019531-0.0322266-0.0078125C4.2499657,1.6108658,4.2411766,1.6040299,4.2333641,1.5952408  S4.2187157,1.5766861,4.2138329,1.5669205S4.2069969,1.5473893,4.2069969,1.5376236V1.4204361H4.568325  c0.0253906,0,0.0429688-0.0078125,0.0517578-0.0234375s0.0136719-0.0302734,0.0136719-0.0419922V1.284694  c0-0.0419922-0.0078125-0.0810547-0.0224609-0.1162109S4.5771141,1.1030533,4.5527,1.0786393z M4.5175438,1.3032486H4.2069969  V1.2495377c0-0.0136719,0.0029297-0.0283203,0.0097656-0.0449219c0.0058594-0.015625,0.015625-0.0302734,0.0292969-0.0429688  c0.0126953-0.0126953,0.0292969-0.0234375,0.0488281-0.0322266C4.3134422,1.121608,4.3359032,1.1167252,4.3622704,1.1167252  c0.0253906,0,0.0478516,0.0048828,0.0664063,0.0126953c0.0195313,0.0087891,0.0361328,0.0195313,0.0488281,0.0322266  c0.0136719,0.0126953,0.0234375,0.0273438,0.0302734,0.0429688c0.0058594,0.0166016,0.0097656,0.03125,0.0097656,0.0449219  V1.3032486z M5.3359032,1.1167252C5.3456688,1.1352799,5.3505516,1.152858,5.3505516,1.168483  c0,0.0175781-0.0048828,0.0322266-0.0146484,0.0429688c-0.0107422,0.0097656-0.0195313,0.015625-0.0283203,0.015625  S5.2900047,1.2261002,5.2802391,1.2241471C5.2694969,1.2212174,5.2587547,1.2114518,5.247036,1.1938736  C5.2362938,1.175319,5.224575,1.1587174,5.2109032,1.144069S5.1806297,1.121608,5.1601219,1.121608H5.0409813v0.5712891  c0,0.0087891-0.0048828,0.0185547-0.0136719,0.0302734C5.0175438,1.7348893,5.0028954,1.7407486,4.9833641,1.7407486  c-0.0205078,0-0.0351563-0.0058594-0.0449219-0.0175781S4.9237938,1.7016861,4.9237938,1.6928971V1.0708268  c0-0.0117188,0.0048828-0.0253906,0.0136719-0.0419922s0.0263672-0.0244141,0.0517578-0.0244141h0.1708984  c0.0273438,0,0.0517578,0.0058594,0.0751953,0.0175781C5.2577782,1.0327408,5.278286,1.0464127,5.2948875,1.0630143  C5.3124657,1.0796158,5.325161,1.0981705,5.3359032,1.1167252z M5.7909813,1.6587174  C5.8036766,1.6675065,5.809536,1.6821549,5.809536,1.7016861c0,0.0117188-0.0048828,0.0214844-0.015625,0.0292969  C5.7831688,1.7368424,5.7704735,1.7407486,5.7548485,1.7407486c-0.0400391,0-0.0751953-0.015625-0.1044922-0.0478516  S5.606411,1.6177018,5.606411,1.5630143V0.7798111c0-0.0234375,0.0009766-0.0410156,0.0019531-0.0541992  c0.0019531-0.0131836,0.0048828-0.0239258,0.0097656-0.0322266c0.0048828-0.0078125,0.0117188-0.0131836,0.0214844-0.015625  c0.0087891-0.0029297,0.0205078-0.0043945,0.0351563-0.0043945c0.0214844,0,0.0351563,0.0073242,0.0400391,0.0209961  c0.0058594,0.0136719,0.0087891,0.0395508,0.0087891,0.0766602v0.7822266c0,0.0185547,0.0019531,0.0351563,0.0048828,0.0488281  C5.7323875,1.6157486,5.7402,1.6255143,5.7499657,1.6313736C5.7655907,1.6411393,5.7792625,1.6489518,5.7909813,1.6587174z   M6.6405907,1.6001236c-0.0087891-0.0058594-0.015625-0.0175781-0.0214844-0.0322266S6.6103172,1.5395768,6.6103172,1.527858  V1.0825455c0-0.0234375-0.0058594-0.0429688-0.0175781-0.0566406s-0.0273438-0.0214844-0.046875-0.0214844H6.2694969  c-0.0292969,0-0.0556641,0.0058594-0.0810547,0.0175781c-0.0253906,0.0107422-0.046875,0.0253906-0.0654297,0.0449219  S6.0898094,1.1079361,6.0800438,1.1333268c-0.0107422,0.0234375-0.015625,0.0488281-0.015625,0.0742188V1.527858  c0,0.0332031,0.0058594,0.0625,0.0185547,0.0888672c0.0117188,0.0263672,0.0283203,0.0478516,0.046875,0.0673828  C6.1493797,1.7026627,6.1698875,1.7173111,6.193325,1.7270768C6.215786,1.7358658,6.2382469,1.7407486,6.2577782,1.7407486  h0.1650391c0.0273438,0,0.0507813-0.0058594,0.0703125-0.0166016s0.0380859-0.0263672,0.0576172-0.0439453  c0.0166016,0.0117188,0.0322266,0.0244141,0.046875,0.0390625c0.015625,0.0136719,0.0371094,0.0214844,0.0654297,0.0214844  c0.0146484,0,0.0273438-0.0039063,0.0371094-0.0136719c0.0107422-0.0087891,0.015625-0.0195313,0.015625-0.0332031  c0-0.0253906-0.0078125-0.0429688-0.0244141-0.0546875C6.6757469,1.6274674,6.6581688,1.6147721,6.6405907,1.6001236z   M6.4931297,1.5405533c0,0.0283203-0.0087891,0.0488281-0.0273438,0.0625  C6.4482079,1.6177018,6.4237938,1.6235611,6.3925438,1.6235611H6.2724266c-0.0253906,0-0.046875-0.0097656-0.0644531-0.0292969  C6.1903954,1.5727799,6.1816063,1.5512955,6.1816063,1.5259049V1.2114518c0-0.0136719,0.0029297-0.0263672,0.0097656-0.0371094  c0.0058594-0.0107422,0.0136719-0.0195313,0.0214844-0.0273438C6.2216454,1.1382096,6.231411,1.1323502,6.2411766,1.1274674  C6.2509422,1.1235611,6.2607079,1.121608,6.2694969,1.121608h0.2236328V1.5405533z M7.7519188,1.1430924  c0.0097656,0.0185547,0.015625,0.0410156,0.015625,0.0644531v0.4853516c0,0.0087891-0.0048828,0.0185547-0.0146484,0.0302734  S7.7284813,1.7407486,7.7079735,1.7407486S7.6728172,1.7348893,7.6640282,1.7231705S7.6503563,1.7016861,7.6503563,1.6928971  V1.2134049c0-0.0097656-0.0029297-0.0205078-0.0078125-0.03125C7.6366844,1.1704361,7.6298485,1.1606705,7.622036,1.1518815  s-0.0166016-0.015625-0.0253906-0.0214844S7.5790672,1.121608,7.5722313,1.121608H7.4443016v0.5712891  c0,0.0087891-0.0048828,0.0185547-0.0146484,0.0302734S7.4052391,1.7407486,7.3847313,1.7407486  S7.349575,1.7348893,7.340786,1.7231705S7.3271141,1.7016861,7.3271141,1.6928971V1.121608H7.1210594v0.5712891  c0,0.0087891-0.0048828,0.0185547-0.0136719,0.0302734C7.0976219,1.7348893,7.0829735,1.7407486,7.0634422,1.7407486  c-0.0205078,0-0.0351563-0.0058594-0.0449219-0.0175781S7.0038719,1.7016861,7.0038719,1.6928971V1.0708268  c0-0.0117188,0.0048828-0.0253906,0.0136719-0.0419922S7.043911,1.0044205,7.0693016,1.0044205h0.5078125  c0.0136719,0,0.0292969,0.0039063,0.0458984,0.0107422c0.0175781,0.0068359,0.0332031,0.0146484,0.0488281,0.0244141  S7.700161,1.059108,7.7109032,1.0688736s0.0175781,0.0175781,0.0195313,0.0234375  C7.7343407,1.1079361,7.7421532,1.1245377,7.7519188,1.1430924z M8.5819969,1.0923111  C8.5800438,1.0864518,8.5741844,1.0786393,8.5634422,1.0688736S8.5390282,1.0493424,8.5243797,1.0395768  c-0.015625-0.0097656-0.0322266-0.0175781-0.0488281-0.0244141c-0.0175781-0.0068359-0.0332031-0.0107422-0.046875-0.0107422  H8.1298485c-0.0185547,0-0.0322266,0.0078125-0.0410156,0.0244141S8.075161,1.059108,8.075161,1.0708268v0.9536133  c0,0.0087891,0.0048828,0.0185547,0.0146484,0.0302734C8.099575,2.0663712,8.1142235,2.0722306,8.1347313,2.0722306  c0.0195313,0,0.0341797-0.0058594,0.0439453-0.0175171c0.0087891-0.0117188,0.0136719-0.0214844,0.0136719-0.0302734V1.7407486  h0.2363281c0.0097656,0,0.0214844-0.0019531,0.0351563-0.0058594C8.4775047,1.7300065,8.4921532,1.7241471,8.5068016,1.715358  c0.015625-0.0078125,0.0292969-0.0166016,0.0429688-0.0273438C8.5624657,1.6772721,8.5741844,1.6655533,8.5819969,1.652858  C8.5868797,1.6469986,8.590786,1.637233,8.5946922,1.6274674C8.599575,1.6167252,8.6034813,1.605983,8.6073875,1.5942643  s0.0068359-0.0214844,0.0087891-0.0332031C8.6181297,1.5512955,8.6191063,1.543483,8.6191063,1.5376236V1.2075455  c0-0.0234375-0.0048828-0.0458984-0.015625-0.0644531C8.5937157,1.1245377,8.5868797,1.1079361,8.5819969,1.0923111z   M8.5019188,1.5376236c0,0.0244141-0.0068359,0.0449219-0.0224609,0.0615234S8.4413719,1.6235611,8.4110985,1.6235611h-0.21875  V1.121608h0.21875c0.0302734,0,0.0527344,0.0078125,0.0683594,0.0253906c0.015625,0.015625,0.0224609,0.0371094,0.0224609,0.0605469  V1.5376236z M9.3632469,1.4204361c0.0253906,0,0.0429688-0.0078125,0.0517578-0.0234375s0.0136719-0.0302734,0.0136719-0.0419922  V1.284694c0-0.0419922-0.0078125-0.0810547-0.0224609-0.1162109S9.372036,1.1030533,9.3476219,1.0786393  C9.3222313,1.0532486,9.293911,1.034694,9.2607079,1.0200455C9.2275047,1.0063736,9.193325,1.0005143,9.1571922,1.0005143  c-0.0371094,0-0.0712891,0.0058594-0.1044922,0.0195313C9.0194969,1.034694,8.9911766,1.0532486,8.9667625,1.0786393  C8.9413719,1.1030533,8.9218407,1.1333268,8.9071922,1.168483S8.8847313,1.2427018,8.8847313,1.284694v0.2529297  c0,0.0244141,0.0048828,0.0458984,0.015625,0.0644531C8.9101219,1.621608,8.9169579,1.637233,8.9218407,1.652858  c0.0009766,0.0058594,0.0068359,0.0136719,0.0185547,0.0234375c0.0107422,0.0097656,0.0244141,0.0195313,0.0400391,0.0292969  c0.0146484,0.0097656,0.03125,0.0175781,0.0488281,0.0253906C9.0458641,1.7368424,9.0614891,1.7407486,9.075161,1.7407486H9.380825  c0.0087891,0,0.0185547-0.0048828,0.0302734-0.0136719c0.0117188-0.0097656,0.0175781-0.0253906,0.0175781-0.0449219  c0-0.0214844-0.0058594-0.0351563-0.0175781-0.0449219C9.3993797,1.628444,9.3896141,1.6235611,9.380825,1.6235611H9.0878563  c-0.0107422,0-0.0214844-0.0019531-0.0322266-0.0078125C9.0448875,1.6108658,9.0360985,1.6040299,9.028286,1.5952408  S9.0136375,1.5766861,9.0087547,1.5669205S9.0019188,1.5473893,9.0019188,1.5376236V1.4204361H9.3632469z M9.0019188,1.2495377  c0-0.0136719,0.0029297-0.0283203,0.0097656-0.0449219c0.0058594-0.015625,0.015625-0.0302734,0.0292969-0.0429688  c0.0126953-0.0126953,0.0292969-0.0234375,0.0488281-0.0322266C9.1083641,1.121608,9.130825,1.1167252,9.1571922,1.1167252  c0.0253906,0,0.0478516,0.0048828,0.0664063,0.0126953c0.0195313,0.0087891,0.0361328,0.0195313,0.0488281,0.0322266  C9.2860985,1.1743424,9.2958641,1.1889908,9.3027,1.2046158c0.0058594,0.0166016,0.0097656,0.03125,0.0097656,0.0449219v0.0537109  H9.0019188V1.2495377z"></path>
			<path class="static_symb_mast_static_fill" d="M0.8534812,1.6382096L0.7685202,1.5688736C0.780239,1.543483,0.7885398,1.519069,0.7934226,1.4946549  c0.0043945-0.0234375,0.0068359-0.0449219,0.0068359-0.0625V0.9839127c0-0.0419922-0.0083008-0.0830078-0.0244141-0.1220703  C0.7592429,0.8237565,0.7362937,0.7905533,0.7074851,0.762233C0.6786765,0.7329361,0.6444968,0.7099869,0.6044577,0.6933854  S0.5214499,0.6689713,0.4755515,0.6689713c-0.046875,0-0.0898438,0.0078125-0.1293945,0.0244141  S0.2724265,0.7329361,0.2436179,0.762233C0.2148093,0.7905533,0.1923483,0.8237565,0.1757468,0.8618424  C0.1591452,0.9009049,0.1508444,0.9419205,0.1508444,0.9839127v0.4482422c0,0.0429688,0.0083008,0.0839844,0.0249023,0.1220703  S0.2148093,1.6255143,0.2436179,1.652858c0.0288086,0.0292969,0.0629883,0.0507813,0.102539,0.0683594  c0.0395508,0.015625,0.0825195,0.0244141,0.1293945,0.0244141c0.0854492,0,0.1591797-0.0283203,0.2207032-0.0849609  L0.792446,1.7358658c0.0073242,0.0068359,0.015625,0.0097656,0.0239258,0.0097656c0.0429688,0,0.0639648-0.0205078,0.0639648-0.0625  c0-0.0068359-0.0029297-0.015625-0.0087891-0.0244141C0.8656882,1.6509049,0.8598288,1.6430924,0.8534812,1.6382096z   M0.6835593,1.4321549c0,0.0195313-0.0024414,0.0371094-0.0078125,0.0556641L0.5907859,1.4223893  C0.5854148,1.418483,0.5785788,1.4165299,0.570278,1.4165299c-0.0141602,0-0.027832,0.0048828-0.0410156,0.015625  C0.5160788,1.4438736,0.5092429,1.4594986,0.5092429,1.480983c0,0.0136719,0.0048828,0.0234375,0.0146484,0.03125  L0.608364,1.5854752C0.589321,1.6040299,0.5688132,1.6157486,0.5478171,1.6206315  C0.5263327,1.6255143,0.502407,1.6294205,0.4755515,1.6294205c-0.0224609,0-0.0424805-0.0019531-0.0605469-0.0058594  C0.3969382,1.6206315,0.3754538,1.6098893,0.3510397,1.590358c-0.027832-0.0234375-0.0488281-0.0488281-0.0625-0.078125  C0.2743796,1.4848893,0.2675436,1.4594986,0.2675436,1.4360611V0.9770768c0-0.0214844,0.0068359-0.0478516,0.0209961-0.0771484  c0.0136719-0.0292969,0.034668-0.0546875,0.0625-0.0761719c0.0253906-0.0205078,0.046875-0.0322266,0.0644531-0.0341797  s0.0375977-0.0039063,0.0600586-0.0039063s0.0410157,0.0019531,0.0551758,0.0039063  c0.0146484,0.0019531,0.027832,0.0078125,0.0400391,0.0136719s0.0239258,0.0146484,0.034668,0.0253906  c0.0102539,0.0097656,0.0229492,0.0214844,0.0366211,0.0371094C0.6527976,0.8774674,0.6620749,0.8950455,0.670864,0.9175065  c0.0083008,0.0224609,0.0126953,0.0429688,0.0126953,0.0595703V1.4321549z M1.670864,1.0219986  c0.0092773,0.0117188,0.0141602,0.0224609,0.0141602,0.03125V1.675319c0,0.0117188-0.0043945,0.0253906-0.0136719,0.0419922  c-0.0087891,0.015625-0.0263672,0.0234375-0.0517578,0.0234375H1.3315085c-0.0136719,0-0.0292969-0.0039063-0.0463867-0.0097656  C1.268032,1.7231705,1.2519187,1.715358,1.2362937,1.7055924S1.2074851,1.6860611,1.1962546,1.6762955  S1.1791648,1.6587174,1.1776999,1.652858c-0.0039063-0.015625-0.0112305-0.03125-0.0214844-0.0507813  C1.1459616,1.5835221,1.1410788,1.5620377,1.1410788,1.5376236v-0.484375c0-0.0087891,0.0048828-0.0195313,0.0146484-0.03125  c0.0092773-0.0117188,0.0244141-0.0175781,0.0444336-0.0175781c0.0205078,0,0.0351563,0.0058594,0.0439453,0.0175781  c0.0092773,0.0117188,0.0136719,0.0224609,0.0136719,0.03125v0.4794922c0,0.0097656,0.0029297,0.0205078,0.0083008,0.03125  s0.0117188,0.0205078,0.0200195,0.0302734c0.0078125,0.0078125,0.0161133,0.015625,0.0253906,0.0214844  s0.0170898,0.0078125,0.0249023,0.0078125h0.2319336V1.0532486c0-0.0087891,0.0043945-0.0195313,0.0136719-0.03125  c0.0087891-0.0117188,0.0234375-0.0175781,0.0439453-0.0175781C1.6459616,1.0044205,1.6610984,1.0102799,1.670864,1.0219986z   M2.0927389,0.6889908c0.012207,0.0097656,0.0180664,0.0244141,0.0180664,0.0439453  c0,0.015625-0.0053711,0.0292969-0.0166016,0.0410156S2.0693014,0.7915299,2.0531881,0.7915299  S2.0234029,0.7856705,2.0116842,0.7739518c-0.0117186-0.0117188-0.017578-0.0253906-0.017578-0.0410156  c0-0.0195313,0.0063475-0.0341797,0.0185546-0.0439453c0.012207-0.0102539,0.0253906-0.015625,0.0400391-0.015625  C2.06686,0.6733658,2.0800436,0.6787369,2.0927389,0.6889908z M2.0971334,1.0112565  c0.0092773,0.0117188,0.0136719,0.0224609,0.0136719,0.0302734v0.6513672c0,0.0087891-0.0043945,0.0185547-0.0136719,0.0302734  C2.0883443,1.7348893,2.0736959,1.7407486,2.0531881,1.7407486c-0.0200195,0-0.0351563-0.0058594-0.0444336-0.0175781  C1.998989,1.7114518,1.9941062,1.7016861,1.9941062,1.6928971V1.0415299c0-0.0078125,0.0048828-0.0185547,0.0146483-0.0302734  c0.0092773-0.0117188,0.0244141-0.0175781,0.0444336-0.0175781C2.0736959,0.9936783,2.0883443,0.9995377,2.0971334,1.0112565z   M2.7973287,1.0141861c0.0117188,0.0078125,0.0175781,0.0234375,0.0175781,0.0429688  c0,0.0205078-0.0058594,0.0351563-0.0175781,0.0449219S2.7753561,1.1167252,2.7670553,1.1167252H2.6020162v0.5761719  c0,0.0087891-0.0048828,0.0185547-0.0141602,0.0302734C2.5780904,1.7348893,2.563442,1.7407486,2.5429342,1.7407486  c-0.0200195,0-0.0351563-0.0058594-0.0439453-0.0175781C2.4897115,1.7114518,2.485317,1.7016861,2.485317,1.6928971V1.1167252  H2.426235c-0.0087891,0-0.0185547-0.0048828-0.0302734-0.0146484S2.3783834,1.0776627,2.3783834,1.0571549  c0-0.0195313,0.0058594-0.0351563,0.0175781-0.0429688C2.4076803,1.0044205,2.4174459,1.0005143,2.426235,1.0005143h0.059082  V0.7217057c0-0.0087891,0.0043945-0.019043,0.0136719-0.0307617c0.0087891-0.0117188,0.0239258-0.0175781,0.0439453-0.0175781  c0.0205078,0,0.0351563,0.0058594,0.0449219,0.0175781c0.0092773,0.0117188,0.0141602,0.0219727,0.0141602,0.0307617v0.2788086  h0.1650391C2.7753561,1.0005143,2.78561,1.0044205,2.7973287,1.0141861z M3.4296529,1.0141861  c0.0117188,0.0078125,0.0175781,0.0234375,0.0175781,0.0429688c0,0.0205078-0.0058594,0.0351563-0.0175781,0.0449219  s-0.0224609,0.0146484-0.03125,0.0146484H3.2343404v0.5761719c0,0.0087891-0.0058594,0.0185547-0.0146484,0.0302734  C3.2099264,1.7348893,3.1952779,1.7407486,3.1747701,1.7407486c-0.0200195,0-0.0351563-0.0058594-0.0439453-0.0175781  C3.1215475,1.7114518,3.1171529,1.7016861,3.1171529,1.6928971V1.1167252h-0.059082  c-0.0087891,0-0.0185547-0.0048828-0.0302734-0.0146484S3.0102193,1.0776627,3.0102193,1.0571549  c0-0.0195313,0.0058594-0.0351563,0.0175781-0.0429688c0.0117188-0.0097656,0.0214844-0.0136719,0.0302734-0.0136719h0.059082  V0.7217057c0-0.0087891,0.0043945-0.019043,0.0136719-0.0307617c0.0087891-0.0117188,0.0239258-0.0175781,0.0439453-0.0175781  c0.0205078,0,0.0351563,0.0058594,0.0449219,0.0175781c0.0087891,0.0117188,0.0146484,0.0219727,0.0146484,0.0307617v0.2788086  h0.1640625C3.407192,1.0005143,3.4179342,1.0044205,3.4296529,1.0141861z M3.7890279,1.0112565  C3.797817,1.0229752,3.8026998,1.0337174,3.8026998,1.0415299v0.6513672c0,0.0087891-0.0048828,0.0185547-0.0136719,0.0302734  C3.7792623,1.7348893,3.7646139,1.7407486,3.7450826,1.7407486c-0.0205078,0-0.0351563-0.0058594-0.0449219-0.0175781  S3.6855123,1.7016861,3.6855123,1.6928971V1.0415299c0-0.0078125,0.0048828-0.0185547,0.0146484-0.0302734  s0.0244141-0.0175781,0.0449219-0.0175781C3.7646139,0.9936783,3.7792623,0.9995377,3.7890279,1.0112565z M3.7841451,0.6889908  c0.0117188,0.0097656,0.0185547,0.0244141,0.0185547,0.0439453c0,0.015625-0.0058594,0.0292969-0.0175781,0.0410156  C3.7743795,0.7856705,3.7607076,0.7915299,3.7450826,0.7915299c-0.0166016,0-0.0302734-0.0058594-0.0419922-0.0175781  S3.6855123,0.7485611,3.6855123,0.7329361c0-0.0195313,0.0058594-0.0341797,0.0185547-0.0439453  c0.0117188-0.0102539,0.0253906-0.015625,0.0400391-0.015625S3.7714498,0.6787369,3.7841451,0.6889908z M4.5527,1.0786393  C4.5273094,1.0532486,4.4989891,1.034694,4.465786,1.0200455C4.4325829,1.0063736,4.3984032,1.0005143,4.3622704,1.0005143  c-0.0371094,0-0.0712891,0.0058594-0.1044922,0.0195313C4.224575,1.034694,4.1962547,1.0532486,4.1718407,1.0786393  C4.14645,1.1030533,4.1269188,1.1333268,4.1122704,1.168483S4.0898094,1.2427018,4.0898094,1.284694v0.2529297  c0,0.0244141,0.0048828,0.0458984,0.015625,0.0644531C4.1152,1.621608,4.122036,1.637233,4.1269188,1.652858  c0.0009766,0.0058594,0.0068359,0.0136719,0.0185547,0.0234375c0.0107422,0.0097656,0.0244141,0.0195313,0.0400391,0.0292969  C4.200161,1.715358,4.2167625,1.7231705,4.2343407,1.730983c0.0166016,0.0058594,0.0322266,0.0097656,0.0458984,0.0097656h0.3056641  c0.0087891,0,0.0185547-0.0048828,0.0302734-0.0136719c0.0117188-0.0097656,0.0175781-0.0253906,0.0175781-0.0449219  c0-0.0214844-0.0058594-0.0351563-0.0175781-0.0449219C4.6044579,1.628444,4.5946922,1.6235611,4.5859032,1.6235611H4.2929344  c-0.0107422,0-0.0214844-0.0019531-0.0322266-0.0078125C4.2499657,1.6108658,4.2411766,1.6040299,4.2333641,1.5952408  S4.2187157,1.5766861,4.2138329,1.5669205S4.2069969,1.5473893,4.2069969,1.5376236V1.4204361H4.568325  c0.0253906,0,0.0429688-0.0078125,0.0517578-0.0234375s0.0136719-0.0302734,0.0136719-0.0419922V1.284694  c0-0.0419922-0.0078125-0.0810547-0.0224609-0.1162109S4.5771141,1.1030533,4.5527,1.0786393z M4.5175438,1.3032486H4.2069969  V1.2495377c0-0.0136719,0.0029297-0.0283203,0.0097656-0.0449219c0.0058594-0.015625,0.015625-0.0302734,0.0292969-0.0429688  c0.0126953-0.0126953,0.0292969-0.0234375,0.0488281-0.0322266C4.3134422,1.121608,4.3359032,1.1167252,4.3622704,1.1167252  c0.0253906,0,0.0478516,0.0048828,0.0664063,0.0126953c0.0195313,0.0087891,0.0361328,0.0195313,0.0488281,0.0322266  c0.0136719,0.0126953,0.0234375,0.0273438,0.0302734,0.0429688c0.0058594,0.0166016,0.0097656,0.03125,0.0097656,0.0449219  V1.3032486z M5.3359032,1.1167252C5.3456688,1.1352799,5.3505516,1.152858,5.3505516,1.168483  c0,0.0175781-0.0048828,0.0322266-0.0146484,0.0429688c-0.0107422,0.0097656-0.0195313,0.015625-0.0283203,0.015625  S5.2900047,1.2261002,5.2802391,1.2241471C5.2694969,1.2212174,5.2587547,1.2114518,5.247036,1.1938736  C5.2362938,1.175319,5.224575,1.1587174,5.2109032,1.144069S5.1806297,1.121608,5.1601219,1.121608H5.0409813v0.5712891  c0,0.0087891-0.0048828,0.0185547-0.0136719,0.0302734C5.0175438,1.7348893,5.0028954,1.7407486,4.9833641,1.7407486  c-0.0205078,0-0.0351563-0.0058594-0.0449219-0.0175781S4.9237938,1.7016861,4.9237938,1.6928971V1.0708268  c0-0.0117188,0.0048828-0.0253906,0.0136719-0.0419922s0.0263672-0.0244141,0.0517578-0.0244141h0.1708984  c0.0273438,0,0.0517578,0.0058594,0.0751953,0.0175781C5.2577782,1.0327408,5.278286,1.0464127,5.2948875,1.0630143  C5.3124657,1.0796158,5.325161,1.0981705,5.3359032,1.1167252z M5.7909813,1.6587174  C5.8036766,1.6675065,5.809536,1.6821549,5.809536,1.7016861c0,0.0117188-0.0048828,0.0214844-0.015625,0.0292969  C5.7831688,1.7368424,5.7704735,1.7407486,5.7548485,1.7407486c-0.0400391,0-0.0751953-0.015625-0.1044922-0.0478516  S5.606411,1.6177018,5.606411,1.5630143V0.7798111c0-0.0234375,0.0009766-0.0410156,0.0019531-0.0541992  c0.0019531-0.0131836,0.0048828-0.0239258,0.0097656-0.0322266c0.0048828-0.0078125,0.0117188-0.0131836,0.0214844-0.015625  c0.0087891-0.0029297,0.0205078-0.0043945,0.0351563-0.0043945c0.0214844,0,0.0351563,0.0073242,0.0400391,0.0209961  c0.0058594,0.0136719,0.0087891,0.0395508,0.0087891,0.0766602v0.7822266c0,0.0185547,0.0019531,0.0351563,0.0048828,0.0488281  C5.7323875,1.6157486,5.7402,1.6255143,5.7499657,1.6313736C5.7655907,1.6411393,5.7792625,1.6489518,5.7909813,1.6587174z   M6.6405907,1.6001236c-0.0087891-0.0058594-0.015625-0.0175781-0.0214844-0.0322266S6.6103172,1.5395768,6.6103172,1.527858  V1.0825455c0-0.0234375-0.0058594-0.0429688-0.0175781-0.0566406s-0.0273438-0.0214844-0.046875-0.0214844H6.2694969  c-0.0292969,0-0.0556641,0.0058594-0.0810547,0.0175781c-0.0253906,0.0107422-0.046875,0.0253906-0.0654297,0.0449219  S6.0898094,1.1079361,6.0800438,1.1333268c-0.0107422,0.0234375-0.015625,0.0488281-0.015625,0.0742188V1.527858  c0,0.0332031,0.0058594,0.0625,0.0185547,0.0888672c0.0117188,0.0263672,0.0283203,0.0478516,0.046875,0.0673828  C6.1493797,1.7026627,6.1698875,1.7173111,6.193325,1.7270768C6.215786,1.7358658,6.2382469,1.7407486,6.2577782,1.7407486  h0.1650391c0.0273438,0,0.0507813-0.0058594,0.0703125-0.0166016s0.0380859-0.0263672,0.0576172-0.0439453  c0.0166016,0.0117188,0.0322266,0.0244141,0.046875,0.0390625c0.015625,0.0136719,0.0371094,0.0214844,0.0654297,0.0214844  c0.0146484,0,0.0273438-0.0039063,0.0371094-0.0136719c0.0107422-0.0087891,0.015625-0.0195313,0.015625-0.0332031  c0-0.0253906-0.0078125-0.0429688-0.0244141-0.0546875C6.6757469,1.6274674,6.6581688,1.6147721,6.6405907,1.6001236z   M6.4931297,1.5405533c0,0.0283203-0.0087891,0.0488281-0.0273438,0.0625  C6.4482079,1.6177018,6.4237938,1.6235611,6.3925438,1.6235611H6.2724266c-0.0253906,0-0.046875-0.0097656-0.0644531-0.0292969  C6.1903954,1.5727799,6.1816063,1.5512955,6.1816063,1.5259049V1.2114518c0-0.0136719,0.0029297-0.0263672,0.0097656-0.0371094  c0.0058594-0.0107422,0.0136719-0.0195313,0.0214844-0.0273438C6.2216454,1.1382096,6.231411,1.1323502,6.2411766,1.1274674  C6.2509422,1.1235611,6.2607079,1.121608,6.2694969,1.121608h0.2236328V1.5405533z M7.7519188,1.1430924  c0.0097656,0.0185547,0.015625,0.0410156,0.015625,0.0644531v0.4853516c0,0.0087891-0.0048828,0.0185547-0.0146484,0.0302734  S7.7284813,1.7407486,7.7079735,1.7407486S7.6728172,1.7348893,7.6640282,1.7231705S7.6503563,1.7016861,7.6503563,1.6928971  V1.2134049c0-0.0097656-0.0029297-0.0205078-0.0078125-0.03125C7.6366844,1.1704361,7.6298485,1.1606705,7.622036,1.1518815  s-0.0166016-0.015625-0.0253906-0.0214844S7.5790672,1.121608,7.5722313,1.121608H7.4443016v0.5712891  c0,0.0087891-0.0048828,0.0185547-0.0146484,0.0302734S7.4052391,1.7407486,7.3847313,1.7407486  S7.349575,1.7348893,7.340786,1.7231705S7.3271141,1.7016861,7.3271141,1.6928971V1.121608H7.1210594v0.5712891  c0,0.0087891-0.0048828,0.0185547-0.0136719,0.0302734C7.0976219,1.7348893,7.0829735,1.7407486,7.0634422,1.7407486  c-0.0205078,0-0.0351563-0.0058594-0.0449219-0.0175781S7.0038719,1.7016861,7.0038719,1.6928971V1.0708268  c0-0.0117188,0.0048828-0.0253906,0.0136719-0.0419922S7.043911,1.0044205,7.0693016,1.0044205h0.5078125  c0.0136719,0,0.0292969,0.0039063,0.0458984,0.0107422c0.0175781,0.0068359,0.0332031,0.0146484,0.0488281,0.0244141  S7.700161,1.059108,7.7109032,1.0688736s0.0175781,0.0175781,0.0195313,0.0234375  C7.7343407,1.1079361,7.7421532,1.1245377,7.7519188,1.1430924z M8.5819969,1.0923111  C8.5800438,1.0864518,8.5741844,1.0786393,8.5634422,1.0688736S8.5390282,1.0493424,8.5243797,1.0395768  c-0.015625-0.0097656-0.0322266-0.0175781-0.0488281-0.0244141c-0.0175781-0.0068359-0.0332031-0.0107422-0.046875-0.0107422  H8.1298485c-0.0185547,0-0.0322266,0.0078125-0.0410156,0.0244141S8.075161,1.059108,8.075161,1.0708268v0.9536133  c0,0.0087891,0.0048828,0.0185547,0.0146484,0.0302734C8.099575,2.0663712,8.1142235,2.0722306,8.1347313,2.0722306  c0.0195313,0,0.0341797-0.0058594,0.0439453-0.0175171c0.0087891-0.0117188,0.0136719-0.0214844,0.0136719-0.0302734V1.7407486  h0.2363281c0.0097656,0,0.0214844-0.0019531,0.0351563-0.0058594C8.4775047,1.7300065,8.4921532,1.7241471,8.5068016,1.715358  c0.015625-0.0078125,0.0292969-0.0166016,0.0429688-0.0273438C8.5624657,1.6772721,8.5741844,1.6655533,8.5819969,1.652858  C8.5868797,1.6469986,8.590786,1.637233,8.5946922,1.6274674C8.599575,1.6167252,8.6034813,1.605983,8.6073875,1.5942643  s0.0068359-0.0214844,0.0087891-0.0332031C8.6181297,1.5512955,8.6191063,1.543483,8.6191063,1.5376236V1.2075455  c0-0.0234375-0.0048828-0.0458984-0.015625-0.0644531C8.5937157,1.1245377,8.5868797,1.1079361,8.5819969,1.0923111z   M8.5019188,1.5376236c0,0.0244141-0.0068359,0.0449219-0.0224609,0.0615234S8.4413719,1.6235611,8.4110985,1.6235611h-0.21875  V1.121608h0.21875c0.0302734,0,0.0527344,0.0078125,0.0683594,0.0253906c0.015625,0.015625,0.0224609,0.0371094,0.0224609,0.0605469  V1.5376236z M9.3632469,1.4204361c0.0253906,0,0.0429688-0.0078125,0.0517578-0.0234375s0.0136719-0.0302734,0.0136719-0.0419922  V1.284694c0-0.0419922-0.0078125-0.0810547-0.0224609-0.1162109S9.372036,1.1030533,9.3476219,1.0786393  C9.3222313,1.0532486,9.293911,1.034694,9.2607079,1.0200455C9.2275047,1.0063736,9.193325,1.0005143,9.1571922,1.0005143  c-0.0371094,0-0.0712891,0.0058594-0.1044922,0.0195313C9.0194969,1.034694,8.9911766,1.0532486,8.9667625,1.0786393  C8.9413719,1.1030533,8.9218407,1.1333268,8.9071922,1.168483S8.8847313,1.2427018,8.8847313,1.284694v0.2529297  c0,0.0244141,0.0048828,0.0458984,0.015625,0.0644531C8.9101219,1.621608,8.9169579,1.637233,8.9218407,1.652858  c0.0009766,0.0058594,0.0068359,0.0136719,0.0185547,0.0234375c0.0107422,0.0097656,0.0244141,0.0195313,0.0400391,0.0292969  c0.0146484,0.0097656,0.03125,0.0175781,0.0488281,0.0253906C9.0458641,1.7368424,9.0614891,1.7407486,9.075161,1.7407486H9.380825  c0.0087891,0,0.0185547-0.0048828,0.0302734-0.0136719c0.0117188-0.0097656,0.0175781-0.0253906,0.0175781-0.0449219  c0-0.0214844-0.0058594-0.0351563-0.0175781-0.0449219C9.3993797,1.628444,9.3896141,1.6235611,9.380825,1.6235611H9.0878563  c-0.0107422,0-0.0214844-0.0019531-0.0322266-0.0078125C9.0448875,1.6108658,9.0360985,1.6040299,9.028286,1.5952408  S9.0136375,1.5766861,9.0087547,1.5669205S9.0019188,1.5473893,9.0019188,1.5376236V1.4204361H9.3632469z M9.0019188,1.2495377  c0-0.0136719,0.0029297-0.0283203,0.0097656-0.0449219c0.0058594-0.015625,0.015625-0.0302734,0.0292969-0.0429688  c0.0126953-0.0126953,0.0292969-0.0234375,0.0488281-0.0322266C9.1083641,1.121608,9.130825,1.1167252,9.1571922,1.1167252  c0.0253906,0,0.0478516,0.0048828,0.0664063,0.0126953c0.0195313,0.0087891,0.0361328,0.0195313,0.0488281,0.0322266  C9.2860985,1.1743424,9.2958641,1.1889908,9.3027,1.2046158c0.0058594,0.0166016,0.0097656,0.03125,0.0097656,0.0449219v0.0537109  H9.0019188V1.2495377z"></path>
		</g> 
	</g>  
	<circle cx="7.9411764" cy="1.3" fill="#FF0000" id="symbolcenter" r="0.2" visibility="hidden"></circle>
</svg>
