<?xml version="1.0" encoding="utf-8"?>
<!DOCTYPE svg PUBLIC "-//W3C//DTD SVG 1.1//EN" "http://www.w3.org/Graphics/SVG/1.1/DTD/svg11.dtd">
<?xml-stylesheet href="http://plr2-dev/themes/vrsz/images/geoposlib/geopos_symb.css" type="text/css"?>
<svg baseProfile="full" contentScriptType="text/ecmascript" contentStyleType="text/css" enable-background="new 0 0 2.743 3.953" height="3.953px" id="Ebene_1" preserveAspectRatio="xMidYMid meet" version="1.1" viewBox="0 0 2.743 3.953" width="2.743px" x="0px" xml:space="preserve" xmlns="http://www.w3.org/2000/svg" xmlns:xlink="http://www.w3.org/1999/xlink" y="0px" zoomAndPan="magnify"> 
    <style type="text/css">@import url(&quot;/themes/vrsz/images/geoposlib/geopos_symb.css&quot;);</style>  
    <g>  
        <g>   
            <rect class="static_symb_sign_static_fill" height="2.348" id="sign_326_fill" width="2.508" x="0.133"></rect>   
            <rect class="static_symb_sign_static_stroke" height="2.348" width="2.508" x="0.133"></rect>  </g>  
        <g>   
            <path d="M1.258,1.744c-0.01,0-0.018-0.003-0.021-0.009L0.709,1.229v0.483c0,0.019-0.014,0.033-0.03,0.033                  c-0.019,0-0.031-0.015-0.031-0.033V1.156V1.155V0.729c0-0.017,0.015-0.031,0.031-0.031H1.23c0.011,0,0.021,0.005,0.024,0.013                  l0.07,0.096c0.002,0.004,0.004,0.008,0.004,0.013L1.36,0.972c0,0.003,0,0.006,0,0.01L1.35,1.086c0,0.006-0.003,0.013-0.008,0.019                  L1.268,1.183c-0.006,0.006-0.014,0.011-0.023,0.01L0.756,1.188L1.28,1.691c0.014,0.012,0.014,0.032,0.002,0.043                  C1.275,1.741,1.267,1.744,1.258,1.744z                  M0.709,1.125l0.523,0.004L1.29,1.067l0.01-0.089l-0.03-0.141L1.213,0.76H0.709V1.125z                  M2.165,1.744c-0.008,0-0.016-0.003-0.021-0.011l-0.47-0.51v0.489c0,0.019-0.015,0.031-0.032,0.031                  c-0.02,0-0.029-0.014-0.029-0.031V1.148c0,0,0,0,0-0.001V1.144l0,0V0.729c0-0.017,0.012-0.031,0.03-0.031s0.031,0.015,0.031,0.031                  v0.354l0.471-0.379c0.015-0.01,0.033-0.009,0.045,0.006C2.2,0.724,2.198,0.742,2.183,0.754L1.691,1.148l0.496,0.544                  C2.2,1.705,2.198,1.725,2.185,1.736C2.179,1.742,2.173,1.744,2.165,1.744z"></path>   
            <path class="static_symb_sign_fill_active" d="M1.258,1.744c-0.01,0-0.018-0.003-0.021-0.009L0.709,1.229v0.483c0,0.019-0.014,0.033-0.03,0.033                  c-0.019,0-0.031-0.015-0.031-0.033V1.156V1.155V0.729c0-0.017,0.015-0.031,0.031-0.031H1.23c0.011,0,0.021,0.005,0.024,0.013                  l0.07,0.096c0.002,0.004,0.004,0.008,0.004,0.013L1.36,0.972c0,0.003,0,0.006,0,0.01L1.35,1.086c0,0.006-0.003,0.013-0.008,0.019                  L1.268,1.183c-0.006,0.006-0.014,0.011-0.023,0.01L0.756,1.188L1.28,1.691c0.014,0.012,0.014,0.032,0.002,0.043                  C1.275,1.741,1.267,1.744,1.258,1.744z                  M0.709,1.125l0.523,0.004L1.29,1.067l0.01-0.089l-0.03-0.141L1.213,0.76H0.709V1.125z                  M2.165,1.744c-0.008,0-0.016-0.003-0.021-0.011l-0.47-0.51v0.489c0,0.019-0.015,0.031-0.032,0.031                  c-0.02,0-0.029-0.014-0.029-0.031V1.148c0,0,0,0,0-0.001V1.144l0,0V0.729c0-0.017,0.012-0.031,0.03-0.031s0.031,0.015,0.031,0.031                  v0.354l0.471-0.379c0.015-0.01,0.033-0.009,0.045,0.006C2.2,0.724,2.198,0.742,2.183,0.754L1.691,1.148l0.496,0.544                  C2.2,1.705,2.198,1.725,2.185,1.736C2.179,1.742,2.173,1.744,2.165,1.744z"></path>  </g>  
        <g>   
            <text class="static_symb_det_txtbox_txt_stroke" id="textfeld" text-anchor="middle" x="1.35" y="3.9">x</text>
            <text class="static_symb_sign_txtbox_txt" id="textfeld" text-anchor="middle" x="1.35" y="3.9">x</text>  </g> </g> 
<circle visibility="hidden" id="symbolcenter" r="0.2" cx="1.4" cy="1.15" fill="#FF0000"></circle>
</svg>
