<?xml version="1.0" encoding="utf-8"?>
<!DOCTYPE svg PUBLIC "-//W3C//DTD SVG 1.1//EN" "http://www.w3.org/Graphics/SVG/1.1/DTD/svg11.dtd">
<?xml-stylesheet href="http://plr2-dev/themes/vrsz/images/geoposlib/geopos_symb.css" type="text/css"?>
<svg baseProfile="full" contentScriptType="text/ecmascript" contentStyleType="text/css" enable-background="new 0 0 2.43 3.109" height="3.109px" id="Ebene_1" preserveAspectRatio="xMidYMid meet" version="1.1" viewBox="0 0 2.43 3.109" width="2.43px" x="0px" xml:space="preserve" xmlns="http://www.w3.org/2000/svg" xmlns:xlink="http://www.w3.org/1999/xlink" y="0px" zoomAndPan="magnify"> 
    <style type="text/css">@import url(&quot;/themes/vrsz/images/geoposlib/geopos_symb.css&quot;);</style>  
    <g>  
        <g>   
            <path class="static_symb_sign_fill_active" d="M1.578,0.21l0.625,1.292C2.213,1.593,2.16,1.679,2.072,1.71H0.441C0.392,1.718,0.341,1.703,0.3,1.675                  C0.213,1.611,0.189,1.489,0.253,1.402l0.698-1.3c0.026-0.025,0.06-0.049,0.095-0.063c0.202-0.096,0.446-0.011,0.542,0.193" id="sign_328_fill"></path>   
            <path class="static_symb_sign_stroke" d="M1.578,0.21l0.625,1.292C2.213,1.593,2.16,1.679,2.072,1.71H0.441C0.392,1.718,0.341,1.703,0.3,1.675                  C0.213,1.611,0.189,1.489,0.253,1.402l0.698-1.3c0.026-0.025,0.06-0.049,0.095-0.063c0.202-0.096,0.446-0.011,0.542,0.193"></path>  </g>  
        <g>   
            <path class="static_symb_sign_static_stroke" d="M1.115,1.203c0,0.126-0.104,0.228-0.229,0.228c-0.126,0-0.228-0.102-0.228-0.228                  S0.76,0.976,0.886,0.976C1.012,0.977,1.115,1.078,1.115,1.203z                  M1.538,0.987c-0.125,0-0.229,0.102-0.229,0.228                  c0,0.125,0.104,0.229,0.229,0.229S1.765,1.34,1.765,1.214S1.664,0.987,1.538,0.987z"></path>   
            <path class="static_symb_sign_static_fill" d="M1.115,1.203c0,0.126-0.104,0.228-0.229,0.228c-0.126,0-0.228-0.102-0.228-0.228                  S0.76,0.976,0.886,0.976C1.012,0.977,1.115,1.078,1.115,1.203z                  M1.538,0.987c-0.125,0-0.229,0.102-0.229,0.228                  c0,0.125,0.104,0.229,0.229,0.229S1.765,1.34,1.765,1.214S1.664,0.987,1.538,0.987z"></path>  </g>  
        <g>   
            <text class="static_symb_det_txtbox_txt_stroke" id="textfeld" text-anchor="middle" x="1.2" y="3.25">x</text>
            <text class="static_symb_sign_txtbox_txt" id="textfeld" text-anchor="middle" x="1.2" y="3.25">x</text>  </g> </g> 
<circle visibility="hidden" id="symbolcenter" r="0.2" cx="1.22" cy="0.9" fill="#FF0000"></circle>
</svg>
