<?xml version="1.0" encoding="utf-8"?>
<!DOCTYPE svg PUBLIC "-//W3C//DTD SVG 1.1//EN" "http://www.w3.org/Graphics/SVG/1.1/DTD/svg11.dtd">
<?xml-stylesheet href="http://plr2-dev/themes/vrsz/images/geoposlib/geopos_symb.css" type="text/css"?>
<svg baseProfile="full" contentScriptType="text/ecmascript" contentStyleType="text/css" enable-background="new 0 0 2.657 2.717" height="2.717px" id="Ebene_1" preserveAspectRatio="xMidYMid meet" version="1.1" viewBox="0 0 2.657 2.717" width="2.657px" x="0px" xml:space="preserve" xmlns="http://www.w3.org/2000/svg" xmlns:xlink="http://www.w3.org/1999/xlink" y="0px" zoomAndPan="magnify"> 
  <style type="text/css">@import url(&quot;/themes/vrsz/images/geoposlib/geopos_symb.css&quot;);</style>  
  <g>  
  <g>  
  <path class="static_symb_sign_static_fill" d="M1.864,0.556C1.864,0.248,1.616,0,1.307,0C1,0,0.751,0.25,0.751,0.556  c0,0.307,0.249,0.557,0.558,0.557C1.617,1.112,1.864,0.862,1.864,0.556L1.864,0.556z" id="sign_329_fill"></path>  
  <path class="static_symb_sign_static_stroke" d="M1.864,0.556C1.864,0.248,1.616,0,1.307,0C1,0,0.751,0.25,0.751,0.556c0,0.307,0.249,0.557,0.558,0.557  C1.617,1.112,1.864,0.862,1.864,0.556L1.864,0.556z"></path>  </g>  
  <g>  
  <path class="static_symb_sign_stroke" d="M1.658,1.02c-0.011,0-0.017-0.003-0.024-0.011L1.317,0.628L0.975,1.006  C0.963,1.019,0.944,1.02,0.93,1.007c-0.013-0.012-0.014-0.03-0.002-0.043l0.348-0.383L0.92,0.154  C0.91,0.142,0.912,0.122,0.923,0.109C0.938,0.1,0.957,0.1,0.967,0.114l0.352,0.418l0.355-0.392  c0.012-0.013,0.032-0.014,0.047-0.003c0.01,0.012,0.012,0.032,0.002,0.045l-0.363,0.4l0.324,0.386  c0.008,0.013,0.008,0.032-0.006,0.043C1.671,1.017,1.665,1.02,1.658,1.02z"></path>  
  <path class="static_symb_sign_fill_active" d="M1.658,1.02c-0.011,0-0.017-0.003-0.024-0.011L1.317,0.628L0.975,1.006  C0.963,1.019,0.944,1.02,0.93,1.007c-0.013-0.012-0.014-0.03-0.002-0.043l0.348-0.383L0.92,0.154  C0.91,0.142,0.912,0.122,0.923,0.109C0.938,0.1,0.957,0.1,0.967,0.114l0.352,0.418l0.355-0.392  c0.012-0.013,0.032-0.014,0.047-0.003c0.01,0.012,0.012,0.032,0.002,0.045l-0.363,0.4l0.324,0.386  c0.008,0.013,0.008,0.032-0.006,0.043C1.671,1.017,1.665,1.02,1.658,1.02z"></path>  </g>  
  <g>  
  <text class="static_symb_det_txtbox_txt_stroke" id="textfeld" text-anchor="middle" x="1.3" y="2.65">x</text>
  <text class="static_symb_sign_txtbox_txt" id="textfeld" text-anchor="middle" x="1.3" y="2.65">x</text>  </g> </g> 
<circle visibility="hidden" id="symbolcenter" r="0.2" cx="1.3" cy="0.55" fill="#FF0000"></circle>
</svg>
