<?xml version="1.0" encoding="utf-8"?>
<!DOCTYPE svg PUBLIC "-//W3C//DTD SVG 1.1//EN" "http://www.w3.org/Graphics/SVG/1.1/DTD/svg11.dtd">
<?xml-stylesheet href="http://plr2-dev/themes/vrsz/images/geoposlib/geopos_symb.css" type="text/css"?>
<svg baseProfile="full" contentScriptType="text/ecmascript" contentStyleType="text/css" enable-background="new 0 0 2.484 3.314" height="3.314px" id="Ebene_1" preserveAspectRatio="xMidYMid meet" version="1.1" viewBox="0 0 2.484 3.314" width="2.484px" x="0px" xml:space="preserve" xmlns="http://www.w3.org/2000/svg" xmlns:xlink="http://www.w3.org/1999/xlink" y="0px" zoomAndPan="magnify"> 
    <style type="text/css">@import url(&quot;/themes/vrsz/images/geoposlib/geopos_symb.css&quot;);</style>  
    <g>  
        <g>   
            <rect class="static_symb_sign_fill_active" height="1.805" id="sign_330_fill" width="1.892" x="0.28" y="0"></rect>   
            <rect class="static_symb_sign_stroke" height="1.805" width="1.893" x="0.28" y="0"></rect>  </g>  
        <g>   
            <path class="static_symb_sign_static_stroke" d="M0.631,0.784c-0.034,0-0.063-0.028-0.063-0.063S0.594,0.66,0.631,0.66                  c0.034,0,0.063,0.027,0.063,0.062S0.664,0.784,0.631,0.784z                  M1.462,0.721c0-0.034-0.028-0.062-0.063-0.062                  c-0.035,0-0.062,0.027-0.062,0.062S1.364,0.784,1.4,0.784S1.462,0.757,1.462,0.721z                  M1.051,0.781c0.034,0,0.063-0.028,0.063-0.063                  S1.085,0.657,1.051,0.657c-0.032,0-0.063,0.027-0.063,0.062S1.016,0.781,1.051,0.781z                  M1.831,0.721                  c0-0.034-0.028-0.062-0.063-0.062c-0.035,0-0.062,0.027-0.062,0.062s0.027,0.063,0.063,0.063C1.803,0.784,1.831,0.756,1.831,0.721                  z M1.768,0.784H1.4h-0.77H0.522v0.068v0.764h0.144V0.851h1.239V0.784H1.768z"></path>   
            <path class="static_symb_sign_static_fill" d="M0.631,0.784c-0.034,0-0.063-0.028-0.063-0.063S0.594,0.66,0.631,0.66c0.034,0,0.063,0.027,0.063,0.062                  S0.664,0.784,0.631,0.784z                  M1.462,0.721c0-0.034-0.028-0.062-0.063-0.062c-0.035,0-0.062,0.027-0.062,0.062S1.364,0.784,1.4,0.784                  S1.462,0.757,1.462,0.721z                  M1.051,0.781c0.034,0,0.063-0.028,0.063-0.063S1.085,0.657,1.051,0.657                  c-0.032,0-0.063,0.027-0.063,0.062S1.016,0.781,1.051,0.781z                  M1.831,0.721c0-0.034-0.028-0.062-0.063-0.062                  c-0.035,0-0.062,0.027-0.062,0.062s0.027,0.063,0.063,0.063C1.803,0.784,1.831,0.756,1.831,0.721z                  M1.768,0.784H1.4h-0.77H0.522 v0.068v0.764h0.144V0.851h1.239V0.784H1.768z"></path>  </g>  
        <g>   
            <text class="static_symb_det_txtbox_txt_stroke" id="textfeld" text-anchor="middle" x="1.25" y="3.3">x</text>
            <text class="static_symb_sign_txtbox_txt" id="textfeld" text-anchor="middle" x="1.25" y="3.3">x</text>  </g> </g> 
<circle visibility="hidden" id="symbolcenter" r="0.2" cx="1.25" cy="0.9" fill="#FF0000"></circle>
</svg>
