<?xml version="1.0" encoding="utf-8"?>
<!DOCTYPE svg PUBLIC "-//W3C//DTD SVG 1.1//EN" "http://www.w3.org/Graphics/SVG/1.1/DTD/svg11.dtd">
<?xml-stylesheet href="http://plr2-dev/themes/vrsz/images/geoposlib/geopos_symb.css" type="text/css"?>
<svg baseProfile="full" contentScriptType="text/ecmascript" contentStyleType="text/css" enable-background="new 0 0 6.43 2.061" height="2.061px" id="Ebene_1" preserveAspectRatio="xMidYMid meet" version="1.1" viewBox="0 0 6.43 2.061" width="6.43px" x="0px" xml:space="preserve" xmlns="http://www.w3.org/2000/svg" xmlns:xlink="http://www.w3.org/1999/xlink" y="0px" zoomAndPan="magnify"> 
    <style type="text/css">@import url(&quot;/themes/vrsz/images/geoposlib/geopos_symb.css&quot;);</style>  
    <g>  
        <g>   
            <text class="static_symb_det_txtbox_txt_stroke" id="textfeld" text-anchor="start" x="4.2" y="1.75">x</text>
            <text class="static_symb_sign_txtbox_txt" id="textfeld" text-anchor="start" x="4.2" y="1.75">x</text>  </g>  
        <g>   
            <path d="M3.614,1.741c-0.002,0-0.006,0-0.008-0.002L3.545,1.724C3.538,1.722,3.533,1.718,3.528,1.712                  L3.497,1.673C3.495,1.671,3.494,1.667,3.493,1.665L3.482,1.642L3.469,1.659c-0.002,0-0.004,0.002-0.008,0.004L3.409,1.7                  l-0.06,0.027L3.295,1.741c-0.003,0-0.006,0-0.009,0L3.225,1.734C3.22,1.732,3.218,1.73,3.215,1.73L3.161,1.704                  C3.156,1.704,3.153,1.7,3.15,1.7L3.072,1.622c-0.003-0.004-0.005-0.008-0.007-0.01L3.042,1.558C3.041,1.554,3.04,1.552,3.04,1.548                  L3.031,1.489v-0.27L3.04,1.175l0.019-0.05c0-0.003,0.002-0.007,0.004-0.009l0.021-0.031C3.087,1.082,3.089,1.08,3.091,1.078                  l0.04-0.032l0.034-0.018c0.004-0.001,0.008-0.002,0.012-0.003l0.047-0.009h0.274c0.02,0,0.032,0.015,0.032,0.03V1.48                  c0,0,0,0,0,0.002v0.109l0.021,0.045l0.02,0.027l0.052,0.014C3.639,1.683,3.649,1.7,3.645,1.714                  C3.642,1.73,3.628,1.741,3.614,1.741z                  M3.235,1.669l0.053,0.008L3.33,1.669l0.047-0.021l0.047-0.031l0.022-0.029L3.46,1.536                  l0.008-0.054v-0.4h-0.24L3.191,1.088L3.163,1.101L3.134,1.125L3.114,1.15L3.101,1.192L3.094,1.226l0.001,0.258l0.007,0.052                  l0.02,0.045L3.191,1.65L3.235,1.669z                  M0.444,1.741L0.444,1.741c-0.013,0-0.026-0.01-0.03-0.021L0.09,0.735                  c-0.008-0.018,0.003-0.034,0.02-0.039c0.016-0.007,0.034,0.004,0.04,0.02l0.296,0.897l0.303-0.897                  c0.008-0.017,0.023-0.025,0.04-0.02c0.019,0.005,0.025,0.021,0.021,0.039L0.474,1.718C0.47,1.732,0.458,1.741,0.444,1.741z                  M2.367,1.741c-0.017,0-0.032-0.014-0.032-0.031V1.05c0-0.018,0.016-0.031,0.032-0.031h0.227c0.003,0,0.007,0.001,0.01,0.002                  l0.046,0.015c0.005,0.001,0.01,0.005,0.013,0.008l0.046,0.046C2.714,1.094,2.718,1.1,2.719,1.107l0.009,0.048                  C2.728,1.172,2.718,1.187,2.7,1.19C2.68,1.193,2.665,1.179,2.662,1.163L2.655,1.126L2.621,1.093L2.586,1.082H2.398v0.626                  C2.398,1.726,2.384,1.741,2.367,1.741z                  M1.561,1.741c-0.02,0-0.031-0.014-0.031-0.031V0.724c0-0.018,0.014-0.031,0.031-0.031                  c0.017,0,0.032,0.014,0.032,0.031v0.295h0.238l0.054,0.009l0.046,0.017C1.933,1.046,1.935,1.048,1.938,1.05l0.038,0.031                  C1.978,1.082,1.98,1.083,1.981,1.086l0.022,0.031c0.003,0.004,0.005,0.006,0.006,0.01l0.016,0.047                  c0,0.003,0.001,0.007,0.001,0.011v0.411c0,0.006-0.001,0.01-0.003,0.016l-0.04,0.07c-0.002,0.004-0.006,0.008-0.01,0.012                  L1.934,1.714L1.891,1.736L1.839,1.741H1.561z                  M1.592,1.677H1.83l0.042-0.008l0.033-0.014l0.028-0.018l0.03-0.055V1.186                  L1.952,1.151L1.933,1.125L1.901,1.1L1.868,1.086L1.828,1.08H1.593L1.592,1.677L1.592,1.677z                  M1.181,1.741                  c-0.02,0-0.032-0.014-0.032-0.031V1.05c0-0.018,0.014-0.031,0.032-0.031c0.017,0,0.029,0.014,0.029,0.031v0.659                  C1.212,1.726,1.198,1.741,1.181,1.741z M1.142,0.724v0.076H1.22V0.724H1.142z"></path>   
            <path class="static_symb_mast_static_fill" d="M3.614,1.741c-0.002,0-0.006,0-0.008-0.002L3.545,1.724C3.538,1.722,3.533,1.718,3.528,1.712                  L3.497,1.673C3.495,1.671,3.494,1.667,3.493,1.665L3.482,1.642L3.469,1.659c-0.002,0-0.004,0.002-0.008,0.004L3.409,1.7                  l-0.06,0.027L3.295,1.741c-0.003,0-0.006,0-0.009,0L3.225,1.734C3.22,1.732,3.218,1.73,3.215,1.73L3.161,1.704                  C3.156,1.704,3.153,1.7,3.15,1.7L3.072,1.622c-0.003-0.004-0.005-0.008-0.007-0.01L3.042,1.558C3.041,1.554,3.04,1.552,3.04,1.548                  L3.031,1.489v-0.27L3.04,1.175l0.019-0.05c0-0.003,0.002-0.007,0.004-0.009l0.021-0.031C3.087,1.082,3.089,1.08,3.091,1.078                  l0.04-0.032l0.034-0.018c0.004-0.001,0.008-0.002,0.012-0.003l0.047-0.009h0.274c0.02,0,0.032,0.015,0.032,0.03V1.48                  c0,0,0,0,0,0.002v0.109l0.021,0.045l0.02,0.027l0.052,0.014C3.639,1.683,3.649,1.7,3.645,1.714                  C3.642,1.73,3.628,1.741,3.614,1.741z                  M3.235,1.669l0.053,0.008L3.33,1.669l0.047-0.021l0.047-0.031l0.022-0.029L3.46,1.536                  l0.008-0.054v-0.4h-0.24L3.191,1.088L3.163,1.101L3.134,1.125L3.114,1.15L3.101,1.192L3.094,1.226l0.001,0.258l0.007,0.052                  l0.02,0.045L3.191,1.65L3.235,1.669z                  M0.444,1.741L0.444,1.741c-0.013,0-0.026-0.01-0.03-0.021L0.09,0.735                  c-0.008-0.018,0.003-0.034,0.02-0.039c0.016-0.007,0.034,0.004,0.04,0.02l0.296,0.897l0.303-0.897                  c0.008-0.017,0.023-0.025,0.04-0.02c0.019,0.005,0.025,0.021,0.021,0.039L0.474,1.718C0.47,1.732,0.458,1.741,0.444,1.741z                  M2.367,1.741c-0.017,0-0.032-0.014-0.032-0.031V1.05c0-0.018,0.016-0.031,0.032-0.031h0.227c0.003,0,0.007,0.001,0.01,0.002                  l0.046,0.015c0.005,0.001,0.01,0.005,0.013,0.008l0.046,0.046C2.714,1.094,2.718,1.1,2.719,1.107l0.009,0.048                  C2.728,1.172,2.718,1.187,2.7,1.19C2.68,1.193,2.665,1.179,2.662,1.163L2.655,1.126L2.621,1.093L2.586,1.082H2.398v0.626                  C2.398,1.726,2.384,1.741,2.367,1.741z                  M1.561,1.741c-0.02,0-0.031-0.014-0.031-0.031V0.724c0-0.018,0.014-0.031,0.031-0.031                  c0.017,0,0.032,0.014,0.032,0.031v0.295h0.238l0.054,0.009l0.046,0.017C1.933,1.046,1.935,1.048,1.938,1.05l0.038,0.031                  C1.978,1.082,1.98,1.083,1.981,1.086l0.022,0.031c0.003,0.004,0.005,0.006,0.006,0.01l0.016,0.047                  c0,0.003,0.001,0.007,0.001,0.011v0.411c0,0.006-0.001,0.01-0.003,0.016l-0.04,0.07c-0.002,0.004-0.006,0.008-0.01,0.012                  L1.934,1.714L1.891,1.736L1.839,1.741H1.561z                  M1.592,1.677H1.83l0.042-0.008l0.033-0.014l0.028-0.018l0.03-0.055V1.186                  L1.952,1.151L1.933,1.125L1.901,1.1L1.868,1.086L1.828,1.08H1.593L1.592,1.677L1.592,1.677z                  M1.181,1.741                  c-0.02,0-0.032-0.014-0.032-0.031V1.05c0-0.018,0.014-0.031,0.032-0.031c0.017,0,0.029,0.014,0.029,0.031v0.659                  C1.212,1.726,1.198,1.741,1.181,1.741z M1.142,0.724v0.076H1.22V0.724H1.142z"></path>  </g> </g> 
<circle visibility="hidden" id="symbolcenter" r="0.2" cx="2.2" cy="1.3" fill="#FF0000"></circle>
</svg>
