<?xml version="1.0" encoding="utf-8"?>
<!DOCTYPE svg PUBLIC "-//W3C//DTD SVG 1.1//EN" "http://www.w3.org/Graphics/SVG/1.1/DTD/svg11.dtd">
<?xml-stylesheet href="http://plr2-dev/themes/vrsz/images/geoposlib/geopos_symb.css" type="text/css"?>
<svg baseProfile="full" contentScriptType="text/ecmascript" contentStyleType="text/css" enable-background="new 0 0 4.542 1.791" height="1.791px" id="Ebene_1" preserveAspectRatio="xMidYMid meet" version="1.1" viewBox="0 0 4.542 1.791" width="4.542px" x="0px" xml:space="preserve" xmlns="http://www.w3.org/2000/svg" xmlns:xlink="http://www.w3.org/1999/xlink" y="0px" zoomAndPan="magnify"> 
    <style type="text/css">@import url(&quot;/themes/vrsz/images/geoposlib/geopos_symb.css&quot;);</style>  
    <g>  
        <g>   
            <rect class="static_symb_det_fill_default" height="1.791" id="sign_333_fill" width="1.909" x="0"></rect>   
            <rect class="static_symb_det_stroke" height="1.791" width="1.909" x="0"></rect>  </g>  
        <g>   
            <path d="M0.319,1.307c0,0-0.001,0-0.002,0c-0.015,0-0.027-0.012-0.029-0.025l-0.12-0.697                  C0.166,0.566,0.178,0.551,0.194,0.547s0.033,0.009,0.035,0.025l0.095,0.559L0.476,0.58c0.003-0.014,0.015-0.021,0.028-0.023                  c0.001,0,0.001,0,0.001,0c0.014,0,0.025,0.009,0.029,0.021l0.173,0.553l0.083-0.553c0.004-0.018,0.018-0.031,0.036-0.027                  c0.019,0.001,0.028,0.018,0.026,0.035L0.75,1.274C0.75,1.289,0.738,1.301,0.722,1.302c-0.013,0-0.029-0.009-0.031-0.022                  l-0.182-0.58L0.35,1.283C0.344,1.297,0.333,1.307,0.319,1.307z                  M1.515,1.293H1.236c-0.01,0-0.019-0.004-0.024-0.012L1.16,1.225                  C1.157,1.219,1.154,1.211,1.154,1.203V1.119c0-0.018,0.013-0.031,0.031-0.031c0.017,0,0.03,0.014,0.03,0.031v0.072L1.25,1.229                  h0.254l0.028-0.024V0.981L1.499,0.957H1.191c-0.012,0-0.022-0.008-0.028-0.019L1.13,0.875C1.127,0.871,1.126,0.865,1.126,0.86                  V0.619c0-0.007,0.002-0.014,0.007-0.019l0.03-0.042c0.006-0.008,0.016-0.012,0.025-0.012h0.336c0.009,0,0.017,0.004,0.022,0.011                  l0.046,0.05c0.008,0.007,0.01,0.014,0.01,0.021v0.082c0,0.018-0.013,0.033-0.031,0.033c-0.018,0-0.033-0.015-0.033-0.033v-0.07                  L1.511,0.608H1.205L1.189,0.629v0.225L1.21,0.895h0.299c0.008,0,0.014,0.002,0.02,0.007l0.053,0.041                  c0.007,0.006,0.01,0.015,0.01,0.024v0.252c0,0.009-0.003,0.016-0.01,0.023L1.537,1.285C1.532,1.289,1.523,1.293,1.515,1.293z"></path>   
            <path class="static_symb_det_static_fill" d="M0.319,1.307c0,0-0.001,0-0.002,0c-0.015,0-0.027-0.012-0.029-0.025l-0.12-0.697                  C0.166,0.566,0.178,0.551,0.194,0.547s0.033,0.009,0.035,0.025l0.095,0.559L0.476,0.58c0.003-0.014,0.015-0.021,0.028-0.023                  c0.001,0,0.001,0,0.001,0c0.014,0,0.025,0.009,0.029,0.021l0.173,0.553l0.083-0.553c0.004-0.018,0.018-0.031,0.036-0.027                  c0.019,0.001,0.028,0.018,0.026,0.035L0.75,1.274C0.75,1.289,0.738,1.301,0.722,1.302c-0.013,0-0.029-0.009-0.031-0.022                  l-0.182-0.58L0.35,1.283C0.344,1.297,0.333,1.307,0.319,1.307z                  M1.515,1.293H1.236c-0.01,0-0.019-0.004-0.024-0.012L1.16,1.225                  C1.157,1.219,1.154,1.211,1.154,1.203V1.119c0-0.018,0.013-0.031,0.031-0.031c0.017,0,0.03,0.014,0.03,0.031v0.072L1.25,1.229                  h0.254l0.028-0.024V0.981L1.499,0.957H1.191c-0.012,0-0.022-0.008-0.028-0.019L1.13,0.875C1.127,0.871,1.126,0.865,1.126,0.86                  V0.619c0-0.007,0.002-0.014,0.007-0.019l0.03-0.042c0.006-0.008,0.016-0.012,0.025-0.012h0.336c0.009,0,0.017,0.004,0.022,0.011                  l0.046,0.05c0.008,0.007,0.01,0.014,0.01,0.021v0.082c0,0.018-0.013,0.033-0.031,0.033c-0.018,0-0.033-0.015-0.033-0.033v-0.07                  L1.511,0.608H1.205L1.189,0.629v0.225L1.21,0.895h0.299c0.008,0,0.014,0.002,0.02,0.007l0.053,0.041                  c0.007,0.006,0.01,0.015,0.01,0.024v0.252c0,0.009-0.003,0.016-0.01,0.023L1.537,1.285C1.532,1.289,1.523,1.293,1.515,1.293z"></path>  </g>  
        <g>   
            <text class="static_symb_det_txtbox_txt_stroke" id="textfeld" text-anchor="start" x="2.5" y="1.4">x</text>
            <text class="static_symb_sign_txtbox_txt" id="textfeld" text-anchor="start" x="2.5" y="1.4">x</text>  </g> </g> 
<circle visibility="hidden" id="symbolcenter" r="0.2" cx="0.95" cy="0.9" fill="#FF0000"></circle>
</svg>
