<?xml version="1.0" encoding="utf-8"?>
<!DOCTYPE svg PUBLIC "-//W3C//DTD SVG 1.1//EN" "http://www.w3.org/Graphics/SVG/1.1/DTD/svg11.dtd">
<?xml-stylesheet href="http://plr2-dev/themes/vrsz/images/geoposlib/geopos_symb.css" type="text/css"?>
<svg baseProfile="full" contentScriptType="text/ecmascript" contentStyleType="text/css" enable-background="new 0 0 1.059 3.708" height="3.708px" id="Ebene_1" preserveAspectRatio="xMidYMid meet" version="1.1" viewBox="0 0 1.059 3.708" width="1.059px" x="0px" xml:space="preserve" xmlns="http://www.w3.org/2000/svg" xmlns:xlink="http://www.w3.org/1999/xlink" y="0px" zoomAndPan="magnify"> 
    <style type="text/css">@import url(&quot;/themes/vrsz/images/geoposlib/geopos_symb.css&quot;);</style>  
    <g>  
        <g>   
            <rect class="static_symb_sign_fill_active" height="1.113" id="sign_334_fill" width="1.022" x="0.015" y="0"></rect>   
            <rect class="static_symb_sign_stroke" height="1.113" width="1.022" x="0.015" y="0"></rect>  </g>  
        <g>   
            <path class="static_symb_sign_static_stroke" d="M0.251,0.928l0.567-0.002L0.56,0.581V0.437C0.638,0.419,0.697,0.354,0.697,0.27                  c0-0.099-0.079-0.178-0.177-0.178S0.344,0.17,0.344,0.27c0,0.092,0.069,0.163,0.157,0.173v0.144L0.251,0.928z"></path>   
            <path class="static_symb_sign_static_fill" d="M0.251,0.928l0.567-0.002L0.56,0.581V0.437C0.638,0.419,0.697,0.354,0.697,0.27                  c0-0.099-0.079-0.178-0.177-0.178S0.344,0.17,0.344,0.27c0,0.092,0.069,0.163,0.157,0.173v0.144L0.251,0.928z"></path>  </g>  
        <g>   
            <text class="static_symb_det_txtbox_txt_stroke" id="textfeld" text-anchor="end" transform="matrix(6.123234e-017 -1 1 6.123234e-017 1.05 1.8)">x</text>
            <text class="static_symb_sign_txtbox_txt" id="textfeld" text-anchor="end" transform="matrix(6.123234e-017 -1 1 6.123234e-017 1.05 1.8)">x</text>  </g> </g> 
<circle visibility="hidden" id="symbolcenter" r="0.2" cx="0.52" cy="0.52" fill="#FF0000"></circle>
</svg>
