<?xml version="1.0" encoding="utf-8"?>
<?xml-stylesheet href="http://plr2-dev/themes/vrsz/images/geoposlib/geopos_symb.css" type="text/css"?>
<!DOCTYPE svg PUBLIC "-//W3C//DTD SVG 1.1//EN" "http://www.w3.org/Graphics/SVG/1.1/DTD/svg11.dtd">
<svg enable-background="new 0 0 4.704 1.986" height="1.986px" id="Ebene_1" version="1.1" viewBox="0 0 4.704 1.986" width="4.704px" x="0px" xml:space="preserve" xmlns="http://www.w3.org/2000/svg" xmlns:xlink="http://www.w3.org/1999/xlink" y="0px">
<style type="text/css">@import url(&quot;/themes/vrsz/images/geoposlib/geopos_symb.css&quot;);</style> 
<g>
	<g>
		<polygon class="static_symb_sign_fill_active" id="sign_336_fill" points="3.129,0 4.704,0 3.911,1.408 "></polygon>
		<polygon class="static_symb_sign_stroke" points="3.129,0 4.704,0 3.911,1.408 "></polygon>
	</g>
	<g>
		<path class="static_symb_sign_static_stroke" d="M3.983,1.28h0.006v0.708H3.84V1.28l0.07,0.128L3.983,1.28z M3.866,1.114L3.383,0.189    C3.375,0.174,3.375,0.157,3.385,0.144C3.393,0.13,3.409,0.124,3.424,0.124l0,0l1.008,0.001c0.016,0,0.031,0.009,0.039,0.021    c0.008,0.016,0.008,0.03,0,0.046L3.946,1.116C3.938,1.131,3.922,1.14,3.907,1.14l0,0C3.889,1.137,3.874,1.129,3.866,1.114z     M3.5,0.213l0.406,0.783L4.35,0.214L3.5,0.213z"></path>
		<path class="static_symb_sign_static_fill" d="M3.983,1.28h0.006v0.708H3.84V1.28l0.07,0.128L3.983,1.28z M3.866,1.114L3.383,0.189    C3.375,0.174,3.375,0.157,3.385,0.144C3.393,0.13,3.409,0.124,3.424,0.124l0,0l1.008,0.001c0.016,0,0.031,0.009,0.039,0.021    c0.008,0.016,0.008,0.03,0,0.046L3.946,1.116C3.938,1.131,3.922,1.14,3.907,1.14l0,0C3.889,1.137,3.874,1.129,3.866,1.114z     M3.5,0.213l0.406,0.783L4.35,0.214L3.5,0.213z"></path>
	</g>
	<g>
		<rect class="static_symb_sign_txtbox_fill" height="1.647" width="2.747" y="0.276"></rect>
		<rect class="static_symb_sign_txtbox_stroke" height="1.647" width="2.747" y="0.276"></rect>
		<text class="static_symb_sign_txtbox_txt" id="textfeld" text-anchor="middle" x="1.4" y="1.5">x</text>
	</g>
</g>
</svg>
