<?xml version="1.0" encoding="utf-8"?>
<!DOCTYPE svg PUBLIC "-//W3C//DTD SVG 1.1//EN" "http://www.w3.org/Graphics/SVG/1.1/DTD/svg11.dtd">
<?xml-stylesheet href="http://plr2-dev/themes/vrsz/images/geoposlib/geopos_symb.css" type="text/css"?>
<svg baseProfile="full" contentScriptType="text/ecmascript" contentStyleType="text/css" enable-background="new 0 0 4.704 1.986" height="1.986px" id="Ebene_1" preserveAspectRatio="xMidYMid meet" version="1.1" viewBox="0 0 4.704 1.986" width="4.704px" x="0px" xml:space="preserve" xmlns="http://www.w3.org/2000/svg" xmlns:xlink="http://www.w3.org/1999/xlink" y="0px" zoomAndPan="magnify"> 
    <style type="text/css">@import url(&quot;/themes/vrsz/images/geoposlib/geopos_symb.css&quot;);</style>  
    <g>  
        <g>   
            <polygon class="static_symb_sign_static_fill" id="sign_336_fill" points="3.129,0 4.704,0 3.911,1.408"></polygon>   
            <polygon class="static_symb_sign_stroke" points="3.129,0 4.704,0 3.911,1.408"></polygon>  </g>  
        <g>   
            <path class="static_symb_sign_static_fill" d="M3.983,1.28h0.006v0.708H3.84V1.28l0.07,0.128L3.983,1.28z M3.866,1.114L3.383,0.189                  C3.375,0.174,3.375,0.157,3.385,0.144C3.393,0.13,3.409,0.124,3.424,0.124l0,0l1.008,0.001c0.016,0,0.031,0.009,0.039,0.021                  c0.008,0.016,0.008,0.03,0,0.046L3.946,1.116C3.938,1.131,3.922,1.14,3.907,1.14l0,0C3.889,1.137,3.874,1.129,3.866,1.114z                  M3.5,0.213l0.406,0.783L4.35,0.214L3.5,0.213z"></path>   
            <path class="static_symb_sign_static_stroke" d="M3.983,1.28h0.006v0.708H3.84V1.28l0.07,0.128L3.983,1.28z M3.866,1.114L3.383,0.189                  C3.375,0.174,3.375,0.157,3.385,0.144C3.393,0.13,3.409,0.124,3.424,0.124l0,0l1.008,0.001c0.016,0,0.031,0.009,0.039,0.021                  c0.008,0.016,0.008,0.03,0,0.046L3.946,1.116C3.938,1.131,3.922,1.14,3.907,1.14l0,0C3.889,1.137,3.874,1.129,3.866,1.114z                  M3.5,0.213l0.406,0.783L4.35,0.214L3.5,0.213z"></path>  </g>  
        <g>   
            <text class="static_symb_det_txtbox_txt_stroke" id="textfeld" text-anchor="end" x="2.6" y="1.7">x</text>
            <text class="static_symb_sign_txtbox_txt" id="textfeld" text-anchor="end" x="2.6" y="1.7">x</text>  </g> </g> 
<circle visibility="hidden" id="symbolcenter" r="0.2" cx="3.9" cy="0.7" fill="#FF0000"></circle>
</svg>
