<?xml version="1.0" encoding="utf-8"?>
<!DOCTYPE svg PUBLIC "-//W3C//DTD SVG 1.1//EN" "http://www.w3.org/Graphics/SVG/1.1/DTD/svg11.dtd">
<?xml-stylesheet href="http://plr2-dev/themes/vrsz/images/geoposlib/geopos_symb.css" type="text/css"?>
<svg baseProfile="full" contentScriptType="text/ecmascript" contentStyleType="text/css" enable-background="new 0 0 4.654 1.443" height="1.443px" id="Ebene_1" preserveAspectRatio="xMidYMid meet" version="1.1" viewBox="0 0 4.654 1.443" width="4.654px" x="0px" xml:space="preserve" xmlns="http://www.w3.org/2000/svg" xmlns:xlink="http://www.w3.org/1999/xlink" y="0px" zoomAndPan="magnify"> 
    <style type="text/css">@import url(&quot;/themes/vrsz/images/geoposlib/geopos_symb.css&quot;);</style>  
    <g>  
        <g>   
            <rect class="static_symb_sign_static_fill" height="1.268" id="sign_337_fill" width="1.235" x="3.419" y="0.137"></rect>   
            <rect class="static_symb_sign_stroke" height="1.268" width="1.235" x="3.419" y="0.137"></rect>  </g>  
        <g>   
            <path class="static_symb_sign_static_stroke" d="M3.793,0.563c0,0.059-0.048,0.106-0.105,0.106c-0.059,0-0.105-0.048-0.105-0.106                  S3.63,0.456,3.688,0.456C3.746,0.456,3.793,0.505,3.793,0.563z                  M4.35,0.45c-0.059,0-0.107,0.048-0.107,0.106                  c0,0.058,0.051,0.105,0.107,0.105s0.104-0.048,0.104-0.105C4.454,0.498,4.407,0.45,4.35,0.45z                  M4.027,0.669                  c0.061,0,0.106-0.049,0.106-0.106S4.085,0.456,4.027,0.456c-0.058,0-0.105,0.048-0.105,0.106S3.968,0.669,4.027,0.669z                  M4.033,0.863c-0.059,0-0.105,0.049-0.105,0.106c0,0.059,0.049,0.105,0.105,0.105c0.06,0,0.105-0.047,0.105-0.105                  S4.091,0.863,4.033,0.863z"></path>   
            <path class="static_symb_sign_fill_active" d="M3.793,0.563c0,0.059-0.048,0.106-0.105,0.106c-0.059,0-0.105-0.048-0.105-0.106S3.63,0.456,3.688,0.456                  C3.746,0.456,3.793,0.505,3.793,0.563z                  M4.35,0.45c-0.059,0-0.107,0.048-0.107,0.106c0,0.058,0.051,0.105,0.107,0.105                  s0.104-0.048,0.104-0.105C4.454,0.498,4.407,0.45,4.35,0.45z                  M4.027,0.669c0.061,0,0.106-0.049,0.106-0.106                  S4.085,0.456,4.027,0.456c-0.058,0-0.105,0.048-0.105,0.106S3.968,0.669,4.027,0.669z                  M4.033,0.863                  c-0.059,0-0.105,0.049-0.105,0.106c0,0.059,0.049,0.105,0.105,0.105c0.06,0,0.105-0.047,0.105-0.105S4.091,0.863,4.033,0.863z"></path>  </g>  
        <g>   
            <text class="static_symb_det_txtbox_txt_stroke" id="textfeld" text-anchor="end" x="2.8" y="1.3">x</text> 
            <text class="static_symb_sign_txtbox_txt" id="textfeld" text-anchor="end" x="2.8" y="1.3">x</text>  </g> </g> 
<circle visibility="hidden" id="symbolcenter" r="0.2" cx="4.05" cy="0.75" fill="#FF0000"></circle>
</svg>
