<?xml version="1.0" encoding="utf-8"?>
<!DOCTYPE svg PUBLIC "-//W3C//DTD SVG 1.1//EN" "http://www.w3.org/Graphics/SVG/1.1/DTD/svg11.dtd">
<?xml-stylesheet href="http://plr2-dev/themes/vrsz/images/geoposlib/geopos_symb.css" type="text/css"?>
<svg baseProfile="full" contentScriptType="text/ecmascript" contentStyleType="text/css" enable-background="new 0 0 1.391 6.184" height="6.184px" id="Ebene_1" preserveAspectRatio="xMidYMid meet" version="1.1" viewBox="0 0 1.391 6.184" width="1.391px" x="0px" xml:space="preserve" xmlns="http://www.w3.org/2000/svg" xmlns:xlink="http://www.w3.org/1999/xlink" y="0px" zoomAndPan="magnify"> 
    <style type="text/css">@import url(&quot;/themes/vrsz/images/geoposlib/geopos_symb.css&quot;);</style>  
    <g>  
        <g>   
            <rect class="static_symb_sign_fill_active" height="3.38" id="sign_338_fill" width="1.361" x="0.03" y="2.803"></rect>   
            <rect class="static_symb_sign_stroke" height="3.38" width="1.361" x="0.03" y="2.803"></rect>  </g>  
        <g>   
            <path class="static_symb_sign_static_stroke" d="M1.162,3.456c0-0.249-0.203-0.45-0.452-0.45c-0.25,0-0.451,0.201-0.451,0.45                  c0,0.25,0.201,0.452,0.451,0.452C0.959,3.908,1.162,3.707,1.162,3.456L1.162,3.456z                  M1.167,4.498c0-0.248-0.201-0.449-0.451-0.449                  c-0.249,0-0.451,0.201-0.451,0.449c0,0.25,0.202,0.451,0.451,0.451S1.167,4.748,1.167,4.498L1.167,4.498z                  M1.174,5.533                  c0-0.25-0.202-0.451-0.451-0.451S0.271,5.283,0.271,5.533c0,0.248,0.203,0.451,0.452,0.451S1.174,5.781,1.174,5.533L1.174,5.533z"></path>   
            <path class="static_symb_sign_static_fill" d="M1.162,3.456c0-0.249-0.203-0.45-0.452-0.45c-0.25,0-0.451,0.201-0.451,0.45                  c0,0.25,0.201,0.452,0.451,0.452C0.959,3.908,1.162,3.707,1.162,3.456L1.162,3.456z                  M1.167,4.498c0-0.248-0.201-0.449-0.451-0.449                  c-0.249,0-0.451,0.201-0.451,0.449c0,0.25,0.202,0.451,0.451,0.451S1.167,4.748,1.167,4.498L1.167,4.498z                  M1.174,5.533                  c0-0.25-0.202-0.451-0.451-0.451S0.271,5.283,0.271,5.533c0,0.248,0.203,0.451,0.452,0.451S1.174,5.781,1.174,5.533L1.174,5.533z"></path>  </g>  
        <g>   
            <text class="static_symb_det_txtbox_txt_stroke" id="textfeld" text-anchor="start" transform="matrix(6.123234e-017 -1 1 6.123234e-017 1.2 2.2)">x</text>
            <text class="static_symb_sign_txtbox_txt" id="textfeld" text-anchor="start" transform="matrix(6.123234e-017 -1 1 6.123234e-017 1.2 2.2)">x</text>  </g> </g> 
<circle visibility="hidden" id="symbolcenter" r="0.2" cx="0.72" cy="4.5" fill="#FF0000"></circle>
</svg>
