<?xml version="1.0" standalone="no"?><!DOCTYPE svg PUBLIC "-//W3C//DTD SVG 1.1//EN" "http://www.w3.org/Graphics/SVG/1.1/DTD/svg11.dtd">
<?xml-stylesheet href="http://plr2-dev/themes/vrsz/images/geoposlib/geopos_symb.css" type="text/css"?>
<svg baseProfile="full" contentScriptType="text/ecmascript" contentStyleType="text/css" enable-background="new 0 0 3.621 1.121" height="1.121px" id="Ebene_1" preserveAspectRatio="xMidYMid meet" version="1.1" viewBox="0 0 3.621 1.121" width="3.621px" x="0px" xml:space="preserve" xmlns="http://www.w3.org/2000/svg" xmlns:xlink="http://www.w3.org/1999/xlink" y="0px" zoomAndPan="magnify">      
    <style type="text/css">@import url(&quot;/themes/vrsz/images/geoposlib/geopos_symb.css&quot;);</style>       
    <g>           
        <g>                
            <rect class="static_symb_sign_fill_active" height="1.117" id="sign_342_fill" width="1.027" x="0"></rect>                
            <rect class="static_symb_sign_stroke" height="1.117" width="1.027" x="0"></rect>  </g>           
        <g>                
            <path class="static_symb_sign_static_stroke" d="M0.241,0.932L0.808,0.93L0.549,0.584V0.44c0.078-0.02,0.138-0.085,0.138-0.17                  c0-0.098-0.08-0.176-0.178-0.176c-0.097,0-0.177,0.077-0.177,0.176c0,0.092,0.069,0.164,0.157,0.174v0.144L0.241,0.932z"></path>                
            <path class="static_symb_sign_static_fill" d="M0.241,0.932L0.808,0.93L0.549,0.584V0.44c0.078-0.02,0.138-0.085,0.138-0.17                  c0-0.098-0.08-0.176-0.178-0.176c-0.097,0-0.177,0.077-0.177,0.176c0,0.092,0.069,0.164,0.157,0.174v0.144L0.241,0.932z"></path>  </g>           
        <g>                
            <text class="static_symb_det_txtbox_txt_stroke" id="textfeld" text-anchor="start" x="1.6" y="1.1">x</text>             
            <text class="static_symb_sign_txtbox_txt" id="textfeld" text-anchor="start" x="1.6" y="1.1">x</text>  </g> </g>  
    <circle cx="0.52" cy="0.55" fill="#FF0000" id="symbolcenter" r="0.2" visibility="hidden"></circle> </svg>
