<?xml version="1.0" encoding="utf-8"?>
<!DOCTYPE svg PUBLIC "-//W3C//DTD SVG 1.1//EN" "http://www.w3.org/Graphics/SVG/1.1/DTD/svg11.dtd">
<?xml-stylesheet href="http://plr2-dev/themes/vrsz/images/geoposlib/geopos_symb.css" type="text/css"?>
<svg baseProfile="full" contentScriptType="text/ecmascript" contentStyleType="text/css" enable-background="new 0 0 1.293 4.004" height="4.004px" id="Ebene_1" preserveAspectRatio="xMidYMid meet" version="1.1" viewBox="0 0 1.293 4.004" width="1.293px" x="0px" xml:space="preserve" xmlns="http://www.w3.org/2000/svg" xmlns:xlink="http://www.w3.org/1999/xlink" y="0px" zoomAndPan="magnify"> 
    <style type="text/css">@import url(&quot;/themes/vrsz/images/geoposlib/geopos_symb.css&quot;);</style>  
    <g>  
        <g>   
            <rect class="static_symb_sign_static_fill" height="1.276" id="sign_344_fill" width="1.271"></rect>   
            <rect class="static_symb_sign_stroke" height="1.276" width="1.271"></rect>  </g>  
        <g>   
            <path class="static_symb_sign_static_stroke" d="M0.333,0.449c0-0.054-0.044-0.098-0.099-0.098c-0.053,0-0.098,0.043-0.098,0.098                  c0,0.053,0.044,0.098,0.098,0.098C0.29,0.547,0.333,0.502,0.333,0.449L0.333,0.449z                  M1.113,0.449c0-0.054-0.045-0.098-0.099-0.098                  S0.916,0.394,0.916,0.449c0,0.053,0.045,0.098,0.099,0.098S1.113,0.502,1.113,0.449L1.113,0.449z                  M0.737,0.449                  c0-0.054-0.044-0.098-0.098-0.098S0.541,0.394,0.541,0.449c0,0.053,0.045,0.098,0.099,0.098S0.737,0.502,0.737,0.449L0.737,0.449z                  M0.737,0.831c0-0.054-0.044-0.098-0.098-0.098S0.541,0.777,0.541,0.831c0,0.056,0.045,0.1,0.099,0.1                  C0.692,0.93,0.737,0.886,0.737,0.831L0.737,0.831z"></path>   
            <path class="static_symb_sign_fill_active" d="M0.333,0.449c0-0.054-0.044-0.098-0.099-0.098c-0.053,0-0.098,0.043-0.098,0.098                  c0,0.053,0.044,0.098,0.098,0.098C0.29,0.547,0.333,0.502,0.333,0.449L0.333,0.449z                  M1.113,0.449c0-0.054-0.045-0.098-0.099-0.098                  S0.916,0.394,0.916,0.449c0,0.053,0.045,0.098,0.099,0.098S1.113,0.502,1.113,0.449L1.113,0.449z                  M0.737,0.449                  c0-0.054-0.044-0.098-0.098-0.098S0.541,0.394,0.541,0.449c0,0.053,0.045,0.098,0.099,0.098S0.737,0.502,0.737,0.449L0.737,0.449z                  M0.737,0.831c0-0.054-0.044-0.098-0.098-0.098S0.541,0.777,0.541,0.831c0,0.056,0.045,0.1,0.099,0.1                  C0.692,0.93,0.737,0.886,0.737,0.831L0.737,0.831z"></path>  </g>  
        <g>   
            <text class="static_symb_det_txtbox_txt_stroke" id="textfeld" text-anchor="start" transform="matrix(-1.836970e-016 1 -1 -1.836970e-016 0.1 1.8)">x</text>
            <text class="static_symb_sign_txtbox_txt" id="textfeld" text-anchor="start" transform="matrix(-1.836970e-016 1 -1 -1.836970e-016 0.1 1.8)">x</text>  </g> </g> 
<circle visibility="hidden" id="symbolcenter" r="0.2" cx="0.65" cy="0.55" fill="#FF0000"></circle>
</svg>
