<?xml version="1.0" encoding="utf-8"?>
<!DOCTYPE svg PUBLIC "-//W3C//DTD SVG 1.1//EN" "http://www.w3.org/Graphics/SVG/1.1/DTD/svg11.dtd">
<?xml-stylesheet href="http://plr2-dev/themes/vrsz/images/geoposlib/geopos_symb.css" type="text/css"?>
<svg baseProfile="full" contentScriptType="text/ecmascript" contentStyleType="text/css" enable-background="new 0 0 2.004 2.496" height="2.496px" id="Ebene_1" preserveAspectRatio="xMidYMid meet" version="1.1" viewBox="0 0 2.004 2.496" width="2.004px" x="0px" xml:space="preserve" xmlns="http://www.w3.org/2000/svg" xmlns:xlink="http://www.w3.org/1999/xlink" y="0px" zoomAndPan="magnify"> 
    <style type="text/css">@import url(&quot;/themes/vrsz/images/geoposlib/geopos_symb.css&quot;);</style>  
    <g>  
        <g>   
            <rect class="static_symb_sign_static_fill" height="1.117" id="sign_345_fill" width="1.128" x="0.471"></rect>   
            <rect class="static_symb_sign_static_stroke" height="1.117" width="1.128" x="0.471"></rect>  </g>  
        <g>   
            <path d="M1.227,0.44l0.119-0.118L1.221,0.195L1.085,0.333l0.108,0.108H0.879l0.119-0.119L0.873,0.195                  L0.737,0.333l0.109,0.108H0.729v0.284h0.623V0.44H1.227z                  M1.221,0.23l0.092,0.092l-0.102,0.1l-0.09-0.09L1.221,0.23z M0.873,0.23                  l0.09,0.092l-0.099,0.1l-0.091-0.09L0.873,0.23z                  M0.863,0.8c0,0.023-0.02,0.043-0.045,0.043c-0.024,0-0.045-0.02-0.045-0.043                  c0-0.026,0.021-0.045,0.045-0.045C0.844,0.755,0.863,0.775,0.863,0.8z                  M0.958,0.8c0,0.023-0.021,0.043-0.044,0.043                  c-0.025,0-0.044-0.02-0.044-0.043c0-0.026,0.021-0.045,0.044-0.045C0.938,0.753,0.958,0.775,0.958,0.8z                  M1.309,0.8                  c0,0.023-0.021,0.043-0.045,0.043S1.219,0.824,1.219,0.8c0-0.026,0.021-0.045,0.045-0.045C1.288,0.755,1.309,0.775,1.309,0.8z                  M1.211,0.8c0,0.023-0.02,0.043-0.044,0.043S1.122,0.824,1.122,0.8c0-0.026,0.021-0.045,0.045-0.045                  C1.191,0.753,1.211,0.775,1.211,0.8z"></path>   
            <path class="static_symb_sign_fill_active" d="M1.227,0.44l0.119-0.118L1.221,0.195L1.085,0.333l0.108,0.108H0.879l0.119-0.119L0.873,0.195                  L0.737,0.333l0.109,0.108H0.729v0.284h0.623V0.44H1.227z                  M1.221,0.23l0.092,0.092l-0.102,0.1l-0.09-0.09L1.221,0.23z M0.873,0.23                  l0.09,0.092l-0.099,0.1l-0.091-0.09L0.873,0.23z                  M0.863,0.8c0,0.023-0.02,0.043-0.045,0.043c-0.024,0-0.045-0.02-0.045-0.043                  c0-0.026,0.021-0.045,0.045-0.045C0.844,0.755,0.863,0.775,0.863,0.8z                  M0.958,0.8c0,0.023-0.021,0.043-0.044,0.043                  c-0.025,0-0.044-0.02-0.044-0.043c0-0.026,0.021-0.045,0.044-0.045C0.938,0.753,0.958,0.775,0.958,0.8z                  M1.309,0.8                  c0,0.023-0.021,0.043-0.045,0.043S1.219,0.824,1.219,0.8c0-0.026,0.021-0.045,0.045-0.045C1.288,0.755,1.309,0.775,1.309,0.8z                  M1.211,0.8c0,0.023-0.02,0.043-0.044,0.043S1.122,0.824,1.122,0.8c0-0.026,0.021-0.045,0.045-0.045                  C1.191,0.753,1.211,0.775,1.211,0.8z"></path>  </g>  
        <g>   
            <text class="static_symb_det_txtbox_txt_stroke" id="textfeld" text-anchor="middle" x="1" y="2.65">x</text>
            <text class="static_symb_sign_txtbox_txt" id="textfeld" text-anchor="middle" x="1" y="2.65">x</text>  </g> </g> 
<circle visibility="hidden" id="symbolcenter" r="0.2" cx="1.05" cy="0.55" fill="#FF0000"></circle>
</svg>
