<?xml version="1.0" standalone="no"?><!DOCTYPE svg PUBLIC "-//W3C//DTD SVG 1.1//EN" "http://www.w3.org/Graphics/SVG/1.1/DTD/svg11.dtd">
<?xml-stylesheet href="http://plr2-dev/themes/vrsz/images/geoposlib/geopos_symb.css" type="text/css"?>
<svg baseProfile="full" contentScriptType="text/ecmascript" contentStyleType="text/css" enable-background="new 0 0 4.238 1.426" height="1.426px" id="Ebene_1" preserveAspectRatio="xMidYMid meet" version="1.1" viewBox="0 0 4.238 1.426" width="4.238px" x="0px" xml:space="preserve" xmlns="http://www.w3.org/2000/svg" xmlns:xlink="http://www.w3.org/1999/xlink" y="0px" zoomAndPan="magnify">      
    <style type="text/css">@import url(&quot;/themes/vrsz/images/geoposlib/geopos_symb.css&quot;);</style>       
    <g>           
        <g>                
            <rect class="static_symb_sign_static_fill" height="1.257" id="sign_347_fill" width="1.25" x="0" y="0.169"></rect>                
            <rect class="static_symb_sign_static_stroke" height="1.257" width="1.25" x="0" y="0.169"></rect>  </g>           
        <g>                
            <path d="M0.802,0.68l0.119-0.119L0.796,0.436L0.66,0.571l0.11,0.106H0.455l0.118-0.119L0.447,0.436                  L0.312,0.571l0.109,0.106H0.303v0.284h0.623V0.68H0.802z                  M0.796,0.471l0.09,0.09l-0.1,0.101l-0.09-0.09L0.796,0.471z M0.447,0.471                  l0.092,0.09L0.438,0.661l-0.091-0.09L0.447,0.471z                  M0.439,1.038c0,0.023-0.021,0.045-0.045,0.045c-0.025,0-0.044-0.02-0.044-0.045                  c0-0.024,0.02-0.045,0.044-0.045C0.419,0.995,0.439,1.016,0.439,1.038z                  M0.533,1.038c0,0.023-0.021,0.045-0.044,0.045                  S0.445,1.063,0.445,1.038s0.021-0.045,0.044-0.045C0.513,0.995,0.533,1.016,0.533,1.038z                  M0.883,1.038                  c0,0.023-0.021,0.045-0.044,0.045S0.794,1.063,0.794,1.038s0.021-0.045,0.044-0.045C0.862,0.993,0.883,1.016,0.883,1.038z                  M0.787,1.038c0,0.023-0.02,0.045-0.045,0.045c-0.023,0-0.044-0.021-0.044-0.045c0-0.023,0.021-0.045,0.044-0.045                  C0.767,0.993,0.787,1.016,0.787,1.038z"></path>                
            <path class="static_symb_sign_fill_active" d="M0.802,0.68l0.119-0.119L0.796,0.436L0.66,0.571l0.11,0.106H0.455l0.118-0.119L0.447,0.436L0.312,0.571                  l0.109,0.106H0.303v0.284h0.623V0.68H0.802z                  M0.796,0.471l0.09,0.09l-0.1,0.101l-0.09-0.09L0.796,0.471z M0.447,0.471l0.092,0.09                  L0.438,0.661l-0.091-0.09L0.447,0.471z                  M0.439,1.038c0,0.023-0.021,0.045-0.045,0.045c-0.025,0-0.044-0.02-0.044-0.045                  c0-0.024,0.02-0.045,0.044-0.045C0.419,0.995,0.439,1.016,0.439,1.038z                  M0.533,1.038c0,0.023-0.021,0.045-0.044,0.045                  S0.445,1.063,0.445,1.038s0.021-0.045,0.044-0.045C0.513,0.995,0.533,1.016,0.533,1.038z                  M0.883,1.038                  c0,0.023-0.021,0.045-0.044,0.045S0.794,1.063,0.794,1.038s0.021-0.045,0.044-0.045C0.862,0.993,0.883,1.016,0.883,1.038z                  M0.787,1.038c0,0.023-0.02,0.045-0.045,0.045c-0.023,0-0.044-0.021-0.044-0.045c0-0.023,0.021-0.045,0.044-0.045                  C0.767,0.993,0.787,1.016,0.787,1.038z"></path>  </g>           
        <g>                
            <text class="static_symb_det_txtbox_txt_stroke" id="textfeld" text-anchor="start" x="1.9" y="1.2">x</text>             
            <text class="static_symb_sign_txtbox_txt" id="textfeld" text-anchor="start" x="1.9" y="1.2">x</text>  </g> </g>  
    <circle cx="0.62" cy="0.77" fill="#FF0000" id="symbolcenter" r="0.2" visibility="hidden"></circle> </svg>
