<?xml version="1.0" standalone="no"?><!DOCTYPE svg PUBLIC "-//W3C//DTD SVG 1.1//EN" "http://www.w3.org/Graphics/SVG/1.1/DTD/svg11.dtd">
<?xml-stylesheet href="http://plr2-dev/themes/vrsz/images/geoposlib/geopos_symb.css" type="text/css"?>
<svg baseProfile="full" contentScriptType="text/ecmascript" contentStyleType="text/css" enable-background="new 0 0 3.742 1.209" height="1.209px" id="Ebene_1" preserveAspectRatio="xMidYMid meet" version="1.1" viewBox="0 0 3.742 1.209" width="3.742px" x="0px" xml:space="preserve" xmlns="http://www.w3.org/2000/svg" xmlns:xlink="http://www.w3.org/1999/xlink" y="0px" zoomAndPan="magnify">      
    <style type="text/css">@import url(&quot;/themes/vrsz/images/geoposlib/geopos_symb.css&quot;);</style>       
    <g>           
        <g>                
            <rect class="static_symb_sign_static_fill" height="1.209" id="sign_348_fill" width="1.156" x="0"></rect>                
            <rect class="static_symb_sign_stroke" height="1.209" width="1.155" x="0"></rect>  </g>           
        <g>                
            <path class="static_symb_sign_static_stroke" d="M0.277,0.432c0-0.045-0.037-0.082-0.083-0.082S0.112,0.386,0.112,0.432s0.036,0.083,0.082,0.083                  S0.277,0.477,0.277,0.432L0.277,0.432z                  M1.023,0.435c0-0.046-0.036-0.083-0.082-0.083S0.859,0.389,0.859,0.435                  c0,0.045,0.035,0.082,0.082,0.082C0.986,0.517,1.023,0.479,1.023,0.435L1.023,0.435z                  M0.662,0.438                  c0-0.046-0.035-0.082-0.082-0.082S0.498,0.393,0.498,0.438c0,0.045,0.036,0.082,0.083,0.082S0.662,0.483,0.662,0.438L0.662,0.438z                  M0.662,0.77c0-0.045-0.035-0.082-0.082-0.082S0.498,0.725,0.498,0.77c0,0.046,0.036,0.083,0.083,0.083S0.662,0.814,0.662,0.77                  L0.662,0.77z"></path>                
            <path class="static_symb_sign_fill_active" d="M0.277,0.432c0-0.045-0.037-0.082-0.083-0.082S0.112,0.386,0.112,0.432s0.036,0.083,0.082,0.083                  S0.277,0.477,0.277,0.432L0.277,0.432z                  M1.023,0.435c0-0.046-0.036-0.083-0.082-0.083S0.859,0.389,0.859,0.435                  c0,0.045,0.035,0.082,0.082,0.082C0.986,0.517,1.023,0.479,1.023,0.435L1.023,0.435z                  M0.662,0.438                  c0-0.046-0.035-0.082-0.082-0.082S0.498,0.393,0.498,0.438c0,0.045,0.036,0.082,0.083,0.082S0.662,0.483,0.662,0.438L0.662,0.438z                  M0.662,0.77c0-0.045-0.035-0.082-0.082-0.082S0.498,0.725,0.498,0.77c0,0.046,0.036,0.083,0.083,0.083S0.662,0.814,0.662,0.77                  L0.662,0.77z"></path>  </g>           
        <g>                
            <text class="static_symb_det_txtbox_txt_stroke" id="textfeld" text-anchor="start" x="1.9" y="1.1">x</text>             
            <text class="static_symb_sign_txtbox_txt" id="textfeld" text-anchor="start" x="1.9" y="1.1">x</text>  </g> </g>  
    <circle cx="0.58" cy="0.55" fill="#FF0000" id="symbolcenter" r="0.2" visibility="hidden"></circle> </svg>
