<?xml version="1.0" standalone="no"?><!DOCTYPE svg PUBLIC "-//W3C//DTD SVG 1.1//EN" "http://www.w3.org/Graphics/SVG/1.1/DTD/svg11.dtd">
<?xml-stylesheet href="http://plr2-dev/themes/vrsz/images/geoposlib/geopos_symb.css" type="text/css"?>
<svg baseProfile="full" contentScriptType="text/ecmascript" contentStyleType="text/css" enable-background="new 0 0 1.02 3.771" height="3.771px" id="Ebene_1" preserveAspectRatio="xMidYMid meet" version="1.1" viewBox="0 0 1.02 3.771" width="1.02px" x="0px" xml:space="preserve" xmlns="http://www.w3.org/2000/svg" xmlns:xlink="http://www.w3.org/1999/xlink" y="0px" zoomAndPan="magnify">      
    <style type="text/css">@import url(&quot;/themes/vrsz/images/geoposlib/geopos_symb.css&quot;);</style>       
    <g>           
        <g>                
            <rect class="static_symb_sign_fill_active" height="1.109" id="sign_351_fill" width="1.016" x="0.004" y="0"></rect>                
            <rect class="static_symb_sign_stroke" height="1.109" width="1.016" x="0.004" y="0"></rect>  </g>           
        <g>                
            <path class="static_symb_sign_static_stroke" d="M0.228,0.943L0.794,0.94L0.537,0.594V0.452c0.078-0.019,0.137-0.085,0.137-0.169                  c0-0.097-0.079-0.177-0.177-0.177S0.321,0.184,0.321,0.283c0,0.092,0.069,0.164,0.156,0.173v0.143L0.228,0.943z"></path>                
            <path class="static_symb_sign_static_fill" d="M0.228,0.943L0.794,0.94L0.537,0.594V0.452c0.078-0.019,0.137-0.085,0.137-0.169                  c0-0.097-0.079-0.177-0.177-0.177S0.321,0.184,0.321,0.283c0,0.092,0.069,0.164,0.156,0.173v0.143L0.228,0.943z"></path>  </g>           
        <g>                
            <text class="static_symb_det_txtbox_txt_stroke" id="textfeld" text-anchor="start" transform="matrix(-1.836970e-016 1 -1 -1.836970e-016 0 1.7)">x</text>             
            <text class="static_symb_sign_txtbox_txt" id="textfeld" text-anchor="start" transform="matrix(-1.836970e-016 1 -1 -1.836970e-016 0 1.7)">x</text>  </g> </g>  
    <circle cx="0.51" cy="0.55" fill="#FF0000" id="symbolcenter" r="0.2" visibility="hidden"></circle> </svg>
