<?xml version="1.0" standalone="no"?><!DOCTYPE svg PUBLIC "-//W3C//DTD SVG 1.1//EN" "http://www.w3.org/Graphics/SVG/1.1/DTD/svg11.dtd">
<?xml-stylesheet href="http://plr2-dev/themes/vrsz/images/geoposlib/geopos_symb.css" type="text/css"?>
<svg baseProfile="full" contentScriptType="text/ecmascript" contentStyleType="text/css" enable-background="new 0 0 1.2 3.754" height="3.754px" id="Ebene_1" preserveAspectRatio="xMidYMid meet" version="1.1" viewBox="0 0 1.2 3.754" width="1.2px" x="0px" xml:space="preserve" xmlns="http://www.w3.org/2000/svg" xmlns:xlink="http://www.w3.org/1999/xlink" y="0px" zoomAndPan="magnify">  
  <style type="text/css">@import url(&quot;/themes/vrsz/images/geoposlib/geopos_symb.css&quot;);</style>  
  <g>  
  <g>  
  <rect class="static_symb_sign_fill_active" height="1.116" id="sign_352_fill" width="1.022" x="0.177" y="2.638"></rect>  
  <rect class="static_symb_sign_stroke" height="1.116" width="1.022" x="0.177" y="2.638"></rect>  </g>  
  <g>  
  <path class="static_symb_sign_static_stroke" d="M1.057,3.198c0-0.203-0.164-0.367-0.369-0.367c-0.203,0-0.368,0.164-0.368,0.367  c0,0.202,0.165,0.368,0.368,0.368C0.893,3.566,1.057,3.401,1.057,3.198L1.057,3.198z"></path>  
  <path class="static_symb_sign_static_fill" d="M1.057,3.198c0-0.203-0.164-0.367-0.369-0.367c-0.203,0-0.368,0.164-0.368,0.367  c0,0.202,0.165,0.368,0.368,0.368C0.893,3.566,1.057,3.401,1.057,3.198L1.057,3.198z"></path>  </g>  
  <g>  
  <text class="static_symb_det_txtbox_txt_stroke" id="textfeld" text-anchor="middle" x="0.65" y="2">x</text>
  <text class="static_symb_sign_txtbox_txt" id="textfeld" text-anchor="middle" x="0.65" y="2">x</text>  </g> </g>  
  <circle cx="0.68" cy="3.18" fill="#FF0000" id="symbolcenter" r="0.2" visibility="hidden"></circle> </svg>
