<?xml version="1.0" standalone="no"?><!DOCTYPE svg PUBLIC "-//W3C//DTD SVG 1.1//EN" "http://www.w3.org/Graphics/SVG/1.1/DTD/svg11.dtd">
<?xml-stylesheet href="http://plr2-dev/themes/vrsz/images/geoposlib/geopos_symb.css" type="text/css"?>
<svg baseProfile="full" contentScriptType="text/ecmascript" contentStyleType="text/css" enable-background="new 0 0 3.523 1.207" height="1.207px" id="Ebene_1" preserveAspectRatio="xMidYMid meet" version="1.1" viewBox="0 0 3.523 1.207" width="3.523px" x="0px" xml:space="preserve" xmlns="http://www.w3.org/2000/svg" xmlns:xlink="http://www.w3.org/1999/xlink" y="0px" zoomAndPan="magnify">    
    <style type="text/css">@import url(&quot;/themes/vrsz/images/geoposlib/geopos_symb.css&quot;);</style>     
    <g>     
        <g>     
            <rect class="static_symb_sign_fill_active" height="1.12" id="sign_354_fill" width="1.021" x="0" y="0.079"></rect>     
            <rect class="static_symb_sign_stroke" height="1.12" width="1.021" x="0" y="0.079"></rect>  </g>     
        <g>     
            <path class="static_symb_sign_static_stroke" d="M0.869,0.639c0-0.198-0.16-0.358-0.357-0.358S0.154,0.44,0.154,0.639c0,0.197,0.161,0.359,0.358,0.359                  S0.869,0.838,0.869,0.639L0.869,0.639z"></path>     
            <path class="static_symb_sign_static_fill" d="M0.869,0.639c0-0.198-0.16-0.358-0.357-0.358S0.154,0.44,0.154,0.639c0,0.197,0.161,0.359,0.358,0.359                  S0.869,0.838,0.869,0.639L0.869,0.639z"></path>  </g>     
        <g>     
            <text class="static_symb_det_txtbox_txt_stroke" id="textfeld" text-anchor="start" x="1.7" y="1.15">x</text>   
            <text class="static_symb_sign_txtbox_txt" id="textfeld" text-anchor="start" x="1.7" y="1.15">x</text>  </g> </g>  
    <circle cx="0.52" cy="0.63" fill="#FF0000" id="symbolcenter" r="0.2" visibility="hidden"></circle> </svg>
