<?xml version="1.0" standalone="no"?><!DOCTYPE svg PUBLIC "-//W3C//DTD SVG 1.1//EN" "http://www.w3.org/Graphics/SVG/1.1/DTD/svg11.dtd">
<?xml-stylesheet href="http://plr2-dev/themes/vrsz/images/geoposlib/geopos_symb.css" type="text/css"?>
<svg baseProfile="full" contentScriptType="text/ecmascript" contentStyleType="text/css" enable-background="new 0 0 1.275 4.214" height="4.214px" id="Ebene_1" preserveAspectRatio="xMidYMid meet" version="1.1" viewBox="0 0 1.275 4.214" width="1.275px" x="0px" xml:space="preserve" xmlns="http://www.w3.org/2000/svg" xmlns:xlink="http://www.w3.org/1999/xlink" y="0px" zoomAndPan="magnify">      
    <style type="text/css">@import url(&quot;/themes/vrsz/images/geoposlib/geopos_symb.css&quot;);</style>       
    <g>           
        <g>                
            <rect class="static_symb_sign_fill_active" height="1.146" id="sign_355_fill" width="1.051" x="0.147" y="0"></rect>                
            <rect class="static_symb_sign_stroke" height="1.146" width="1.051" x="0.147" y="0"></rect>  </g>           
        <g>                
            <path class="static_symb_sign_static_stroke" d="M1.051,0.573c0-0.21-0.17-0.379-0.379-0.379S0.294,0.363,0.294,0.573c0,0.209,0.17,0.378,0.379,0.378                  S1.051,0.782,1.051,0.573L1.051,0.573z"></path>                
            <path class="static_symb_sign_static_fill" d="M1.051,0.573c0-0.21-0.17-0.379-0.379-0.379S0.294,0.363,0.294,0.573c0,0.209,0.17,0.378,0.379,0.378                  S1.051,0.782,1.051,0.573L1.051,0.573z"></path>  </g>           
        <g>                
            <text class="static_symb_det_txtbox_txt_stroke" id="textfeld" text-anchor="end" transform="matrix(6.123234e-017 -1 1 6.123234e-017 1.2 1.8)">x</text>             
            <text class="static_symb_sign_txtbox_txt" id="textfeld" text-anchor="end" transform="matrix(6.123234e-017 -1 1 6.123234e-017 1.2 1.8)">x</text>  </g> </g>  
    <circle cx="0.68" cy="0.55" fill="#FF0000" id="symbolcenter" r="0.2" visibility="hidden"></circle> </svg>
