<?xml version="1.0" encoding="utf-8"?>
<!DOCTYPE svg PUBLIC "-//W3C//DTD SVG 1.1//EN" "http://www.w3.org/Graphics/SVG/1.1/DTD/svg11.dtd">
<?xml-stylesheet href="http://plr2-dev/themes/vrsz/images/geoposlib/geopos_symb.css" type="text/css"?>
<svg baseProfile="full" contentScriptType="text/ecmascript" contentStyleType="text/css" enable-background="new 0 0 2.891 3.854" height="3.854px" id="Ebene_1" preserveAspectRatio="xMidYMid meet" version="1.1" viewBox="0 0 2.891 3.854" width="2.891px" x="0px" xml:space="preserve" xmlns="http://www.w3.org/2000/svg" xmlns:xlink="http://www.w3.org/1999/xlink" y="0px" zoomAndPan="magnify"> 
    <style type="text/css">@import url(&quot;/themes/vrsz/images/geoposlib/geopos_symb.css&quot;);</style>  
    <g>  
        <g>   
            <path class="static_symb_sign_fill_active" d="M1.717,1.902L1.456,0.788C1.593,0.719,1.689,0.58,1.689,0.416C1.689,0.187,1.503,0,1.274,0                  C1.045,0,0.858,0.186,0.858,0.416c0,0.159,0.091,0.296,0.222,0.365L0.801,1.902H1.717z" id="sign_357_fill"></path>   
            <path class="static_symb_sign_stroke" d="M1.717,1.902L1.456,0.788C1.593,0.719,1.689,0.58,1.689,0.416C1.689,0.187,1.503,0,1.274,0                  C1.045,0,0.858,0.186,0.858,0.416c0,0.159,0.091,0.296,0.222,0.365L0.801,1.902H1.717z"></path>  </g>  
        <g>   
            <path class="static_symb_sign_static_stroke" d="M2.781,3.855l-0.062-0.02l0.099-0.299H2.659V3.302h0.23v0.232H2.885L2.781,3.855z                  M2.722,3.472 h0.106V3.366H2.722V3.472z"></path>   
            <path class="static_symb_sign_static_fill" d="M2.781,3.855l-0.062-0.02l0.099-0.299H2.659V3.302h0.23v0.232H2.885L2.781,3.855z                  M2.722,3.472h0.106 V3.366H2.722V3.472z"></path>  </g>  
        <g>   
            <text class="static_symb_det_txtbox_txt_stroke" id="textfeld" text-anchor="middle" x="1.3" y="3.5">x</text>
            <text class="static_symb_sign_txtbox_txt" id="textfeld" text-anchor="middle" x="1.3" y="3.5">x</text>  </g> </g> 
<circle visibility="hidden" id="symbolcenter" r="0.2" cx="1.27" cy="1" fill="#FF0000"></circle>
</svg>
