<?xml version="1.0" standalone="no"?><!DOCTYPE svg PUBLIC "-//W3C//DTD SVG 1.1//EN" "http://www.w3.org/Graphics/SVG/1.1/DTD/svg11.dtd">
<?xml-stylesheet href="http://plr2-dev/themes/vrsz/images/geoposlib/geopos_symb.css" type="text/css"?>
<svg baseProfile="full" contentScriptType="text/ecmascript" contentStyleType="text/css" enable-background="new 0 0 2.184 2.439" height="2.439px" id="Ebene_1" preserveAspectRatio="xMidYMid meet" version="1.1" viewBox="0 0 2.184 2.439" width="2.184px" x="0px" xml:space="preserve" xmlns="http://www.w3.org/2000/svg" xmlns:xlink="http://www.w3.org/1999/xlink" y="0px" zoomAndPan="magnify">      
    <style type="text/css">@import url(&quot;/themes/vrsz/images/geoposlib/geopos_symb.css&quot;);</style>       
    <g>           
        <g>                
            <rect class="static_symb_sign_fill_active" height="2.394" id="sign_361_fill" width="0.794" x="1.39" y="0"></rect>                
            <rect class="static_symb_sign_stroke" height="2.394" width="0.794" x="1.39" y="0"></rect>  </g>           
        <g>                
            <path class="static_symb_sign_static_stroke" d="M2.123,0.415c0-0.182-0.146-0.327-0.326-0.327S1.471,0.233,1.471,0.415c0,0.18,0.146,0.326,0.326,0.326                  S2.123,0.594,2.123,0.415L2.123,0.415z                  M2.116,1.182c0-0.18-0.146-0.326-0.326-0.326S1.465,1.003,1.465,1.182                  c0,0.182,0.146,0.327,0.325,0.327C1.97,1.509,2.116,1.362,2.116,1.182L2.116,1.182z                  M2.123,1.968c0-0.18-0.146-0.327-0.326-0.327                  S1.471,1.786,1.471,1.968c0,0.18,0.146,0.324,0.326,0.324C1.978,2.292,2.123,2.146,2.123,1.968L2.123,1.968z"></path>                
            <path class="static_symb_sign_static_fill" d="M2.123,0.415c0-0.182-0.146-0.327-0.326-0.327S1.471,0.233,1.471,0.415                  c0,0.18,0.146,0.326,0.326,0.326S2.123,0.594,2.123,0.415L2.123,0.415z                  M2.116,1.182c0-0.18-0.146-0.326-0.326-0.326                  S1.465,1.003,1.465,1.182c0,0.182,0.146,0.327,0.325,0.327C1.97,1.509,2.116,1.362,2.116,1.182L2.116,1.182z                  M2.123,1.968                  c0-0.18-0.146-0.327-0.326-0.327S1.471,1.786,1.471,1.968c0,0.18,0.146,0.324,0.326,0.324C1.978,2.292,2.123,2.146,2.123,1.968                  L2.123,1.968z"></path>  </g>           
        <g>                
            <text class="static_symb_det_txtbox_txt_stroke" id="textfeld" text-anchor="middle" transform="matrix(-3.828569e-016 -1 1 -3.828569e-016 0.8 1.2)">x</text>             
            <text class="static_symb_sign_txtbox_txt" id="textfeld" text-anchor="middle" transform="matrix(-3.828569e-016 -1 1 -3.828569e-016 0.8 1.2)">x</text>  </g> </g>  
    <circle cx="1.8" cy="1.17" fill="#FF0000" id="symbolcenter" r="0.2" visibility="hidden"></circle> </svg>
