<?xml version="1.0" standalone="no"?><!DOCTYPE svg PUBLIC "-//W3C//DTD SVG 1.1//EN" "http://www.w3.org/Graphics/SVG/1.1/DTD/svg11.dtd">
<?xml-stylesheet href="http://plr2-dev/themes/vrsz/images/geoposlib/geopos_symb.css" type="text/css"?>
<svg baseProfile="full" contentScriptType="text/ecmascript" contentStyleType="text/css" enable-background="new 0 0 1.244 4.104" height="4.104px" id="Ebene_1" preserveAspectRatio="xMidYMid meet" version="1.1" viewBox="0 0 1.244 4.104" width="1.244px" x="0px" xml:space="preserve" xmlns="http://www.w3.org/2000/svg" xmlns:xlink="http://www.w3.org/1999/xlink" y="0px" zoomAndPan="magnify">      
    <style type="text/css">@import url(&quot;/themes/vrsz/images/geoposlib/geopos_symb.css&quot;);</style>       
    <g>           
        <g>                
            <rect class="static_symb_sign_static_fill" height="0.934" id="sign_363_fill" width="0.979" x="0.093" y="0"></rect>                
            <rect class="static_symb_sign_static_stroke" height="0.934" width="0.979" x="0.093" y="0"></rect>  </g>           
        <g>                
            <path d="M0.914,0.425H0.396l0.053-0.032C0.47,0.381,0.479,0.352,0.465,0.33                  C0.454,0.308,0.426,0.302,0.404,0.315L0.201,0.43C0.198,0.432,0.198,0.434,0.196,0.436C0.193,0.439,0.19,0.442,0.188,0.445                  C0.186,0.446,0.184,0.446,0.183,0.448c-0.001,0.001,0,0.004-0.001,0.006c0,0.004,0,0.007-0.001,0.011                  c0,0.003-0.003,0.004-0.003,0.006c0,0.003,0.004,0.004,0.004,0.006c0,0.005,0.001,0.008,0.003,0.012                  c0.001,0.002,0,0.005,0.001,0.007s0.002,0,0.003,0.001C0.192,0.5,0.194,0.503,0.198,0.506C0.2,0.508,0.2,0.511,0.202,0.512                  l0.202,0.116c0.008,0.005,0.014,0.007,0.023,0.007c0.016,0,0.031-0.009,0.04-0.022C0.48,0.588,0.472,0.56,0.45,0.547L0.396,0.516                  h0.519c0.026,0,0.047-0.021,0.047-0.046C0.96,0.446,0.939,0.425,0.914,0.425z"></path>                
            <path class="static_symb_sign_fill_active" d="M0.914,0.425H0.396l0.053-0.032C0.47,0.381,0.479,0.352,0.465,0.33C0.454,0.308,0.426,0.302,0.404,0.315                  L0.201,0.43C0.198,0.432,0.198,0.434,0.196,0.436C0.193,0.439,0.19,0.442,0.188,0.445C0.186,0.446,0.184,0.446,0.183,0.448                  c-0.001,0.001,0,0.004-0.001,0.006c0,0.004,0,0.007-0.001,0.011c0,0.003-0.003,0.004-0.003,0.006c0,0.003,0.004,0.004,0.004,0.006                  c0,0.005,0.001,0.008,0.003,0.012c0.001,0.002,0,0.005,0.001,0.007s0.002,0,0.003,0.001C0.192,0.5,0.194,0.503,0.198,0.506                  C0.2,0.508,0.2,0.511,0.202,0.512l0.202,0.116c0.008,0.005,0.014,0.007,0.023,0.007c0.016,0,0.031-0.009,0.04-0.022                  C0.48,0.588,0.472,0.56,0.45,0.547L0.396,0.516h0.519c0.026,0,0.047-0.021,0.047-0.046C0.96,0.446,0.939,0.425,0.914,0.425z"></path>  </g>           
        <g>                
            <text class="static_symb_det_txtbox_txt_stroke" id="textfeld" text-anchor="start" transform="matrix(-1.836970e-016 1 -1 -1.836970e-016 0.1 1.6)">x</text>             
            <text class="static_symb_sign_txtbox_txt" id="textfeld" text-anchor="start" transform="matrix(-1.836970e-016 1 -1 -1.836970e-016 0.1 1.6)">x</text>  </g> </g>  
    <circle cx="0.6" cy="0.45" fill="#FF0000" id="symbolcenter" r="0.2" visibility="hidden"></circle> </svg>
