<?xml version="1.0" standalone="no"?><!DOCTYPE svg PUBLIC "-//W3C//DTD SVG 1.1//EN" "http://www.w3.org/Graphics/SVG/1.1/DTD/svg11.dtd">
<?xml-stylesheet href="http://plr2-dev/themes/vrsz/images/geoposlib/geopos_symb.css" type="text/css"?>
<svg baseProfile="full" contentScriptType="text/ecmascript" contentStyleType="text/css" enable-background="new 0 0 1.244 3.986" height="3.986px" id="Ebene_1" preserveAspectRatio="xMidYMid meet" version="1.1" viewBox="0 0 1.244 3.986" width="1.244px" x="0px" xml:space="preserve" xmlns="http://www.w3.org/2000/svg" xmlns:xlink="http://www.w3.org/1999/xlink" y="0px" zoomAndPan="magnify">      
    <style type="text/css">@import url(&quot;/themes/vrsz/images/geoposlib/geopos_symb.css&quot;);</style>       
    <g>           
        <g>                
            <rect class="static_symb_sign_static_fill" height="0.934" id="sign_364_fill" width="0.979" x="0.239" y="0"></rect>                
            <rect class="static_symb_sign_static_stroke" height="0.934" width="0.979" x="0.239" y="0"></rect>  </g>           
        <g>                
            <path d="M1.059,0.425H0.541l0.053-0.031c0.021-0.013,0.029-0.041,0.018-0.062                  C0.598,0.309,0.57,0.302,0.548,0.313L0.346,0.428C0.344,0.429,0.344,0.433,0.341,0.435C0.337,0.437,0.335,0.44,0.332,0.443                  C0.331,0.445,0.329,0.445,0.327,0.448c-0.001,0.002,0,0.004,0,0.007C0.326,0.458,0.326,0.46,0.325,0.465                  c0,0.002-0.002,0.003-0.002,0.005c0,0.003,0.002,0.004,0.002,0.007s0.001,0.007,0.003,0.01c0,0.004,0,0.006,0,0.008                  c0.001,0.001,0.003,0.001,0.004,0.003C0.335,0.5,0.338,0.502,0.342,0.506c0.002,0,0.002,0.003,0.004,0.004l0.203,0.116                  c0.01,0.005,0.016,0.006,0.023,0.006c0.015,0,0.031-0.008,0.039-0.022c0.011-0.021,0.006-0.05-0.018-0.063l-0.056-0.03h0.521                  c0.023,0,0.045-0.021,0.045-0.047S1.083,0.425,1.059,0.425z"></path>                
            <path class="static_symb_sign_fill_active" d="M1.059,0.425H0.541l0.053-0.031c0.021-0.013,0.029-0.041,0.018-0.062                  C0.598,0.309,0.57,0.302,0.548,0.313L0.346,0.428C0.344,0.429,0.344,0.433,0.341,0.435C0.337,0.437,0.335,0.44,0.332,0.443                  C0.331,0.445,0.329,0.445,0.327,0.448c-0.001,0.002,0,0.004,0,0.007C0.326,0.458,0.326,0.46,0.325,0.465                  c0,0.002-0.002,0.003-0.002,0.005c0,0.003,0.002,0.004,0.002,0.007s0.001,0.007,0.003,0.01c0,0.004,0,0.006,0,0.008                  c0.001,0.001,0.003,0.001,0.004,0.003C0.335,0.5,0.338,0.502,0.342,0.506c0.002,0,0.002,0.003,0.004,0.004l0.203,0.116                  c0.01,0.005,0.016,0.006,0.023,0.006c0.015,0,0.031-0.008,0.039-0.022c0.011-0.021,0.006-0.05-0.018-0.063l-0.056-0.03h0.521                  c0.023,0,0.045-0.021,0.045-0.047S1.083,0.425,1.059,0.425z"></path>  </g>           
        <g>                
            <text class="static_symb_det_txtbox_txt_stroke" id="textfeld" text-anchor="end" transform="matrix(6.123234e-017 -1 1 6.123234e-017 1.2 1.6)">x</text>             
            <text class="static_symb_sign_txtbox_txt" id="textfeld" text-anchor="end" transform="matrix(6.123234e-017 -1 1 6.123234e-017 1.2 1.6)">x</text>  </g> </g>  
    <circle cx="0.75" cy="0.48" fill="#FF0000" id="symbolcenter" r="0.2" visibility="hidden"></circle> </svg>
