<?xml version="1.0" standalone="no"?><!DOCTYPE svg PUBLIC "-//W3C//DTD SVG 1.1//EN" "http://www.w3.org/Graphics/SVG/1.1/DTD/svg11.dtd">
<?xml-stylesheet href="http://plr2-dev/themes/vrsz/images/geoposlib/geopos_symb.css" type="text/css"?>
<svg baseProfile="full" contentScriptType="text/ecmascript" contentStyleType="text/css" enable-background="new 0 0 3.592 1.203" height="1.203px" id="Ebene_1" preserveAspectRatio="xMidYMid meet" version="1.1" viewBox="0 0 3.592 1.203" width="3.592px" x="0px" xml:space="preserve" xmlns="http://www.w3.org/2000/svg" xmlns:xlink="http://www.w3.org/1999/xlink" y="0px" zoomAndPan="magnify">      
    <style type="text/css">@import url(&quot;/themes/vrsz/images/geoposlib/geopos_symb.css&quot;);</style>       
    <g>           
        <g>                
            <rect class="static_symb_sign_static_fill" height="0.923" id="sign_366_fill" width="0.907" y="0.242"></rect>                
            <rect class="static_symb_sign_static_stroke" height="0.923" width="0.907" y="0.242"></rect>  </g>           
        <g>                
            <path d="M0.814,0.708c0-0.002,0.002-0.003,0.002-0.007c0-0.002-0.002-0.002-0.002-0.004                  C0.813,0.693,0.813,0.691,0.811,0.685c-0.002-0.002,0-0.004-0.002-0.007C0.807,0.676,0.805,0.677,0.805,0.675                  C0.801,0.671,0.799,0.67,0.797,0.667C0.796,0.667,0.796,0.664,0.794,0.663L0.639,0.564c-0.021-0.013-0.05-0.006-0.063,0.014                  C0.564,0.599,0.569,0.628,0.59,0.642l0.023,0.014H0.12c-0.026,0-0.047,0.021-0.047,0.047S0.094,0.75,0.12,0.75h0.493L0.59,0.765                  C0.569,0.777,0.563,0.806,0.576,0.828C0.585,0.842,0.6,0.849,0.615,0.849c0.009,0,0.018-0.004,0.023-0.008L0.794,0.74                  c0.003,0,0.003-0.002,0.005-0.004s0.004-0.004,0.006-0.008c0,0,0.002,0,0.004,0c0.002-0.004,0-0.007,0.002-0.01                  S0.813,0.712,0.814,0.708z"></path>                
            <path class="static_symb_sign_fill_active" d="M0.814,0.708c0-0.002,0.002-0.003,0.002-0.007c0-0.002-0.002-0.002-0.002-0.004                  C0.813,0.693,0.813,0.691,0.811,0.685c-0.002-0.002,0-0.004-0.002-0.007C0.807,0.676,0.805,0.677,0.805,0.675                  C0.801,0.671,0.799,0.67,0.797,0.667C0.796,0.667,0.796,0.664,0.794,0.663L0.639,0.564c-0.021-0.013-0.05-0.006-0.063,0.014                  C0.564,0.599,0.569,0.628,0.59,0.642l0.023,0.014H0.12c-0.026,0-0.047,0.021-0.047,0.047S0.094,0.75,0.12,0.75h0.493L0.59,0.765                  C0.569,0.777,0.563,0.806,0.576,0.828C0.585,0.842,0.6,0.849,0.615,0.849c0.009,0,0.018-0.004,0.023-0.008L0.794,0.74                  c0.003,0,0.003-0.002,0.005-0.004s0.004-0.004,0.006-0.008c0,0,0.002,0,0.004,0c0.002-0.004,0-0.007,0.002-0.01                  S0.813,0.712,0.814,0.708z"></path>  </g>           
        <g>                
            <text class="static_symb_det_txtbox_txt_stroke" id="textfeld" text-anchor="start" x="1.6" y="1.15">x</text>             
            <text class="static_symb_sign_txtbox_txt" id="textfeld" text-anchor="start" x="1.6" y="1.15">x</text>  </g> </g>  
    <circle cx="0.4" cy="0.7" fill="#FF0000" id="symbolcenter" r="0.2" visibility="hidden"></circle> </svg>
