<?xml version="1.0" encoding="utf-8"?>
<!DOCTYPE svg PUBLIC "-//W3C//DTD SVG 1.1//EN" "http://www.w3.org/Graphics/SVG/1.1/DTD/svg11.dtd">
<?xml-stylesheet href="http://plr2-dev/themes/vrsz/images/geoposlib/geopos_symb.css" type="text/css"?>
<svg baseProfile="full" contentScriptType="text/ecmascript" contentStyleType="text/css" enable-background="new 0 0 2.611 2.5" height="2.5px" id="Ebene_1" preserveAspectRatio="xMidYMid meet" version="1.1" viewBox="0 0 2.611 2.5" width="2.611px" x="0px" xml:space="preserve" xmlns="http://www.w3.org/2000/svg" xmlns:xlink="http://www.w3.org/1999/xlink" y="0px" zoomAndPan="magnify"> 
    <style type="text/css">@import url(&quot;/themes/vrsz/images/geoposlib/geopos_symb.css&quot;);</style>  
    <g>  
        <g>   
            <rect class="static_symb_sign_static_fill" height="2.5" id="sign_367_fill" width="1.052" x="0"></rect>   
            <rect class="static_symb_sign_stroke" height="2.5" width="1.052" x="0"></rect>  </g>  
        <g>   
            <path class="static_symb_sign_static_stroke" d="M0.199,1.168c0-0.168,0.138-0.305,0.307-0.305S0.813,1,0.813,1.168c0,0.17-0.138,0.307-0.307,0.307                  C0.337,1.476,0.199,1.338,0.199,1.168z                  M0.52,0.741c0.168,0,0.305-0.137,0.305-0.305c0-0.169-0.136-0.306-0.305-0.306                  S0.214,0.267,0.214,0.436S0.351,0.741,0.52,0.741z                  M0.52,1.665c-0.169,0-0.306,0.137-0.306,0.305c0,0.171,0.137,0.306,0.306,0.306                  c0.168,0,0.305-0.135,0.305-0.306C0.824,1.799,0.688,1.665,0.52,1.665z"></path>   
            <path class="static_symb_sign_fill_active" d="M0.199,1.168c0-0.168,0.138-0.305,0.307-0.305S0.813,1,0.813,1.168c0,0.17-0.138,0.307-0.307,0.307                  C0.337,1.476,0.199,1.338,0.199,1.168z                  M0.52,0.741c0.168,0,0.305-0.137,0.305-0.305c0-0.169-0.136-0.306-0.305-0.306                  S0.214,0.267,0.214,0.436S0.351,0.741,0.52,0.741z                  M0.52,1.665c-0.169,0-0.306,0.137-0.306,0.305c0,0.171,0.137,0.306,0.306,0.306                  c0.168,0,0.305-0.135,0.305-0.306C0.824,1.799,0.688,1.665,0.52,1.665z"></path>  </g>  
        <g>   
            <text class="static_symb_det_txtbox_txt_stroke" id="textfeld" text-anchor="middle" transform="matrix(-3.828569e-016 -1 1 -3.828569e-016 2.55 1.25)">x</text>
            <text class="static_symb_sign_txtbox_txt" id="textfeld" text-anchor="middle" transform="matrix(-3.828569e-016 -1 1 -3.828569e-016 2.55 1.25)">x</text>  </g> </g> 
<circle visibility="hidden" id="symbolcenter" r="0.2" cx="0.5" cy="1.15" fill="#FF0000"></circle>
</svg>
