<?xml version="1.0" standalone="no"?><!DOCTYPE svg PUBLIC "-//W3C//DTD SVG 1.1//EN" "http://www.w3.org/Graphics/SVG/1.1/DTD/svg11.dtd">
<?xml-stylesheet href="http://plr2-dev/themes/vrsz/images/geoposlib/geopos_symb.css" type="text/css"?>
<svg baseProfile="full" contentScriptType="text/ecmascript" contentStyleType="text/css" enable-background="new 0 0 1.137 5.114" height="5.114px" id="Ebene_1" preserveAspectRatio="xMidYMid meet" version="1.1" viewBox="0 0 1.137 5.114" width="1.137px" x="0px" xml:space="preserve" xmlns="http://www.w3.org/2000/svg" xmlns:xlink="http://www.w3.org/1999/xlink" y="0px" zoomAndPan="magnify">      
    <style type="text/css">@import url(&quot;/themes/vrsz/images/geoposlib/geopos_symb.css&quot;);</style>       
    <g>           
        <g>                
            <rect class="static_symb_sign_static_fill" height="2.465" id="sign_368_fill" width="1.074" x="0.063" y="2.65"></rect>                
            <rect class="static_symb_sign_stroke" height="2.465" width="1.074" x="0.063" y="2.65"></rect>  </g>           
        <g>                
            <path class="static_symb_sign_static_stroke" d="M0.929,3.881c0,0.183-0.146,0.328-0.329,0.328S0.271,4.064,0.271,3.881                  c0-0.181,0.146-0.328,0.329-0.328C0.782,3.553,0.929,3.701,0.929,3.881z                  M0.6,3.422c0.183,0.001,0.329-0.146,0.329-0.328                  S0.783,2.767,0.6,2.767S0.271,2.914,0.271,3.094C0.271,3.277,0.418,3.422,0.6,3.422z                  M0.6,4.318c-0.183,0-0.329,0.146-0.329,0.33                  c0,0.183,0.146,0.328,0.329,0.328s0.329-0.148,0.329-0.328C0.929,4.464,0.782,4.318,0.6,4.318z"></path>                
            <path class="static_symb_sign_fill_active" d="M0.929,3.881c0,0.183-0.146,0.328-0.329,0.328S0.271,4.064,0.271,3.881c0-0.181,0.146-0.328,0.329-0.328                  C0.782,3.553,0.929,3.701,0.929,3.881z                  M0.6,3.422c0.183,0.001,0.329-0.146,0.329-0.328S0.783,2.767,0.6,2.767                  S0.271,2.914,0.271,3.094C0.271,3.277,0.418,3.422,0.6,3.422z                  M0.6,4.318c-0.183,0-0.329,0.146-0.329,0.33                  c0,0.183,0.146,0.328,0.329,0.328s0.329-0.148,0.329-0.328C0.929,4.464,0.782,4.318,0.6,4.318z"></path>  </g>           
        <g>                
            <text class="static_symb_det_txtbox_txt_stroke" id="textfeld" text-anchor="start" transform="matrix(-3.828569e-016 -1 1 -3.828569e-016 1.1 2.1)">x</text>             
            <text class="static_symb_sign_txtbox_txt" id="textfeld" text-anchor="start" transform="matrix(-3.828569e-016 -1 1 -3.828569e-016 1.1 2.1)">x</text>  </g> </g>  
    <circle cx="0.6" cy="3.85" fill="#FF0000" id="symbolcenter" r="0.2" visibility="hidden"></circle> </svg>
