<?xml version="1.0" encoding="utf-8"?>
<!DOCTYPE svg PUBLIC "-//W3C//DTD SVG 1.1//EN" "http://www.w3.org/Graphics/SVG/1.1/DTD/svg11.dtd">
<?xml-stylesheet href="http://plr2-dev/themes/vrsz/images/geoposlib/geopos_symb.css" type="text/css"?>
<svg baseProfile="full" contentScriptType="text/ecmascript" contentStyleType="text/css" enable-background="new 0 0 2.391 2.645" height="2.645px" id="Ebene_1" preserveAspectRatio="xMidYMid meet" version="1.1" viewBox="0 0 2.391 2.645" width="2.391px" x="0px" xml:space="preserve" xmlns="http://www.w3.org/2000/svg" xmlns:xlink="http://www.w3.org/1999/xlink" y="0px" zoomAndPan="magnify"> 
    <style type="text/css">@import url(&quot;/themes/vrsz/images/geoposlib/geopos_symb.css&quot;);</style>  
    <g>  
        <g>   
            <rect class="static_symb_sign_static_fill" height="1.104" id="sign_370_fill" width="1.078" x="0.694" y="0"></rect>   
            <rect class="static_symb_sign_static_stroke" height="1.104" width="1.078" x="0.694" y="0"></rect>  </g>  
        <g>   
            <path class="static_symb_sign_stroke" d="M1.21,0.933c-0.017,0-0.029-0.014-0.029-0.03V0.425l-0.031,0.08C1.142,0.52,1.124,0.529,1.108,0.522                  C1.093,0.516,1.084,0.498,1.09,0.483l0.094-0.236c0.001-0.004,0.003-0.007,0.005-0.01l0,0l0,0l0,0l0,0                  c0,0,0.001-0.001,0.003-0.002l0,0l0,0c0.005-0.007,0.012-0.009,0.02-0.009l0,0l0,0c0.001-0.001,0.001,0,0.002,0l0,0l0,0                  c0.01,0,0.017,0.003,0.021,0.01l0,0l0,0l0,0l0,0l0,0l0,0l0,0l0,0c0,0,0,0,0.001,0.001l0,0l0,0l0,0l0,0l0,0l0,0                  c0,0.002,0.002,0.005,0.003,0.007l0.114,0.235c0.007,0.017,0.001,0.033-0.017,0.042C1.322,0.53,1.304,0.523,1.297,0.508                  L1.242,0.394v0.509C1.242,0.918,1.228,0.933,1.21,0.933z"></path>   
            <path class="static_symb_sign_fill_active" d="M1.21,0.933c-0.017,0-0.029-0.014-0.029-0.03V0.425l-0.031,0.08C1.142,0.52,1.124,0.529,1.108,0.522                  C1.093,0.516,1.084,0.498,1.09,0.483l0.094-0.236c0.001-0.004,0.003-0.007,0.005-0.01l0,0l0,0l0,0l0,0                  c0,0,0.001-0.001,0.003-0.002l0,0l0,0c0.005-0.007,0.012-0.009,0.02-0.009l0,0l0,0c0.001-0.001,0.001,0,0.002,0l0,0l0,0                  c0.01,0,0.017,0.003,0.021,0.01l0,0l0,0l0,0l0,0l0,0l0,0l0,0l0,0c0,0,0,0,0.001,0.001l0,0l0,0l0,0l0,0l0,0l0,0                  c0,0.002,0.002,0.005,0.003,0.007l0.114,0.235c0.007,0.017,0.001,0.033-0.017,0.042C1.322,0.53,1.304,0.523,1.297,0.508                  L1.242,0.394v0.509C1.242,0.918,1.228,0.933,1.21,0.933z"></path>  </g>  
        <g>   
            <text class="static_symb_det_txtbox_txt_stroke" id="textfeld" text-anchor="middle" x="1.2" y="2.65">x</text>
            <text class="static_symb_sign_txtbox_txt" id="textfeld" text-anchor="middle" x="1.2" y="2.65">x</text>  </g> </g> 
<circle visibility="hidden" id="symbolcenter" r="0.2" cx="1.25" cy="0.55" fill="#FF0000"></circle>
</svg>
