<?xml version="1.0" standalone="no"?><!DOCTYPE svg PUBLIC "-//W3C//DTD SVG 1.1//EN" "http://www.w3.org/Graphics/SVG/1.1/DTD/svg11.dtd">
<?xml-stylesheet href="http://plr2-dev/themes/vrsz/images/geoposlib/geopos_symb.css" type="text/css"?>
<svg baseProfile="full" contentScriptType="text/ecmascript" contentStyleType="text/css" enable-background="new 0 0 4.344 1.329" height="1.329px" id="Ebene_1" preserveAspectRatio="xMidYMid meet" version="1.1" viewBox="0 0 4.344 1.329" width="4.344px" x="0px" xml:space="preserve" xmlns="http://www.w3.org/2000/svg" xmlns:xlink="http://www.w3.org/1999/xlink" y="0px" zoomAndPan="magnify">    
    <style type="text/css">@import url(&quot;/themes/vrsz/images/geoposlib/geopos_symb.css&quot;);</style>     
    <g>     
        <g>     
            <rect class="static_symb_sign_static_fill" height="1.256" id="sign_371_fill" width="1.164" x="3.18" y="0.072"></rect>     
            <rect class="static_symb_sign_static_stroke" height="1.256" width="1.164" x="3.18" y="0.072"></rect>  </g>     
        <g>     
            <path class="static_symb_sign_stroke" d="M4.158,0.725c0-0.22-0.178-0.396-0.396-0.396c-0.22,0-0.397,0.178-0.397,0.396                  S3.542,1.12,3.761,1.12C3.979,1.12,4.158,0.942,4.158,0.725L4.158,0.725z"></path>     
            <path class="static_symb_sign_fill_active" d="M4.158,0.725c0-0.22-0.178-0.396-0.396-0.396c-0.22,0-0.397,0.178-0.397,0.396S3.542,1.12,3.761,1.12                  C3.979,1.12,4.158,0.942,4.158,0.725L4.158,0.725z"></path>  </g>     
        <g>     
            <text class="static_symb_det_txtbox_txt_stroke" id="textfeld" text-anchor="end" x="2.4" y="1.15">x</text>   
            <text class="static_symb_sign_txtbox_txt" id="textfeld" text-anchor="end" x="2.4" y="1.15">x</text>  </g> </g>  
    <circle cx="3.76" cy="0.72" fill="#FF0000" id="symbolcenter" r="0.2" visibility="hidden"></circle> </svg>
