<?xml version="1.0" standalone="no"?><!DOCTYPE svg PUBLIC "-//W3C//DTD SVG 1.1//EN" "http://www.w3.org/Graphics/SVG/1.1/DTD/svg11.dtd">
<?xml-stylesheet href="http://plr2-dev/themes/vrsz/images/geoposlib/geopos_symb.css" type="text/css"?>
<svg baseProfile="full" contentScriptType="text/ecmascript" contentStyleType="text/css" enable-background="new 0 0 3.875 1.951" height="1.951px" id="Ebene_1" preserveAspectRatio="xMidYMid meet" version="1.1" viewBox="0 0 3.875 1.951" width="3.875px" x="0px" xml:space="preserve" xmlns="http://www.w3.org/2000/svg" xmlns:xlink="http://www.w3.org/1999/xlink" y="0px" zoomAndPan="magnify">      
    <style type="text/css">@import url(&quot;/themes/vrsz/images/geoposlib/geopos_symb.css&quot;);</style>       
    <g>           
        <g>                
            <path class="static_symb_sign_fill_active" d="M3.876,1.897l-0.25-1.104c0.14-0.068,0.238-0.211,0.238-0.377C3.865,0.187,3.678,0,3.449,0                  C3.22,0,3.033,0.187,3.033,0.416c0,0.155,0.09,0.291,0.219,0.362L2.96,1.899h0.916V1.897L3.876,1.897z" id="sign_374_fill"></path>                
            <path class="static_symb_sign_stroke" d="M3.876,1.897l-0.25-1.104c0.14-0.068,0.238-0.211,0.238-0.377C3.865,0.187,3.678,0,3.449,0                  C3.22,0,3.033,0.187,3.033,0.416c0,0.155,0.09,0.291,0.219,0.362L2.96,1.899h0.916V1.897L3.876,1.897z"></path>  </g>           
        <g>                
            <text class="static_symb_det_txtbox_txt_stroke" id="textfeld" text-anchor="end" x="2.2" y="1.5">x</text>             
            <text class="static_symb_sign_txtbox_txt" id="textfeld" text-anchor="end" x="2.2" y="1.5">x</text>  </g> </g>  
    <circle cx="3.45" cy="1" fill="#FF0000" id="symbolcenter" r="0.2" visibility="hidden"></circle> </svg>
