<?xml version="1.0" standalone="no"?><!DOCTYPE svg PUBLIC "-//W3C//DTD SVG 1.1//EN" "http://www.w3.org/Graphics/SVG/1.1/DTD/svg11.dtd">
<?xml-stylesheet href="http://plr2-dev/themes/vrsz/images/geoposlib/geopos_symb.css" type="text/css"?>
<svg baseProfile="full" contentScriptType="text/ecmascript" contentStyleType="text/css" enable-background="new 0 0 3.813 1.896" height="1.896px" id="Ebene_1" preserveAspectRatio="xMidYMid meet" version="1.1" viewBox="0 0 3.813 1.896" width="3.813px" x="0px" xml:space="preserve" xmlns="http://www.w3.org/2000/svg" xmlns:xlink="http://www.w3.org/1999/xlink" y="0px" zoomAndPan="magnify">      
    <style type="text/css">@import url(&quot;/themes/vrsz/images/geoposlib/geopos_symb.css&quot;);</style>       
    <g>           
        <g>                
            <path class="static_symb_sign_fill_active" d="M0.917,1.898l-0.25-1.107c0.14-0.066,0.239-0.208,0.239-0.375C0.906,0.185,0.719,0,0.489,0                  C0.259,0,0.073,0.185,0.073,0.416c0,0.156,0.088,0.292,0.217,0.363L0,1.898H0.917z" id="sign_375_fill"></path>                
            <path class="static_symb_sign_stroke" d="M0.917,1.898l-0.25-1.107c0.14-0.066,0.239-0.208,0.239-0.375C0.906,0.185,0.719,0,0.489,0                  C0.259,0,0.073,0.185,0.073,0.416c0,0.156,0.088,0.292,0.217,0.363L0,1.898H0.917z"></path>  </g>           
        <g>                
            <text class="static_symb_det_txtbox_txt_stroke" id="textfeld" text-anchor="start" x="1.6" y="1.5">x</text>             
            <text class="static_symb_sign_txtbox_txt" id="textfeld" text-anchor="start" x="1.6" y="1.5">x</text>  </g> </g>  
    <circle cx="0.5" cy="1" fill="#FF0000" id="symbolcenter" r="0.2" visibility="hidden"></circle> </svg>
