<?xml version="1.0" standalone="no"?><!DOCTYPE svg PUBLIC "-//W3C//DTD SVG 1.1//EN" "http://www.w3.org/Graphics/SVG/1.1/DTD/svg11.dtd">
<?xml-stylesheet href="http://plr2-dev/themes/vrsz/images/geoposlib/geopos_symb.css" type="text/css"?>
<svg baseProfile="full" contentScriptType="text/ecmascript" contentStyleType="text/css" enable-background="new 0 0 4.043 2.033" height="2.033px" id="Ebene_1" preserveAspectRatio="xMidYMid meet" version="1.1" viewBox="0 0 4.043 2.033" width="4.043px" x="0px" xml:space="preserve" xmlns="http://www.w3.org/2000/svg" xmlns:xlink="http://www.w3.org/1999/xlink" y="0px" zoomAndPan="magnify">      
    <style type="text/css">@import url(&quot;/themes/vrsz/images/geoposlib/geopos_symb.css&quot;);</style>       
    <g>           
        <g>                
            <path class="static_symb_sign_fill_active" d="M4.043,1.902L3.78,0.787C3.918,0.721,4.015,0.58,4.015,0.416C4.015,0.186,3.828,0,3.599,0                  S3.183,0.186,3.183,0.416c0,0.157,0.092,0.295,0.223,0.363l-0.28,1.122L4.043,1.902L4.043,1.902L4.043,1.902z" id="sign_376_fill"></path>                
            <path class="static_symb_sign_stroke" d="M4.043,1.902L3.78,0.787C3.918,0.721,4.015,0.58,4.015,0.416C4.015,0.186,3.828,0,3.599,0                  S3.183,0.186,3.183,0.416c0,0.157,0.092,0.295,0.223,0.363l-0.28,1.122L4.043,1.902L4.043,1.902L4.043,1.902z"></path>  </g>           
        <g>                
            <path class="static_symb_sign_static_stroke" d="M2.776,2.033l-0.06-0.02l0.1-0.299H2.66v-0.23H2.89v0.23H2.883L2.776,2.033z                  M2.723,1.653h0.105 V1.547H2.723V1.653z"></path>                
            <path class="static_symb_sign_static_fill" d="M2.776,2.033l-0.06-0.02l0.1-0.299H2.66v-0.23H2.89v0.23H2.883L2.776,2.033z                  M2.723,1.653h0.105 V1.547H2.723V1.653z"></path>  </g>           
        <g>                
            <text class="static_symb_det_txtbox_txt_stroke" id="textfeld" text-anchor="end" x="2.1" y="1.3">x</text>             
            <text class="static_symb_sign_txtbox_txt" id="textfeld" text-anchor="end" x="2.1" y="1.3">x</text>  </g> </g>  
    <circle cx="3.6" cy="1" fill="#FF0000" id="symbolcenter" r="0.2" visibility="hidden"></circle> </svg>
