<?xml version="1.0" standalone="no"?><!DOCTYPE svg PUBLIC "-//W3C//DTD SVG 1.1//EN" "http://www.w3.org/Graphics/SVG/1.1/DTD/svg11.dtd">
<?xml-stylesheet href="http://plr2-dev/themes/vrsz/images/geoposlib/geopos_symb.css" type="text/css"?>
<svg baseProfile="full" contentScriptType="text/ecmascript" contentStyleType="text/css" enable-background="new 0 0 4.041 1.992" height="1.992px" id="Ebene_1" preserveAspectRatio="xMidYMid meet" version="1.1" viewBox="0 0 4.041 1.992" width="4.041px" x="0px" xml:space="preserve" xmlns="http://www.w3.org/2000/svg" xmlns:xlink="http://www.w3.org/1999/xlink" y="0px" zoomAndPan="magnify">      
    <style type="text/css">@import url(&quot;/themes/vrsz/images/geoposlib/geopos_symb.css&quot;);</style>       
    <g>           
        <g>                
            <path class="static_symb_sign_fill_active" d="M0.917,1.902l-0.26-1.114c0.137-0.066,0.233-0.207,0.233-0.372C0.891,0.188,0.704,0,0.476,0                  C0.246,0,0.06,0.188,0.06,0.417c0,0.158,0.09,0.295,0.221,0.364L0.001,1.902H0.917z" id="sign_377_fill"></path>                
            <path class="static_symb_sign_stroke" d="M0.917,1.902l-0.26-1.114c0.137-0.066,0.233-0.207,0.233-0.372C0.891,0.188,0.704,0,0.476,0                  C0.246,0,0.06,0.188,0.06,0.417c0,0.158,0.09,0.295,0.221,0.364L0.001,1.902H0.917z"></path>  </g>           
        <g>                
            <path class="static_symb_sign_static_stroke" d="M3.925,1.992l-0.059-0.02l0.1-0.299H3.811V1.442H4.04v0.233H4.03L3.925,1.992z                  M3.874,1.613h0.105 V1.505H3.874V1.613z"></path>                
            <path class="static_symb_sign_static_fill" d="M3.925,1.992l-0.059-0.02l0.1-0.299H3.811V1.442H4.04v0.233H4.03L3.925,1.992z                  M3.874,1.613h0.105 V1.505H3.874V1.613z"></path>  </g>           
        <g>                
            <text class="static_symb_det_txtbox_txt_stroke" id="textfeld" text-anchor="start" x="1.6" y="1.3">x</text>              
            <text class="static_symb_sign_txtbox_txt" id="textfeld" text-anchor="start" x="1.6" y="1.3">x</text>  </g> </g>  
    <circle cx="0.5" cy="1" fill="#FF0000" id="symbolcenter" r="0.2" visibility="hidden"></circle> </svg>
