<?xml version="1.0" standalone="no"?><!DOCTYPE svg PUBLIC "-//W3C//DTD SVG 1.1//EN" "http://www.w3.org/Graphics/SVG/1.1/DTD/svg11.dtd">
<?xml-stylesheet href="http://plr2-dev/themes/vrsz/images/geoposlib/geopos_symb.css" type="text/css"?>
<svg baseProfile="full" contentScriptType="text/ecmascript" contentStyleType="text/css" enable-background="new 0 0 4.057 1.594" height="1.594px" id="Ebene_1" preserveAspectRatio="xMidYMid meet" version="1.1" viewBox="0 0 4.057 1.594" width="4.057px" x="0px" xml:space="preserve" xmlns="http://www.w3.org/2000/svg" xmlns:xlink="http://www.w3.org/1999/xlink" y="0px" zoomAndPan="magnify">    
    <style type="text/css">@import url(&quot;/themes/vrsz/images/geoposlib/geopos_symb.css&quot;);</style>     
    <g>     
        <g>     
            <rect class="static_symb_sign_static_fill" height="1.127" id="sign_379_fill" width="1.262" x="2.764" y="0.357"></rect>     
            <rect class="static_symb_sign_static_stroke" height="1.127" width="1.262" x="2.764" y="0.357"></rect>  </g>     
        <g>     
            <path class="static_symb_sign_stroke" d="M4.023,1.514c-0.01,0-0.017-0.002-0.021-0.009L3.393,0.961L2.784,1.505                  C2.771,1.516,2.752,1.516,2.74,1.503S2.729,1.471,2.743,1.459l0.604-0.54l-0.604-0.54C2.73,0.368,2.728,0.349,2.74,0.336                  c0.011-0.013,0.031-0.014,0.045-0.003l0.609,0.545l0.608-0.545c0.012-0.011,0.032-0.01,0.044,0.003                  C4.059,0.348,4.059,0.368,4.044,0.38L3.44,0.92l0.604,0.541c0.013,0.01,0.016,0.03,0.004,0.043                  C4.041,1.51,4.033,1.514,4.023,1.514z"></path>     
            <path class="static_symb_sign_fill_active" d="M4.023,1.514c-0.01,0-0.017-0.002-0.021-0.009L3.393,0.961L2.784,1.505                  C2.771,1.516,2.752,1.516,2.74,1.503S2.729,1.471,2.743,1.459l0.604-0.54l-0.604-0.54C2.73,0.368,2.728,0.349,2.74,0.336                  c0.011-0.013,0.031-0.014,0.045-0.003l0.609,0.545l0.608-0.545c0.012-0.011,0.032-0.01,0.044,0.003                  C4.059,0.348,4.059,0.368,4.044,0.38L3.44,0.92l0.604,0.541c0.013,0.01,0.016,0.03,0.004,0.043                  C4.041,1.51,4.033,1.514,4.023,1.514z"></path>  </g>     
        <g>     
            <text class="static_symb_det_txtbox_txt_stroke" id="textfeld" text-anchor="end" x="2" y="1.4">x</text>   
            <text class="static_symb_sign_txtbox_txt" id="textfeld" text-anchor="end" x="2" y="1.4">x</text>  </g> </g>  
    <circle cx="3.4" cy="0.9" fill="#FF0000" id="symbolcenter" r="0.2" visibility="hidden"></circle> </svg>
