<?xml version="1.0" standalone="no"?><!DOCTYPE svg PUBLIC "-//W3C//DTD SVG 1.1//EN" "http://www.w3.org/Graphics/SVG/1.1/DTD/svg11.dtd">
<?xml-stylesheet href="http://plr2-dev/themes/vrsz/images/geoposlib/geopos_symb.css" type="text/css"?>
<svg baseProfile="full" contentScriptType="text/ecmascript" contentStyleType="text/css" enable-background="new 0 0 4.066 1.594" height="1.594px" id="Ebene_1" preserveAspectRatio="xMidYMid meet" version="1.1" viewBox="0 0 4.066 1.594" width="4.066px" x="0px" xml:space="preserve" xmlns="http://www.w3.org/2000/svg" xmlns:xlink="http://www.w3.org/1999/xlink" y="0px" zoomAndPan="magnify">    
    <style type="text/css">@import url(&quot;/themes/vrsz/images/geoposlib/geopos_symb.css&quot;);</style>     
    <g>     
        <g>     
            <rect class="static_symb_sign_static_fill" height="1.125" id="sign_380_fill" width="1.26" x="0.031" y="0.368"></rect>     
            <rect class="static_symb_sign_static_stroke" height="1.125" width="1.26" x="0.031" y="0.368"></rect>  </g>     
        <g>     
            <path class="static_symb_sign_stroke" d="M1.29,1.526c-0.008,0-0.015-0.005-0.021-0.011L0.66,0.973L0.052,1.518                  C0.038,1.529,0.02,1.528,0.007,1.516c-0.011-0.014-0.01-0.031,0.003-0.045l0.604-0.539L0.01,0.392                  C-0.003,0.38-0.004,0.36,0.007,0.347C0.02,0.334,0.038,0.333,0.052,0.344L0.66,0.889L1.27,0.344                  c0.013-0.011,0.031-0.01,0.044,0.002C1.324,0.36,1.324,0.379,1.312,0.391L0.707,0.932l0.604,0.541                  c0.012,0.012,0.013,0.03,0.002,0.043C1.307,1.521,1.299,1.526,1.29,1.526z"></path>     
            <path class="static_symb_sign_fill_active" d="M1.29,1.526c-0.008,0-0.015-0.005-0.021-0.011L0.66,0.973L0.052,1.518                  C0.038,1.529,0.02,1.528,0.007,1.516c-0.011-0.014-0.01-0.031,0.003-0.045l0.604-0.539L0.01,0.392                  C-0.003,0.38-0.004,0.36,0.007,0.347C0.02,0.334,0.038,0.333,0.052,0.344L0.66,0.889L1.27,0.344                  c0.013-0.011,0.031-0.01,0.044,0.002C1.324,0.36,1.324,0.379,1.312,0.391L0.707,0.932l0.604,0.541                  c0.012,0.012,0.013,0.03,0.002,0.043C1.307,1.521,1.299,1.526,1.29,1.526z"></path>  </g>     
        <g>     
            <text class="static_symb_det_txtbox_txt_stroke" id="textfeld" text-anchor="start" x="1.9" y="1.5">x</text>   
            <text class="static_symb_sign_txtbox_txt" id="textfeld" text-anchor="start" x="1.9" y="1.5">x</text>  </g> </g>  
    <circle cx="0.67" cy="0.92" fill="#FF0000" id="symbolcenter" r="0.2" visibility="hidden"></circle> </svg>
