<?xml version="1.0" standalone="no"?><!DOCTYPE svg PUBLIC "-//W3C//DTD SVG 1.1//EN" "http://www.w3.org/Graphics/SVG/1.1/DTD/svg11.dtd">
<?xml-stylesheet href="http://plr2-dev/themes/vrsz/images/geoposlib/geopos_symb.css" type="text/css"?>
<svg baseProfile="full" contentScriptType="text/ecmascript" contentStyleType="text/css" enable-background="new 0 0 4.004 1.594" height="1.594px" id="Ebene_1" preserveAspectRatio="xMidYMid meet" version="1.1" viewBox="0 0 4.004 1.594" width="4.004px" x="0px" xml:space="preserve" xmlns="http://www.w3.org/2000/svg" xmlns:xlink="http://www.w3.org/1999/xlink" y="0px" zoomAndPan="magnify">    
    <style type="text/css">@import url(&quot;/themes/vrsz/images/geoposlib/geopos_symb.css&quot;);</style>     
    <g>     
        <g>     
            <rect class="static_symb_sign_static_fill" height="1.127" id="sign_381_fill" width="1.262" x="2.743" y="0.368"></rect>     
            <rect class="static_symb_sign_static_stroke" height="1.127" width="1.262" x="2.743" y="0.368"></rect>  </g>     
        <g>     
            <path class="static_symb_sign_stroke" d="M3.372,1.374c-0.019,0-0.03-0.014-0.03-0.029V0.705L3.198,0.94                  c-0.01,0.015-0.031,0.019-0.043,0.011c-0.014-0.01-0.021-0.029-0.011-0.043l0.201-0.33c0-0.002,0.002-0.004,0.006-0.006l0,0l0,0                  C3.354,0.57,3.355,0.568,3.357,0.566l0,0l0,0c0.003,0,0.007-0.002,0.009-0.003l0,0l0,0c0.002,0,0.006-0.001,0.01-0.001l0,0l0,0                  c0.002,0,0.006,0,0.011,0.001l0,0l0,0c0,0,0.002,0.002,0.004,0.003C3.393,0.568,3.395,0.57,3.396,0.572S3.4,0.576,3.403,0.58                  l0.198,0.328c0.011,0.014,0.004,0.035-0.01,0.043C3.577,0.959,3.558,0.955,3.549,0.94L3.405,0.705v0.637                  C3.405,1.36,3.391,1.374,3.372,1.374z"></path>     
            <path class="static_symb_sign_fill_active" d="M3.372,1.374c-0.019,0-0.03-0.014-0.03-0.029V0.705L3.198,0.94c-0.01,0.015-0.031,0.019-0.043,0.011                  c-0.014-0.01-0.021-0.029-0.011-0.043l0.201-0.33c0-0.002,0.002-0.004,0.006-0.006l0,0l0,0C3.354,0.57,3.355,0.568,3.357,0.566                  l0,0l0,0c0.003,0,0.007-0.002,0.009-0.003l0,0l0,0c0.002,0,0.006-0.001,0.01-0.001l0,0l0,0c0.002,0,0.006,0,0.011,0.001l0,0l0,0                  c0,0,0.002,0.002,0.004,0.003C3.393,0.568,3.395,0.57,3.396,0.572S3.4,0.576,3.403,0.58l0.198,0.328                  c0.011,0.014,0.004,0.035-0.01,0.043C3.577,0.959,3.558,0.955,3.549,0.94L3.405,0.705v0.637C3.405,1.36,3.391,1.374,3.372,1.374z"></path>  </g>     
        <g>     
            <text class="static_symb_det_txtbox_txt_stroke" id="textfeld" text-anchor="end" x="2" y="1.5">x</text>   
            <text class="static_symb_sign_txtbox_txt" id="textfeld" text-anchor="end" x="2" y="1.5">x</text>  </g> </g>  
    <circle cx="3.38" cy="0.95" fill="#FF0000" id="symbolcenter" r="0.2" visibility="hidden"></circle> </svg>
