<?xml version="1.0" standalone="no"?><!DOCTYPE svg PUBLIC "-//W3C//DTD SVG 1.1//EN" "http://www.w3.org/Graphics/SVG/1.1/DTD/svg11.dtd">
<?xml-stylesheet href="http://plr2-dev/themes/vrsz/images/geoposlib/geopos_symb.css" type="text/css"?>
<svg baseProfile="full" contentScriptType="text/ecmascript" contentStyleType="text/css" enable-background="new 0 0 1.244 3.986" height="3.986px" id="Ebene_1" preserveAspectRatio="xMidYMid meet" version="1.1" viewBox="0 0 1.244 3.986" width="1.244px" x="0px" xml:space="preserve" xmlns="http://www.w3.org/2000/svg" xmlns:xlink="http://www.w3.org/1999/xlink" y="0px" zoomAndPan="magnify">      
    <style type="text/css">@import url(&quot;/themes/vrsz/images/geoposlib/geopos_symb.css&quot;);</style>       
    <g>           
        <g>                
            <rect class="static_symb_sign_static_fill" height="0.934" id="sign_383_fill" width="0.978" x="0.238" y="0"></rect>                
            <rect class="static_symb_sign_static_stroke" height="0.934" width="0.978" x="0.238" y="0"></rect>  </g>           
        <g>                
            <path d="M1.13,0.469c0-0.002,0.003-0.004,0.003-0.006S1.13,0.459,1.13,0.457                  C1.128,0.453,1.128,0.45,1.126,0.448c-0.001-0.005,0-0.007-0.001-0.009S1.122,0.437,1.121,0.436                  C1.118,0.433,1.117,0.429,1.113,0.427C1.111,0.426,1.111,0.424,1.107,0.423L0.906,0.305C0.884,0.295,0.855,0.302,0.844,0.323                  C0.831,0.344,0.838,0.374,0.859,0.385l0.054,0.032H0.396c-0.025,0-0.046,0.02-0.046,0.046c0,0.025,0.021,0.046,0.046,0.046h0.518                  L0.859,0.541C0.838,0.552,0.831,0.582,0.844,0.603c0.008,0.014,0.024,0.023,0.039,0.023c0.01,0,0.016-0.002,0.023-0.006                  l0.201-0.117C1.111,0.502,1.111,0.5,1.113,0.499c0.004-0.003,0.006-0.006,0.009-0.01c0-0.004,0.004-0.003,0.004-0.005                  c0.002-0.002,0-0.004,0-0.006C1.128,0.476,1.128,0.473,1.13,0.469z"></path>                
            <path class="static_symb_sign_fill_active" d="M1.13,0.469c0-0.002,0.003-0.004,0.003-0.006S1.13,0.459,1.13,0.457C1.128,0.453,1.128,0.45,1.126,0.448                  c-0.001-0.005,0-0.007-0.001-0.009S1.122,0.437,1.121,0.436C1.118,0.433,1.117,0.429,1.113,0.427                  C1.111,0.426,1.111,0.424,1.107,0.423L0.906,0.305C0.884,0.295,0.855,0.302,0.844,0.323C0.831,0.344,0.838,0.374,0.859,0.385                  l0.054,0.032H0.396c-0.025,0-0.046,0.02-0.046,0.046c0,0.025,0.021,0.046,0.046,0.046h0.518L0.859,0.541                  C0.838,0.552,0.831,0.582,0.844,0.603c0.008,0.014,0.024,0.023,0.039,0.023c0.01,0,0.016-0.002,0.023-0.006l0.201-0.117                  C1.111,0.502,1.111,0.5,1.113,0.499c0.004-0.003,0.006-0.006,0.009-0.01c0-0.004,0.004-0.003,0.004-0.005                  c0.002-0.002,0-0.004,0-0.006C1.128,0.476,1.128,0.473,1.13,0.469z"></path>  </g>           
        <g>                
            <text class="static_symb_det_txtbox_txt_stroke" id="textfeld" text-anchor="end" transform="matrix(2.832769e-016 -1 1 2.832769e-016 1.2 1.6)">x</text>             
            <text class="static_symb_sign_txtbox_txt" id="textfeld" text-anchor="end" transform="matrix(2.832769e-016 -1 1 2.832769e-016 1.2 1.6)">x</text>  </g> </g>  
    <circle cx="0.7" cy="0.47" fill="#FF0000" id="symbolcenter" r="0.2" visibility="hidden"></circle> </svg>
