<?xml version="1.0" standalone="no"?><!DOCTYPE svg PUBLIC "-//W3C//DTD SVG 1.1//EN" "http://www.w3.org/Graphics/SVG/1.1/DTD/svg11.dtd">
<?xml-stylesheet href="http://plr2-dev/themes/vrsz/images/geoposlib/geopos_symb.css" type="text/css"?>
<svg baseProfile="full" contentScriptType="text/ecmascript" contentStyleType="text/css" enable-background="new 0 0 1.244 4.104" height="4.104px" id="Ebene_1" preserveAspectRatio="xMidYMid meet" version="1.1" viewBox="0 0 1.244 4.104" width="1.244px" x="0px" xml:space="preserve" xmlns="http://www.w3.org/2000/svg" xmlns:xlink="http://www.w3.org/1999/xlink" y="0px" zoomAndPan="magnify">      
    <style type="text/css">@import url(&quot;/themes/vrsz/images/geoposlib/geopos_symb.css&quot;);</style>       
    <g>           
        <g>                
            <rect class="static_symb_sign_static_fill" height="0.934" id="sign_384_fill" width="0.979" x="0.094" y="0"></rect>                
            <rect class="static_symb_sign_static_stroke" height="0.934" width="0.979" x="0.094" y="0"></rect>  </g>           
        <g>                
            <path d="M0.984,0.469c0.002-0.001,0.004-0.003,0.004-0.006S0.986,0.46,0.984,0.457c0-0.004,0-0.006-0.002-0.01                  c-0.002-0.002,0-0.005-0.002-0.007c0-0.002-0.002-0.002-0.004-0.005S0.971,0.43,0.966,0.427c0,0,0-0.003-0.003-0.004L0.761,0.307                  c-0.022-0.012-0.05-0.005-0.062,0.018c-0.012,0.021-0.006,0.05,0.017,0.063l0.052,0.031H0.252c-0.025,0-0.046,0.021-0.046,0.046                  c0,0.026,0.021,0.047,0.046,0.047H0.77l-0.054,0.03c-0.022,0.012-0.03,0.041-0.017,0.063c0.009,0.014,0.025,0.021,0.039,0.021                  c0.009,0,0.015-0.002,0.022-0.006l0.202-0.117C0.967,0.502,0.967,0.5,0.97,0.498C0.975,0.495,0.977,0.493,0.979,0.49                  c0-0.002,0.004-0.001,0.004-0.003c0.002-0.002,0-0.005,0.002-0.007C0.984,0.477,0.984,0.474,0.984,0.469z"></path>                
            <path class="static_symb_sign_fill_active" d="M0.984,0.469c0.002-0.001,0.004-0.003,0.004-0.006S0.986,0.46,0.984,0.457c0-0.004,0-0.006-0.002-0.01                  c-0.002-0.002,0-0.005-0.002-0.007c0-0.002-0.002-0.002-0.004-0.005S0.971,0.43,0.966,0.427c0,0,0-0.003-0.003-0.004L0.761,0.307                  c-0.022-0.012-0.05-0.005-0.062,0.018c-0.012,0.021-0.006,0.05,0.017,0.063l0.052,0.031H0.252c-0.025,0-0.046,0.021-0.046,0.046                  c0,0.026,0.021,0.047,0.046,0.047H0.77l-0.054,0.03c-0.022,0.012-0.03,0.041-0.017,0.063c0.009,0.014,0.025,0.021,0.039,0.021                  c0.009,0,0.015-0.002,0.022-0.006l0.202-0.117C0.967,0.502,0.967,0.5,0.97,0.498C0.975,0.495,0.977,0.493,0.979,0.49                  c0-0.002,0.004-0.001,0.004-0.003c0.002-0.002,0-0.005,0.002-0.007C0.984,0.477,0.984,0.474,0.984,0.469z"></path>  </g>           
        <g>                
            <text class="static_symb_det_txtbox_txt_stroke" id="textfeld" text-anchor="start" transform="matrix(-1.071875e-015 1 -1 -1.071875e-015 0.1 1.6)">x</text>             
            <text class="static_symb_sign_txtbox_txt" id="textfeld" text-anchor="start" transform="matrix(-1.071875e-015 1 -1 -1.071875e-015 0.1 1.6)">x</text>  </g> </g>  
    <circle cx="0.6" cy="0.45" fill="#FF0000" id="symbolcenter" r="0.2" visibility="hidden"></circle> </svg>
