<?xml version="1.0" standalone="no"?><!DOCTYPE svg PUBLIC "-//W3C//DTD SVG 1.1//EN" "http://www.w3.org/Graphics/SVG/1.1/DTD/svg11.dtd">
<?xml-stylesheet href="http://plr2-dev/themes/vrsz/images/geoposlib/geopos_symb.css" type="text/css"?>
<svg baseProfile="full" contentScriptType="text/ecmascript" contentStyleType="text/css" enable-background="new 0 0 4.756 1.714" height="1.714px" id="Ebene_1" preserveAspectRatio="xMidYMid meet" version="1.1" viewBox="0 0 4.756 1.714" width="4.756px" x="0px" xml:space="preserve" xmlns="http://www.w3.org/2000/svg" xmlns:xlink="http://www.w3.org/1999/xlink" y="0px" zoomAndPan="magnify">      
    <style type="text/css">@import url(&quot;/themes/vrsz/images/geoposlib/geopos_symb.css&quot;);</style>       
    <g>           
        <g>                
            <path class="static_symb_sign_fill_active" d="M1.362,0.21l0.624,1.292c0.011,0.095-0.043,0.181-0.131,0.21h-1.63                  C0.175,1.72,0.123,1.707,0.083,1.677C-0.004,1.611-0.028,1.49,0.035,1.402l0,0l0.697-1.298C0.762,0.079,0.795,0.057,0.829,0.04                  c0.203-0.097,0.446-0.011,0.542,0.192" id="sign_385_fill"></path>                
            <path class="static_symb_sign_stroke" d="M1.362,0.21l0.624,1.292c0.011,0.095-0.043,0.181-0.131,0.21h-1.63                  C0.175,1.72,0.123,1.707,0.083,1.677C-0.004,1.611-0.028,1.49,0.035,1.402l0,0l0.697-1.298C0.762,0.079,0.795,0.057,0.829,0.04                  c0.203-0.097,0.446-0.011,0.542,0.192"></path>  </g>           
        <g>                
            <path class="static_symb_sign_static_stroke" d="M1.237,1.13c0-0.126-0.103-0.229-0.229-0.229c-0.126,0-0.227,0.102-0.227,0.229                  c0,0.125,0.102,0.229,0.229,0.229C1.135,1.359,1.237,1.255,1.237,1.13L1.237,1.13z"></path>                
            <path class="static_symb_sign_static_fill" d="M1.237,1.13c0-0.126-0.103-0.229-0.229-0.229c-0.126,0-0.227,0.102-0.227,0.229                  c0,0.125,0.102,0.229,0.229,0.229C1.135,1.359,1.237,1.255,1.237,1.13L1.237,1.13z"></path>  </g>           
        <g>                
            <text class="static_symb_det_txtbox_txt_stroke" id="textfeld" text-anchor="start" x="2.6" y="1.4">x</text>             
            <text class="static_symb_sign_txtbox_txt" id="textfeld" text-anchor="start" x="2.6" y="1.4">x</text>  </g> </g>  
    <circle cx="1" cy="0.95" fill="#FF0000" id="symbolcenter" r="0.2" visibility="hidden"></circle> </svg>
