<?xml version="1.0" encoding="utf-8"?>
<!DOCTYPE svg PUBLIC "-//W3C//DTD SVG 1.1//EN" "http://www.w3.org/Graphics/SVG/1.1/DTD/svg11.dtd">
<?xml-stylesheet href="http://plr2-dev/themes/vrsz/images/geoposlib/geopos_symb.css" type="text/css"?>
<svg baseProfile="full" contentScriptType="text/ecmascript" contentStyleType="text/css" enable-background="new 0 0 2.43 3.139" height="3.139px" id="Ebene_1" preserveAspectRatio="xMidYMid meet" version="1.1" viewBox="0 0 2.43 3.139" width="2.43px" x="0px" xml:space="preserve" xmlns="http://www.w3.org/2000/svg" xmlns:xlink="http://www.w3.org/1999/xlink" y="0px" zoomAndPan="magnify"> 
    <style type="text/css">@import url(&quot;/themes/vrsz/images/geoposlib/geopos_symb.css&quot;);</style>  
    <g>  
        <g>   
            <path class="static_symb_sign_fill_active" d="M1.689,0.21l0.624,1.293C2.324,1.594,2.27,1.68,2.182,1.711H0.552                  C0.502,1.718,0.452,1.703,0.411,1.675C0.324,1.61,0.301,1.488,0.364,1.401V1.4L1.06,0.102c0.028-0.025,0.062-0.047,0.097-0.063                  C1.359-0.057,1.6,0.029,1.699,0.231" id="sign_386_fill"></path>   
            <path class="static_symb_sign_stroke" d="M1.689,0.21l0.624,1.293C2.324,1.594,2.27,1.68,2.182,1.711H0.552                  C0.502,1.718,0.452,1.703,0.411,1.675C0.324,1.61,0.301,1.488,0.364,1.401V1.4L1.06,0.102c0.028-0.025,0.062-0.047,0.097-0.063                  C1.359-0.057,1.6,0.029,1.699,0.231"></path>  </g>  
        <g>   
            <path class="static_symb_sign_static_stroke" d="M1.564,1.129c0-0.126-0.104-0.229-0.229-0.229c-0.125,0-0.229,0.103-0.229,0.229                  s0.103,0.228,0.229,0.228C1.462,1.356,1.564,1.255,1.564,1.129L1.564,1.129z"></path>   
            <path class="static_symb_sign_static_fill" d="M1.564,1.129c0-0.126-0.104-0.229-0.229-0.229c-0.125,0-0.229,0.103-0.229,0.229                  s0.103,0.228,0.229,0.228C1.462,1.356,1.564,1.255,1.564,1.129L1.564,1.129z"></path>  </g>  
        <g>   
            <text class="static_symb_det_txtbox_txt_stroke" id="textfeld" text-anchor="middle" x="1.3" y="3.25">x</text>
            <text class="static_symb_sign_txtbox_txt" id="textfeld" text-anchor="middle" x="1.3" y="3.25">x</text>  </g> </g> 
<circle visibility="hidden" id="symbolcenter" r="0.2" cx="1.34" cy="0.95" fill="#FF0000"></circle>
</svg>
