<?xml version="1.0" standalone="no"?><!DOCTYPE svg PUBLIC "-//W3C//DTD SVG 1.1//EN" "http://www.w3.org/Graphics/SVG/1.1/DTD/svg11.dtd">
<?xml-stylesheet href="http://plr2-dev/themes/vrsz/images/geoposlib/geopos_symb.css" type="text/css"?>
<svg baseProfile="full" contentScriptType="text/ecmascript" contentStyleType="text/css" enable-background="new 0 0 4.238 1.426" height="1.426px" id="Ebene_1" preserveAspectRatio="xMidYMid meet" version="1.1" viewBox="0 0 4.238 1.426" width="4.238px" x="0px" xml:space="preserve" xmlns="http://www.w3.org/2000/svg" xmlns:xlink="http://www.w3.org/1999/xlink" y="0px" zoomAndPan="magnify">      
    <style type="text/css">@import url(&quot;/themes/vrsz/images/geoposlib/geopos_symb.css&quot;);</style>       
    <g>           
        <g>                
            <rect class="static_symb_sign_fill_active" height="1.256" id="sign_387_fill" width="1.25" x="0" y="0.17"></rect>                
            <rect class="static_symb_sign_stroke" height="1.256" width="1.25" x="0" y="0.17"></rect>  </g>           
        <g>                
            <path class="static_symb_sign_static_stroke" d="M0.802,0.68l0.119-0.119L0.796,0.436L0.66,0.571L0.77,0.68H0.454l0.118-0.119L0.447,0.436L0.312,0.571                  L0.422,0.68H0.303v0.283h0.623V0.68H0.802z                  M0.796,0.471l0.09,0.089l-0.1,0.102l-0.09-0.09L0.796,0.471z M0.447,0.471l0.092,0.089                  L0.438,0.662l-0.093-0.09L0.447,0.471z                  M0.439,1.039c0,0.023-0.021,0.045-0.045,0.045S0.35,1.063,0.35,1.039                  c0-0.025,0.02-0.044,0.044-0.044C0.418,0.995,0.439,1.016,0.439,1.039z                  M0.533,1.039c0,0.023-0.021,0.045-0.044,0.045                  S0.445,1.063,0.445,1.039c0-0.025,0.021-0.044,0.044-0.044C0.513,0.995,0.533,1.016,0.533,1.039z                  M0.883,1.039                  c0,0.023-0.021,0.045-0.044,0.045S0.795,1.063,0.795,1.039c0-0.025,0.021-0.044,0.044-0.044C0.863,0.995,0.883,1.016,0.883,1.039z                  M0.787,1.039c0,0.023-0.02,0.045-0.045,0.045c-0.023,0-0.044-0.021-0.044-0.045c0-0.025,0.021-0.044,0.044-0.044                  C0.767,0.995,0.787,1.016,0.787,1.039z"></path>                
            <path class="static_symb_sign_static_fill" d="M0.802,0.68l0.119-0.119L0.796,0.436L0.66,0.571L0.77,0.68H0.454l0.118-0.119L0.447,0.436L0.312,0.571                  L0.422,0.68H0.303v0.283h0.623V0.68H0.802z                  M0.796,0.471l0.09,0.089l-0.1,0.102l-0.09-0.09L0.796,0.471z M0.447,0.471l0.092,0.089                  L0.438,0.662l-0.093-0.09L0.447,0.471z                  M0.439,1.039c0,0.023-0.021,0.045-0.045,0.045S0.35,1.063,0.35,1.039                  c0-0.025,0.02-0.044,0.044-0.044C0.418,0.995,0.439,1.016,0.439,1.039z                  M0.533,1.039c0,0.023-0.021,0.045-0.044,0.045                  S0.445,1.063,0.445,1.039c0-0.025,0.021-0.044,0.044-0.044C0.513,0.995,0.533,1.016,0.533,1.039z                  M0.883,1.039                  c0,0.023-0.021,0.045-0.044,0.045S0.795,1.063,0.795,1.039c0-0.025,0.021-0.044,0.044-0.044C0.863,0.995,0.883,1.016,0.883,1.039z                  M0.787,1.039c0,0.023-0.02,0.045-0.045,0.045c-0.023,0-0.044-0.021-0.044-0.045c0-0.025,0.021-0.044,0.044-0.044                  C0.767,0.995,0.787,1.016,0.787,1.039z"></path>  </g>           
        <g>                
            <text class="static_symb_det_txtbox_txt_stroke" id="textfeld" text-anchor="start" x="2" y="1.3">x</text>             
            <text class="static_symb_sign_txtbox_txt" id="textfeld" text-anchor="start" x="2" y="1.3">x</text>  </g> </g>  
    <circle cx="0.6" cy="0.8" fill="#FF0000" id="symbolcenter" r="0.2" visibility="hidden"></circle> </svg>
