<?xml version="1.0" encoding="utf-8"?>
<!DOCTYPE svg PUBLIC "-//W3C//DTD SVG 1.1//EN" "http://www.w3.org/Graphics/SVG/1.1/DTD/svg11.dtd">
<?xml-stylesheet href="http://plr2-dev/themes/vrsz/images/geoposlib/geopos_symb.css" type="text/css"?>
<svg baseProfile="full" contentScriptType="text/ecmascript" contentStyleType="text/css" enable-background="new 0 0 2.91 2.961" height="2.961px" id="Ebene_1" preserveAspectRatio="xMidYMid meet" version="1.1" viewBox="0 0 2.91 2.961" width="2.91px" x="0px" xml:space="preserve" xmlns="http://www.w3.org/2000/svg" xmlns:xlink="http://www.w3.org/1999/xlink" y="0px" zoomAndPan="magnify"> 
    <style type="text/css">@import url(&quot;/themes/vrsz/images/geoposlib/geopos_symb.css&quot;);</style>  
    <g>  
        <g>   
            <rect class="static_symb_sign_fill_active" height="1.257" id="sign_388_fill" width="1.25" x="0.65" y="0"></rect>   
            <rect class="static_symb_sign_stroke" height="1.257" width="1.25" x="0.65" y="0"></rect>  </g>  
        <g>   
            <path class="static_symb_sign_static_stroke" d="M1.453,0.511l0.119-0.12L1.447,0.267L1.31,0.403l0.11,0.108H1.105l0.118-0.119L1.097,0.267                  L0.962,0.403l0.109,0.108H0.955v0.284h0.623V0.511H1.453z                  M1.447,0.302l0.09,0.091l-0.1,0.101L1.346,0.403L1.447,0.302z                  M1.097,0.302l0.092,0.091l-0.101,0.1l-0.093-0.09L1.097,0.302z                  M1.088,0.87c0,0.024-0.021,0.045-0.044,0.045                  C1.019,0.915,1,0.894,1,0.87s0.02-0.044,0.045-0.044C1.07,0.827,1.088,0.845,1.088,0.87z                  M1.184,0.87                  c0,0.024-0.02,0.045-0.044,0.045c-0.025,0-0.044-0.021-0.044-0.045S1.117,0.826,1.14,0.826C1.165,0.827,1.184,0.845,1.184,0.87z                  M1.533,0.87c0,0.024-0.02,0.045-0.043,0.045S1.445,0.894,1.445,0.87S1.466,0.826,1.49,0.826C1.513,0.827,1.533,0.845,1.533,0.87z                  M1.437,0.87c0,0.024-0.021,0.045-0.045,0.045c-0.023,0-0.044-0.021-0.044-0.045s0.021-0.044,0.044-0.044                  C1.417,0.826,1.437,0.845,1.437,0.87z"></path>   
            <path class="static_symb_sign_static_fill" d="M1.453,0.511l0.119-0.12L1.447,0.267L1.31,0.403l0.11,0.108H1.105l0.118-0.119L1.097,0.267L0.962,0.403                  l0.109,0.108H0.955v0.284h0.623V0.511H1.453z                  M1.447,0.302l0.09,0.091l-0.1,0.101L1.346,0.403L1.447,0.302z M1.097,0.302                  l0.092,0.091l-0.101,0.1l-0.093-0.09L1.097,0.302z                  M1.088,0.87c0,0.024-0.021,0.045-0.044,0.045C1.019,0.915,1,0.894,1,0.87                  s0.02-0.044,0.045-0.044C1.07,0.827,1.088,0.845,1.088,0.87z                  M1.184,0.87c0,0.024-0.02,0.045-0.044,0.045                  c-0.025,0-0.044-0.021-0.044-0.045S1.117,0.826,1.14,0.826C1.165,0.827,1.184,0.845,1.184,0.87z                  M1.533,0.87                  c0,0.024-0.02,0.045-0.043,0.045S1.445,0.894,1.445,0.87S1.466,0.826,1.49,0.826C1.513,0.827,1.533,0.845,1.533,0.87z                  M1.437,0.87                  c0,0.024-0.021,0.045-0.045,0.045c-0.023,0-0.044-0.021-0.044-0.045s0.021-0.044,0.044-0.044C1.417,0.826,1.437,0.845,1.437,0.87z"></path>  </g>  
        <g>   
            <text class="static_symb_det_txtbox_txt_stroke" id="textfeld" text-anchor="middle" x="1.3" y="2.8">x</text>
            <text class="static_symb_sign_txtbox_txt" id="textfeld" text-anchor="middle" x="1.3" y="2.8">x</text>  </g> </g> 
<circle visibility="hidden" id="symbolcenter" r="0.2" cx="1.28" cy="0.65" fill="#FF0000"></circle>
</svg>
