<?xml version="1.0" encoding="utf-8"?>
<!DOCTYPE svg PUBLIC "-//W3C//DTD SVG 1.1//EN" "http://www.w3.org/Graphics/SVG/1.1/DTD/svg11.dtd">
<?xml-stylesheet href="http://plr2-dev/themes/vrsz/images/geoposlib/geopos_symb.css" type="text/css"?>
<svg baseProfile="full" contentScriptType="text/ecmascript" contentStyleType="text/css" enable-background="new 0 0 4.523 1.316" height="1.316px" id="Ebene_1" preserveAspectRatio="xMidYMid meet" version="1.1" viewBox="0 0 4.523 1.316" width="4.523px" x="0px" xml:space="preserve" xmlns="http://www.w3.org/2000/svg" xmlns:xlink="http://www.w3.org/1999/xlink" y="0px" zoomAndPan="magnify"> 
    <style type="text/css">@import url(&quot;/themes/vrsz/images/geoposlib/geopos_symb.css&quot;);</style>  
    <g>  
        <g>   
            <rect class="static_symb_sign_fill_active" height="1.133" id="sign_390_fill" width="1.033" x="3.49" y="0.18"></rect>   
            <rect class="static_symb_sign_stroke" height="1.133" width="1.033" x="3.49" y="0.18"></rect>  </g>  
        <g>   
            <path class="static_symb_sign_static_stroke" d="M3.731,1.146l0.566-0.003L4.041,0.798V0.655C4.117,0.637,4.176,0.57,4.176,0.486                  c0-0.098-0.078-0.177-0.178-0.177c-0.098,0-0.176,0.079-0.176,0.177c0,0.092,0.068,0.163,0.156,0.173v0.145L3.731,1.146z"></path>   
            <path class="static_symb_sign_static_fill" d="M3.731,1.146l0.566-0.003L4.041,0.798V0.655C4.117,0.637,4.176,0.57,4.176,0.486                  c0-0.098-0.078-0.177-0.178-0.177c-0.098,0-0.176,0.079-0.176,0.177c0,0.092,0.068,0.163,0.156,0.173v0.145L3.731,1.146z"></path>  </g>  
        <g>   
            <text class="static_symb_det_txtbox_txt_stroke" id="textfeld" text-anchor="end" x="2.7" y="1.25">x</text>
            <text class="static_symb_sign_txtbox_txt" id="textfeld" text-anchor="end" x="2.7" y="1.25">x</text>  </g> </g>
<circle visibility="hidden" id="symbolcenter" r="0.2" cx="4" cy="0.7" fill="#FF0000"></circle>
 </svg>
