<?xml version="1.0" standalone="no"?><!DOCTYPE svg PUBLIC "-//W3C//DTD SVG 1.1//EN" "http://www.w3.org/Graphics/SVG/1.1/DTD/svg11.dtd">
<?xml-stylesheet href="http://plr2-dev/themes/vrsz/images/geoposlib/geopos_symb.css" type="text/css"?>
<svg baseProfile="full" contentScriptType="text/ecmascript" contentStyleType="text/css" enable-background="new 0 0 1.02 3.773" height="3.773px" id="Ebene_1" preserveAspectRatio="xMidYMid meet" version="1.1" viewBox="0 0 1.02 3.773" width="1.02px" x="0px" xml:space="preserve" xmlns="http://www.w3.org/2000/svg" xmlns:xlink="http://www.w3.org/1999/xlink" y="0px" zoomAndPan="magnify">      
    <style type="text/css">@import url(&quot;/themes/vrsz/images/geoposlib/geopos_symb.css&quot;);</style>       
    <g>           
        <g>                
            <rect class="static_symb_sign_fill_active" height="1.111" id="sign_393_fill" width="1.017" x="0.003" y="0"></rect>                
            <rect class="static_symb_sign_stroke" height="1.111" width="1.017" x="0.003" y="0"></rect>  </g>           
        <g>                
            <path class="static_symb_sign_static_stroke" d="M0.228,0.944l0.567-0.003L0.536,0.594V0.453c0.079-0.019,0.138-0.086,0.138-0.169                  c0-0.097-0.079-0.177-0.177-0.177S0.322,0.186,0.322,0.284c0,0.091,0.068,0.163,0.155,0.173v0.143L0.228,0.944z"></path>                
            <path class="static_symb_sign_static_fill" d="M0.228,0.944l0.567-0.003L0.536,0.594V0.453c0.079-0.019,0.138-0.086,0.138-0.169                  c0-0.097-0.079-0.177-0.177-0.177S0.322,0.186,0.322,0.284c0,0.091,0.068,0.163,0.155,0.173v0.143L0.228,0.944z"></path>  </g>           
        <g>                
            <text class="static_symb_det_txtbox_txt_stroke" id="textfeld" text-anchor="start" transform="matrix(-1.836970e-016 1 -1 -1.836970e-016 0.05 1.8)">x</text>             
            <text class="static_symb_sign_txtbox_txt" id="textfeld" text-anchor="start" transform="matrix(-1.836970e-016 1 -1 -1.836970e-016 0.05 1.8)">x</text>  </g> </g>  
    <circle cx="0.5" cy="0.5" fill="#FF0000" id="symbolcenter" r="0.2" visibility="hidden"></circle> </svg>
