<?xml version="1.0" standalone="no"?><!DOCTYPE svg PUBLIC "-//W3C//DTD SVG 1.1//EN" "http://www.w3.org/Graphics/SVG/1.1/DTD/svg11.dtd">
<?xml-stylesheet href="http://plr2-dev/themes/vrsz/images/geoposlib/geopos_symb.css" type="text/css"?>
<svg baseProfile="full" contentScriptType="text/ecmascript" contentStyleType="text/css" enable-background="new 0 0 2.184 2.439" height="2.439px" id="Ebene_1" preserveAspectRatio="xMidYMid meet" version="1.1" viewBox="0 0 2.184 2.439" width="2.184px" x="0px" xml:space="preserve" xmlns="http://www.w3.org/2000/svg" xmlns:xlink="http://www.w3.org/1999/xlink" y="0px" zoomAndPan="magnify">      
    <style type="text/css">@import url(&quot;/themes/vrsz/images/geoposlib/geopos_symb.css&quot;);</style>       
    <g>           
        <g>                
            <rect class="static_symb_sign_fill_active" height="2.394" id="sign_395_fill" width="0.794" x="1.389" y="0"></rect>                
            <rect class="static_symb_sign_stroke" height="2.394" width="0.794" x="1.389" y="0"></rect>  </g>           
        <g>                
            <path class="static_symb_sign_static_stroke" d="M2.123,0.415c0-0.181-0.146-0.327-0.324-0.327c-0.182,0-0.327,0.146-0.327,0.327                  c0,0.18,0.147,0.327,0.327,0.327C1.977,0.741,2.123,0.594,2.123,0.415L2.123,0.415z                  M2.115,1.182c0-0.181-0.146-0.326-0.326-0.326                  S1.464,1.002,1.464,1.182c0,0.18,0.146,0.326,0.326,0.326S2.115,1.363,2.115,1.182L2.115,1.182z                  M2.123,1.966                  c0-0.18-0.146-0.325-0.324-0.325c-0.182,0-0.327,0.145-0.327,0.325c0,0.182,0.147,0.326,0.327,0.326                  C1.977,2.294,2.123,2.148,2.123,1.966L2.123,1.966z"></path>                
            <path class="static_symb_sign_static_fill" d="M2.123,0.415c0-0.181-0.146-0.327-0.324-0.327c-0.182,0-0.327,0.146-0.327,0.327                  c0,0.18,0.147,0.327,0.327,0.327C1.977,0.741,2.123,0.594,2.123,0.415L2.123,0.415z                  M2.115,1.182c0-0.181-0.146-0.326-0.326-0.326                  S1.464,1.002,1.464,1.182c0,0.18,0.146,0.326,0.326,0.326S2.115,1.363,2.115,1.182L2.115,1.182z                  M2.123,1.966                  c0-0.18-0.146-0.325-0.324-0.325c-0.182,0-0.327,0.145-0.327,0.325c0,0.182,0.147,0.326,0.327,0.326                  C1.977,2.294,2.123,2.148,2.123,1.966L2.123,1.966z"></path>  </g>           
        <g>                
            <text class="static_symb_det_txtbox_txt_stroke" id="textfeld" text-anchor="middle" transform="matrix(-3.828569e-016 -1 1 -3.828569e-016 0.8 1.25)">x</text>             
            <text class="static_symb_sign_txtbox_txt" id="textfeld" text-anchor="middle" transform="matrix(-3.828569e-016 -1 1 -3.828569e-016 0.8 1.25)">x</text>  </g> </g>  
    <circle cx="1.79" cy="1.17" fill="#FF0000" id="symbolcenter" r="0.2" visibility="hidden"></circle> </svg>
