<?xml version="1.0" encoding="utf-8"?>
<!DOCTYPE svg PUBLIC "-//W3C//DTD SVG 1.1//EN" "http://www.w3.org/Graphics/SVG/1.1/DTD/svg11.dtd">
<?xml-stylesheet href="http://plr2-dev/themes/vrsz/images/geoposlib/geopos_symb.css" type="text/css"?>
<svg baseProfile="full" contentScriptType="text/ecmascript" contentStyleType="text/css" enable-background="new 0 0 2.215 2.41" height="2.41px" id="Ebene_1" preserveAspectRatio="xMidYMid meet" version="1.1" viewBox="0 0 2.215 2.41" width="2.215px" x="0px" xml:space="preserve" xmlns="http://www.w3.org/2000/svg" xmlns:xlink="http://www.w3.org/1999/xlink" y="0px" zoomAndPan="magnify"> 
    <style type="text/css">@import url(&quot;/themes/vrsz/images/geoposlib/geopos_symb.css&quot;);</style>  
    <g>  
        <g>   
            <rect class="static_symb_sign_fill_active" height="2.395" id="sign_397_fill" width="0.794" x="0"></rect>   
            <rect class="static_symb_sign_stroke" height="2.395" width="0.794" x="0"></rect>  </g>  
        <g>   
            <path class="static_symb_sign_static_stroke" d="M0.734,0.415c0-0.181-0.146-0.326-0.327-0.326S0.081,0.235,0.081,0.415c0,0.182,0.146,0.326,0.326,0.326                  C0.587,0.743,0.734,0.597,0.734,0.415L0.734,0.415z                  M0.726,1.185c0-0.18-0.146-0.326-0.326-0.326                  c-0.181,0-0.326,0.146-0.326,0.326c0,0.181,0.146,0.326,0.326,0.326C0.58,1.511,0.726,1.364,0.726,1.185L0.726,1.185z                  M0.734,1.968c0-0.18-0.146-0.325-0.327-0.325S0.081,1.788,0.081,1.968s0.146,0.328,0.326,0.328S0.734,2.149,0.734,1.968                  L0.734,1.968z"></path>   
            <path class="static_symb_sign_static_fill" d="M0.734,0.415c0-0.181-0.146-0.326-0.327-0.326S0.081,0.235,0.081,0.415                  c0,0.182,0.146,0.326,0.326,0.326C0.587,0.743,0.734,0.597,0.734,0.415L0.734,0.415z                  M0.726,1.185c0-0.18-0.146-0.326-0.326-0.326                  c-0.181,0-0.326,0.146-0.326,0.326c0,0.181,0.146,0.326,0.326,0.326C0.58,1.511,0.726,1.364,0.726,1.185L0.726,1.185z                  M0.734,1.968c0-0.18-0.146-0.325-0.327-0.325S0.081,1.788,0.081,1.968s0.146,0.328,0.326,0.328S0.734,2.149,0.734,1.968                  L0.734,1.968z"></path>  </g>  
        <g>   
            <text class="static_symb_det_txtbox_txt_stroke" id="textfeld" text-anchor="middle" transform="matrix(-3.828569e-016 -1 1 -3.828569e-016 2.35 1.25)">x</text>
            <text class="static_symb_sign_txtbox_txt" id="textfeld" text-anchor="middle" transform="matrix(-3.828569e-016 -1 1 -3.828569e-016 2.35 1.25)">x</text>  </g> </g> 
<circle visibility="hidden" id="symbolcenter" r="0.2" cx="0.4" cy="1.18" fill="#FF0000"></circle>
</svg>
