<?xml version="1.0" standalone="no"?><!DOCTYPE svg PUBLIC "-//W3C//DTD SVG 1.1//EN" "http://www.w3.org/Graphics/SVG/1.1/DTD/svg11.dtd">
<?xml-stylesheet href="http://plr2-dev/themes/vrsz/images/geoposlib/geopos_symb.css" type="text/css"?>
<svg baseProfile="full" contentScriptType="text/ecmascript" contentStyleType="text/css" enable-background="new 0 0 1.184 5.104" height="5.104px" id="Ebene_1" preserveAspectRatio="xMidYMid meet" version="1.1" viewBox="0 0 1.184 5.104" width="1.184px" x="0px" xml:space="preserve" xmlns="http://www.w3.org/2000/svg" xmlns:xlink="http://www.w3.org/1999/xlink" y="0px" zoomAndPan="magnify">      
    <style type="text/css">@import url(&quot;/themes/vrsz/images/geoposlib/geopos_symb.css&quot;);</style>       
    <g>           
        <g>                
            <rect class="static_symb_sign_fill_active" height="2.395" id="sign_398_fill" width="0.794" x="0.265" y="0"></rect>                
            <rect class="static_symb_sign_stroke" height="2.395" width="0.794" x="0.265" y="0"></rect>  </g>           
        <g>                
            <path class="static_symb_sign_static_stroke" d="M0.999,0.416c0-0.18-0.146-0.325-0.326-0.325S0.346,0.235,0.346,0.416s0.146,0.326,0.326,0.326                  S0.999,0.595,0.999,0.416L0.999,0.416z                  M0.991,1.183c0-0.181-0.146-0.326-0.326-0.326S0.339,1.003,0.339,1.183                  c0,0.18,0.146,0.326,0.326,0.326C0.846,1.51,0.991,1.364,0.991,1.183L0.991,1.183z                  M0.999,1.969c0-0.181-0.146-0.327-0.326-0.327                  S0.346,1.788,0.346,1.969c0,0.18,0.146,0.326,0.326,0.326C0.852,2.294,0.999,2.147,0.999,1.969L0.999,1.969z"></path>                
            <path class="static_symb_sign_static_fill" d="M0.999,0.416c0-0.18-0.146-0.325-0.326-0.325S0.346,0.235,0.346,0.416s0.146,0.326,0.326,0.326                  S0.999,0.595,0.999,0.416L0.999,0.416z                  M0.991,1.183c0-0.181-0.146-0.326-0.326-0.326S0.339,1.003,0.339,1.183                  c0,0.18,0.146,0.326,0.326,0.326C0.846,1.51,0.991,1.364,0.991,1.183L0.991,1.183z                  M0.999,1.969c0-0.181-0.146-0.327-0.326-0.327                  S0.346,1.788,0.346,1.969c0,0.18,0.146,0.326,0.326,0.326C0.852,2.294,0.999,2.147,0.999,1.969L0.999,1.969z"></path>  </g>           
        <g>                
            <text class="static_symb_det_txtbox_txt_stroke" id="textfeld" text-anchor="end" transform="matrix(-3.828569e-016 -1 1 -3.828569e-016 1.15 3)">x</text>             
            <text class="static_symb_sign_txtbox_txt" id="textfeld" text-anchor="end" transform="matrix(-3.828569e-016 -1 1 -3.828569e-016 1.15 3)">x</text>  </g> </g>  
    <circle cx="0.67" cy="1.18" fill="#FF0000" id="symbolcenter" r="0.2" visibility="hidden"></circle> </svg>
