<?xml version="1.0" standalone="no"?><!DOCTYPE svg PUBLIC "-//W3C//DTD SVG 1.1//EN" "http://www.w3.org/Graphics/SVG/1.1/DTD/svg11.dtd">
<?xml-stylesheet href="http://plr2-dev/themes/vrsz/images/geoposlib/geopos_symb.css" type="text/css"?>
<svg enable-background="new 0 0 4.066 3" height="3px" id="Ebene_1" version="1.1" viewBox="0 0 4.066 3" width="4.066px" x="0px" xml:space="preserve" xmlns="http://www.w3.org/2000/svg" xmlns:xlink="http://www.w3.org/1999/xlink" y="0px">
	<style type="text/css">@import url(&quot;/themes/vrsz/images/geoposlib/geopos_symb.css&quot;);</style>
<g>
	<g>
		<path class="static_symb_sign_static_fill" d="M0.031,0.3679933h1.26v1.1250001h-1.26V0.3679933z M0.03,1.493h1.26v1.125H0.03V1.493z" id="sign_399_fill"></path>
		<path class="static_symb_sign_static_stroke" d="M0.03,1.493h1.26v1.125H0.03V1.493z M0.031,0.3679933h1.26v1.1250001h-1.26V0.3679933z"></path>
	</g>
	<g>
		<path class="static_symb_sign_stroke" d="M1.29,1.5259933c-0.008,0-0.015-0.005-0.021-0.011L0.66,0.9729933L0.052,1.5179933c-0.014,0.011-0.032,0.01-0.045-0.002    c-0.011-0.0140001-0.01-0.031,0.003-0.045l0.604-0.539L0.01,0.3919933c-0.013-0.012-0.014-0.032-0.003-0.045    c0.013-0.013,0.031-0.014,0.045-0.003l0.608,0.545l0.61-0.545c0.013-0.011,0.031-0.01,0.044,0.002    c0.01,0.014,0.01,0.033-0.002,0.045l-0.605,0.541l0.604,0.5410001c0.012,0.012,0.013,0.03,0.002,0.043    C1.307,1.5209934,1.299,1.5259933,1.29,1.5259933z M0.659,2.497c-0.019,0-0.03-0.013-0.03-0.0320001v-0.635L0.484,2.066    c-0.01,0.016-0.029,0.0209999-0.043,0.0109999C0.426,2.0680001,0.421,2.0479999,0.43,2.033l0.203-0.329    c0-0.003,0.002-0.006,0.004-0.0070001c0.002-0.002,0.006-0.0039999,0.008-0.0039999C0.647,1.691,0.651,1.689,0.6530001,1.689l0,0    l0,0c0.002-0.002,0.006-0.002,0.009-0.002c0.002,0,0.005,0,0.009,0.002l0,0l0,0c0,0,0.002,0.002,0.004,0.0039999    C0.678,1.694,0.68,1.6949999,0.682,1.698c0,0.001,0.002,0.005,0.004,0.0070001l0.201,0.3289999    C0.897,2.049,0.893,2.0680001,0.877,2.076c-0.015,0.0109999-0.033,0.0050001-0.043-0.01l-0.144-0.2360001V2.467    C0.691,2.484,0.6760001,2.497,0.659,2.497z"></path>
		<path class="static_symb_sign_fill_active" d="M1.29,1.5259933c-0.008,0-0.015-0.005-0.021-0.011L0.66,0.9729933L0.052,1.5179933c-0.014,0.011-0.032,0.01-0.045-0.002    c-0.011-0.0140001-0.01-0.031,0.003-0.045l0.604-0.539L0.01,0.3919933c-0.013-0.012-0.014-0.032-0.003-0.045    c0.013-0.013,0.031-0.014,0.045-0.003l0.608,0.545l0.61-0.545c0.013-0.011,0.031-0.01,0.044,0.002    c0.01,0.014,0.01,0.033-0.002,0.045l-0.605,0.541l0.604,0.5410001c0.012,0.012,0.013,0.03,0.002,0.043    C1.307,1.5209934,1.299,1.5259933,1.29,1.5259933z M0.659,2.497c-0.019,0-0.03-0.013-0.03-0.0320001v-0.635L0.484,2.066    c-0.01,0.016-0.029,0.0209999-0.043,0.0109999C0.426,2.0680001,0.421,2.0479999,0.43,2.033l0.203-0.329    c0-0.003,0.002-0.006,0.004-0.0070001c0.002-0.002,0.006-0.0039999,0.008-0.0039999C0.647,1.691,0.651,1.689,0.6530001,1.689l0,0    l0,0c0.002-0.002,0.006-0.002,0.009-0.002c0.002,0,0.005,0,0.009,0.002l0,0l0,0c0,0,0.002,0.002,0.004,0.0039999    C0.678,1.694,0.68,1.6949999,0.682,1.698c0,0.001,0.002,0.005,0.004,0.0070001l0.201,0.3289999    C0.897,2.049,0.893,2.0680001,0.877,2.076c-0.015,0.0109999-0.033,0.0050001-0.043-0.01l-0.144-0.2360001V2.467    C0.691,2.484,0.6760001,2.497,0.659,2.497z"></path>
	</g>
	<g>
            <text class="static_symb_det_txtbox_txt_stroke" id="textfeld" text-anchor="start" x="1.9" y="1.9">x</text>   
            <text class="static_symb_sign_txtbox_txt" id="textfeld" text-anchor="start" x="1.9" y="1.9">x</text>
	</g>
</g>
<circle cx="0.67" cy="1.4929934" visibility="hidden" fill="#FF0000" id="symbolcenter" r="0.2"></circle>
</svg>
