<?xml version="1.0" standalone="no"?><!DOCTYPE svg PUBLIC "-//W3C//DTD SVG 1.1//EN" "http://www.w3.org/Graphics/SVG/1.1/DTD/svg11.dtd">
<?xml-stylesheet href="http://plr2-dev/themes/vrsz/images/geoposlib/geopos_symb.css" type="text/css"?>
<svg enable-background="new 0 0 4.066 3" height="3px" id="Ebene_1" version="1.1" viewBox="0 0 4.066 3" width="4.066px" x="0px" xml:space="preserve" xmlns="http://www.w3.org/2000/svg" xmlns:xlink="http://www.w3.org/1999/xlink" y="0px">
		<style type="text/css">@import url(&quot;/themes/vrsz/images/geoposlib/geopos_symb.css&quot;);</style>
<g>
	<g>
		<path class="static_symb_sign_static_fill" d="M2.7722225,0.3679866h1.2600002v1.1250001H2.7722225    C2.7722225,1.4929867,2.7722225,0.3679866,2.7722225,0.3679866z M2.7712226,1.4929934h1.2599998v1.125H2.7712226V1.4929934z" id="sign_400_fill"></path>
		<path class="static_symb_sign_static_stroke" d="M2.7712226,1.4929934h1.2599998v1.125H2.7712226V1.4929934z M2.7722225,0.3679866h1.2600002v1.1250001H2.7722225    C2.7722225,1.4929867,2.7722225,0.3679866,2.7722225,0.3679866z"></path>
	</g>
	<g>
		<path class="static_symb_sign_stroke" d="M4.0312223,1.5259867c-0.0079999,0-0.0149999-0.005-0.0209999-0.011l-0.609-0.5420001l-0.608,0.5450001    c-0.0139999,0.011-0.0319998,0.01-0.0449998-0.002c-0.0110002-0.0140001-0.01-0.031,0.003-0.045l0.6039999-0.539    L2.7512226,0.3919866c-0.013-0.012-0.0140002-0.032-0.003-0.045c0.013-0.013,0.0309999-0.014,0.0449998-0.003l0.608,0.5450001    l0.6099999-0.545c0.013-0.011,0.0310001-0.01,0.0440001,0.002c0.0100002,0.014,0.0100002,0.033-0.0019999,0.045l-0.605,0.541    l0.6040001,0.5410002c0.0119996,0.012,0.013,0.03,0.0019999,0.043C4.0482225,1.5209867,4.0402226,1.5259867,4.0312223,1.5259867z     M3.4002225,2.4969933c-0.0190001,0-0.03-0.013-0.03-0.0320001v-0.635l-0.145,0.2360001    c-0.01,0.016-0.029,0.0209999-0.043,0.0109999c-0.0150001-0.0089998-0.02-0.029-0.0110002-0.0439999l0.2030001-0.329    c0-0.003,0.0020001-0.006,0.0039999-0.0070001c0.0020001-0.002,0.006-0.0039999,0.0080001-0.0039999    c0.0019999-0.002,0.006-0.0039999,0.0080001-0.0039999l0,0l0,0c0.0019999-0.002,0.0059998-0.002,0.0089998-0.002    c0.0020001,0,0.0050001,0,0.0090001,0.002l0,0l0,0c0,0,0.0020001,0.002,0.0039999,0.0039999    c0.003,0.001,0.0049999,0.002,0.007,0.005c0,0.001,0.0019999,0.005,0.0039999,0.0070001l0.201,0.3289999    c0.01,0.0150001,0.006,0.0340002-0.01,0.0420001c-0.0149999,0.0109999-0.033,0.0050001-0.043-0.01L3.4312224,1.8299932v0.6370001    C3.4322226,2.4839933,3.4172227,2.4969933,3.4002225,2.4969933z"></path>
		<path class="static_symb_sign_fill_active" d="M4.0312223,1.5259867c-0.0079999,0-0.0149999-0.005-0.0209999-0.011l-0.609-0.5420001l-0.608,0.5450001    c-0.0139999,0.011-0.0319998,0.01-0.0449998-0.002c-0.0110002-0.0140001-0.01-0.031,0.003-0.045l0.6039999-0.539    L2.7512226,0.3919866c-0.013-0.012-0.0140002-0.032-0.003-0.045c0.013-0.013,0.0309999-0.014,0.0449998-0.003l0.608,0.5450001    l0.6099999-0.545c0.013-0.011,0.0310001-0.01,0.0440001,0.002c0.0100002,0.014,0.0100002,0.033-0.0019999,0.045l-0.605,0.541    l0.6040001,0.5410002c0.0119996,0.012,0.013,0.03,0.0019999,0.043C4.0482225,1.5209867,4.0402226,1.5259867,4.0312223,1.5259867z     M3.4002225,2.4969933c-0.0190001,0-0.03-0.013-0.03-0.0320001v-0.635l-0.145,0.2360001    c-0.01,0.016-0.029,0.0209999-0.043,0.0109999c-0.0150001-0.0089998-0.02-0.029-0.0110002-0.0439999l0.2030001-0.329    c0-0.003,0.0020001-0.006,0.0039999-0.0070001c0.0020001-0.002,0.006-0.0039999,0.0080001-0.0039999    c0.0019999-0.002,0.006-0.0039999,0.0080001-0.0039999l0,0l0,0c0.0019999-0.002,0.0059998-0.002,0.0089998-0.002    c0.0020001,0,0.0050001,0,0.0090001,0.002l0,0l0,0c0,0,0.0020001,0.002,0.0039999,0.0039999    c0.003,0.001,0.0049999,0.002,0.007,0.005c0,0.001,0.0019999,0.005,0.0039999,0.0070001l0.201,0.3289999    c0.01,0.0150001,0.006,0.0340002-0.01,0.0420001c-0.0149999,0.0109999-0.033,0.0050001-0.043-0.01L3.4312224,1.8299932v0.6370001    C3.4322226,2.4839933,3.4172227,2.4969933,3.4002225,2.4969933z"></path>
	</g>
		<g>
            <text class="static_symb_det_txtbox_txt_stroke" id="textfeld" text-anchor="end" x="2.2" y="1.9">x</text>   
            <text class="static_symb_sign_txtbox_txt" id="textfeld" text-anchor="end" x="2.2" y="1.9">x</text>
	</g>
</g>
<circle cx="3.4112225" cy="1.4929867" visibility="hidden" fill="#FF0000" id="symbolcenter" r="0.2"></circle>
</svg>
