<?xml version="1.0" standalone="no"?><!DOCTYPE svg PUBLIC "-//W3C//DTD SVG 1.1//EN" "http://www.w3.org/Graphics/SVG/1.1/DTD/svg11.dtd">
<?xml-stylesheet href="http://plr2-dev/themes/vrsz/images/geoposlib/geopos_symb.css" type="text/css"?>
<svg enable-background="new 0 0 1.8012941 3.522001" height="3.522001px" id="Ebene_1" version="1.1" viewBox="0 0 1.8012941 3.522001" width="1.8012941px" x="0px" xml:space="preserve" xmlns="http://www.w3.org/2000/svg" xmlns:xlink="http://www.w3.org/1999/xlink" y="0px">
	<style type="text/css">@import url(&quot;/themes/vrsz/images/geoposlib/geopos_symb.css&quot;);</style>
<g>
	<g>
		<path class="static_symb_sign_static_fill" d="M0.2712948,1.2316616h1.26v1.125h-1.26C0.2712948,2.3566616,0.2712948,1.2316616,0.2712948,1.2316616z     M0.2702948,2.3566682h1.26v1.125h-1.26V2.3566682z" id="sign_401_fill"></path>
		<path class="static_symb_sign_static_stroke" d="M0.2702948,2.3566682h1.26v1.125h-1.26V2.3566682z M0.2712948,1.2316616h1.26v1.125h-1.26    C0.2712948,2.3566616,0.2712948,1.2316616,0.2712948,1.2316616z"></path>
	</g>
	<g>
		<path class="static_symb_sign_stroke" d="M1.5302948,2.3896616c-0.008,0-0.015-0.0049999-0.021-0.0109999l-0.609-0.5420001l-0.608,0.5450001    c-0.014,0.0109999-0.032,0.01-0.045-0.0020001c-0.011-0.0139999-0.01-0.0309999,0.003-0.0449998l0.604-0.539l-0.604-0.5400001    c-0.013-0.012-0.014-0.0320001-0.003-0.045c0.013-0.013,0.031-0.0140001,0.045-0.003l0.6079999,0.5450001l0.6100001-0.5450001    c0.013-0.011,0.031-0.01,0.044,0.002c0.01,0.0140001,0.01,0.033-0.002,0.0450001l-0.6050001,0.541l0.604,0.5410001    c0.012,0.0119998,0.013,0.03,0.002,0.043C1.5472949,2.3846617,1.5392948,2.3896616,1.5302948,2.3896616z M0.8992947,3.3606682    c-0.019,0-0.03-0.013-0.03-0.0320001v-0.635l-0.145,0.2360001c-0.01,0.016-0.029,0.0209999-0.043,0.0109999    c-0.015-0.0089998-0.02-0.029-0.011-0.0439999l0.203-0.329c0-0.003,0.002-0.006,0.004-0.007    c0.002-0.0020001,0.006-0.0039999,0.008-0.0039999c0.002-0.0020001,0.006-0.0039999,0.0080001-0.0039999l0,0l0,0    c0.002-0.0020001,0.006-0.0020001,0.009-0.0020001c0.002,0,0.005,0,0.009,0.0020001l0,0l0,0c0,0,0.002,0.0019999,0.004,0.0039999    c0.0029998,0.0009999,0.0049999,0.0019999,0.0069999,0.0049999c0,0.0010002,0.002,0.0050001,0.004,0.0070002l0.201,0.3289998    c0.01,0.0150001,0.006,0.0340002-0.01,0.0420001c-0.015,0.0109999-0.033,0.0050001-0.043-0.01L0.9302948,2.6936681v0.6370001    C0.9312947,3.3476682,0.9162949,3.3606682,0.8992947,3.3606682z"></path>
		<path class="static_symb_sign_fill_active" d="M1.5302948,2.3896616c-0.008,0-0.015-0.0049999-0.021-0.0109999l-0.609-0.5420001l-0.608,0.5450001    c-0.014,0.0109999-0.032,0.01-0.045-0.0020001c-0.011-0.0139999-0.01-0.0309999,0.003-0.0449998l0.604-0.539l-0.604-0.5400001    c-0.013-0.012-0.014-0.0320001-0.003-0.045c0.013-0.013,0.031-0.0140001,0.045-0.003l0.6079999,0.5450001l0.6100001-0.5450001    c0.013-0.011,0.031-0.01,0.044,0.002c0.01,0.0140001,0.01,0.033-0.002,0.0450001l-0.6050001,0.541l0.604,0.5410001    c0.012,0.0119998,0.013,0.03,0.002,0.043C1.5472949,2.3846617,1.5392948,2.3896616,1.5302948,2.3896616z M0.8992947,3.3606682    c-0.019,0-0.03-0.013-0.03-0.0320001v-0.635l-0.145,0.2360001c-0.01,0.016-0.029,0.0209999-0.043,0.0109999    c-0.015-0.0089998-0.02-0.029-0.011-0.0439999l0.203-0.329c0-0.003,0.002-0.006,0.004-0.007    c0.002-0.0020001,0.006-0.0039999,0.008-0.0039999c0.002-0.0020001,0.006-0.0039999,0.0080001-0.0039999l0,0l0,0    c0.002-0.0020001,0.006-0.0020001,0.009-0.0020001c0.002,0,0.005,0,0.009,0.0020001l0,0l0,0c0,0,0.002,0.0019999,0.004,0.0039999    c0.0029998,0.0009999,0.0049999,0.0019999,0.0069999,0.0049999c0,0.0010002,0.002,0.0050001,0.004,0.0070002l0.201,0.3289998    c0.01,0.0150001,0.006,0.0340002-0.01,0.0420001c-0.015,0.0109999-0.033,0.0050001-0.043-0.01L0.9302948,2.6936681v0.6370001    C0.9312947,3.3476682,0.9162949,3.3606682,0.8992947,3.3606682z"></path>
	</g>
	<g>
            <text class="static_symb_det_txtbox_txt_stroke" id="textfeld" text-anchor="middle" x="0.9" y="0.8">x</text>   
            <text class="static_symb_sign_txtbox_txt" id="textfeld" text-anchor="middle" x="0.9" y="0.8">x</text>
	</g>
</g>
<circle cx="0.9102948" cy="2.3566616" visibility="hidden" fill="#FF0000" id="symbolcenter" r="0.2"></circle>
</svg>
