<?xml version="1.0" standalone="no"?><!DOCTYPE svg PUBLIC "-//W3C//DTD SVG 1.1//EN" "http://www.w3.org/Graphics/SVG/1.1/DTD/svg11.dtd">
<?xml-stylesheet href="http://plr2-dev/themes/vrsz/images/geoposlib/geopos_symb.css" type="text/css"?>
<svg baseProfile="full" contentScriptType="text/ecmascript" contentStyleType="text/css" enable-background="new 0 0 2.514 1.098" height="1.098px" id="Ebene_1" preserveAspectRatio="xMidYMid meet" version="1.1" viewBox="0 0 2.514 1.098" width="2.514px" x="0px" xml:space="preserve" xmlns="http://www.w3.org/2000/svg" xmlns:xlink="http://www.w3.org/1999/xlink" y="0px" zoomAndPan="magnify">      
    <style type="text/css">@import url(&quot;/themes/vrsz/images/geoposlib/geopos_symb.css&quot;);</style>       
    <g>           
        <g transform="translate(0 0.2)">                
            <path class="static_symb_mast_stroke" d="M2.513,0.365c0-0.176-0.143-0.315-0.316-0.315c-0.176,0-0.314,0.141-0.314,0.315                  c0,0.174,0.143,0.314,0.314,0.314C2.37,0.679,2.513,0.537,2.513,0.365L2.513,0.365z"></path>                
            <path class="static_symb_mast_fill_default" d="M2.513,0.365c0-0.176-0.143-0.315-0.316-0.315c-0.176,0-0.314,0.141-0.314,0.315                  c0,0.174,0.143,0.314,0.314,0.314C2.37,0.679,2.513,0.537,2.513,0.365L2.513,0.365z" id="mast_412_fill"></path>  </g>           
        <g>                
            <text class="static_symb_det_txtbox_txt_stroke" id="textfeld" text-anchor="end" x="1.3" y="1.07">x</text>             
            <text class="static_symb_mast_txtbox_txt" id="textfeld" text-anchor="end" x="1.3" y="1.07">x</text>  </g> </g>  
    <circle cx="2.2" cy="0.55" fill="#FF0000" id="symbolcenter" r="0.2" visibility="hidden"></circle> </svg>
