<?xml version="1.0" standalone="no"?><!DOCTYPE svg PUBLIC "-//W3C//DTD SVG 1.1//EN" "http://www.w3.org/Graphics/SVG/1.1/DTD/svg11.dtd">
<?xml-stylesheet href="http://plr2-dev/themes/vrsz/images/geoposlib/geopos_symb.css" type="text/css"?>
<svg baseProfile="full" contentScriptType="text/ecmascript" contentStyleType="text/css" enable-background="new 0 0 1.381 3.561" height="3.561px" id="Ebene_1" preserveAspectRatio="xMidYMid meet" version="1.1" viewBox="0 0 1.381 3.561" width="1.381px" x="0px" xml:space="preserve" xmlns="http://www.w3.org/2000/svg" xmlns:xlink="http://www.w3.org/1999/xlink" y="0px" zoomAndPan="magnify">      
    <style type="text/css">@import url(&quot;/themes/vrsz/images/geoposlib/geopos_symb.css&quot;);</style>       
    <g>           
        <g>                
            <rect class="static_symb_mast_static_fill" height="1.359" id="mast_416_fill" width="1.302" x="0.055" y="2.201"></rect>                
            <rect class="static_symb_mast_stroke" height="1.359" width="1.302" x="0.055" y="2.201"></rect>  </g>           
        <g>                
            <path class="static_symb_mast_static_strokeW" d="M0.748,2.834V2.535h0.168v-0.08H0.499v0.08h0.159v0.3c-0.109,0.023-0.193,0.112-0.193,0.23                  c0,0.133,0.107,0.238,0.24,0.238s0.239-0.107,0.239-0.238C0.944,2.948,0.858,2.854,0.748,2.834z"></path>                
            <path class="static_symb_mast_fill_default" d="M0.748,2.834V2.535h0.168v-0.08H0.499v0.08h0.159v0.3c-0.109,0.023-0.193,0.112-0.193,0.23                  c0,0.133,0.107,0.238,0.24,0.238s0.239-0.107,0.239-0.238C0.944,2.948,0.858,2.854,0.748,2.834z"></path>  </g>           
        <g>                
            <text class="static_symb_det_txtbox_txt_stroke" id="textfeld" text-anchor="start" transform="matrix(6.123234e-017 -1 1 6.123234e-017 1.2 1.5)">x</text>             
            <text class="static_symb_mast_txtbox_txt" id="textfeld" text-anchor="start" transform="matrix(6.123234e-017 -1 1 6.123234e-017 1.2 1.5)">x</text>  </g> </g>  
    <circle cx="0.7" cy="2.85" fill="#FF0000" id="symbolcenter" r="0.2" visibility="hidden"></circle> </svg>
