<?xml version="1.0" standalone="no"?><!DOCTYPE svg PUBLIC "-//W3C//DTD SVG 1.1//EN" "http://www.w3.org/Graphics/SVG/1.1/DTD/svg11.dtd">
<?xml-stylesheet href="http://plr2-dev/themes/vrsz/images/geoposlib/geopos_symb.css" type="text/css"?>
<svg baseProfile="full" contentScriptType="text/ecmascript" contentStyleType="text/css" enable-background="new 0 0 1.711 2.914" height="2.914px" id="Ebene_1" preserveAspectRatio="xMidYMid meet" version="1.1" viewBox="0 0 1.711 2.914" width="1.711px" x="0px" xml:space="preserve" xmlns="http://www.w3.org/2000/svg" xmlns:xlink="http://www.w3.org/1999/xlink" y="0px" zoomAndPan="magnify">      
    <style type="text/css">@import url(&quot;/themes/vrsz/images/geoposlib/geopos_symb.css&quot;);</style>       
    <g>           
        <g>                
            <rect class="static_symb_mast_fill_default" height="1.407" id="mast_419_fill" width="1.329" x="0.192" y="1.507"></rect>                
            <rect class="static_symb_mast_stroke" height="1.407" width="1.329" x="0.192" y="1.507"></rect>  </g>           
        <g>                
            <path class="static_symb_mast_static_stroke" d="M0.748,2.154c-0.021-0.111-0.113-0.2-0.232-0.2c-0.133,0-0.24,0.108-0.24,0.239                  c0,0.135,0.108,0.24,0.24,0.24c0.114,0,0.204-0.08,0.229-0.188H1.11v0.148h0.254V2.248V2.154H0.748z"></path>                
            <path class="static_symb_mast_static_fill" d="M0.748,2.154c-0.021-0.111-0.113-0.2-0.232-0.2c-0.133,0-0.24,0.108-0.24,0.239                  c0,0.135,0.108,0.24,0.24,0.24c0.114,0,0.204-0.08,0.229-0.188H1.11v0.148h0.254V2.248V2.154H0.748z"></path>  </g>           
        <g>                
            <text class="static_symb_det_txtbox_txt_stroke" id="textfeld" text-anchor="middle" x="0.9" y="0.8">x</text>             
            <text class="static_symb_mast_txtbox_txt" id="textfeld" text-anchor="middle" x="0.9" y="0.8">x</text>  </g> </g>  
    <circle cx="0.85" cy="2.2" fill="#FF0000" id="symbolcenter" r="0.2" visibility="hidden"></circle> </svg>
