<?xml version="1.0" standalone="no"?><!DOCTYPE svg PUBLIC "-//W3C//DTD SVG 1.1//EN" "http://www.w3.org/Graphics/SVG/1.1/DTD/svg11.dtd">
<?xml-stylesheet href="http://plr2-dev/themes/vrsz/images/geoposlib/geopos_symb.css" type="text/css"?>
<svg baseProfile="full" contentScriptType="text/ecmascript" contentStyleType="text/css" enable-background="new 0 0 1.367 3.348" height="3.348px" id="Ebene_1" preserveAspectRatio="xMidYMid meet" version="1.1" viewBox="0 0 1.367 3.348" width="1.367px" x="0px" xml:space="preserve" xmlns="http://www.w3.org/2000/svg" xmlns:xlink="http://www.w3.org/1999/xlink" y="0px" zoomAndPan="magnify">      
    <style type="text/css">@import url(&quot;/themes/vrsz/images/geoposlib/geopos_symb.css&quot;);</style>       
    <g>           
        <g>                
            <rect class="static_symb_mast_fill_default" height="1.395" id="mast_420_fill" width="1.322" x="0.03" y="1.953"></rect>                
            <rect class="static_symb_mast_stroke" height="1.395" width="1.322" x="0.03" y="1.953"></rect>  </g>           
        <g>                
            <path class="static_symb_mast_static_stroke" d="M0.599,2.605c-0.02-0.112-0.114-0.198-0.231-0.198c-0.133,0-0.238,0.105-0.238,0.238                  c0,0.134,0.105,0.24,0.238,0.24c0.113,0,0.203-0.08,0.229-0.188h0.365v0.149h0.252V2.7V2.605H0.599L0.599,2.605z"></path>                
            <path class="static_symb_mast_static_fill" d="M0.599,2.605c-0.02-0.112-0.114-0.198-0.231-0.198c-0.133,0-0.238,0.105-0.238,0.238                  c0,0.134,0.105,0.24,0.238,0.24c0.113,0,0.203-0.08,0.229-0.188h0.365v0.149h0.252V2.7V2.605H0.599L0.599,2.605z"></path>  </g>           
        <g>                
            <text class="static_symb_det_txtbox_txt_stroke" id="textfeld" text-anchor="start" transform="matrix(6.123234e-017 -1 1 6.123234e-017 1.2 1.2)">x</text>             
            <text class="static_symb_mast_txtbox_txt" id="textfeld" text-anchor="start" transform="matrix(6.123234e-017 -1 1 6.123234e-017 1.2 1.2)">x</text>  </g> </g>  
    <circle cx="0.7" cy="2.65" fill="#FF0000" id="symbolcenter" r="0.2" visibility="hidden"></circle> </svg>
