<?xml version="1.0" standalone="no"?><!DOCTYPE svg PUBLIC "-//W3C//DTD SVG 1.1//EN" "http://www.w3.org/Graphics/SVG/1.1/DTD/svg11.dtd">
<?xml-stylesheet href="http://plr2-dev/themes/vrsz/images/geoposlib/geopos_symb.css" type="text/css"?>
<svg baseProfile="full" contentScriptType="text/ecmascript" contentStyleType="text/css" enable-background="new 0 0 1.343 3.329" height="3.329px" id="Ebene_1" preserveAspectRatio="xMidYMid meet" version="1.1" viewBox="0 0 1.343 3.329" width="1.343px" x="0px" xml:space="preserve" xmlns="http://www.w3.org/2000/svg" xmlns:xlink="http://www.w3.org/1999/xlink" y="0px" zoomAndPan="magnify">      
    <style type="text/css">@import url(&quot;/themes/vrsz/images/geoposlib/geopos_symb.css&quot;);</style>       
    <g>           
        <g>                
            <rect class="static_symb_mast_fill_default" height="1.373" id="mast_421_fill" width="1.307" x="0.019" y="1.956"></rect>                
            <rect class="static_symb_mast_stroke" height="1.373" width="1.307" x="0.019" y="1.956"></rect>  </g>           
        <g>                
            <path class="static_symb_mast_static_stroke" d="M0.561,2.592C0.541,2.48,0.446,2.394,0.329,2.394c-0.134,0-0.24,0.106-0.24,0.239                  c0,0.134,0.107,0.24,0.24,0.24c0.111,0,0.204-0.08,0.229-0.188h0.364v0.149h0.253V2.686V2.592H0.561z"></path>                
            <path class="static_symb_mast_static_fill" d="M0.561,2.592C0.541,2.48,0.446,2.394,0.329,2.394c-0.134,0-0.24,0.106-0.24,0.239                  c0,0.134,0.107,0.24,0.24,0.24c0.111,0,0.204-0.08,0.229-0.188h0.364v0.149h0.253V2.686V2.592H0.561z"></path>  </g>           
        <g>                
            <text class="static_symb_det_txtbox_txt_stroke" id="textfeld" text-anchor="end" transform="matrix(-1.836970e-016 1 -1 -1.836970e-016 0.15 1.2)">x</text>             
            <text class="static_symb_mast_txtbox_txt" id="textfeld" text-anchor="end" transform="matrix(-1.836970e-016 1 -1 -1.836970e-016 0.15 1.2)">x</text>  </g> </g>  
    <circle cx="0.7" cy="2.65" fill="#FF0000" id="symbolcenter" r="0.2" visibility="hidden"></circle> </svg>
