<?xml version="1.0" encoding="utf-8"?>
<!DOCTYPE svg PUBLIC "-//W3C//DTD SVG 1.1//EN" "http://www.w3.org/Graphics/SVG/1.1/DTD/svg11.dtd">
<?xml-stylesheet href="http://plr2-dev/themes/vrsz/images/geoposlib/geopos_symb.css" type="text/css"?>
<svg baseProfile="full" contentScriptType="text/ecmascript" contentStyleType="text/css" enable-background="new 0 0 1.736 2.807" height="2.807px" id="Ebene_1" preserveAspectRatio="xMidYMid meet" version="1.1" viewBox="0 0 1.736 2.807" width="1.736px" x="0px" xml:space="preserve" xmlns="http://www.w3.org/2000/svg" xmlns:xlink="http://www.w3.org/1999/xlink" y="0px" zoomAndPan="magnify"> 
    <style type="text/css">@import url(&quot;/themes/vrsz/images/geoposlib/geopos_symb.css&quot;);</style>  
    <g>  
        <g>   
            <rect class="static_symb_mast_fill_default" height="1.371" id="mast_422_fill" width="1.311" x="0.226" y="1.435"></rect>   
            <rect class="static_symb_mast_stroke" height="1.371" width="1.311" x="0.226" y="1.435"></rect>  </g>  
        <g>   
            <path class="static_symb_mast_static_stroke" d="M0.81,2.069C0.79,1.956,0.696,1.87,0.577,1.87c-0.133,0-0.237,0.105-0.237,0.238                  c0,0.135,0.105,0.24,0.237,0.24c0.114,0,0.204-0.08,0.229-0.186h0.364v0.146h0.254V2.163V2.069H0.81z"></path>   
            <path class="static_symb_mast_static_fill" d="M0.81,2.069C0.79,1.956,0.696,1.87,0.577,1.87c-0.133,0-0.237,0.105-0.237,0.238                  c0,0.135,0.105,0.24,0.237,0.24c0.114,0,0.204-0.08,0.229-0.186h0.364v0.146h0.254V2.163V2.069H0.81z"></path>  </g>  
        <g>   
            <text class="static_symb_det_txtbox_txt_stroke" id="textfeld" text-anchor="middle" transform="matrix(-1 0 0 -1 0.9 0)">x</text>
            <text class="static_symb_mast_txtbox_txt" id="textfeld" text-anchor="middle" transform="matrix(-1 0 0 -1 0.9 0)">x</text>  </g> </g> 
<circle visibility="hidden" id="symbolcenter" r="0.2" cx="0.9" cy="2.15" fill="#FF0000"></circle>
</svg>
