<?xml version="1.0" encoding="utf-8"?>
<!DOCTYPE svg PUBLIC "-//W3C//DTD SVG 1.1//EN" "http://www.w3.org/Graphics/SVG/1.1/DTD/svg11.dtd">
<?xml-stylesheet href="http://plr2-dev/themes/vrsz/images/geoposlib/geopos_symb.css" type="text/css"?>
<svg baseProfile="full" contentScriptType="text/ecmascript" contentStyleType="text/css" enable-background="new 0 0 2.404 3.309" height="3.309px" id="Ebene_1" preserveAspectRatio="xMidYMid meet" version="1.1" viewBox="0 0 2.404 3.309" width="2.404px" x="0px" xml:space="preserve" xmlns="http://www.w3.org/2000/svg" xmlns:xlink="http://www.w3.org/1999/xlink" y="0px" zoomAndPan="magnify"> 
    <style type="text/css">@import url(&quot;/themes/vrsz/images/geoposlib/geopos_symb.css&quot;);</style>  
    <g>  
        <g>   
            <rect class="static_symb_mast_fill_default" height="1.391" id="mast_426_fill" width="1.332" x="0.506" y="0"></rect>   
            <rect class="static_symb_mast_stroke" height="1.391" width="1.332" x="0.506" y="0"></rect>  </g>  
        <g>   
            <path class="static_symb_mast_static_stroke" d="M1.229,0.657V0.361h0.168v-0.08H0.982v0.08h0.159v0.298c-0.109,0.022-0.193,0.114-0.193,0.23                  c0,0.132,0.108,0.24,0.24,0.24c0.133,0,0.239-0.107,0.239-0.24C1.427,0.771,1.341,0.678,1.229,0.657z"></path>   
            <path class="static_symb_mast_static_fill" d="M1.229,0.657V0.361h0.168v-0.08H0.982v0.08h0.159v0.298c-0.109,0.022-0.193,0.114-0.193,0.23                  c0,0.132,0.108,0.24,0.24,0.24c0.133,0,0.239-0.107,0.239-0.24C1.427,0.771,1.341,0.678,1.229,0.657z"></path>  </g>  
        <g>   
            <text class="static_symb_det_txtbox_txt_stroke" id="textfeld" text-anchor="middle" x="1.2" y="3">x</text>
            <text class="static_symb_mast_txtbox_txt" id="textfeld" text-anchor="middle" x="1.2" y="3">x</text>  </g> </g> 
<circle visibility="hidden" id="symbolcenter" r="0.2" cx="1.2" cy="0.7" fill="#FF0000"></circle>
</svg>
