<?xml version="1.0" standalone="no"?><!DOCTYPE svg PUBLIC "-//W3C//DTD SVG 1.1//EN" "http://www.w3.org/Graphics/SVG/1.1/DTD/svg11.dtd">
<?xml-stylesheet href="http://plr2-dev/themes/vrsz/images/geoposlib/geopos_symb.css" type="text/css"?>
<svg baseProfile="full" contentScriptType="text/ecmascript" contentStyleType="text/css" enable-background="new 0 0 2.584 3.836" height="3.836px" id="Ebene_1" preserveAspectRatio="xMidYMid meet" version="1.1" viewBox="0 0 2.584 3.836" width="2.584px" x="0px" xml:space="preserve" xmlns="http://www.w3.org/2000/svg" xmlns:xlink="http://www.w3.org/1999/xlink" y="0px" zoomAndPan="magnify">      
    <style type="text/css">@import url(&quot;/themes/vrsz/images/geoposlib/geopos_symb.css&quot;);</style>       
    <g>           
        <g>                
            <rect class="static_symb_mast_fill_default" height="1.792" id="mast_427_fill" width="1.909" x="0.347" y="2.044"></rect>                
            <rect class="static_symb_mast_stroke" height="1.792" width="1.909" x="0.347" y="2.044"></rect>  </g>           
        <g>                
            <path class="static_symb_mast_static_stroke" d="M0.953,3.418c-0.013,0-0.023-0.008-0.028-0.021l-0.3-0.746l0.002,0.736                  c0,0.018-0.012,0.031-0.03,0.031l0,0c-0.018,0-0.032-0.016-0.032-0.031L0.563,2.488c0-0.016,0.012-0.027,0.025-0.031                  c0.016-0.002,0.03,0.006,0.034,0.021l0.299,0.744V2.502c0-0.02,0.014-0.031,0.031-0.031s0.033,0.012,0.033,0.031v0.885                  c0,0.014-0.012,0.027-0.027,0.031C0.957,3.418,0.955,3.418,0.953,3.418z                  M1.988,3.418H1.602c-0.011,0-0.021-0.006-0.027-0.018                  C1.568,3.393,1.568,3.383,1.572,3.373l0.42-0.83H1.658c-0.017,0-0.031-0.014-0.031-0.031c0-0.016,0.014-0.033,0.031-0.033h0.385                  c0.012,0,0.021,0.006,0.027,0.016c0.006,0.01,0.006,0.021,0.002,0.031l-0.42,0.83h0.334c0.018,0,0.03,0.014,0.03,0.031                  C2.02,3.406,2.004,3.418,1.988,3.418z                  M1.111,3.418c-0.018,0-0.031-0.016-0.031-0.031V2.51c0-0.016,0.015-0.031,0.031-0.031h0.42                  c0.019,0,0.032,0.014,0.032,0.031S1.55,2.541,1.531,2.541h-0.39v0.293h0.211c0.017,0,0.031,0.014,0.031,0.033                  c0,0.018-0.015,0.027-0.031,0.027H1.142v0.488C1.142,3.404,1.127,3.418,1.111,3.418z"></path>                
            <path class="static_symb_mast_static_fill" d="M0.953,3.418c-0.013,0-0.023-0.008-0.028-0.021l-0.3-0.746l0.002,0.736c0,0.018-0.012,0.031-0.03,0.031                  l0,0c-0.018,0-0.032-0.016-0.032-0.031L0.563,2.488c0-0.016,0.012-0.027,0.025-0.031c0.016-0.002,0.03,0.006,0.034,0.021                  l0.299,0.744V2.502c0-0.02,0.014-0.031,0.031-0.031s0.033,0.012,0.033,0.031v0.885c0,0.014-0.012,0.027-0.027,0.031                  C0.957,3.418,0.955,3.418,0.953,3.418z                  M1.988,3.418H1.602c-0.011,0-0.021-0.006-0.027-0.018C1.568,3.393,1.568,3.383,1.572,3.373                  l0.42-0.83H1.658c-0.017,0-0.031-0.014-0.031-0.031c0-0.016,0.014-0.033,0.031-0.033h0.385c0.012,0,0.021,0.006,0.027,0.016                  c0.006,0.01,0.006,0.021,0.002,0.031l-0.42,0.83h0.334c0.018,0,0.03,0.014,0.03,0.031C2.02,3.406,2.004,3.418,1.988,3.418z                  M1.111,3.418c-0.018,0-0.031-0.016-0.031-0.031V2.51c0-0.016,0.015-0.031,0.031-0.031h0.42c0.019,0,0.032,0.014,0.032,0.031                  S1.55,2.541,1.531,2.541h-0.39v0.293h0.211c0.017,0,0.031,0.014,0.031,0.033c0,0.018-0.015,0.027-0.031,0.027H1.142v0.488                  C1.142,3.404,1.127,3.418,1.111,3.418z"></path>  </g>           
        <g>                
            <text class="static_symb_det_txtbox_txt_stroke" id="textfeld" text-anchor="middle" x="1.3" y="1.3">x</text>             
            <text class="static_symb_mast_txtbox_txt" id="textfeld" text-anchor="middle" x="1.3" y="1.3">x</text>  </g> </g>  
    <circle cx="1.35" cy="2.95" fill="#FF0000" id="symbolcenter" r="0.2" visibility="hidden"></circle> </svg>
