<?xml version="1.0" standalone="no"?><!DOCTYPE svg PUBLIC "-//W3C//DTD SVG 1.1//EN" "http://www.w3.org/Graphics/SVG/1.1/DTD/svg11.dtd">
<?xml-stylesheet href="http://plr2-dev/themes/vrsz/images/geoposlib/geopos_symb.css" type="text/css"?>
<svg baseProfile="full" contentScriptType="text/ecmascript" contentStyleType="text/css" enable-background="new 0 0 4.684 1.875" height="1.875px" id="Ebene_1" preserveAspectRatio="xMidYMid meet" version="1.1" viewBox="0 0 4.684 1.875" width="4.684px" x="0px" xml:space="preserve" xmlns="http://www.w3.org/2000/svg" xmlns:xlink="http://www.w3.org/1999/xlink" y="0px" zoomAndPan="magnify">      
    <style type="text/css">@import url(&quot;/themes/vrsz/images/geoposlib/geopos_symb.css&quot;);</style>       
    <g>           
        <g>                
            <rect class="static_symb_mast_fill_default" height="1.793" id="mast_428_fill" width="1.909" x="0.001"></rect>                
            <rect class="static_symb_mast_stroke" height="1.793" width="1.909" x="0.001"></rect>  </g>           
        <g>                
            <path class="static_symb_mast_static_stroke" d="M0.543,1.317c-0.012,0-0.023-0.008-0.029-0.021L0.217,0.569v0.718c0,0.018-0.015,0.03-0.032,0.03                  c-0.017,0-0.031-0.014-0.031-0.03V0.41c0-0.015,0.011-0.028,0.024-0.031c0.015-0.003,0.029,0.006,0.035,0.019L0.51,1.127V0.41                  c0-0.018,0.015-0.031,0.032-0.031S0.575,0.393,0.575,0.41v0.877c0,0.015-0.012,0.026-0.025,0.03                  C0.547,1.317,0.545,1.317,0.543,1.317z                  M1.578,1.317H1.192c-0.012,0-0.021-0.006-0.027-0.015c-0.005-0.01-0.006-0.021,0-0.031                  l0.419-0.83H1.249c-0.017,0-0.031-0.014-0.031-0.032c0-0.018,0.013-0.032,0.031-0.032h0.386c0.01,0,0.021,0.005,0.026,0.016                  c0.006,0.009,0.006,0.021,0.002,0.03l-0.42,0.831h0.335c0.017,0,0.031,0.015,0.031,0.033C1.609,1.305,1.594,1.317,1.578,1.317z                  M0.7,1.317c-0.019,0-0.032-0.014-0.032-0.03V0.41c0-0.018,0.013-0.031,0.032-0.031h0.421c0.017,0,0.031,0.014,0.031,0.031                  S1.137,0.441,1.121,0.441H0.73v0.293h0.212c0.017,0,0.031,0.014,0.031,0.032s-0.015,0.03-0.031,0.03H0.73v0.49                  C0.73,1.304,0.718,1.317,0.7,1.317z"></path>                
            <path class="static_symb_mast_static_fill" d="M0.543,1.317c-0.012,0-0.023-0.008-0.029-0.021L0.217,0.569v0.718c0,0.018-0.015,0.03-0.032,0.03                  c-0.017,0-0.031-0.014-0.031-0.03V0.41c0-0.015,0.011-0.028,0.024-0.031c0.015-0.003,0.029,0.006,0.035,0.019L0.51,1.127V0.41                  c0-0.018,0.015-0.031,0.032-0.031S0.575,0.393,0.575,0.41v0.877c0,0.015-0.012,0.026-0.025,0.03                  C0.547,1.317,0.545,1.317,0.543,1.317z                  M1.578,1.317H1.192c-0.012,0-0.021-0.006-0.027-0.015c-0.005-0.01-0.006-0.021,0-0.031                  l0.419-0.83H1.249c-0.017,0-0.031-0.014-0.031-0.032c0-0.018,0.013-0.032,0.031-0.032h0.386c0.01,0,0.021,0.005,0.026,0.016                  c0.006,0.009,0.006,0.021,0.002,0.03l-0.42,0.831h0.335c0.017,0,0.031,0.015,0.031,0.033C1.609,1.305,1.594,1.317,1.578,1.317z                  M0.7,1.317c-0.019,0-0.032-0.014-0.032-0.03V0.41c0-0.018,0.013-0.031,0.032-0.031h0.421c0.017,0,0.031,0.014,0.031,0.031                  S1.137,0.441,1.121,0.441H0.73v0.293h0.212c0.017,0,0.031,0.014,0.031,0.032s-0.015,0.03-0.031,0.03H0.73v0.49                  C0.73,1.304,0.718,1.317,0.7,1.317z"></path>  </g>           
        <g>                
            <text class="static_symb_det_txtbox_txt_stroke" id="textfeld" text-anchor="start" x="2.7" y="1.4">x</text>             
            <text class="static_symb_mast_txtbox_txt" id="textfeld" text-anchor="start" x="2.7" y="1.4">x</text>  </g> </g>  
    <circle cx="1" cy="0.9" fill="#FF0000" id="symbolcenter" r="0.2" visibility="hidden"></circle> </svg>
