<?xml version="1.0" encoding="utf-8"?>
<!DOCTYPE svg PUBLIC "-//W3C//DTD SVG 1.1//EN" "http://www.w3.org/Graphics/SVG/1.1/DTD/svg11.dtd">
<?xml-stylesheet href="http://plr2-dev/themes/vrsz/images/geoposlib/geopos_symb.css" type="text/css"?>
<svg baseProfile="full" contentScriptType="text/ecmascript" contentStyleType="text/css" enable-background="new 0 0 2.584 3.777" height="3.777px" id="Ebene_1" preserveAspectRatio="xMidYMid meet" version="1.1" viewBox="0 0 2.584 3.777" width="2.584px" x="0px" xml:space="preserve" xmlns="http://www.w3.org/2000/svg" xmlns:xlink="http://www.w3.org/1999/xlink" y="0px" zoomAndPan="magnify"> 
    <style type="text/css">@import url(&quot;/themes/vrsz/images/geoposlib/geopos_symb.css&quot;);</style>  
    <g>  
        <g>   
            <rect class="static_symb_mast_fill_default" height="1.792" id="mast_429_fill" width="1.908" x="0.32" y="0"></rect>   
            <rect class="static_symb_mast_stroke" height="1.792" width="1.908" x="0.32" y="0"></rect>  </g>  
        <g>   
            <path class="static_symb_mast_static_stroke" d="M0.923,1.345c-0.013,0-0.024-0.007-0.03-0.021L0.595,0.597l0.002,0.718c0,0.019-0.014,0.03-0.032,0.03                  l0,0c-0.017,0-0.031-0.013-0.031-0.03V0.438c0-0.016,0.01-0.028,0.024-0.032c0.017-0.002,0.029,0.006,0.035,0.02l0.298,0.729                  V0.438c0-0.019,0.014-0.032,0.031-0.032c0.017,0,0.031,0.015,0.031,0.032v0.875c0,0.015-0.01,0.027-0.026,0.03                  C0.927,1.345,0.925,1.345,0.923,1.345z                  M1.957,1.345H1.572c-0.012,0-0.021-0.005-0.029-0.015c-0.004-0.011-0.006-0.021,0-0.03                  l0.42-0.831H1.629c-0.016,0-0.031-0.014-0.031-0.03c0-0.019,0.014-0.032,0.031-0.032h0.385c0.011,0,0.021,0.006,0.027,0.016                  c0.006,0.009,0.006,0.021,0.002,0.029l-0.42,0.83h0.334c0.018,0,0.031,0.015,0.031,0.032C1.988,1.33,1.973,1.345,1.957,1.345z                  M1.078,1.345c-0.018,0-0.03-0.013-0.03-0.03V0.438c0-0.019,0.014-0.032,0.03-0.032H1.5c0.017,0,0.031,0.015,0.031,0.032                  c0,0.017-0.015,0.03-0.031,0.03H1.111v0.293h0.211c0.018,0,0.032,0.015,0.032,0.032c0,0.019-0.015,0.031-0.032,0.031H1.111v0.49                  C1.111,1.33,1.096,1.345,1.078,1.345z"></path>   
            <path class="static_symb_mast_static_fill" d="M0.923,1.345c-0.013,0-0.024-0.007-0.03-0.021L0.595,0.597l0.002,0.718c0,0.019-0.014,0.03-0.032,0.03                  l0,0c-0.017,0-0.031-0.013-0.031-0.03V0.438c0-0.016,0.01-0.028,0.024-0.032c0.017-0.002,0.029,0.006,0.035,0.02l0.298,0.729                  V0.438c0-0.019,0.014-0.032,0.031-0.032c0.017,0,0.031,0.015,0.031,0.032v0.875c0,0.015-0.01,0.027-0.026,0.03                  C0.927,1.345,0.925,1.345,0.923,1.345z                  M1.957,1.345H1.572c-0.012,0-0.021-0.005-0.029-0.015c-0.004-0.011-0.006-0.021,0-0.03                  l0.42-0.831H1.629c-0.016,0-0.031-0.014-0.031-0.03c0-0.019,0.014-0.032,0.031-0.032h0.385c0.011,0,0.021,0.006,0.027,0.016                  c0.006,0.009,0.006,0.021,0.002,0.029l-0.42,0.83h0.334c0.018,0,0.031,0.015,0.031,0.032C1.988,1.33,1.973,1.345,1.957,1.345z                  M1.078,1.345c-0.018,0-0.03-0.013-0.03-0.03V0.438c0-0.019,0.014-0.032,0.03-0.032H1.5c0.017,0,0.031,0.015,0.031,0.032                  c0,0.017-0.015,0.03-0.031,0.03H1.111v0.293h0.211c0.018,0,0.032,0.015,0.032,0.032c0,0.019-0.015,0.031-0.032,0.031H1.111v0.49                  C1.111,1.33,1.096,1.345,1.078,1.345z"></path>  </g>  
        <g>   
            <text class="static_symb_det_txtbox_txt_stroke" id="textfeld" text-anchor="middle" x="1.3" y="3.4">x</text>
            <text class="static_symb_mast_txtbox_txt" id="textfeld" text-anchor="middle" x="1.3" y="3.4">x</text>  </g> </g> 
<circle visibility="hidden" id="symbolcenter" r="0.2" cx="1.35" cy="0.9" fill="#FF0000"></circle>
</svg>
