<?xml version="1.0" standalone="no"?><!DOCTYPE svg PUBLIC "-//W3C//DTD SVG 1.1//EN" "http://www.w3.org/Graphics/SVG/1.1/DTD/svg11.dtd">
<?xml-stylesheet href="http://plr2-dev/themes/vrsz/images/geoposlib/geopos_symb.css" type="text/css"?>
<svg baseProfile="full" contentScriptType="text/ecmascript" contentStyleType="text/css" enable-background="new 0 0 2.586 3.836" height="3.836px" id="Ebene_1" preserveAspectRatio="xMidYMid meet" version="1.1" viewBox="0 0 2.586 3.836" width="2.586px" x="0px" xml:space="preserve" xmlns="http://www.w3.org/2000/svg" xmlns:xlink="http://www.w3.org/1999/xlink" y="0px" zoomAndPan="magnify">      
    <style type="text/css">@import url(&quot;/themes/vrsz/images/geoposlib/geopos_symb.css&quot;);</style>       
    <g>           
        <g>                
            <rect class="static_symb_mast_fill_default" height="1.792" id="mast_430_fill" width="1.911" x="0.347" y="2.044"></rect>                
            <rect class="static_symb_mast_stroke" height="1.792" width="1.909" x="0.347" y="2.044"></rect>  </g>           
        <g>                
            <path d="M0.664,3.352c0,0,0,0-0.002,0C0.648,3.35,0.637,3.34,0.635,3.326l-0.12-0.699                  C0.512,2.609,0.522,2.594,0.54,2.59C0.555,2.588,0.573,2.6,0.576,2.615l0.096,0.561l0.15-0.551                  c0.004-0.014,0.016-0.023,0.031-0.023c0.012-0.004,0.023,0.01,0.03,0.021l0.173,0.553L1.14,2.623                  c0.002-0.02,0.017-0.031,0.035-0.029c0.016,0.002,0.028,0.02,0.024,0.035L1.098,3.318C1.096,3.334,1.084,3.344,1.07,3.346                  c-0.015,0-0.029-0.008-0.033-0.021l-0.183-0.58L0.695,3.328C0.69,3.342,0.679,3.352,0.664,3.352z                  M1.863,3.338H1.582                  c-0.01,0-0.018-0.004-0.023-0.012L1.508,3.27c-0.006-0.006-0.01-0.014-0.01-0.02V3.164c0-0.018,0.014-0.031,0.033-0.031                  c0.018,0,0.031,0.014,0.031,0.031v0.072l0.031,0.037h0.255l0.028-0.025V3.025L1.846,3H1.537C1.524,3,1.514,2.992,1.509,2.98                  L1.478,2.918c-0.003-0.004-0.004-0.01-0.004-0.012V2.664c0-0.008,0.002-0.014,0.006-0.02l0.031-0.041                  C1.516,2.594,1.524,2.59,1.535,2.59h0.338c0.009,0,0.016,0.004,0.022,0.012l0.048,0.051c0.004,0.006,0.006,0.014,0.006,0.02v0.084                  c0,0.018-0.013,0.031-0.031,0.031c-0.018,0-0.031-0.016-0.031-0.031V2.684L1.857,2.652H1.553l-0.016,0.02v0.227l0.021,0.039h0.299                  c0.007,0,0.013,0.004,0.021,0.008L1.93,2.986c0.006,0.006,0.01,0.016,0.01,0.025v0.25c0,0.01-0.004,0.018-0.012,0.023L1.883,3.33                  C1.877,3.334,1.871,3.338,1.863,3.338z"></path>                
            <path class="static_symb_mast_static_fill" d="M0.664,3.352c0,0,0,0-0.002,0C0.648,3.35,0.637,3.34,0.635,3.326l-0.12-0.699                  C0.512,2.609,0.522,2.594,0.54,2.59C0.555,2.588,0.573,2.6,0.576,2.615l0.096,0.561l0.15-0.551                  c0.004-0.014,0.016-0.023,0.031-0.023c0.012-0.004,0.023,0.01,0.03,0.021l0.173,0.553L1.14,2.623                  c0.002-0.02,0.017-0.031,0.035-0.029c0.016,0.002,0.028,0.02,0.024,0.035L1.098,3.318C1.096,3.334,1.084,3.344,1.07,3.346                  c-0.015,0-0.029-0.008-0.033-0.021l-0.183-0.58L0.695,3.328C0.69,3.342,0.679,3.352,0.664,3.352z                  M1.863,3.338H1.582                  c-0.01,0-0.018-0.004-0.023-0.012L1.508,3.27c-0.006-0.006-0.01-0.014-0.01-0.02V3.164c0-0.018,0.014-0.031,0.033-0.031                  c0.018,0,0.031,0.014,0.031,0.031v0.072l0.031,0.037h0.255l0.028-0.025V3.025L1.846,3H1.537C1.524,3,1.514,2.992,1.509,2.98                  L1.478,2.918c-0.003-0.004-0.004-0.01-0.004-0.012V2.664c0-0.008,0.002-0.014,0.006-0.02l0.031-0.041                  C1.516,2.594,1.524,2.59,1.535,2.59h0.338c0.009,0,0.016,0.004,0.022,0.012l0.048,0.051c0.004,0.006,0.006,0.014,0.006,0.02v0.084                  c0,0.018-0.013,0.031-0.031,0.031c-0.018,0-0.031-0.016-0.031-0.031V2.684L1.857,2.652H1.553l-0.016,0.02v0.227l0.021,0.039h0.299                  c0.007,0,0.013,0.004,0.021,0.008L1.93,2.986c0.006,0.006,0.01,0.016,0.01,0.025v0.25c0,0.01-0.004,0.018-0.012,0.023L1.883,3.33                  C1.877,3.334,1.871,3.338,1.863,3.338z"></path>  </g>           
        <g>                
            <text class="static_symb_det_txtbox_txt_stroke" id="textfeld" text-anchor="middle" x="1.3" y="1.2">x</text>             
            <text class="static_symb_mast_txtbox_txt" id="textfeld" text-anchor="middle" x="1.3" y="1.2">x</text>  </g> </g>  
    <circle cx="1.3" cy="2.95" fill="#FF0000" id="symbolcenter" r="0.2" visibility="hidden"></circle> </svg>
