<?xml version="1.0" standalone="no"?><!DOCTYPE svg PUBLIC "-//W3C//DTD SVG 1.1//EN" "http://www.w3.org/Graphics/SVG/1.1/DTD/svg11.dtd">
<?xml-stylesheet href="http://plr2-dev/themes/vrsz/images/geoposlib/geopos_symb.css" type="text/css"?>
<svg baseProfile="full" contentScriptType="text/ecmascript" contentStyleType="text/css" enable-background="new 0 0 4.684 1.875" height="1.875px" id="Ebene_1" preserveAspectRatio="xMidYMid meet" version="1.1" viewBox="0 0 4.684 1.875" width="4.684px" x="0px" xml:space="preserve" xmlns="http://www.w3.org/2000/svg" xmlns:xlink="http://www.w3.org/1999/xlink" y="0px" zoomAndPan="magnify">      
    <style type="text/css">@import url(&quot;/themes/vrsz/images/geoposlib/geopos_symb.css&quot;);</style>       
    <g>           
        <g>                
            <rect class="static_symb_mast_fill_default" height="1.793" id="mast_431_fill" width="1.91" x="0.001"></rect>                
            <rect class="static_symb_mast_stroke" height="1.793" width="1.91" x="0.001"></rect>  </g>           
        <g>                
            <path d="M0.32,1.309c-0.001,0-0.001,0-0.002,0C0.302,1.308,0.291,1.297,0.289,1.282L0.168,0.584                  c-0.003-0.018,0.01-0.033,0.027-0.037c0.016-0.002,0.031,0.009,0.034,0.025l0.096,0.561L0.476,0.58                  c0.004-0.014,0.017-0.021,0.03-0.021h0.002c0.013,0,0.025,0.01,0.03,0.021l0.174,0.551l0.081-0.555                  C0.796,0.56,0.811,0.547,0.829,0.551c0.017,0.002,0.03,0.019,0.026,0.035L0.753,1.275C0.75,1.291,0.739,1.301,0.722,1.302                  C0.711,1.304,0.696,1.295,0.692,1.28L0.51,0.701l-0.16,0.584C0.345,1.297,0.333,1.309,0.32,1.309z                  M1.516,1.291h-0.28                  c-0.01,0-0.019-0.004-0.023-0.011l-0.05-0.055C1.157,1.221,1.154,1.213,1.154,1.205V1.121c0-0.019,0.014-0.031,0.031-0.031                  c0.019,0,0.032,0.013,0.032,0.031v0.071L1.25,1.229h0.255l0.027-0.023V0.983L1.499,0.959H1.192c-0.013,0-0.023-0.008-0.028-0.018                  L1.133,0.875C1.13,0.871,1.129,0.867,1.129,0.861v-0.24c0-0.008,0.002-0.014,0.006-0.02l0.03-0.041                  c0.006-0.009,0.015-0.012,0.024-0.012h0.337c0.009,0,0.017,0.003,0.022,0.01L1.594,0.61C1.6,0.615,1.603,0.623,1.603,0.631v0.082                  c0,0.017-0.014,0.031-0.03,0.031c-0.018,0-0.031-0.015-0.031-0.031V0.642L1.512,0.61H1.206L1.191,0.631v0.224l0.021,0.041H1.51                  c0.007,0,0.014,0.002,0.021,0.007l0.051,0.04c0.009,0.006,0.012,0.015,0.012,0.025v0.251c0,0.009-0.003,0.018-0.01,0.023                  L1.538,1.285C1.532,1.289,1.524,1.291,1.516,1.291z"></path>                
            <path class="static_symb_mast_static_fill" d="M0.32,1.309c-0.001,0-0.001,0-0.002,0C0.302,1.308,0.291,1.297,0.289,1.282L0.168,0.584                  c-0.003-0.018,0.01-0.033,0.027-0.037c0.016-0.002,0.031,0.009,0.034,0.025l0.096,0.561L0.476,0.58                  c0.004-0.014,0.017-0.021,0.03-0.021h0.002c0.013,0,0.025,0.01,0.03,0.021l0.174,0.551l0.081-0.555                  C0.796,0.56,0.811,0.547,0.829,0.551c0.017,0.002,0.03,0.019,0.026,0.035L0.753,1.275C0.75,1.291,0.739,1.301,0.722,1.302                  C0.711,1.304,0.696,1.295,0.692,1.28L0.51,0.701l-0.16,0.584C0.345,1.297,0.333,1.309,0.32,1.309z                  M1.516,1.291h-0.28                  c-0.01,0-0.019-0.004-0.023-0.011l-0.05-0.055C1.157,1.221,1.154,1.213,1.154,1.205V1.121c0-0.019,0.014-0.031,0.031-0.031                  c0.019,0,0.032,0.013,0.032,0.031v0.071L1.25,1.229h0.255l0.027-0.023V0.983L1.499,0.959H1.192c-0.013,0-0.023-0.008-0.028-0.018                  L1.133,0.875C1.13,0.871,1.129,0.867,1.129,0.861v-0.24c0-0.008,0.002-0.014,0.006-0.02l0.03-0.041                  c0.006-0.009,0.015-0.012,0.024-0.012h0.337c0.009,0,0.017,0.003,0.022,0.01L1.594,0.61C1.6,0.615,1.603,0.623,1.603,0.631v0.082                  c0,0.017-0.014,0.031-0.03,0.031c-0.018,0-0.031-0.015-0.031-0.031V0.642L1.512,0.61H1.206L1.191,0.631v0.224l0.021,0.041H1.51                  c0.007,0,0.014,0.002,0.021,0.007l0.051,0.04c0.009,0.006,0.012,0.015,0.012,0.025v0.251c0,0.009-0.003,0.018-0.01,0.023                  L1.538,1.285C1.532,1.289,1.524,1.291,1.516,1.291z"></path>  </g>           
        <g>                
            <text class="static_symb_det_txtbox_txt_stroke" id="textfeld" text-anchor="start" x="2.7" y="1.45">x</text>             
            <text class="static_symb_mast_txtbox_txt" id="textfeld" text-anchor="start" x="2.7" y="1.45">x</text>  </g> </g>  
    <circle cx="0.95" cy="0.9" fill="#FF0000" id="symbolcenter" r="0.2" visibility="hidden"></circle> </svg>
