<?xml version="1.0" encoding="utf-8"?>
<!DOCTYPE svg PUBLIC "-//W3C//DTD SVG 1.1//EN" "http://www.w3.org/Graphics/SVG/1.1/DTD/svg11.dtd">
<?xml-stylesheet href="http://plr2-dev/themes/vrsz/images/geoposlib/geopos_symb.css" type="text/css"?>
<svg baseProfile="full" contentScriptType="text/ecmascript" contentStyleType="text/css" enable-background="new 0 0 2.584 3.777" height="3.777px" id="Ebene_1" preserveAspectRatio="xMidYMid meet" version="1.1" viewBox="0 0 2.584 3.777" width="2.584px" x="0px" xml:space="preserve" xmlns="http://www.w3.org/2000/svg" xmlns:xlink="http://www.w3.org/1999/xlink" y="0px" zoomAndPan="magnify"> 
    <style type="text/css">@import url(&quot;/themes/vrsz/images/geoposlib/geopos_symb.css&quot;);</style>  
    <g>  
        <g>   
            <rect class="static_symb_mast_fill_default" height="1.792" id="mast_432_fill" width="1.908" x="0.32" y="0"></rect>   
            <rect class="static_symb_mast_stroke" height="1.792" width="1.908" x="0.32" y="0"></rect>  </g>  
        <g>   
            <path d="M0.638,1.307c-0.001,0-0.001,0-0.002,0C0.621,1.306,0.609,1.295,0.606,1.28L0.487,0.582                  C0.483,0.566,0.496,0.549,0.513,0.546C0.53,0.542,0.546,0.555,0.549,0.571l0.095,0.561l0.151-0.552                  C0.8,0.567,0.812,0.559,0.826,0.559l0,0c0.014,0,0.025,0.009,0.029,0.021l0.174,0.552l0.084-0.556                  C1.115,0.56,1.129,0.547,1.147,0.55c0.017,0.002,0.028,0.021,0.025,0.036L1.072,1.275C1.068,1.288,1.056,1.3,1.043,1.301                  C1.031,1.305,1.014,1.293,1.011,1.279L0.828,0.698l-0.16,0.585C0.664,1.297,0.652,1.307,0.638,1.307z                  M1.834,1.292h-0.28                  c-0.009,0-0.017-0.005-0.022-0.012L1.48,1.223c-0.007-0.004-0.009-0.012-0.009-0.02V1.118c0-0.017,0.015-0.03,0.03-0.03                  c0.019,0,0.033,0.015,0.033,0.031v0.073l0.033,0.038h0.256l0.027-0.025V0.981L1.817,0.955H1.511c-0.011,0-0.022-0.008-0.029-0.018                  L1.449,0.874c0-0.004-0.002-0.01-0.002-0.014V0.619c0-0.007,0.002-0.012,0.006-0.018l0.029-0.044                  c0.006-0.01,0.016-0.014,0.027-0.014h0.335c0.01,0,0.019,0.004,0.022,0.01l0.047,0.054c0.008,0.006,0.01,0.014,0.01,0.021v0.082                  c0,0.019-0.014,0.03-0.031,0.03s-0.031-0.014-0.031-0.03V0.642L1.83,0.606H1.524L1.51,0.628v0.226l0.021,0.041H1.83                  c0.006,0,0.014,0.002,0.019,0.006L1.9,0.943c0.008,0.005,0.012,0.016,0.012,0.023v0.251c0,0.011-0.004,0.018-0.01,0.021                  L1.856,1.282C1.851,1.29,1.845,1.292,1.834,1.292z"></path>   
            <path class="static_symb_mast_static_fill" d="M0.638,1.307c-0.001,0-0.001,0-0.002,0C0.621,1.306,0.609,1.295,0.606,1.28L0.487,0.582                  C0.483,0.566,0.496,0.549,0.513,0.546C0.53,0.542,0.546,0.555,0.549,0.571l0.095,0.561l0.151-0.552                  C0.8,0.567,0.812,0.559,0.826,0.559l0,0c0.014,0,0.025,0.009,0.029,0.021l0.174,0.552l0.084-0.556                  C1.115,0.56,1.129,0.547,1.147,0.55c0.017,0.002,0.028,0.021,0.025,0.036L1.072,1.275C1.068,1.288,1.056,1.3,1.043,1.301                  C1.031,1.305,1.014,1.293,1.011,1.279L0.828,0.698l-0.16,0.585C0.664,1.297,0.652,1.307,0.638,1.307z                  M1.834,1.292h-0.28                  c-0.009,0-0.017-0.005-0.022-0.012L1.48,1.223c-0.007-0.004-0.009-0.012-0.009-0.02V1.118c0-0.017,0.015-0.03,0.03-0.03                  c0.019,0,0.033,0.015,0.033,0.031v0.073l0.033,0.038h0.256l0.027-0.025V0.981L1.817,0.955H1.511c-0.011,0-0.022-0.008-0.029-0.018                  L1.449,0.874c0-0.004-0.002-0.01-0.002-0.014V0.619c0-0.007,0.002-0.012,0.006-0.018l0.029-0.044                  c0.006-0.01,0.016-0.014,0.027-0.014h0.335c0.01,0,0.019,0.004,0.022,0.01l0.047,0.054c0.008,0.006,0.01,0.014,0.01,0.021v0.082                  c0,0.019-0.014,0.03-0.031,0.03s-0.031-0.014-0.031-0.03V0.642L1.83,0.606H1.524L1.51,0.628v0.226l0.021,0.041H1.83                  c0.006,0,0.014,0.002,0.019,0.006L1.9,0.943c0.008,0.005,0.012,0.016,0.012,0.023v0.251c0,0.011-0.004,0.018-0.01,0.021                  L1.856,1.282C1.851,1.29,1.845,1.292,1.834,1.292z"></path>  </g>  
        <g>   
            <text class="static_symb_det_txtbox_txt_stroke" id="textfeld" text-anchor="middle" x="1.3" y="3.4">x</text>
            <text class="static_symb_mast_txtbox_txt" id="textfeld" text-anchor="middle" x="1.3" y="3.4">x</text>  </g> </g> 
<circle visibility="hidden" id="symbolcenter" r="0.2" cx="1.3" cy="0.9" fill="#FF0000"></circle>
</svg>
