<?xml version="1.0" standalone="no"?><!DOCTYPE svg PUBLIC "-//W3C//DTD SVG 1.1//EN" "http://www.w3.org/Graphics/SVG/1.1/DTD/svg11.dtd">
<?xml-stylesheet href="http://plr2-dev/themes/vrsz/images/geoposlib/geopos_symb.css" type="text/css"?>
<svg baseProfile="full" contentScriptType="text/ecmascript" contentStyleType="text/css" enable-background="new 0 0 3.085 3.043" height="3.043px" id="Ebene_1" preserveAspectRatio="xMidYMid meet" version="1.1" viewBox="0 0 3.085 3.043" width="3.085px" x="0px" xml:space="preserve" xmlns="http://www.w3.org/2000/svg" xmlns:xlink="http://www.w3.org/1999/xlink" y="0px" zoomAndPan="magnify">     
    <style type="text/css">@import url(&quot;/themes/vrsz/images/geoposlib/geopos_symb.css&quot;);</style>    
    <g>     
        <g>     
            <rect class="static_symb_det_fill_default" height="2.976" id="det_191_fill" width="0.928" x="2.125" y="0.04"></rect>     
            <rect class="static_symb_det_stroke" height="2.976" width="0.928" x="2.125" y="0.04"></rect>  </g>     
        <g>     
            <path class="static_symb_det_static_stroke" d="M2.851,0.049c-0.01-0.013-0.008-0.032,0.007-0.044c0.015-0.009,0.032-0.006,0.044,0.01l0.177,0.251                  C3.089,0.28,3.085,0.298,3.072,0.31c-0.006,0.003-0.014,0.004-0.02,0.004c-0.01,0-0.021-0.005-0.024-0.012L2.851,0.049z                  M3.052,1.521c0.006,0,0.014-0.001,0.02-0.005c0.014-0.012,0.018-0.03,0.008-0.044L2.153,0.146                  c-0.011-0.015-0.03-0.018-0.044-0.008c-0.016,0.01-0.018,0.029-0.008,0.044l0.927,1.323C3.033,1.516,3.042,1.521,3.052,1.521z                  M2.161,1.446c-0.01-0.015-0.028-0.018-0.044-0.008c-0.012,0.01-0.016,0.03-0.006,0.043l0.917,1.312                  c0.006,0.01,0.017,0.014,0.024,0.014c0.006,0,0.014-0.002,0.02-0.008C3.087,2.789,3.089,2.77,3.08,2.754L2.161,1.446z                  M2.158,2.588C2.148,2.576,2.128,2.57,2.115,2.582C2.099,2.593,2.097,2.609,2.108,2.625L2.39,3.029                  c0.006,0.012,0.017,0.014,0.026,0.014c0.007,0,0.013-0.002,0.019-0.006c0.014-0.01,0.017-0.027,0.008-0.043L2.158,2.588z"></path>     
            <path class="static_symb_det_static_fill" d="M2.851,0.049c-0.01-0.013-0.008-0.032,0.007-0.044c0.015-0.009,0.032-0.006,0.044,0.01l0.177,0.251                  C3.089,0.28,3.085,0.298,3.072,0.31c-0.006,0.003-0.014,0.004-0.02,0.004c-0.01,0-0.021-0.005-0.024-0.012L2.851,0.049z                  M3.052,1.521c0.006,0,0.014-0.001,0.02-0.005c0.014-0.012,0.018-0.03,0.008-0.044L2.153,0.146                  c-0.011-0.015-0.03-0.018-0.044-0.008c-0.016,0.01-0.018,0.029-0.008,0.044l0.927,1.323C3.033,1.516,3.042,1.521,3.052,1.521z                  M2.161,1.446c-0.01-0.015-0.028-0.018-0.044-0.008c-0.012,0.01-0.016,0.03-0.006,0.043l0.917,1.312                  c0.006,0.01,0.017,0.014,0.024,0.014c0.006,0,0.014-0.002,0.02-0.008C3.087,2.789,3.089,2.77,3.08,2.754L2.161,1.446z                  M2.158,2.588C2.148,2.576,2.128,2.57,2.115,2.582C2.099,2.593,2.097,2.609,2.108,2.625L2.39,3.029                  c0.006,0.012,0.017,0.014,0.026,0.014c0.007,0,0.013-0.002,0.019-0.006c0.014-0.01,0.017-0.027,0.008-0.043L2.158,2.588z"></path>  </g>     
        <g>     
            <text class="static_symb_det_txtbox_txt_stroke" id="textfeld" text-anchor="end" x="1.3" y="2.1">x</text>   
            <text class="static_symb_det_txtbox_txt" id="textfeld" text-anchor="end" x="1.3" y="2.1">x</text>  </g> </g>    
    <circle cx="2.595" cy="1.5" fill="#FF0000" id="symbolcenter" r="0.2" visibility="hidden"></circle> </svg>
