<?xml version="1.0" standalone="no"?><!DOCTYPE svg PUBLIC "-//W3C//DTD SVG 1.1//EN" "http://www.w3.org/Graphics/SVG/1.1/DTD/svg11.dtd">
<?xml-stylesheet href="http://plr2-dev/themes/vrsz/images/geoposlib/geopos_symb.css" type="text/css"?>
<svg baseProfile="full" contentScriptType="text/ecmascript" contentStyleType="text/css" enable-background="new 0 0 3.043 3.085" height="3.085px" id="Ebene_1" preserveAspectRatio="xMidYMid meet" version="1.1" viewBox="0 0 3.043 3.085" width="3.043px" x="0px" xml:space="preserve" xmlns="http://www.w3.org/2000/svg" xmlns:xlink="http://www.w3.org/1999/xlink" y="0px" zoomAndPan="magnify">  
  <style type="text/css">@import url(&quot;/themes/vrsz/images/geoposlib/geopos_symb.css&quot;);</style> 
  <g>  
  <g>  
  <rect class="static_symb_det_fill_default" height="0.928" id="det_191_fill" width="2.975" x="0.034" y="0.033"></rect>  
  <rect class="static_symb_det_stroke" height="0.928" width="2.975" x="0.034" y="0.033"></rect>  </g>  
  <g>  
  <path class="static_symb_det_static_stroke" d="M0.049,0.234c-0.013,0.01-0.031,0.008-0.044-0.006c-0.009-0.015-0.006-0.033,0.011-0.044l0.251-0.177  C0.28-0.004,0.298,0,0.311,0.014C0.313,0.02,0.314,0.027,0.314,0.033c0,0.01-0.005,0.021-0.012,0.025L0.049,0.234z  M1.521,0.033  c0-0.006-0.001-0.013-0.005-0.019C1.504,0,1.486-0.003,1.473,0.006L0.146,0.933c-0.016,0.011-0.019,0.03-0.008,0.044  c0.01,0.015,0.028,0.017,0.044,0.008l1.322-0.927C1.517,0.053,1.521,0.043,1.521,0.033z  M1.446,0.925  c-0.015,0.01-0.018,0.029-0.008,0.044c0.01,0.012,0.029,0.016,0.043,0.006l1.312-0.917c0.011-0.006,0.015-0.016,0.015-0.025  c0-0.006-0.002-0.013-0.009-0.019C2.789-0.001,2.77-0.003,2.754,0.006L1.446,0.925z  M2.588,0.928  c-0.012,0.01-0.017,0.03-0.006,0.043C2.594,0.986,2.61,0.989,2.625,0.978L3.03,0.696C3.041,0.69,3.043,0.679,3.043,0.669  c0-0.006-0.002-0.012-0.006-0.018c-0.01-0.014-0.026-0.017-0.043-0.008L2.588,0.928z"></path>  
  <path class="static_symb_det_static_fill" d="M0.049,0.234c-0.013,0.01-0.031,0.008-0.044-0.006c-0.009-0.015-0.006-0.033,0.011-0.044l0.251-0.177  C0.28-0.004,0.298,0,0.311,0.014C0.313,0.02,0.314,0.027,0.314,0.033c0,0.01-0.005,0.021-0.012,0.025L0.049,0.234z  M1.521,0.033  c0-0.006-0.001-0.013-0.005-0.019C1.504,0,1.486-0.003,1.473,0.006L0.146,0.933c-0.016,0.011-0.019,0.03-0.008,0.044  c0.01,0.015,0.028,0.017,0.044,0.008l1.322-0.927C1.517,0.053,1.521,0.043,1.521,0.033z  M1.446,0.925  c-0.015,0.01-0.018,0.029-0.008,0.044c0.01,0.012,0.029,0.016,0.043,0.006l1.312-0.917c0.011-0.006,0.015-0.016,0.015-0.025  c0-0.006-0.002-0.013-0.009-0.019C2.789-0.001,2.77-0.003,2.754,0.006L1.446,0.925z  M2.588,0.928  c-0.012,0.01-0.017,0.03-0.006,0.043C2.594,0.986,2.61,0.989,2.625,0.978L3.03,0.696C3.041,0.69,3.043,0.679,3.043,0.669  c0-0.006-0.002-0.012-0.006-0.018c-0.01-0.014-0.026-0.017-0.043-0.008L2.588,0.928z"></path>  </g>  
  <g>  
  <text class="static_symb_det_txtbox_txt_stroke" id="textfeld" text-anchor="middle" x="1.5" y="2.5">x</text>
  <text class="static_symb_det_txtbox_txt" id="textfeld" text-anchor="middle" x="1.5" y="2.5">x</text>  </g> </g> 
  <circle cx="1.521" cy="0.491" fill="#FF0000" id="symbolcenter" r="0.2" visibility="hidden"></circle> </svg>
