<?xml version="1.0" standalone="no"?><!DOCTYPE svg PUBLIC "-//W3C//DTD SVG 1.1//EN" "http://www.w3.org/Graphics/SVG/1.1/DTD/svg11.dtd">
<?xml-stylesheet href="http://plr2-dev/themes/vrsz/images/geoposlib/geopos_symb.css" type="text/css"?>
<svg baseProfile="full" contentScriptType="text/ecmascript" contentStyleType="text/css" enable-background="new 0 0 3.043 3.085" height="3.085px" id="Ebene_1" preserveAspectRatio="xMidYMid meet" version="1.1" viewBox="0 0 3.043 3.085" width="3.043px" x="0px" xml:space="preserve" xmlns="http://www.w3.org/2000/svg" xmlns:xlink="http://www.w3.org/1999/xlink" y="0px" zoomAndPan="magnify">     
    <style type="text/css">@import url(&quot;/themes/vrsz/images/geoposlib/geopos_symb.css&quot;);</style>    
    <g>     
        <g>     
            <rect class="static_symb_det_fill_default" height="0.928" id="det_191_fill" width="2.977" x="0.033" y="2.125"></rect>     
            <rect class="static_symb_det_stroke" height="0.928" width="2.977" x="0.033" y="2.125"></rect>  </g>     
        <g>     
            <path class="static_symb_det_static_stroke" d="M2.994,2.851c0.013-0.01,0.032-0.008,0.044,0.006c0.009,0.016,0.006,0.033-0.01,0.045L2.777,3.08                  c-0.014,0.01-0.032,0.006-0.044-0.008C2.73,3.066,2.729,3.058,2.729,3.052c0-0.01,0.005-0.021,0.012-0.025L2.994,2.851z                  M1.522,3.052c0,0.006,0.001,0.014,0.005,0.02c0.012,0.014,0.03,0.018,0.044,0.008l1.326-0.928                  c0.015-0.01,0.018-0.029,0.008-0.043c-0.01-0.016-0.029-0.018-0.044-0.008L1.538,3.027C1.527,3.033,1.522,3.042,1.522,3.052z                  M1.598,2.162C1.612,2.15,1.615,2.132,1.605,2.117c-0.01-0.012-0.03-0.016-0.043-0.006L0.25,3.027                  C0.239,3.035,0.235,3.044,0.235,3.052c0,0.006,0.002,0.014,0.009,0.02c0.01,0.016,0.028,0.018,0.045,0.008L1.598,2.162z                  M0.455,2.158c0.012-0.01,0.018-0.029,0.006-0.043C0.449,2.099,0.434,2.097,0.418,2.107L0.014,2.39C0.002,2.396,0,2.408,0,2.416                  s0.002,0.014,0.006,0.02c0.01,0.014,0.026,0.018,0.043,0.008L0.455,2.158z"></path>     
            <path class="static_symb_det_static_fill" d="M2.994,2.851c0.013-0.01,0.032-0.008,0.044,0.006c0.009,0.016,0.006,0.033-0.01,0.045L2.777,3.08                  c-0.014,0.01-0.032,0.006-0.044-0.008C2.73,3.066,2.729,3.058,2.729,3.052c0-0.01,0.005-0.021,0.012-0.025L2.994,2.851z                  M1.522,3.052c0,0.006,0.001,0.014,0.005,0.02c0.012,0.014,0.03,0.018,0.044,0.008l1.326-0.928                  c0.015-0.01,0.018-0.029,0.008-0.043c-0.01-0.016-0.029-0.018-0.044-0.008L1.538,3.027C1.527,3.033,1.522,3.042,1.522,3.052z                  M1.598,2.162C1.612,2.15,1.615,2.132,1.605,2.117c-0.01-0.012-0.03-0.016-0.043-0.006L0.25,3.027                  C0.239,3.035,0.235,3.044,0.235,3.052c0,0.006,0.002,0.014,0.009,0.02c0.01,0.016,0.028,0.018,0.045,0.008L1.598,2.162z                  M0.455,2.158c0.012-0.01,0.018-0.029,0.006-0.043C0.449,2.099,0.434,2.097,0.418,2.107L0.014,2.39C0.002,2.396,0,2.408,0,2.416                  s0.002,0.014,0.006,0.02c0.01,0.014,0.026,0.018,0.043,0.008L0.455,2.158z"></path>  </g>     
        <g>     
            <text class="static_symb_det_txtbox_txt_stroke" id="textfeld" text-anchor="middle" x="1.5" y="1.4">x</text>   
            <text class="static_symb_det_txtbox_txt" id="textfeld" text-anchor="middle" x="1.5" y="1.4">x</text>  </g> </g>    
    <circle cx="1.521" cy="2.595" fill="#FF0000" id="symbolcenter" r="0.2" visibility="hidden"></circle> </svg>
