<?xml version="1.0" standalone="no"?><!DOCTYPE svg PUBLIC "-//W3C//DTD SVG 1.1//EN" "http://www.w3.org/Graphics/SVG/1.1/DTD/svg11.dtd">
<?xml-stylesheet href="http://plr2-dev/themes/vrsz/images/geoposlib/geopos_symb.css" type="text/css"?>
<svg baseProfile="full" contentScriptType="text/ecmascript" contentStyleType="text/css" enable-background="new 0 0 4.631 1.707" height="1.707px" id="Ebene_1" preserveAspectRatio="xMidYMid meet" version="1.1" viewBox="0 0 4.631 1.707" width="4.631px" x="0px" xml:space="preserve" xmlns="http://www.w3.org/2000/svg" xmlns:xlink="http://www.w3.org/1999/xlink" y="0px" zoomAndPan="magnify">     
    <style type="text/css">@import url(&quot;/themes/vrsz/images/geoposlib/geopos_symb.css&quot;);</style>    
    <g>     
        <g>     
            <rect class="static_symb_det_fill_default" height="0.93" id="det_189_fill" width="2.972" x="0.032" y="0.389"></rect>     
            <rect class="static_symb_det_stroke" height="0.93" width="2.972" x="0.032" y="0.389"></rect>  </g>     
        <g>     
            <path class="static_symb_det_static_stroke" d="M2.994,1.114c0.015-0.01,0.033-0.006,0.044,0.008c0.011,0.015,0.007,0.033-0.009,0.043l-0.25,0.179                  c-0.016,0.01-0.035,0.005-0.045-0.01C2.732,1.327,2.73,1.322,2.73,1.317c0-0.012,0.004-0.02,0.013-0.027L2.994,1.114z                  M2.898,0.416c0.014-0.011,0.018-0.03,0.008-0.044C2.895,0.357,2.875,0.354,2.861,0.363L1.539,1.29                  C1.53,1.295,1.526,1.306,1.526,1.317c0,0.006,0.002,0.012,0.006,0.018c0.011,0.015,0.029,0.019,0.043,0.009L2.898,0.416z                  M0.455,0.422C0.468,0.411,0.47,0.393,0.462,0.378c-0.01-0.015-0.029-0.019-0.043-0.01L0.015,0.654C0.004,0.66,0,0.669,0,0.68                  c0,0.006,0.002,0.012,0.008,0.019c0.011,0.015,0.028,0.019,0.043,0.008L0.455,0.422z                  M1.597,0.425                  c0.016-0.011,0.018-0.03,0.01-0.044c-0.012-0.014-0.03-0.017-0.043-0.008L0.253,1.289C0.244,1.297,0.239,1.305,0.239,1.317                  c0,0.007,0.002,0.012,0.007,0.018c0.01,0.015,0.03,0.019,0.045,0.011L1.597,0.425z"></path>     
            <path class="static_symb_det_static_fill" d="M2.994,1.114c0.015-0.01,0.033-0.006,0.044,0.008c0.011,0.015,0.007,0.033-0.009,0.043l-0.25,0.179                  c-0.016,0.01-0.035,0.005-0.045-0.01C2.732,1.327,2.73,1.322,2.73,1.317c0-0.012,0.004-0.02,0.013-0.027L2.994,1.114z                  M2.898,0.416c0.014-0.011,0.018-0.03,0.008-0.044C2.895,0.357,2.875,0.354,2.861,0.363L1.539,1.29                  C1.53,1.295,1.526,1.306,1.526,1.317c0,0.006,0.002,0.012,0.006,0.018c0.011,0.015,0.029,0.019,0.043,0.009L2.898,0.416z                  M0.455,0.422C0.468,0.411,0.47,0.393,0.462,0.378c-0.01-0.015-0.029-0.019-0.043-0.01L0.015,0.654C0.004,0.66,0,0.669,0,0.68                  c0,0.006,0.002,0.012,0.008,0.019c0.011,0.015,0.028,0.019,0.043,0.008L0.455,0.422z                  M1.597,0.425                  c0.016-0.011,0.018-0.03,0.01-0.044c-0.012-0.014-0.03-0.017-0.043-0.008L0.253,1.289C0.244,1.297,0.239,1.305,0.239,1.317                  c0,0.007,0.002,0.012,0.007,0.018c0.01,0.015,0.03,0.019,0.045,0.011L1.597,0.425z"></path>  </g>     
        <g>     
            <text class="static_symb_det_txtbox_txt_stroke" id="textfeld" text-anchor="start" x="3.7" y="1.4">x</text>   
            <text class="static_symb_det_txtbox_txt" id="textfeld" text-anchor="start" x="3.7" y="1.4">x</text>  </g> </g>    
    <circle cx="1.544" cy="0.854" fill="#FF0000" id="symbolcenter" r="0.2" visibility="hidden"></circle> </svg>
