<?xml version="1.0" standalone="no"?><!DOCTYPE svg PUBLIC "-//W3C//DTD SVG 1.1//EN" "http://www.w3.org/Graphics/SVG/1.1/DTD/svg11.dtd">
<?xml-stylesheet href="http://plr2-dev/themes/vrsz/images/geoposlib/geopos_symb.css" type="text/css"?>
<svg baseProfile="full" contentScriptType="text/ecmascript" contentStyleType="text/css" enable-background="new 0 0 4.631 1.707" height="1.707px" id="Ebene_1" preserveAspectRatio="xMidYMid meet" version="1.1" viewBox="0 0 4.631 1.707" width="4.631px" x="0px" xml:space="preserve" xmlns="http://www.w3.org/2000/svg" xmlns:xlink="http://www.w3.org/1999/xlink" y="0px" zoomAndPan="magnify">     
    <style type="text/css">@import url(&quot;/themes/vrsz/images/geoposlib/geopos_symb.css&quot;);</style>    
    <g>     
        <g>     
            <rect class="static_symb_det_fill_default" height="0.929" id="det_190_fill" width="2.973" x="1.619" y="0.389"></rect>     
            <rect class="static_symb_det_stroke" height="0.929" width="2.973" x="1.619" y="0.389"></rect>  </g>     
        <g>     
            <path class="static_symb_det_static_stroke" d="M4.582,1.115c0.015-0.011,0.033-0.007,0.043,0.006c0.01,0.014,0.008,0.033-0.008,0.045L4.365,1.343                  C4.352,1.354,4.334,1.35,4.322,1.334C4.319,1.33,4.317,1.323,4.317,1.316c0-0.011,0.005-0.019,0.013-0.024L4.582,1.115z                  M4.485,0.416c0.013-0.011,0.017-0.029,0.007-0.044C4.483,0.357,4.463,0.354,4.448,0.364L3.127,1.292                  c-0.01,0.005-0.015,0.015-0.015,0.024c0,0.007,0.002,0.013,0.005,0.019C3.129,1.35,3.147,1.353,3.16,1.343L4.485,0.416z                  M2.043,0.423C2.058,0.412,2.06,0.394,2.049,0.38c-0.01-0.015-0.026-0.018-0.041-0.009L1.602,0.653                  C1.592,0.659,1.59,0.67,1.59,0.679c0,0.007,0.002,0.012,0.004,0.019c0.013,0.016,0.031,0.019,0.045,0.009L2.043,0.423z                  M3.188,0.426c0.014-0.011,0.016-0.03,0.008-0.044C3.183,0.366,3.166,0.363,3.151,0.373L1.84,1.289                  C1.83,1.296,1.828,1.306,1.828,1.315c0,0.007,0.002,0.014,0.006,0.018c0.01,0.017,0.028,0.02,0.043,0.009L3.188,0.426z"></path>     
            <path class="static_symb_det_static_fill" d="M4.582,1.115c0.015-0.011,0.033-0.007,0.043,0.006c0.01,0.014,0.008,0.033-0.008,0.045L4.365,1.343                  C4.352,1.354,4.334,1.35,4.322,1.334C4.319,1.33,4.317,1.323,4.317,1.316c0-0.011,0.005-0.019,0.013-0.024L4.582,1.115z                  M4.485,0.416c0.013-0.011,0.017-0.029,0.007-0.044C4.483,0.357,4.463,0.354,4.448,0.364L3.127,1.292                  c-0.01,0.005-0.015,0.015-0.015,0.024c0,0.007,0.002,0.013,0.005,0.019C3.129,1.35,3.147,1.353,3.16,1.343L4.485,0.416z                  M2.043,0.423C2.058,0.412,2.06,0.394,2.049,0.38c-0.01-0.015-0.026-0.018-0.041-0.009L1.602,0.653                  C1.592,0.659,1.59,0.67,1.59,0.679c0,0.007,0.002,0.012,0.004,0.019c0.013,0.016,0.031,0.019,0.045,0.009L2.043,0.423z                  M3.188,0.426c0.014-0.011,0.016-0.03,0.008-0.044C3.183,0.366,3.166,0.363,3.151,0.373L1.84,1.289                  C1.83,1.296,1.828,1.306,1.828,1.315c0,0.007,0.002,0.014,0.006,0.018c0.01,0.017,0.028,0.02,0.043,0.009L3.188,0.426z"></path>  </g>     
        <g>     
            <text class="static_symb_det_txtbox_txt_stroke" id="textfeld" text-anchor="end" x="0.9" y="1.4">x</text>   
            <text class="static_symb_det_txtbox_txt" id="textfeld" text-anchor="end" x="0.9" y="1.4">x</text>  </g> </g>    
    <circle cx="3.11" cy="0.853" fill="#FF0000" id="symbolcenter" r="0.2" visibility="hidden"></circle> </svg>
