<?xml version="1.0" standalone="no"?><!DOCTYPE svg PUBLIC "-//W3C//DTD SVG 1.1//EN" "http://www.w3.org/Graphics/SVG/1.1/DTD/svg11.dtd">
<?xml-stylesheet href="http://plr2-dev/themes/vrsz/images/geoposlib/geopos_symb.css" type="text/css"?>
<svg baseProfile="full" contentScriptType="text/ecmascript" contentStyleType="text/css" enable-background="new 0 0 3.199 2" height="2px" id="Ebene_1" preserveAspectRatio="xMidYMid meet" version="1.1" viewBox="0 0 3.199 2" width="3.199px" x="0px" xml:space="preserve" xmlns="http://www.w3.org/2000/svg" xmlns:xlink="http://www.w3.org/1999/xlink" y="0px" zoomAndPan="magnify"> 
    <style type="text/css">@import url(&quot;/themes/vrsz/images/geoposlib/geopos_symb.css&quot;);</style> 
    <g>  
        <g>   
            <rect class="static_symb_mast_static_fill" height="1.39" id="mast_418_fill" width="1.332" x="1.867" y="0.305"></rect>   
            <rect class="static_symb_mast_stroke" height="1.39" width="1.332" x="1.867" y="0.305"></rect>  </g>  
        <g>   
            <path class="static_symb_mast_static_strokeW" d="M2.581,1.045h0.295v0.168h0.08V0.797h-0.08v0.156H2.577C2.557,0.846,2.466,0.762,2.348,0.762                  c-0.133,0-0.237,0.105-0.237,0.24c0,0.133,0.104,0.236,0.237,0.236C2.47,1.242,2.559,1.154,2.581,1.045z"></path>   
            <path class="static_symb_mast_fill_default" d="M2.581,1.045h0.295v0.168h0.08V0.797h-0.08v0.156H2.577C2.557,0.846,2.466,0.762,2.348,0.762                  c-0.133,0-0.237,0.105-0.237,0.24c0,0.133,0.104,0.236,0.237,0.236C2.47,1.242,2.559,1.154,2.581,1.045z"></path>  </g>  
        <g> 
            <text class="static_symb_det_txtbox_txt_stroke" id="textfeld" text-anchor="end" x="1" y="1.5">x</text> 
            <text class="static_symb_mast_txtbox_txt" id="textfeld" text-anchor="end" x="1" y="1.5">x</text>  </g> </g> 
    <circle cx="2.533" cy="1" display="none" fill="#FF0000" id="symbolcenter" r="0.2" visibility="hidden"></circle> </svg>
