<?xml version="1.0" standalone="no"?><!DOCTYPE svg PUBLIC "-//W3C//DTD SVG 1.1//EN" "http://www.w3.org/Graphics/SVG/1.1/DTD/svg11.dtd">
<?xml-stylesheet href="http://plr2-dev/themes/vrsz/images/geoposlib/geopos_symb.css" type="text/css"?>
<svg baseProfile="full" contentScriptType="text/ecmascript" contentStyleType="text/css" enable-background="new 0 0 2 3.199" height="3.199px" id="Ebene_1" preserveAspectRatio="xMidYMid meet" version="1.1" viewBox="0 0 2 3.199" width="2px" x="0px" xml:space="preserve" xmlns="http://www.w3.org/2000/svg" xmlns:xlink="http://www.w3.org/1999/xlink" y="0px" zoomAndPan="magnify"> 
    <style type="text/css">@import url(&quot;/themes/vrsz/images/geoposlib/geopos_symb.css&quot;);</style> 
    <g>  
        <g>   
            <rect class="static_symb_mast_static_fill" height="1.392" id="mast_418_fill" width="1.332" x="0.334" y="1.808"></rect>   
            <rect class="static_symb_mast_stroke" height="1.392" width="1.332" x="0.334" y="1.808"></rect>  </g>  
        <g>   
            <path class="static_symb_mast_static_strokeW" d="M0.952,2.459H0.657V2.291h-0.08v0.415h0.08V2.549h0.299C0.976,2.656,1.067,2.74,1.185,2.74                  c0.133,0,0.238-0.105,0.238-0.239S1.318,2.266,1.185,2.266C1.063,2.261,0.974,2.35,0.952,2.459z"></path>   
            <path class="static_symb_mast_fill_default" d="M0.952,2.459H0.657V2.291h-0.08v0.415h0.08V2.549h0.299C0.976,2.656,1.067,2.74,1.185,2.74                  c0.133,0,0.238-0.105,0.238-0.239S1.318,2.266,1.185,2.266C1.063,2.261,0.974,2.35,0.952,2.459z"></path>  </g>  
        <g> 
            <text class="static_symb_det_txtbox_txt_stroke" id="textfeld" text-anchor="middle" x="1" y="1">x</text> 
            <text class="static_symb_mast_txtbox_txt" id="textfeld" text-anchor="middle" x="1" y="1">x</text>  </g> </g> 
    <circle cx="1" cy="2.503" display="none" fill="#FF0000" id="symbolcenter" r="0.2" visibility="hidden"></circle> </svg>
