<?xml version="1.0" standalone="no"?><!DOCTYPE svg PUBLIC "-//W3C//DTD SVG 1.1//EN" "http://www.w3.org/Graphics/SVG/1.1/DTD/svg11.dtd">
<?xml-stylesheet href="http://plr2-dev/themes/vrsz/images/geoposlib/geopos_symb.css" type="text/css"?>
<svg baseProfile="full" contentScriptType="text/ecmascript" contentStyleType="text/css" enable-background="new 0 0 2 3.199" height="3.199px" id="Ebene_1" preserveAspectRatio="xMidYMid meet" version="1.1" viewBox="0 0 2 3.199" width="2px" x="0px" xml:space="preserve" xmlns="http://www.w3.org/2000/svg" xmlns:xlink="http://www.w3.org/1999/xlink" y="0px" zoomAndPan="magnify"> 
    <style type="text/css">@import url(&quot;/themes/vrsz/images/geoposlib/geopos_symb.css&quot;);</style> 
    <g>  
        <g>   
            <rect class="static_symb_mast_fill_default" height="1.392" id="mast_418_fill" width="1.332" x="0.334"></rect>   
            <rect class="static_symb_mast_stroke" height="1.392" width="1.332" x="0.334"></rect>  </g>  
        <g>   
            <path class="static_symb_mast_stroke" d="M1.047,0.738h0.295v0.168h0.08V0.491h-0.08v0.157H1.043C1.024,0.541,0.932,0.457,0.815,0.457                  c-0.133,0-0.238,0.106-0.238,0.24c0,0.133,0.105,0.236,0.238,0.236C0.936,0.937,1.026,0.848,1.047,0.738z"></path>   
            <path class="static_symb_mast_static_fill" d="M1.047,0.738h0.295v0.168h0.08V0.491h-0.08v0.157H1.043C1.024,0.541,0.932,0.457,0.815,0.457                  c-0.133,0-0.238,0.106-0.238,0.24c0,0.133,0.105,0.236,0.238,0.236C0.936,0.937,1.026,0.848,1.047,0.738z"></path>  </g>  
        <g> 
            <text class="static_symb_det_txtbox_txt_stroke" id="textfeld" text-anchor="middle" x="1" y="2.9">x</text> 
            <text class="static_symb_mast_txtbox_txt" id="textfeld" text-anchor="middle" x="1" y="2.9">x</text>  </g> </g> 
    <circle cx="1" cy="0.695" display="none" fill="#FF0000" id="symbolcenter" r="0.2" visibility="hidden"></circle> </svg>
